<?xml version="1.0" encoding="us-ascii" standalone="no"?><svg xmlns="http://www.w3.org/2000/svg" xmlns:xlink="http://www.w3.org/1999/xlink" contentStyleType="text/css" height="900px" preserveAspectRatio="none" style="width:1400px;height:900px;background:#FFFFFF;" version="1.1" viewBox="0 0 1400 900" width="1400px" zoomAndPan="magnify"><defs/><g><!--cluster e4f00638b8a10e6994e67af2f832d51c--><g id="cluster_e4f00638b8a10e6994e67af2f832d51c"><polygon fill="none" points="16,240.48,26,230.48,375,230.48,375,774.56,365,784.56,16,784.56,16,240.48" style="stroke:#181818;stroke-width:1.0;"/><line style="stroke:#181818;stroke-width:1.0;" x1="365" x2="375" y1="240.48" y2="230.48"/><line style="stroke:#181818;stroke-width:1.0;" x1="16" x2="365" y1="240.48" y2="240.48"/><line style="stroke:#181818;stroke-width:1.0;" x1="365" x2="365" y1="240.48" y2="784.56"/><text fill="#000000" font-family="sans-serif" font-size="14" font-weight="bold" lengthAdjust="spacing" textLength="96" x="143.5" y="256.4751">Prometheus</text></g><!--cluster d9c0e52dd15274d51041b489c7cea0ad--><g id="cluster_d9c0e52dd15274d51041b489c7cea0ad"><polygon fill="none" points="566,224.19,576,214.19,1067,214.19,1067,774.56,1057,784.56,566,784.56,566,224.19" style="stroke:#181818;stroke-width:1.0;"/><line style="stroke:#181818;stroke-width:1.0;" x1="1057" x2="1067" y1="224.19" y2="214.19"/><line style="stroke:#181818;stroke-width:1.0;" x1="566" x2="1057" y1="224.19" y2="224.19"/><line style="stroke:#181818;stroke-width:1.0;" x1="1057" x2="1057" y1="224.19" y2="784.56"/><text fill="#000000" font-family="sans-serif" font-size="14" font-weight="bold" lengthAdjust="spacing" textLength="62" x="781.5" y="240.1851">Grafana</text></g><!--cluster 587516af1efac0b9293f31639c6c31f3--><g id="cluster_587516af1efac0b9293f31639c6c31f3"><polygon fill="none" points="1141,16,1151,6,1383,6,1383,147.19,1373,157.19,1141,157.19,1141,16" style="stroke:#181818;stroke-width:1.0;"/><line style="stroke:#181818;stroke-width:1.0;" x1="1373" x2="1383" y1="16" y2="6"/><line style="stroke:#181818;stroke-width:1.0;" x1="1141" x2="1373" y1="16" y2="16"/><line style="stroke:#181818;stroke-width:1.0;" x1="1373" x2="1373" y1="16" y2="157.19"/><text fill="#000000" font-family="sans-serif" font-size="14" font-weight="bold" lengthAdjust="spacing" textLength="65" x="1225.5" y="31.9951">Datadog</text></g><!--entity b0b6236e8ab49920c48d10f339f1a86a--><g id="elem_b0b6236e8ab49920c48d10f339f1a86a"><rect fill="#F1F1F1" height="111.4844" rx="2.5" ry="2.5" style="stroke:#181818;stroke-width:0.5;" width="217" x="114.5" y="278.48"/><rect fill="#F1F1F1" height="10" style="stroke:#181818;stroke-width:0.5;" width="15" x="311.5" y="283.48"/><rect fill="#F1F1F1" height="2" style="stroke:#181818;stroke-width:0.5;" width="4" x="309.5" y="285.48"/><rect fill="#F1F1F1" height="2" style="stroke:#181818;stroke-width:0.5;" width="4" x="309.5" y="289.48"/><text fill="#000000" font-family="sans-serif" font-size="14" font-weight="bold" lengthAdjust="spacing" textLength="96" x="129.5" y="311.4751">prometheus</text><text fill="#000000" font-family="sans-serif" font-size="14" lengthAdjust="spacing" textLength="4" x="129.5" y="327.772">&#160;</text><text fill="#000000" font-family="sans-serif" font-size="14" lengthAdjust="spacing" textLength="177" x="129.5" y="344.0689">image: prom/prometheus</text><text fill="#000000" font-family="sans-serif" font-size="14" lengthAdjust="spacing" textLength="163" x="129.5" y="360.3657">restart: unless-stopped</text><text fill="#000000" font-family="sans-serif" font-size="14" lengthAdjust="spacing" textLength="4" x="129.5" y="376.6626">&#160;</text></g><!--entity cfd4d43463526be4db6bd372951d8018--><g id="elem_cfd4d43463526be4db6bd372951d8018"><ellipse cx="308" cy="496.27" fill="#F1F1F1" rx="8" ry="8" style="stroke:#181818;stroke-width:0.5;"/><text fill="#000000" font-family="sans-serif" font-size="14" lengthAdjust="spacing" textLength="36" x="290" y="526.2651">9090</text></g><!--entity b8365f95fd8d51fff10d734d11af5400--><g id="elem_b8365f95fd8d51fff10d734d11af5400"><rect fill="#F1F1F1" height="39.2969" rx="2.5" ry="2.5" style="stroke:#181818;stroke-width:0.5;" width="147" x="195.5" y="721.27"/><polygon fill="#F1F1F1" points="325.5,726.27,325.5,740.27,337.5,740.27,337.5,732.27,331.5,726.27,325.5,726.27" style="stroke:#181818;stroke-width:0.5;"/><line style="stroke:#181818;stroke-width:0.5;" x1="331.5" x2="331.5" y1="726.27" y2="732.27"/><line style="stroke:#181818;stroke-width:0.5;" x1="337.5" x2="331.5" y1="732.27" y2="732.27"/><text fill="#000000" font-family="sans-serif" font-size="14" lengthAdjust="spacing" textLength="117" x="205.5" y="747.2651">/etc/prometheus</text></g><!--entity 66ea46159f158592d153eec2b58bfad1--><g id="elem_66ea46159f158592d153eec2b58bfad1"><rect fill="#F1F1F1" height="39.2969" rx="2.5" ry="2.5" style="stroke:#181818;stroke-width:0.5;" width="120" x="40" y="721.27"/><polygon fill="#F1F1F1" points="143,726.27,143,740.27,155,740.27,155,732.27,149,726.27,143,726.27" style="stroke:#181818;stroke-width:0.5;"/><line style="stroke:#181818;stroke-width:0.5;" x1="149" x2="149" y1="726.27" y2="732.27"/><line style="stroke:#181818;stroke-width:0.5;" x1="155" x2="149" y1="732.27" y2="732.27"/><text fill="#000000" font-family="sans-serif" font-size="14" lengthAdjust="spacing" textLength="90" x="50" y="747.2651">/prometheus</text></g><!--entity ca625ae68e4d4a58f9ba859ff3420557--><g id="elem_ca625ae68e4d4a58f9ba859ff3420557"><rect fill="#F1F1F1" height="144.0781" rx="2.5" ry="2.5" style="stroke:#181818;stroke-width:0.5;" width="434" x="590" y="262.19"/><rect fill="#F1F1F1" height="10" style="stroke:#181818;stroke-width:0.5;" width="15" x="1004" y="267.19"/><rect fill="#F1F1F1" height="2" style="stroke:#181818;stroke-width:0.5;" width="4" x="1002" y="269.19"/><rect fill="#F1F1F1" height="2" style="stroke:#181818;stroke-width:0.5;" width="4" x="1002" y="273.19"/><text fill="#000000" font-family="sans-serif" font-size="14" font-weight="bold" lengthAdjust="spacing" textLength="60" x="605" y="295.1851">grafana</text><text fill="#000000" font-family="sans-serif" font-size="14" lengthAdjust="spacing" textLength="4" x="605" y="311.482">&#160;</text><text fill="#000000" font-family="sans-serif" font-size="14" lengthAdjust="spacing" textLength="158" x="605" y="327.7789">image: grafana/grafana</text><text fill="#000000" font-family="sans-serif" font-size="14" lengthAdjust="spacing" textLength="163" x="605" y="344.0757">restart: unless-stopped</text><text fill="#000000" font-family="sans-serif" font-size="14" lengthAdjust="spacing" textLength="342" x="605" y="360.3726">environment: GF_SECURITY_ADMIN_USER=admin</text><text fill="#000000" font-family="sans-serif" font-size="14" lengthAdjust="spacing" textLength="394" x="605" y="376.6695">environment: GF_SECURITY_ADMIN_PASSWORD=grafana</text><text fill="#000000" font-family="sans-serif" font-size="14" lengthAdjust="spacing" textLength="4" x="605" y="392.9664">&#160;</text></g><!--entity 9f18a5ea59196197837bdbfebede13e8--><g id="elem_9f18a5ea59196197837bdbfebede13e8"><ellipse cx="934" cy="496.27" fill="#F1F1F1" rx="8" ry="8" style="stroke:#181818;stroke-width:0.5;"/><text fill="#000000" font-family="sans-serif" font-size="14" lengthAdjust="spacing" textLength="107" x="880.5" y="526.2651">127.0.0.1:8080</text></g><!--entity e5b1c7fcc1453c77b2f0388027659c6e--><g id="elem_e5b1c7fcc1453c77b2f0388027659c6e"><ellipse cx="681" cy="496.27" fill="#F1F1F1" rx="8" ry="8" style="stroke:#181818;stroke-width:0.5;"/><text fill="#000000" font-family="sans-serif" font-size="14" lengthAdjust="spacing" textLength="148" x="607" y="526.2651">127.0.0.1:8000-9000</text></g><!--entity de82fbad4c9eebe0bd6d2fe66a3fe0aa--><g id="elem_de82fbad4c9eebe0bd6d2fe66a3fe0aa"><rect fill="#F1F1F1" height="39.2969" rx="2.5" ry="2.5" style="stroke:#181818;stroke-width:0.5;" width="292" x="661" y="721.27"/><polygon fill="#F1F1F1" points="936,726.27,936,740.27,948,740.27,948,732.27,942,726.27,936,726.27" style="stroke:#181818;stroke-width:0.5;"/><line style="stroke:#181818;stroke-width:0.5;" x1="942" x2="942" y1="726.27" y2="732.27"/><line style="stroke:#181818;stroke-width:0.5;" x1="948" x2="942" y1="732.27" y2="732.27"/><text fill="#000000" font-family="sans-serif" font-size="14" lengthAdjust="spacing" textLength="262" x="671" y="747.2651">/etc/grafana/provisioning/datasources</text></g><!--entity cfb8a5b7ebe0f6a517a5ae436a93d5d8--><g id="elem_cfb8a5b7ebe0f6a517a5ae436a93d5d8"><rect fill="#F1F1F1" height="95.1875" rx="2.5" ry="2.5" style="stroke:#181818;stroke-width:0.5;" width="210" x="1157" y="46"/><rect fill="#F1F1F1" height="10" style="stroke:#181818;stroke-width:0.5;" width="15" x="1347" y="51"/><rect fill="#F1F1F1" height="2" style="stroke:#181818;stroke-width:0.5;" width="4" x="1345" y="53"/><rect fill="#F1F1F1" height="2" style="stroke:#181818;stroke-width:0.5;" width="4" x="1345" y="57"/><text fill="#000000" font-family="sans-serif" font-size="14" font-weight="bold" lengthAdjust="spacing" textLength="64" x="1172" y="78.9951">datadog</text><text fill="#000000" font-family="sans-serif" font-size="14" lengthAdjust="spacing" textLength="4" x="1172" y="95.292">&#160;</text><text fill="#000000" font-family="sans-serif" font-size="14" lengthAdjust="spacing" textLength="170" x="1172" y="111.5889">image: datadog/datadog</text><text fill="#000000" font-family="sans-serif" font-size="14" lengthAdjust="spacing" textLength="4" x="1172" y="127.8857">&#160;</text></g><!--entity d9fe74bd71c5f1efd83d8f6cfdd7bef5--><g id="elem_d9fe74bd71c5f1efd83d8f6cfdd7bef5"><polygon fill="#F1F1F1" points="996.5,72.3,1006.5,62.3,1121.5,62.3,1121.5,114.8938,1111.5,124.8938,996.5,124.8938,996.5,72.3" style="stroke:#181818;stroke-width:0.5;"/><line style="stroke:#181818;stroke-width:0.5;" x1="1111.5" x2="1121.5" y1="72.3" y2="62.3"/><line style="stroke:#181818;stroke-width:0.5;" x1="996.5" x2="1111.5" y1="72.3" y2="72.3"/><line style="stroke:#181818;stroke-width:0.5;" x1="1111.5" x2="1111.5" y1="72.3" y2="124.8938"/><text fill="#000000" font-family="sans-serif" font-size="14" font-weight="bold" lengthAdjust="spacing" textLength="85" x="1011.5" y="95.2951">FRONT-tier</text><text fill="#000000" font-family="sans-serif" font-size="14" lengthAdjust="spacing" textLength="74" x="1011.5" y="111.592">&#171;network&#187;</text></g><!--entity cab64c5af73a02ce213c72c614ccdc8f--><g id="elem_cab64c5af73a02ce213c72c614ccdc8f"><polygon fill="#F1F1F1" points="552,72.3,562,62.3,666,62.3,666,114.8938,656,124.8938,552,124.8938,552,72.3" style="stroke:#181818;stroke-width:0.5;"/><line style="stroke:#181818;stroke-width:0.5;" x1="656" x2="666" y1="72.3" y2="62.3"/><line style="stroke:#181818;stroke-width:0.5;" x1="552" x2="656" y1="72.3" y2="72.3"/><line style="stroke:#181818;stroke-width:0.5;" x1="656" x2="656" y1="72.3" y2="124.8938"/><text fill="#000000" font-family="sans-serif" font-size="14" font-weight="bold" lengthAdjust="spacing" textLength="70" x="567" y="95.2951">back-tier</text><text fill="#000000" font-family="sans-serif" font-size="14" lengthAdjust="spacing" textLength="74" x="567" y="111.592">&#171;network&#187;</text></g><!--entity 21232f297a57a5a743894a0e4a801fc3--><g id="elem_21232f297a57a5a743894a0e4a801fc3"><polygon fill="#F1F1F1" points="356,72.3,366,62.3,470,62.3,470,114.8938,460,124.8938,356,124.8938,356,72.3" style="stroke:#181818;stroke-width:0.5;"/><line style="stroke:#181818;stroke-width:0.5;" x1="460" x2="470" y1="72.3" y2="62.3"/><line style="stroke:#181818;stroke-width:0.5;" x1="356" x2="460" y1="72.3" y2="72.3"/><line style="stroke:#181818;stroke-width:0.5;" x1="460" x2="460" y1="72.3" y2="124.8938"/><text fill="#000000" font-family="sans-serif" font-size="14" font-weight="bold" lengthAdjust="spacing" textLength="47" x="371" y="95.2951">admin</text><text fill="#000000" font-family="sans-serif" font-size="14" lengthAdjust="spacing" textLength="74" x="371" y="111.592">&#171;network&#187;</text></g><!--entity 5e543256c480ac577d30f76f9120eb74--><g id="elem_5e543256c480ac577d30f76f9120eb74"><polygon fill="#F1F1F1" points="201,72.3,211,62.3,321,62.3,321,114.8938,311,124.8938,201,124.8938,201,72.3" style="stroke:#181818;stroke-width:0.5;"/><line style="stroke:#181818;stroke-width:0.5;" x1="311" x2="321" y1="72.3" y2="62.3"/><line style="stroke:#181818;stroke-width:0.5;" x1="201" x2="311" y1="72.3" y2="72.3"/><line style="stroke:#181818;stroke-width:0.5;" x1="311" x2="311" y1="72.3" y2="124.8938"/><text fill="#000000" font-family="sans-serif" font-size="14" font-weight="bold" lengthAdjust="spacing" textLength="80" x="216" y="95.2951">undefined</text><text fill="#000000" font-family="sans-serif" font-size="14" lengthAdjust="spacing" textLength="74" x="216" y="111.592">&#171;network&#187;</text></g><!--entity 267de027b65a807d2138ee534426efa5--><g id="elem_267de027b65a807d2138ee534426efa5"><ellipse cx="426" cy="631.27" fill="#F1F1F1" rx="8" ry="8" style="stroke:#181818;stroke-width:0.5;"/><text fill="#000000" font-family="sans-serif" font-size="14" lengthAdjust="spacing" textLength="36" x="408" y="661.2651">9090</text></g><!--entity dba3f4d0bb5aa6fcfa18da2c1f7a9775--><g id="elem_dba3f4d0bb5aa6fcfa18da2c1f7a9775"><ellipse cx="1118" cy="631.27" fill="#F1F1F1" rx="8" ry="8" style="stroke:#181818;stroke-width:0.5;"/><text fill="#000000" font-family="sans-serif" font-size="14" lengthAdjust="spacing" textLength="18" x="1109" y="661.2651">80</text></g><!--entity 1624c420083928ef3e240dd88f2e52f0--><g id="elem_1624c420083928ef3e240dd88f2e52f0"><ellipse cx="515" cy="631.27" fill="#F1F1F1" rx="8" ry="8" style="stroke:#181818;stroke-width:0.5;"/><text fill="#000000" font-family="sans-serif" font-size="14" lengthAdjust="spacing" textLength="36" x="497" y="661.2651">8000</text></g><!--entity 2a4ddbecb762532586835d0f37d85eaf--><g id="elem_2a4ddbecb762532586835d0f37d85eaf"><rect fill="#F1F1F1" height="39.2969" rx="2.5" ry="2.5" style="stroke:#181818;stroke-width:0.5;" width="124" x="207" y="855.56"/><polygon fill="#F1F1F1" points="314,860.56,314,874.56,326,874.56,326,866.56,320,860.56,314,860.56" style="stroke:#181818;stroke-width:0.5;"/><line style="stroke:#181818;stroke-width:0.5;" x1="320" x2="320" y1="860.56" y2="866.56"/><line style="stroke:#181818;stroke-width:0.5;" x1="326" x2="320" y1="866.56" y2="866.56"/><text fill="#000000" font-family="sans-serif" font-size="14" lengthAdjust="spacing" textLength="94" x="217" y="881.5551">./prometheus</text></g><!--entity a1448c8b5db83ada398e734ef1d3277c--><g id="elem_a1448c8b5db83ada398e734ef1d3277c"><rect fill="#F1F1F1" height="39.2969" rx="2.5" ry="2.5" style="stroke:#181818;stroke-width:0.5;" width="103" x="48.5" y="855.56"/><polygon fill="#F1F1F1" points="134.5,860.56,134.5,874.56,146.5,874.56,146.5,866.56,140.5,860.56,134.5,860.56" style="stroke:#181818;stroke-width:0.5;"/><line style="stroke:#181818;stroke-width:0.5;" x1="140.5" x2="140.5" y1="860.56" y2="866.56"/><line style="stroke:#181818;stroke-width:0.5;" x1="146.5" x2="140.5" y1="866.56" y2="866.56"/><text fill="#000000" font-family="sans-serif" font-size="14" lengthAdjust="spacing" textLength="73" x="58.5" y="881.5551">prom_data</text></g><!--entity eec695b1c6be435e7982afe506db7e49--><g id="elem_eec695b1c6be435e7982afe506db7e49"><rect fill="#F1F1F1" height="39.2969" rx="2.5" ry="2.5" style="stroke:#181818;stroke-width:0.5;" width="90" x="762" y="855.56"/><polygon fill="#F1F1F1" points="835,860.56,835,874.56,847,874.56,847,866.56,841,860.56,835,860.56" style="stroke:#181818;stroke-width:0.5;"/><line style="stroke:#181818;stroke-width:0.5;" x1="841" x2="841" y1="860.56" y2="866.56"/><line style="stroke:#181818;stroke-width:0.5;" x1="847" x2="841" y1="866.56" y2="866.56"/><text fill="#000000" font-family="sans-serif" font-size="14" lengthAdjust="spacing" textLength="60" x="772" y="881.5551">./grafana</text></g><!--link b0b6236e8ab49920c48d10f339f1a86a to cfd4d43463526be4db6bd372951d8018--><g id="link_b0b6236e8ab49920c48d10f339f1a86a_cfd4d43463526be4db6bd372951d8018"><path codeLine="46" d="M252.25,390.3 C271.37,426.29 294.45,469.75 303.78,487.32 " fill="none" id="b0b6236e8ab49920c48d10f339f1a86a-cfd4d43463526be4db6bd372951d8018" style="stroke:#181818;stroke-width:1.0;"/></g><!--link cfd4d43463526be4db6bd372951d8018 to 267de027b65a807d2138ee534426efa5--><g id="link_cfd4d43463526be4db6bd372951d8018_267de027b65a807d2138ee534426efa5"><path codeLine="47" d="M315.03,505.19 C336.07,528.9 398.36,599.12 419.16,622.55 " fill="none" id="cfd4d43463526be4db6bd372951d8018-267de027b65a807d2138ee534426efa5" style="stroke:#181818;stroke-width:1.0;"/></g><!--link b8365f95fd8d51fff10d734d11af5400 to 2a4ddbecb762532586835d0f37d85eaf--><g id="link_b8365f95fd8d51fff10d734d11af5400_2a4ddbecb762532586835d0f37d85eaf"><path codeLine="48" d="M269,760.87 C269,786.02 269,830.16 269,855.29 " fill="none" id="b8365f95fd8d51fff10d734d11af5400-2a4ddbecb762532586835d0f37d85eaf" style="stroke:#181818;stroke-width:1.0;"/><text fill="#000000" font-family="sans-serif" font-size="13" lengthAdjust="spacing" textLength="13" x="270" y="821.6269">ro</text></g><!--link b0b6236e8ab49920c48d10f339f1a86a to b8365f95fd8d51fff10d734d11af5400--><g id="link_b0b6236e8ab49920c48d10f339f1a86a_b8365f95fd8d51fff10d734d11af5400"><path codeLine="49" d="M229.25,390.23 C239.69,482.07 259.5127,656.4284 266.1727,715.0484 " fill="none" id="b0b6236e8ab49920c48d10f339f1a86a-to-b8365f95fd8d51fff10d734d11af5400" style="stroke:#181818;stroke-width:1.0;stroke-dasharray:7.0,7.0;"/><polygon fill="#181818" points="266.85,721.01,269.8084,711.616,266.2856,716.042,261.8596,712.5191,266.85,721.01" style="stroke:#181818;stroke-width:1.0;"/><text fill="#000000" font-family="sans-serif" font-size="13" lengthAdjust="spacing" textLength="23" x="251" y="568.3369">use</text></g><!--link 66ea46159f158592d153eec2b58bfad1 to a1448c8b5db83ada398e734ef1d3277c--><g id="link_66ea46159f158592d153eec2b58bfad1_a1448c8b5db83ada398e734ef1d3277c"><path codeLine="50" d="M100,760.87 C100,786.02 100,830.16 100,855.29 " fill="none" id="66ea46159f158592d153eec2b58bfad1-a1448c8b5db83ada398e734ef1d3277c" style="stroke:#181818;stroke-width:1.0;"/><text fill="#000000" font-family="sans-serif" font-size="13" lengthAdjust="spacing" textLength="14" x="101" y="821.6269">rw</text></g><!--link b0b6236e8ab49920c48d10f339f1a86a to 66ea46159f158592d153eec2b58bfad1--><g id="link_b0b6236e8ab49920c48d10f339f1a86a_66ea46159f158592d153eec2b58bfad1"><path codeLine="51" d="M206.28,390.23 C178.37,482.07 125.3042,656.6491 107.4942,715.2691 " fill="none" id="b0b6236e8ab49920c48d10f339f1a86a-to-66ea46159f158592d153eec2b58bfad1" style="stroke:#181818;stroke-width:1.0;stroke-dasharray:7.0,7.0;"/><polygon fill="#181818" points="105.75,721.01,112.1936,713.5615,107.2035,716.2259,104.539,711.2359,105.75,721.01" style="stroke:#181818;stroke-width:1.0;"/><text fill="#000000" font-family="sans-serif" font-size="13" lengthAdjust="spacing" textLength="23" x="157" y="568.3369">use</text></g><!--reverse link cab64c5af73a02ce213c72c614ccdc8f to e4f00638b8a10e6994e67af2f832d51c--><g id="link_cab64c5af73a02ce213c72c614ccdc8f_e4f00638b8a10e6994e67af2f832d51c"><path codeLine="52" d="M573.5879,129.513 C541.4179,161.238 494.1075,207.89 450.015,251.3687 C427.9688,273.1081 407.795,293.0009 392.8566,307.7314 C389.122,311.414 385.7146,314.774 382.6869,317.7595 C381.1731,319.2523 379.7542,320.6514 378.4368,321.9505 C377.7781,322.6 377.1448,323.2245 376.5377,323.8232 C376.2341,324.1225 375.9371,324.4154 375.6468,324.7017 C375.5016,324.8449 375.3581,324.9864 375.2162,325.1262 " fill="none" id="cab64c5af73a02ce213c72c614ccdc8f-backto-e4f00638b8a10e6994e67af2f832d51c" style="stroke:#181818;stroke-width:1.0;"/><polygon fill="#181818" points="577.86,125.3,568.6432,128.7714,574.2999,128.8108,574.2605,134.4675,577.86,125.3" style="stroke:#181818;stroke-width:1.0;"/><text fill="#000000" font-family="sans-serif" font-size="13" lengthAdjust="spacing" textLength="109" x="524" y="186.2569">alias:['database']</text></g><!--reverse link 21232f297a57a5a743894a0e4a801fc3 to e4f00638b8a10e6994e67af2f832d51c--><g id="link_21232f297a57a5a743894a0e4a801fc3_e4f00638b8a10e6994e67af2f832d51c"><path codeLine="53" d="M405.9444,131.1916 C399.8294,162.9166 391.16,207.89 382.7788,251.3687 C380.6834,262.2384 378.6771,272.6465 376.8397,282.1784 C376.3803,284.5614 375.9315,286.8896 375.4945,289.1566 C375.3853,289.7234 375.2767,290.2863 375.169,290.8453 C375.1151,291.1248 375.0614,291.4033 375.0079,291.6808 " fill="none" id="21232f297a57a5a743894a0e4a801fc3-backto-e4f00638b8a10e6994e67af2f832d51c" style="stroke:#181818;stroke-width:1.0;"/><polygon fill="#181818" points="407.08,125.3,401.4489,133.3803,406.1337,130.2096,409.3043,134.8944,407.08,125.3" style="stroke:#181818;stroke-width:1.0;"/><text fill="#000000" font-family="sans-serif" font-size="13" lengthAdjust="spacing" textLength="87" x="398" y="186.2569">alias:['mysql']</text></g><!--reverse link 5e543256c480ac577d30f76f9120eb74 to e4f00638b8a10e6994e67af2f832d51c--><g id="link_5e543256c480ac577d30f76f9120eb74_e4f00638b8a10e6994e67af2f832d51c"><path codeLine="54" d="M258.776,130.9897 C258.976,152.4197 263.11,174.07 281,190.19 C293.94,201.85 346.95,185.61 359,198.19 C379.47,219.56 381.7275,252.6075 378.7413,280.66 C377.9947,287.6731 376.9204,294.3741 375.721,300.5023 C375.5711,301.2683 375.4192,302.0254 375.2658,302.773 C375.189,303.1469 375.1119,303.5183 375.0345,303.8873 " fill="none" id="5e543256c480ac577d30f76f9120eb74-backto-e4f00638b8a10e6994e67af2f832d51c" style="stroke:#181818;stroke-width:1.0;"/><polygon fill="#181818" points="258.72,124.99,254.8042,134.0269,258.7667,129.9898,262.8038,133.9523,258.72,124.99" style="stroke:#181818;stroke-width:1.0;"/><text fill="#000000" font-family="sans-serif" font-size="13" lengthAdjust="spacing" textLength="105" x="282" y="186.2569">alias:['unknown']</text></g><!--link ca625ae68e4d4a58f9ba859ff3420557 to 9f18a5ea59196197837bdbfebede13e8--><g id="link_ca625ae68e4d4a58f9ba859ff3420557_9f18a5ea59196197837bdbfebede13e8"><path codeLine="55" d="M863.44,406.35 C888.88,438.41 915.85,472.4 927.75,487.38 " fill="none" id="ca625ae68e4d4a58f9ba859ff3420557-9f18a5ea59196197837bdbfebede13e8" style="stroke:#181818;stroke-width:1.0;"/></g><!--link 9f18a5ea59196197837bdbfebede13e8 to dba3f4d0bb5aa6fcfa18da2c1f7a9775--><g id="link_9f18a5ea59196197837bdbfebede13e8_dba3f4d0bb5aa6fcfa18da2c1f7a9775"><path codeLine="56" d="M942.87,503.68 C974.03,526.2 1078.2,601.5 1109.21,623.92 " fill="none" id="9f18a5ea59196197837bdbfebede13e8-dba3f4d0bb5aa6fcfa18da2c1f7a9775" style="stroke:#181818;stroke-width:1.0;"/><text fill="#000000" font-family="sans-serif" font-size="13" lengthAdjust="spacing" textLength="20" x="1038" y="568.3369">tcp</text></g><!--link ca625ae68e4d4a58f9ba859ff3420557 to e5b1c7fcc1453c77b2f0388027659c6e--><g id="link_ca625ae68e4d4a58f9ba859ff3420557_e5b1c7fcc1453c77b2f0388027659c6e"><path codeLine="57" d="M751,406.35 C725.76,438.41 699.01,472.4 687.21,487.38 " fill="none" id="ca625ae68e4d4a58f9ba859ff3420557-e5b1c7fcc1453c77b2f0388027659c6e" style="stroke:#181818;stroke-width:1.0;"/></g><!--link e5b1c7fcc1453c77b2f0388027659c6e to 1624c420083928ef3e240dd88f2e52f0--><g id="link_e5b1c7fcc1453c77b2f0388027659c6e_1624c420083928ef3e240dd88f2e52f0"><path codeLine="58" d="M672.08,504.42 C643.25,527.51 552.85,599.94 523.97,623.08 " fill="none" id="e5b1c7fcc1453c77b2f0388027659c6e-1624c420083928ef3e240dd88f2e52f0" style="stroke:#181818;stroke-width:1.0;"/><text fill="#000000" font-family="sans-serif" font-size="13" lengthAdjust="spacing" textLength="20" x="608" y="568.3369">tcp</text></g><!--link de82fbad4c9eebe0bd6d2fe66a3fe0aa to eec695b1c6be435e7982afe506db7e49--><g id="link_de82fbad4c9eebe0bd6d2fe66a3fe0aa_eec695b1c6be435e7982afe506db7e49"><path codeLine="59" d="M807,760.87 C807,786.02 807,830.16 807,855.29 " fill="none" id="de82fbad4c9eebe0bd6d2fe66a3fe0aa-eec695b1c6be435e7982afe506db7e49" style="stroke:#181818;stroke-width:1.0;"/><text fill="#000000" font-family="sans-serif" font-size="13" lengthAdjust="spacing" textLength="13" x="808" y="821.6269">ro</text></g><!--link ca625ae68e4d4a58f9ba859ff3420557 to de82fbad4c9eebe0bd6d2fe66a3fe0aa--><g id="link_ca625ae68e4d4a58f9ba859ff3420557_de82fbad4c9eebe0bd6d2fe66a3fe0aa"><path codeLine="60" d="M807,406.65 C807,502.17 807,659.93 807,715.13 " fill="none" id="ca625ae68e4d4a58f9ba859ff3420557-to-de82fbad4c9eebe0bd6d2fe66a3fe0aa" style="stroke:#181818;stroke-width:1.0;stroke-dasharray:7.0,7.0;"/><polygon fill="#181818" points="807,721.13,811,712.13,807,716.13,803,712.13,807,721.13" style="stroke:#181818;stroke-width:1.0;"/><text fill="#000000" font-family="sans-serif" font-size="13" lengthAdjust="spacing" textLength="23" x="808" y="568.3369">use</text></g><!--reverse link d9fe74bd71c5f1efd83d8f6cfdd7bef5 to d9c0e52dd15274d51041b489c7cea0ad--><g id="link_d9fe74bd71c5f1efd83d8f6cfdd7bef5_d9c0e52dd15274d51041b489c7cea0ad"><path codeLine="61" d="M1059,131.3 C1059,147.1625 1059,161.81 1059,183.9267 C1059,189.4559 1059,195.0769 1059,200.7379 C1059,203.5684 1059,206.409 1059,209.253 C1059,210.675 1059,212.0979 1059,213.5209 " fill="none" id="d9fe74bd71c5f1efd83d8f6cfdd7bef5-backto-d9c0e52dd15274d51041b489c7cea0ad" style="stroke:#181818;stroke-width:1.0;"/><polygon fill="#181818" points="1059,125.3,1055,134.3,1059,130.3,1063,134.3,1059,125.3" style="stroke:#181818;stroke-width:1.0;"/><text fill="#000000" font-family="sans-serif" font-size="13" lengthAdjust="spacing" textLength="60" x="1060" y="186.2569">alias:['ui']</text></g><!--reverse link cab64c5af73a02ce213c72c614ccdc8f to d9c0e52dd15274d51041b489c7cea0ad--><g id="link_cab64c5af73a02ce213c72c614ccdc8f_d9c0e52dd15274d51041b489c7cea0ad"><path codeLine="62" d="M672.3644,105.777 C783.8144,125.917 1014.78,170.42 1040,198.19 C1042.5069,200.95 1044.7772,203.8815 1046.8306,206.953 C1047.8572,208.4888 1048.8297,210.0595 1049.7504,211.6613 C1050.2107,212.4622 1050.6581,213.2708 1051.0928,214.0868 " fill="none" id="cab64c5af73a02ce213c72c614ccdc8f-backto-d9c0e52dd15274d51041b489c7cea0ad" style="stroke:#181818;stroke-width:1.0;"/><polygon fill="#181818" points="666.46,104.71,674.6052,110.2467,671.3803,105.5991,676.0279,102.3742,666.46,104.71" style="stroke:#181818;stroke-width:1.0;"/></g><!--SRC=[ZLPPRnj737xVNx7GIre1akS-ZCH0q1p8GmxO2OeY3GpEa7G5MxkkZhX5aV_UsPNiocw2CIHeWH7vyVZ8RnQkhlgRvUAlHNVHT3rIEvbENvs-V_TnjbdGQZhzlNlwjAFDJR-wF3cPjB1kCJ9vaz3BR5aIOz0Os6L6z8dOti4ao9S_HCcGdCaMs6iGAfEIEdkLdJGvOmvyXmAuN7JVGr1IQSKgUh3b2zxe40q8CX24vApl4BOT4Yywmk-XMB96A-ko2GAozHwrOEyuIYKeURD7-R3gbxJvWxRhqOiC2-5qI06a81UZ8UU15GUjqChS_jEqkLzUznrrcpQ9v9Hs522P69KeiL0ArZgoXE2W_TnCfzTt4QRJfbaiuOAEs-7mwBz_cXMjDx3Q7BVRxehMwzbwqrzV4pRDb-Qddzj9557ikijeq6ZZj5KkaS7a4cglefLOkXEQ0h9Wo9jsSaIRV11YT4z1EylH5cvBDSmi1NfjK4fWQuGuT7_WwXo1STAMqcomKQ6qcYYhP4DYGDbystVqzGeOEjYFL1Pa5HPZvKq9AOnC9iJiCu40lD_E34vP81TANGPiu9YWX6BMHWbh_TZEYntyGI_t9qVxvmzxITtNnQhlbYNKSVlwrVdPory-dRxv-DlvynTltxmx_tJsylJPE9Grom_Fpyv-VN_wujbjn3rBKlcvA1zv74JOyLMw5S0Is2YZaz47xHCcfaH8KbFudvyGirX-TiDeayoUSvR6bYNoIR7G8GZbdOtPqKEoRnjHcFkwM2_whkp-4S86rlrsbMd78r9Gd01DZbJI40aTAYRdG3C9W3iUNnH7x2zsonIybGu6LO0iKbHHivPEbooobgmVyCXbVMpo0pmxi79OOpBQGTHeCOmyuWx-WCVzoT7-ENJrs_tfLyuZbVAJiqKBF1Pj2KHM6wDSoSoErllEOoe56HGfMG37cK4619KbUuZUtzhkMosTChbCcGWwga2iIHc160AhChzyk1ZpXvkXm20coicNyIsI4rpG5eiCU0o5UZxm7JpFX_f6Hv36X1oInRANWA1ZeBADn1AryZxV2tfni5PbxrmSXcEG06t9nw20oGg7fUicDbLXck6ihYKrWn6boabDStOebHwsn-rarK_gXStdE9-VL8LkmDkkQTBKP6tChaRKcDtDuxEh1htDhdeTpRQpa-gLEy31rGBMnv-V3CENO4rFlZmMlNOT7w8l_rx_UVLuwDeTVGYzxIwx_gORmAltnC1PLNbh1YDAJKM633Vv-f4vLGMzPZ2YrBJgBgUQrEzogcZ9xUPL2zpFTZNexMnNtmt64QczbDuRaSKm7O_3hUtClm00]--></g></svg>