<svg xmlns="http://www.w3.org/2000/svg" style="left: 0px; top: 0px; width: 100%; height: 100%; display: block; min-width: 754px; min-height: 503px;"><g><g/><g><g transform="translate(0.5,0.5)" style="visibility: visible;"><rect x="42.8" y="22" width="100" height="50" fill="#b5f5ff7f" stroke="#000000" pointer-events="all"/></g><g style=""><g fill="#774400" font-family="Arial,Helvetica" direction="" text-anchor="middle" font-size="11px"><rect fill="none" stroke="none" x="59" y="35" width="67" height="25" stroke-width="1" transform="translate(0.5, 0.5)"/><text x="92.8" y="45">Front-tier</text><text x="92.8" y="58">&lt;&lt;network&gt;&gt;</text></g></g><g transform="translate(0.5,0.5)" style="visibility: visible;"><rect x="142.8" y="22" width="100" height="50" fill="#b5f5ff7f" stroke="#000000" pointer-events="all"/></g><g style=""><g fill="#774400" font-family="Arial,Helvetica" direction="" text-anchor="middle" font-size="11px"><rect fill="none" stroke="none" x="159" y="35" width="67" height="25" stroke-width="1" transform="translate(0.5, 0.5)"/><text x="192.8" y="45">Back-tier</text><text x="192.8" y="58">&lt;&lt;network&gt;&gt;</text></g></g><g transform="translate(0.5,0.5)" style="visibility: visible; cursor: move;"><rect x="302.8" y="162" width="100" height="50" fill="#b5f5ff7f" stroke="#000000" pointer-events="all"/></g><g style="cursor: move;"><g fill="#774400" font-family="Arial,Helvetica" direction="" text-anchor="middle" font-size="11px"><rect fill="none" stroke="none" x="319" y="175" width="67" height="25" stroke-width="1" transform="translate(0.5, 0.5)"/><text x="352.8" y="185">Undefined</text><text x="352.8" y="198">&lt;&lt;network&gt;&gt;</text></g></g><g transform="translate(0.5,0.5)" style="visibility: visible; cursor: move;"><rect x="42.8" y="352" width="210" height="150" fill="#f1f1f17f" stroke="#000000" pointer-events="all"/></g><g style="cursor: move;"><g fill="#774400" font-family="Arial,Helvetica" direction="" text-anchor="middle" font-size="11px"><rect fill="none" stroke="none" x="117" y="359" width="62" height="12" stroke-width="1" transform="translate(0.5, 0.5)"/><text x="147.8" y="369">Prometheus</text></g></g><g transform="translate(0.5,0.5)" style="visibility: visible; cursor: move;"><rect x="47.8" y="377" width="200" height="100" fill="#f0fff07f" stroke="#000000" pointer-events="all"/></g><g style="cursor: move;"><g fill="#774400" font-family="Arial,Helvetica" direction="" text-anchor="middle" font-size="11px"><rect fill="none" stroke="none" x="9" y="389" width="277" height="64" stroke-width="1" transform="translate(0.5, 0.5)"/><text x="147.8" y="399">Prometheus</text><text x="147.8" y="425">image: prom/prometheus</text><text x="147.8" y="438">command: --config.file=/etc/prometheus/prometheus.yml</text><text x="147.8" y="451">restart: unless-stopped</text></g></g><g transform="translate(0.5,0.5)" style="visibility: visible;"><ellipse cx="62.8" cy="387" rx="10" ry="10" fill="#ffffd27f" stroke="#000000" pointer-events="all"/></g><g style=""><g fill="#774400" font-family="Arial,Helvetica" direction="" text-anchor="middle" font-size="11px"><rect fill="none" stroke="none" x="49" y="401" width="27" height="12" stroke-width="1" transform="translate(0.5, 0.5)"/><text x="62.8" y="411.5">9090</text></g></g><g transform="translate(0.5,0.5)" style="visibility: visible;"><rect x="52.8" y="387" width="90" height="25" fill="#f0f0f07f" stroke="#000000" pointer-events="all"/></g><g style=""><g fill="#774400" font-family="Arial,Helvetica" direction="" text-anchor="middle" font-size="11px"><rect fill="none" stroke="none" x="56" y="394" width="82" height="12" stroke-width="1" transform="translate(0.5, 0.5)"/><text x="97.8" y="404">/etc/prometheus</text></g></g><g transform="translate(0.5,0.5)" style="visibility: visible;"><rect x="152.8" y="387" width="77" height="25" fill="#f0f0f07f" stroke="#000000" pointer-events="all"/></g><g style=""><g fill="#774400" font-family="Arial,Helvetica" direction="" text-anchor="middle" font-size="11px"><rect fill="none" stroke="none" x="158" y="394" width="65" height="12" stroke-width="1" transform="translate(0.5, 0.5)"/><text x="191.3" y="404">/prometheus</text></g></g><g transform="translate(0.5,0.5)" style="visibility: visible;"><path d="M 147.8 377 L 147.8 372 Q 147.8 367 127.8 367 L 82.8 367 Q 62.8 367 62.8 368.82 L 62.8 370.63" fill="none" stroke="white" stroke-miterlimit="10" pointer-events="stroke" visibility="hidden" stroke-width="9"/><path d="M 147.8 377 L 147.8 372 Q 147.8 367 127.8 367 L 82.8 367 Q 62.8 367 62.8 368.82 L 62.8 370.63" fill="none" stroke="#000000" stroke-miterlimit="10" pointer-events="stroke"/><path d="M 62.8 375.88 L 59.3 368.88 L 62.8 370.63 L 66.3 368.88 Z" fill="#000000" stroke="#000000" stroke-miterlimit="10" pointer-events="all"/></g><g transform="translate(0.5,0.5)" style="visibility: visible;"><path d="M 147.8 377 L 147.8 372 Q 147.8 367 127.8 367 L 112.8 367 Q 97.8 367 97.8 373.82 L 97.8 380.63" fill="none" stroke="white" stroke-miterlimit="10" pointer-events="stroke" visibility="hidden" stroke-width="9"/><path d="M 147.8 377 L 147.8 372 Q 147.8 367 127.8 367 L 112.8 367 Q 97.8 367 97.8 373.82 L 97.8 380.63" fill="none" stroke="#000000" stroke-miterlimit="10" pointer-events="stroke"/><path d="M 97.8 385.88 L 94.3 378.88 L 97.8 380.63 L 101.3 378.88 Z" fill="#000000" stroke="#000000" stroke-miterlimit="10" pointer-events="all"/></g><g style=""><g fill="#000000" font-family="Arial,Helvetica" direction="" text-anchor="middle" font-size="11px"><rect fill="none" stroke="none" x="107" y="361" width="21" height="12" stroke-width="1" transform="translate(0.5, 0.5)"/><text x="117.8" y="371.5">use</text></g></g><g transform="translate(0.5,0.5)" style="visibility: visible;"><path d="M 147.8 377 L 147.8 372 Q 147.8 367 167.8 367 L 179.55 367 Q 191.3 367 191.3 373.82 L 191.3 380.63" fill="none" stroke="white" stroke-miterlimit="10" pointer-events="stroke" visibility="hidden" stroke-width="9"/><path d="M 147.8 377 L 147.8 372 Q 147.8 367 167.8 367 L 179.55 367 Q 191.3 367 191.3 373.82 L 191.3 380.63" fill="none" stroke="#000000" stroke-miterlimit="10" pointer-events="stroke"/><path d="M 191.3 385.88 L 187.8 378.88 L 191.3 380.63 L 194.8 378.88 Z" fill="#000000" stroke="#000000" stroke-miterlimit="10" pointer-events="all"/></g><g style=""><g fill="#000000" font-family="Arial,Helvetica" direction="" text-anchor="middle" font-size="11px"><rect fill="none" stroke="none" x="164" y="361" width="21" height="12" stroke-width="1" transform="translate(0.5, 0.5)"/><text x="174.8" y="371.5">use</text></g></g><g transform="translate(0.5,0.5)" style="visibility: visible; cursor: move;"><rect x="542.8" y="292" width="210" height="150" fill="#f1f1f17f" stroke="#000000" pointer-events="all"/></g><g style="cursor: move;"><g fill="#774400" font-family="Arial,Helvetica" direction="" text-anchor="middle" font-size="11px"><rect fill="none" stroke="none" x="626" y="299" width="44" height="12" stroke-width="1" transform="translate(0.5, 0.5)"/><text x="647.8" y="309">Datadog</text></g></g><g transform="translate(0.5,0.5)" style="visibility: visible; cursor: move;"><rect x="547.8" y="317" width="200" height="100" fill="#f0fff07f" stroke="#000000" pointer-events="all"/></g><g style="cursor: move;"><g fill="#774400" font-family="Arial,Helvetica" direction="" text-anchor="middle" font-size="11px"><rect fill="none" stroke="none" x="587" y="342" width="121" height="38" stroke-width="1" transform="translate(0.5, 0.5)"/><text x="647.8" y="352">Datadog</text><text x="647.8" y="378">image: datadog/datadog</text></g></g><g transform="translate(0.5,0.5)" style="visibility: visible;"><rect x="542.8" y="42" width="210" height="150" fill="#f1f1f17f" stroke="#000000" pointer-events="all"/></g><g style=""><g fill="#774400" font-family="Arial,Helvetica" direction="" text-anchor="middle" font-size="11px"><rect fill="none" stroke="none" x="629" y="49" width="38" height="12" stroke-width="1" transform="translate(0.5, 0.5)"/><text x="647.8" y="59">Golden</text></g></g><g transform="translate(0.5,0.5)" style="visibility: visible;"><rect x="547.8" y="67" width="200" height="100" fill="#f0fff07f" stroke="#000000" pointer-events="all"/></g><g style=""><g fill="#774400" font-family="Arial,Helvetica" direction="" text-anchor="middle" font-size="11px"><rect fill="none" stroke="none" x="615" y="92" width="66" height="38" stroke-width="1" transform="translate(0.5, 0.5)"/><text x="647.8" y="102">Retriever</text><text x="647.8" y="128">points: 10/10</text></g></g><g transform="translate(0.5,0.5)" style="visibility: visible;"><ellipse cx="52.8" cy="47" rx="10" ry="10" fill="#ffffd27f" stroke="#000000" pointer-events="all"/></g><g style=""><g fill="#774400" font-family="Arial,Helvetica" direction="" text-anchor="middle" font-size="11px"><rect fill="none" stroke="none" x="39" y="61" width="27" height="12" stroke-width="1" transform="translate(0.5, 0.5)"/><text x="52.8" y="71.5">9090</text></g></g><g transform="translate(0.5,0.5)" style="visibility: visible;"><ellipse cx="82.8" cy="47" rx="10" ry="10" fill="#ffffd27f" stroke="#000000" pointer-events="all"/></g><g style=""><g fill="#774400" font-family="Arial,Helvetica" direction="" text-anchor="middle" font-size="11px"><rect fill="none" stroke="none" x="75" y="61" width="15" height="12" stroke-width="1" transform="translate(0.5, 0.5)"/><text x="82.8" y="71.5">80</text></g></g><g transform="translate(0.5,0.5)" style="visibility: visible;"><ellipse cx="112.8" cy="47" rx="10" ry="10" fill="#ffffd27f" stroke="#000000" pointer-events="all"/></g><g style=""><g fill="#774400" font-family="Arial,Helvetica" direction="" text-anchor="middle" font-size="11px"><rect fill="none" stroke="none" x="99" y="61" width="27" height="12" stroke-width="1" transform="translate(0.5, 0.5)"/><text x="112.8" y="71.5">8000</text></g></g><g transform="translate(0.5,0.5)" style="visibility: visible;"><rect x="42.8" y="47" width="84" height="25" fill="#f0f0f07f" stroke="#000000" pointer-events="all"/></g><g style=""><g fill="#774400" font-family="Arial,Helvetica" direction="" text-anchor="middle" font-size="11px"><rect fill="none" stroke="none" x="51" y="54" width="67" height="12" stroke-width="1" transform="translate(0.5, 0.5)"/><text x="84.8" y="64">./prometheus</text></g></g><g transform="translate(0.5,0.5)" style="visibility: visible;"><rect x="142.8" y="47" width="63" height="25" fill="#f0f0f07f" stroke="#000000" pointer-events="all"/></g><g style=""><g fill="#774400" font-family="Arial,Helvetica" direction="" text-anchor="middle" font-size="11px"><rect fill="none" stroke="none" x="146" y="54" width="57" height="12" stroke-width="1" transform="translate(0.5, 0.5)"/><text x="174.3" y="64">Prom_data</text></g></g><g transform="translate(0.5,0.5)" style="visibility: visible;"><path d="M 62.8 377 L 62.8 237 Q 62.8 217 57.8 217 L 55.3 217 Q 52.8 217 52.8 197 L 52.8 63.37" fill="none" stroke="white" stroke-miterlimit="10" pointer-events="stroke" visibility="hidden" stroke-width="9"/><path d="M 62.8 377 L 62.8 237 Q 62.8 217 57.8 217 L 55.3 217 Q 52.8 217 52.8 197 L 52.8 63.37" fill="none" stroke="#000000" stroke-miterlimit="10" pointer-events="stroke"/><path d="M 52.8 58.12 L 56.3 65.12 L 52.8 63.37 L 49.3 65.12 Z" fill="#000000" stroke="#000000" stroke-miterlimit="10" pointer-events="all"/></g><g transform="translate(0.5,0.5)" style="visibility: visible;"><path d="M 97.8 387 L 97.8 249.5 Q 97.8 229.5 91.3 229.5 L 88.05 229.5 Q 84.8 229.5 84.8 209.5 L 84.8 78.37" fill="none" stroke="white" stroke-miterlimit="10" pointer-events="stroke" visibility="hidden" stroke-width="9"/><path d="M 97.8 387 L 97.8 249.5 Q 97.8 229.5 91.3 229.5 L 88.05 229.5 Q 84.8 229.5 84.8 209.5 L 84.8 78.37" fill="none" stroke="#000000" stroke-miterlimit="10" pointer-events="stroke"/><path d="M 84.8 73.12 L 88.3 80.12 L 84.8 78.37 L 81.3 80.12 Z" fill="#000000" stroke="#000000" stroke-miterlimit="10" pointer-events="all"/></g><g style=""><g fill="#000000" font-family="Arial,Helvetica" direction="" text-anchor="middle" font-size="11px"><rect fill="none" stroke="none" x="85" y="224" width="13" height="12" stroke-width="1" transform="translate(0.5, 0.5)"/><text x="91.3" y="234">ro</text></g></g><g transform="translate(0.5,0.5)" style="visibility: visible;"><path d="M 191.3 387 L 191.3 249.5 Q 191.3 229.5 182.8 229.5 L 178.55 229.5 Q 174.3 229.5 174.3 209.5 L 174.3 78.37" fill="none" stroke="white" stroke-miterlimit="10" pointer-events="stroke" visibility="hidden" stroke-width="9"/><path d="M 191.3 387 L 191.3 249.5 Q 191.3 229.5 182.8 229.5 L 178.55 229.5 Q 174.3 229.5 174.3 209.5 L 174.3 78.37" fill="none" stroke="#000000" stroke-miterlimit="10" pointer-events="stroke"/><path d="M 174.3 73.12 L 177.8 80.12 L 174.3 78.37 L 170.8 80.12 Z" fill="#000000" stroke="#000000" stroke-miterlimit="10" pointer-events="all"/></g><g style=""><g fill="#000000" font-family="Arial,Helvetica" direction="" text-anchor="middle" font-size="11px"><rect fill="none" stroke="none" x="175" y="224" width="15" height="12" stroke-width="1" transform="translate(0.5, 0.5)"/><text x="182.8" y="234">rw</text></g></g><g transform="translate(0.5,0.5)" style="visibility: visible;"><path d="M 147.8 352 L 147.8 232 Q 147.8 212 167.8 212 L 180.3 212 Q 192.8 212 192.8 192 L 192.8 78.37" fill="none" stroke="white" stroke-miterlimit="10" pointer-events="stroke" visibility="hidden" stroke-width="9"/><path d="M 147.8 352 L 147.8 232 Q 147.8 212 167.8 212 L 180.3 212 Q 192.8 212 192.8 192 L 192.8 78.37" fill="none" stroke="#000000" stroke-miterlimit="10" pointer-events="stroke"/><path d="M 192.8 73.12 L 196.3 80.12 L 192.8 78.37 L 189.3 80.12 Z" fill="#000000" stroke="#000000" stroke-miterlimit="10" pointer-events="all"/></g><g style=""><g fill="#000000" font-family="Arial,Helvetica" direction="" text-anchor="middle" font-size="11px"><rect fill="none" stroke="none" x="129" y="206" width="84" height="12" stroke-width="1" transform="translate(0.5, 0.5)"/><text x="170.8" y="216.5">alias:['database']</text></g></g><g transform="translate(0.5,0.5)" style="visibility: visible;"><path d="M 252.8 427 L 332.8 427 Q 352.8 427 352.8 407 L 352.8 218.37" fill="none" stroke="white" stroke-miterlimit="10" pointer-events="stroke" visibility="hidden" stroke-width="9"/><path d="M 252.8 427 L 332.8 427 Q 352.8 427 352.8 407 L 352.8 218.37" fill="none" stroke="#000000" stroke-miterlimit="10" pointer-events="stroke"/><path d="M 352.8 213.12 L 356.3 220.12 L 352.8 218.37 L 349.3 220.12 Z" fill="#000000" stroke="#000000" stroke-miterlimit="10" pointer-events="all"/></g><g style=""><g fill="#000000" font-family="Arial,Helvetica" direction="" text-anchor="middle" font-size="11px"><rect fill="none" stroke="none" x="311" y="364" width="83" height="12" stroke-width="1" transform="translate(0.5, 0.5)"/><text x="352.8" y="374.5">alias:['unknown']</text></g></g><g transform="translate(0.5,0.5)" style="visibility: visible; cursor: move;"><path d="M 647.8 192 L 647.8 285.63" fill="none" stroke="white" stroke-miterlimit="10" pointer-events="stroke" visibility="hidden" stroke-width="9"/><path d="M 647.8 192 L 647.8 285.63" fill="none" stroke="#000000" stroke-miterlimit="10" pointer-events="stroke"/><path d="M 647.8 290.88 L 644.3 283.88 L 647.8 285.63 L 651.3 283.88 Z" fill="#000000" stroke="#000000" stroke-miterlimit="10" pointer-events="all"/></g></g><g/><g/></g></svg>