<svg xmlns="http://www.w3.org/2000/svg" xmlns:xlink="http://www.w3.org/1999/xlink" contentStyleType="text/css" height="900px" preserveAspectRatio="none" style="width:1394px;height:900px;background:#FFFFFF;" version="1.1" viewBox="0 0 1394 900" width="1394px" zoomAndPan="magnify"><defs/><g><!--cluster e4f00638b8a10e6994e67af2f832d51c--><g id="cluster_e4f00638b8a10e6994e67af2f832d51c"><polygon fill="none" points="16,240.48,26,230.48,375,230.48,375,774.56,365,784.56,16,784.56,16,240.48" style="stroke:#181818;stroke-width:1.0;"/><line style="stroke:#181818;stroke-width:1.0;" x1="365" x2="375" y1="240.48" y2="230.48"/><line style="stroke:#181818;stroke-width:1.0;" x1="16" x2="365" y1="240.48" y2="240.48"/><line style="stroke:#181818;stroke-width:1.0;" x1="365" x2="365" y1="240.48" y2="784.56"/><text fill="#000000" font-family="sans-serif" font-size="14" font-weight="bold" lengthAdjust="spacing" textLength="96" x="143.5" y="256.4751">Prometheus</text></g><!--cluster d9c0e52dd15274d51041b489c7cea0ad--><g id="cluster_d9c0e52dd15274d51041b489c7cea0ad"><polygon fill="none" points="566,224.19,576,214.19,1067,214.19,1067,774.56,1057,784.56,566,784.56,566,224.19" style="stroke:#181818;stroke-width:1.0;"/><line style="stroke:#181818;stroke-width:1.0;" x1="1057" x2="1067" y1="224.19" y2="214.19"/><line style="stroke:#181818;stroke-width:1.0;" x1="566" x2="1057" y1="224.19" y2="224.19"/><line style="stroke:#181818;stroke-width:1.0;" x1="1057" x2="1057" y1="224.19" y2="784.56"/><text fill="#000000" font-family="sans-serif" font-size="14" font-weight="bold" lengthAdjust="spacing" textLength="62" x="781.5" y="240.1851">Grafana</text></g><!--cluster 587516af1efac0b9293f31639c6c31f3--><g id="cluster_587516af1efac0b9293f31639c6c31f3"><polygon fill="none" points="1135,16,1145,6,1377,6,1377,147.19,1367,157.19,1135,157.19,1135,16" style="stroke:#181818;stroke-width:1.0;"/><line style="stroke:#181818;stroke-width:1.0;" x1="1367" x2="1377" y1="16" y2="6"/><line style="stroke:#181818;stroke-width:1.0;" x1="1135" x2="1367" y1="16" y2="16"/><line style="stroke:#181818;stroke-width:1.0;" x1="1367" x2="1367" y1="16" y2="157.19"/><text fill="#000000" font-family="sans-serif" font-size="14" font-weight="bold" lengthAdjust="spacing" textLength="65" x="1219.5" y="31.9951">Datadog</text></g><!--entity b0b6236e8ab49920c48d10f339f1a86a--><g id="elem_b0b6236e8ab49920c48d10f339f1a86a"><rect fill="#F1F1F1" height="111.4844" rx="2.5" ry="2.5" style="stroke:#181818;stroke-width:0.5;" width="217" x="114.5" y="278.48"/><rect fill="#F1F1F1" height="10" style="stroke:#181818;stroke-width:0.5;" width="15" x="311.5" y="283.48"/><rect fill="#F1F1F1" height="2" style="stroke:#181818;stroke-width:0.5;" width="4" x="309.5" y="285.48"/><rect fill="#F1F1F1" height="2" style="stroke:#181818;stroke-width:0.5;" width="4" x="309.5" y="289.48"/><text fill="#000000" font-family="sans-serif" font-size="14" font-weight="bold" lengthAdjust="spacing" textLength="96" x="129.5" y="311.4751">prometheus</text><text fill="#000000" font-family="sans-serif" font-size="14" lengthAdjust="spacing" textLength="4" x="129.5" y="327.772">&#160;</text><text fill="#000000" font-family="sans-serif" font-size="14" lengthAdjust="spacing" textLength="177" x="129.5" y="344.0689">image: prom/prometheus</text><text fill="#000000" font-family="sans-serif" font-size="14" lengthAdjust="spacing" textLength="163" x="129.5" y="360.3657">restart: unless-stopped</text><text fill="#000000" font-family="sans-serif" font-size="14" lengthAdjust="spacing" textLength="4" x="129.5" y="376.6626">&#160;</text></g><!--entity cfd4d43463526be4db6bd372951d8018--><g id="elem_cfd4d43463526be4db6bd372951d8018"><ellipse cx="308" cy="496.27" fill="#F1F1F1" rx="8" ry="8" style="stroke:#181818;stroke-width:0.5;"/><text fill="#000000" font-family="sans-serif" font-size="14" lengthAdjust="spacing" textLength="36" x="290" y="526.2651">9090</text></g><!--entity b8365f95fd8d51fff10d734d11af5400--><g id="elem_b8365f95fd8d51fff10d734d11af5400"><rect fill="#F1F1F1" height="39.2969" rx="2.5" ry="2.5" style="stroke:#181818;stroke-width:0.5;" width="147" x="195.5" y="721.27"/><polygon fill="#F1F1F1" points="325.5,726.27,325.5,740.27,337.5,740.27,337.5,732.27,331.5,726.27,325.5,726.27" style="stroke:#181818;stroke-width:0.5;"/><line style="stroke:#181818;stroke-width:0.5;" x1="331.5" x2="331.5" y1="726.27" y2="732.27"/><line style="stroke:#181818;stroke-width:0.5;" x1="337.5" x2="331.5" y1="732.27" y2="732.27"/><text fill="#000000" font-family="sans-serif" font-size="14" lengthAdjust="spacing" textLength="117" x="205.5" y="747.2651">/etc/prometheus</text></g><!--entity 66ea46159f158592d153eec2b58bfad1--><g id="elem_66ea46159f158592d153eec2b58bfad1"><rect fill="#F1F1F1" height="39.2969" rx="2.5" ry="2.5" style="stroke:#181818;stroke-width:0.5;" width="120" x="40" y="721.27"/><polygon fill="#F1F1F1" points="143,726.27,143,740.27,155,740.27,155,732.27,149,726.27,143,726.27" style="stroke:#181818;stroke-width:0.5;"/><line style="stroke:#181818;stroke-width:0.5;" x1="149" x2="149" y1="726.27" y2="732.27"/><line style="stroke:#181818;stroke-width:0.5;" x1="155" x2="149" y1="732.27" y2="732.27"/><text fill="#000000" font-family="sans-serif" font-size="14" lengthAdjust="spacing" textLength="90" x="50" y="747.2651">/prometheus</text></g><!--entity ca625ae68e4d4a58f9ba859ff3420557--><g id="elem_ca625ae68e4d4a58f9ba859ff3420557"><rect fill="#F1F1F1" height="144.0781" rx="2.5" ry="2.5" style="stroke:#181818;stroke-width:0.5;" width="434" x="590" y="262.19"/><rect fill="#F1F1F1" height="10" style="stroke:#181818;stroke-width:0.5;" width="15" x="1004" y="267.19"/><rect fill="#F1F1F1" height="2" style="stroke:#181818;stroke-width:0.5;" width="4" x="1002" y="269.19"/><rect fill="#F1F1F1" height="2" style="stroke:#181818;stroke-width:0.5;" width="4" x="1002" y="273.19"/><text fill="#000000" font-family="sans-serif" font-size="14" font-weight="bold" lengthAdjust="spacing" textLength="60" x="605" y="295.1851">grafana</text><text fill="#000000" font-family="sans-serif" font-size="14" lengthAdjust="spacing" textLength="4" x="605" y="311.482">&#160;</text><text fill="#000000" font-family="sans-serif" font-size="14" lengthAdjust="spacing" textLength="158" x="605" y="327.7789">image: grafana/grafana</text><text fill="#000000" font-family="sans-serif" font-size="14" lengthAdjust="spacing" textLength="163" x="605" y="344.0757">restart: unless-stopped</text><text fill="#000000" font-family="sans-serif" font-size="14" lengthAdjust="spacing" textLength="342" x="605" y="360.3726">environment: GF_SECURITY_ADMIN_USER=admin</text><text fill="#000000" font-family="sans-serif" font-size="14" lengthAdjust="spacing" textLength="394" x="605" y="376.6695">environment: GF_SECURITY_ADMIN_PASSWORD=grafana</text><text fill="#000000" font-family="sans-serif" font-size="14" lengthAdjust="spacing" textLength="4" x="605" y="392.9664">&#160;</text></g><!--entity 9f18a5ea59196197837bdbfebede13e8--><g id="elem_9f18a5ea59196197837bdbfebede13e8"><ellipse cx="934" cy="496.27" fill="#F1F1F1" rx="8" ry="8" style="stroke:#181818;stroke-width:0.5;"/><text fill="#000000" font-family="sans-serif" font-size="14" lengthAdjust="spacing" textLength="107" x="880.5" y="526.2651">127.0.0.1:8080</text></g><!--entity e5b1c7fcc1453c77b2f0388027659c6e--><g id="elem_e5b1c7fcc1453c77b2f0388027659c6e"><ellipse cx="681" cy="496.27" fill="#F1F1F1" rx="8" ry="8" style="stroke:#181818;stroke-width:0.5;"/><text fill="#000000" font-family="sans-serif" font-size="14" lengthAdjust="spacing" textLength="148" x="607" y="526.2651">127.0.0.1:8000-9000</text></g><!--entity de82fbad4c9eebe0bd6d2fe66a3fe0aa--><g id="elem_de82fbad4c9eebe0bd6d2fe66a3fe0aa"><rect fill="#F1F1F1" height="39.2969" rx="2.5" ry="2.5" style="stroke:#181818;stroke-width:0.5;" width="292" x="661" y="721.27"/><polygon fill="#F1F1F1" points="936,726.27,936,740.27,948,740.27,948,732.27,942,726.27,936,726.27" style="stroke:#181818;stroke-width:0.5;"/><line style="stroke:#181818;stroke-width:0.5;" x1="942" x2="942" y1="726.27" y2="732.27"/><line style="stroke:#181818;stroke-width:0.5;" x1="948" x2="942" y1="732.27" y2="732.27"/><text fill="#000000" font-family="sans-serif" font-size="14" lengthAdjust="spacing" textLength="262" x="671" y="747.2651">/etc/grafana/provisioning/datasources</text></g><!--entity cfb8a5b7ebe0f6a517a5ae436a93d5d8--><g id="elem_cfb8a5b7ebe0f6a517a5ae436a93d5d8"><rect fill="#F1F1F1" height="95.1875" rx="2.5" ry="2.5" style="stroke:#181818;stroke-width:0.5;" width="210" x="1151" y="46"/><rect fill="#F1F1F1" height="10" style="stroke:#181818;stroke-width:0.5;" width="15" x="1341" y="51"/><rect fill="#F1F1F1" height="2" style="stroke:#181818;stroke-width:0.5;" width="4" x="1339" y="53"/><rect fill="#F1F1F1" height="2" style="stroke:#181818;stroke-width:0.5;" width="4" x="1339" y="57"/><text fill="#000000" font-family="sans-serif" font-size="14" font-weight="bold" lengthAdjust="spacing" textLength="64" x="1166" y="78.9951">datadog</text><text fill="#000000" font-family="sans-serif" font-size="14" lengthAdjust="spacing" textLength="4" x="1166" y="95.292">&#160;</text><text fill="#000000" font-family="sans-serif" font-size="14" lengthAdjust="spacing" textLength="170" x="1166" y="111.5889">image: datadog/datadog</text><text fill="#000000" font-family="sans-serif" font-size="14" lengthAdjust="spacing" textLength="4" x="1166" y="127.8857">&#160;</text></g><!--entity d9fe74bd71c5f1efd83d8f6cfdd7bef5--><g id="elem_d9fe74bd71c5f1efd83d8f6cfdd7bef5"><polygon fill="#F1F1F1" points="1002,72.3,1012,62.3,1116,62.3,1116,114.8938,1106,124.8938,1002,124.8938,1002,72.3" style="stroke:#181818;stroke-width:0.5;"/><line style="stroke:#181818;stroke-width:0.5;" x1="1106" x2="1116" y1="72.3" y2="62.3"/><line style="stroke:#181818;stroke-width:0.5;" x1="1002" x2="1106" y1="72.3" y2="72.3"/><line style="stroke:#181818;stroke-width:0.5;" x1="1106" x2="1106" y1="72.3" y2="124.8938"/><text fill="#000000" font-family="sans-serif" font-size="14" font-weight="bold" lengthAdjust="spacing" textLength="72" x="1017" y="95.2951">front-tier</text><text fill="#000000" font-family="sans-serif" font-size="14" lengthAdjust="spacing" textLength="74" x="1017" y="111.592">&#171;network&#187;</text></g><!--entity cab64c5af73a02ce213c72c614ccdc8f--><g id="elem_cab64c5af73a02ce213c72c614ccdc8f"><polygon fill="#F1F1F1" points="553,72.3,563,62.3,667,62.3,667,114.8938,657,124.8938,553,124.8938,553,72.3" style="stroke:#181818;stroke-width:0.5;"/><line style="stroke:#181818;stroke-width:0.5;" x1="657" x2="667" y1="72.3" y2="62.3"/><line style="stroke:#181818;stroke-width:0.5;" x1="553" x2="657" y1="72.3" y2="72.3"/><line style="stroke:#181818;stroke-width:0.5;" x1="657" x2="657" y1="72.3" y2="124.8938"/><text fill="#000000" font-family="sans-serif" font-size="14" font-weight="bold" lengthAdjust="spacing" textLength="70" x="568" y="95.2951">back-tier</text><text fill="#000000" font-family="sans-serif" font-size="14" lengthAdjust="spacing" textLength="74" x="568" y="111.592">&#171;network&#187;</text></g><!--entity 21232f297a57a5a743894a0e4a801fc3--><g id="elem_21232f297a57a5a743894a0e4a801fc3"><polygon fill="#F1F1F1" points="356,72.3,366,62.3,470,62.3,470,114.8938,460,124.8938,356,124.8938,356,72.3" style="stroke:#181818;stroke-width:0.5;"/><line style="stroke:#181818;stroke-width:0.5;" x1="460" x2="470" y1="72.3" y2="62.3"/><line style="stroke:#181818;stroke-width:0.5;" x1="356" x2="460" y1="72.3" y2="72.3"/><line style="stroke:#181818;stroke-width:0.5;" x1="460" x2="460" y1="72.3" y2="124.8938"/><text fill="#000000" font-family="sans-serif" font-size="14" font-weight="bold" lengthAdjust="spacing" textLength="47" x="371" y="95.2951">admin</text><text fill="#000000" font-family="sans-serif" font-size="14" lengthAdjust="spacing" textLength="74" x="371" y="111.592">&#171;network&#187;</text></g><!--entity 5e543256c480ac577d30f76f9120eb74--><g id="elem_5e543256c480ac577d30f76f9120eb74"><polygon fill="#F1F1F1" points="201,72.3,211,62.3,321,62.3,321,114.8938,311,124.8938,201,124.8938,201,72.3" style="stroke:#181818;stroke-width:0.5;"/><line style="stroke:#181818;stroke-width:0.5;" x1="311" x2="321" y1="72.3" y2="62.3"/><line style="stroke:#181818;stroke-width:0.5;" x1="201" x2="311" y1="72.3" y2="72.3"/><line style="stroke:#181818;stroke-width:0.5;" x1="311" x2="311" y1="72.3" y2="124.8938"/><text fill="#000000" font-family="sans-serif" font-size="14" font-weight="bold" lengthAdjust="spacing" textLength="80" x="216" y="95.2951">undefined</text><text fill="#000000" font-family="sans-serif" font-size="14" lengthAdjust="spacing" textLength="74" x="216" y="111.592">&#171;network&#187;</text></g><!--entity 267de027b65a807d2138ee534426efa5--><g id="elem_267de027b65a807d2138ee534426efa5"><ellipse cx="426" cy="631.27" fill="#F1F1F1" rx="8" ry="8" style="stroke:#181818;stroke-width:0.5;"/><text fill="#000000" font-family="sans-serif" font-size="14" lengthAdjust="spacing" textLength="36" x="408" y="661.2651">9090</text></g><!--entity dba3f4d0bb5aa6fcfa18da2c1f7a9775--><g id="elem_dba3f4d0bb5aa6fcfa18da2c1f7a9775"><ellipse cx="1118" cy="631.27" fill="#F1F1F1" rx="8" ry="8" style="stroke:#181818;stroke-width:0.5;"/><text fill="#000000" font-family="sans-serif" font-size="14" lengthAdjust="spacing" textLength="18" x="1109" y="661.2651">80</text></g><!--entity 1624c420083928ef3e240dd88f2e52f0--><g id="elem_1624c420083928ef3e240dd88f2e52f0"><ellipse cx="515" cy="631.27" fill="#F1F1F1" rx="8" ry="8" style="stroke:#181818;stroke-width:0.5;"/><text fill="#000000" font-family="sans-serif" font-size="14" lengthAdjust="spacing" textLength="36" x="497" y="661.2651">8000</text></g><!--entity 2a4ddbecb762532586835d0f37d85eaf--><g id="elem_2a4ddbecb762532586835d0f37d85eaf"><rect fill="#F1F1F1" height="39.2969" rx="2.5" ry="2.5" style="stroke:#181818;stroke-width:0.5;" width="124" x="207" y="855.56"/><polygon fill="#F1F1F1" points="314,860.56,314,874.56,326,874.56,326,866.56,320,860.56,314,860.56" style="stroke:#181818;stroke-width:0.5;"/><line style="stroke:#181818;stroke-width:0.5;" x1="320" x2="320" y1="860.56" y2="866.56"/><line style="stroke:#181818;stroke-width:0.5;" x1="326" x2="320" y1="866.56" y2="866.56"/><text fill="#000000" font-family="sans-serif" font-size="14" lengthAdjust="spacing" textLength="94" x="217" y="881.5551">./prometheus</text></g><!--entity a1448c8b5db83ada398e734ef1d3277c--><g id="elem_a1448c8b5db83ada398e734ef1d3277c"><rect fill="#F1F1F1" height="39.2969" rx="2.5" ry="2.5" style="stroke:#181818;stroke-width:0.5;" width="103" x="48.5" y="855.56"/><polygon fill="#F1F1F1" points="134.5,860.56,134.5,874.56,146.5,874.56,146.5,866.56,140.5,860.56,134.5,860.56" style="stroke:#181818;stroke-width:0.5;"/><line style="stroke:#181818;stroke-width:0.5;" x1="140.5" x2="140.5" y1="860.56" y2="866.56"/><line style="stroke:#181818;stroke-width:0.5;" x1="146.5" x2="140.5" y1="866.56" y2="866.56"/><text fill="#000000" font-family="sans-serif" font-size="14" lengthAdjust="spacing" textLength="73" x="58.5" y="881.5551">prom_data</text></g><!--entity eec695b1c6be435e7982afe506db7e49--><g id="elem_eec695b1c6be435e7982afe506db7e49"><rect fill="#F1F1F1" height="39.2969" rx="2.5" ry="2.5" style="stroke:#181818;stroke-width:0.5;" width="90" x="762" y="855.56"/><polygon fill="#F1F1F1" points="835,860.56,835,874.56,847,874.56,847,866.56,841,860.56,835,860.56" style="stroke:#181818;stroke-width:0.5;"/><line style="stroke:#181818;stroke-width:0.5;" x1="841" x2="841" y1="860.56" y2="866.56"/><line style="stroke:#181818;stroke-width:0.5;" x1="847" x2="841" y1="866.56" y2="866.56"/><text fill="#000000" font-family="sans-serif" font-size="14" lengthAdjust="spacing" textLength="60" x="772" y="881.5551">./grafana</text></g><!--link b0b6236e8ab49920c48d10f339f1a86a to cfd4d43463526be4db6bd372951d8018--><g id="link_b0b6236e8ab49920c48d10f339f1a86a_cfd4d43463526be4db6bd372951d8018"><path codeLine="46" d="M252.25,390.3 C271.37,426.29 294.45,469.75 303.78,487.32 " fill="none" id="b0b6236e8ab49920c48d10f339f1a86a-cfd4d43463526be4db6bd372951d8018" style="stroke:#181818;stroke-width:1.0;"/></g><!--link cfd4d43463526be4db6bd372951d8018 to 267de027b65a807d2138ee534426efa5--><g id="link_cfd4d43463526be4db6bd372951d8018_267de027b65a807d2138ee534426efa5"><path codeLine="47" d="M315.03,505.19 C336.07,528.9 398.36,599.12 419.16,622.55 " fill="none" id="cfd4d43463526be4db6bd372951d8018-267de027b65a807d2138ee534426efa5" style="stroke:#181818;stroke-width:1.0;"/></g><!--link b8365f95fd8d51fff10d734d11af5400 to 2a4ddbecb762532586835d0f37d85eaf--><g id="link_b8365f95fd8d51fff10d734d11af5400_2a4ddbecb762532586835d0f37d85eaf"><path codeLine="48" d="M269,760.87 C269,786.02 269,830.16 269,855.29 " fill="none" id="b8365f95fd8d51fff10d734d11af5400-2a4ddbecb762532586835d0f37d85eaf" style="stroke:#181818;stroke-width:1.0;"/><text fill="#000000" font-family="sans-serif" font-size="13" lengthAdjust="spacing" textLength="13" x="270" y="821.6269">ro</text></g><!--link b0b6236e8ab49920c48d10f339f1a86a to b8365f95fd8d51fff10d734d11af5400--><g id="link_b0b6236e8ab49920c48d10f339f1a86a_b8365f95fd8d51fff10d734d11af5400"><path codeLine="49" d="M229.25,390.23 C239.69,482.07 259.5127,656.4284 266.1727,715.0484 " fill="none" id="b0b6236e8ab49920c48d10f339f1a86a-to-b8365f95fd8d51fff10d734d11af5400" style="stroke:#181818;stroke-width:1.0;stroke-dasharray:7.0,7.0;"/><polygon fill="#181818" points="266.85,721.01,269.8084,711.616,266.2856,716.042,261.8596,712.5191,266.85,721.01" style="stroke:#181818;stroke-width:1.0;"/><text fill="#000000" font-family="sans-serif" font-size="13" lengthAdjust="spacing" textLength="23" x="251" y="568.3369">use</text></g><!--link 66ea46159f158592d153eec2b58bfad1 to a1448c8b5db83ada398e734ef1d3277c--><g id="link_66ea46159f158592d153eec2b58bfad1_a1448c8b5db83ada398e734ef1d3277c"><path codeLine="50" d="M100,760.87 C100,786.02 100,830.16 100,855.29 " fill="none" id="66ea46159f158592d153eec2b58bfad1-a1448c8b5db83ada398e734ef1d3277c" style="stroke:#181818;stroke-width:1.0;"/><text fill="#000000" font-family="sans-serif" font-size="13" lengthAdjust="spacing" textLength="14" x="101" y="821.6269">rw</text></g><!--link b0b6236e8ab49920c48d10f339f1a86a to 66ea46159f158592d153eec2b58bfad1--><g id="link_b0b6236e8ab49920c48d10f339f1a86a_66ea46159f158592d153eec2b58bfad1"><path codeLine="51" d="M206.28,390.23 C178.37,482.07 125.3042,656.6491 107.4942,715.2691 " fill="none" id="b0b6236e8ab49920c48d10f339f1a86a-to-66ea46159f158592d153eec2b58bfad1" style="stroke:#181818;stroke-width:1.0;stroke-dasharray:7.0,7.0;"/><polygon fill="#181818" points="105.75,721.01,112.1936,713.5615,107.2035,716.2259,104.539,711.2359,105.75,721.01" style="stroke:#181818;stroke-width:1.0;"/><text fill="#000000" font-family="sans-serif" font-size="13" lengthAdjust="spacing" textLength="23" x="157" y="568.3369">use</text></g><!--reverse link cab64c5af73a02ce213c72c614ccdc8f to e4f00638b8a10e6994e67af2f832d51c--><g id="link_cab64c5af73a02ce213c72c614ccdc8f_e4f00638b8a10e6994e67af2f832d51c"><path codeLine="52" d="M574.4491,129.504 C542.1441,161.229 494.63,207.89 450.3563,251.3687 C428.2194,273.1081 407.9628,293.0009 392.963,307.7314 C389.213,311.414 385.7916,314.774 382.7515,317.7595 C381.2314,319.2523 379.8067,320.6514 378.4839,321.9505 C377.8225,322.6 377.1865,323.2245 376.5769,323.8232 C376.2721,324.1225 375.9739,324.4154 375.6823,324.7017 C375.5365,324.8449 375.3924,324.9864 375.25,325.1262 " fill="none" id="cab64c5af73a02ce213c72c614ccdc8f-backto-e4f00638b8a10e6994e67af2f832d51c" style="stroke:#181818;stroke-width:1.0;"/><polygon fill="#181818" points="578.73,125.3,569.506,128.7521,575.1626,128.8034,575.1113,134.46,578.73,125.3" style="stroke:#181818;stroke-width:1.0;"/><text fill="#000000" font-family="sans-serif" font-size="13" lengthAdjust="spacing" textLength="109" x="525" y="186.2569">alias:['database']</text></g><!--reverse link 21232f297a57a5a743894a0e4a801fc3 to e4f00638b8a10e6994e67af2f832d51c--><g id="link_21232f297a57a5a743894a0e4a801fc3_e4f00638b8a10e6994e67af2f832d51c"><path codeLine="53" d="M405.9444,131.1916 C399.8294,162.9166 391.16,207.89 382.7788,251.3687 C380.6834,262.2384 378.6771,272.6465 376.8397,282.1784 C376.3803,284.5614 375.9315,286.8896 375.4945,289.1566 C375.3853,289.7234 375.2767,290.2863 375.169,290.8453 C375.1151,291.1248 375.0614,291.4033 375.0079,291.6808 " fill="none" id="21232f297a57a5a743894a0e4a801fc3-backto-e4f00638b8a10e6994e67af2f832d51c" style="stroke:#181818;stroke-width:1.0;"/><polygon fill="#181818" points="407.08,125.3,401.4489,133.3803,406.1337,130.2096,409.3043,134.8944,407.08,125.3" style="stroke:#181818;stroke-width:1.0;"/><text fill="#000000" font-family="sans-serif" font-size="13" lengthAdjust="spacing" textLength="87" x="397" y="186.2569">alias:['mysql']</text></g><!--reverse link 5e543256c480ac577d30f76f9120eb74 to e4f00638b8a10e6994e67af2f832d51c--><g id="link_5e543256c480ac577d30f76f9120eb74_e4f00638b8a10e6994e67af2f832d51c"><path codeLine="54" d="M258.356,130.97 C258.306,152.38 262.22,174.03 280,190.19 C293.06,202.06 346.79,185.45 359,198.19 C379.485,219.545 381.7425,252.59 378.7525,280.645 C378.005,287.6588 376.9295,294.3606 375.7289,300.49 C375.5788,301.2562 375.4268,302.0134 375.2732,302.7612 C375.1964,303.1351 375.1192,303.5066 375.0417,303.8757 " fill="none" id="5e543256c480ac577d30f76f9120eb74-backto-e4f00638b8a10e6994e67af2f832d51c" style="stroke:#181818;stroke-width:1.0;"/><polygon fill="#181818" points="258.37,124.97,254.349,133.9606,258.3583,129.97,262.349,133.9793,258.37,124.97" style="stroke:#181818;stroke-width:1.0;"/><text fill="#000000" font-family="sans-serif" font-size="13" lengthAdjust="spacing" textLength="105" x="281" y="186.2569">alias:['unknown']</text></g><!--link ca625ae68e4d4a58f9ba859ff3420557 to 9f18a5ea59196197837bdbfebede13e8--><g id="link_ca625ae68e4d4a58f9ba859ff3420557_9f18a5ea59196197837bdbfebede13e8"><path codeLine="55" d="M863.44,406.35 C888.88,438.41 915.85,472.4 927.75,487.38 " fill="none" id="ca625ae68e4d4a58f9ba859ff3420557-9f18a5ea59196197837bdbfebede13e8" style="stroke:#181818;stroke-width:1.0;"/></g><!--link 9f18a5ea59196197837bdbfebede13e8 to dba3f4d0bb5aa6fcfa18da2c1f7a9775--><g id="link_9f18a5ea59196197837bdbfebede13e8_dba3f4d0bb5aa6fcfa18da2c1f7a9775"><path codeLine="56" d="M942.87,503.68 C974.03,526.2 1078.2,601.5 1109.21,623.92 " fill="none" id="9f18a5ea59196197837bdbfebede13e8-dba3f4d0bb5aa6fcfa18da2c1f7a9775" style="stroke:#181818;stroke-width:1.0;"/><text fill="#000000" font-family="sans-serif" font-size="13" lengthAdjust="spacing" textLength="20" x="1038" y="568.3369">tcp</text></g><!--link ca625ae68e4d4a58f9ba859ff3420557 to e5b1c7fcc1453c77b2f0388027659c6e--><g id="link_ca625ae68e4d4a58f9ba859ff3420557_e5b1c7fcc1453c77b2f0388027659c6e"><path codeLine="57" d="M751,406.35 C725.76,438.41 699.01,472.4 687.21,487.38 " fill="none" id="ca625ae68e4d4a58f9ba859ff3420557-e5b1c7fcc1453c77b2f0388027659c6e" style="stroke:#181818;stroke-width:1.0;"/></g><!--link e5b1c7fcc1453c77b2f0388027659c6e to 1624c420083928ef3e240dd88f2e52f0--><g id="link_e5b1c7fcc1453c77b2f0388027659c6e_1624c420083928ef3e240dd88f2e52f0"><path codeLine="58" d="M672.08,504.42 C643.25,527.51 552.85,599.94 523.97,623.08 " fill="none" id="e5b1c7fcc1453c77b2f0388027659c6e-1624c420083928ef3e240dd88f2e52f0" style="stroke:#181818;stroke-width:1.0;"/><text fill="#000000" font-family="sans-serif" font-size="13" lengthAdjust="spacing" textLength="20" x="608" y="568.3369">tcp</text></g><!--link de82fbad4c9eebe0bd6d2fe66a3fe0aa to eec695b1c6be435e7982afe506db7e49--><g id="link_de82fbad4c9eebe0bd6d2fe66a3fe0aa_eec695b1c6be435e7982afe506db7e49"><path codeLine="59" d="M807,760.87 C807,786.02 807,830.16 807,855.29 " fill="none" id="de82fbad4c9eebe0bd6d2fe66a3fe0aa-eec695b1c6be435e7982afe506db7e49" style="stroke:#181818;stroke-width:1.0;"/><text fill="#000000" font-family="sans-serif" font-size="13" lengthAdjust="spacing" textLength="13" x="808" y="821.6269">ro</text></g><!--link ca625ae68e4d4a58f9ba859ff3420557 to de82fbad4c9eebe0bd6d2fe66a3fe0aa--><g id="link_ca625ae68e4d4a58f9ba859ff3420557_de82fbad4c9eebe0bd6d2fe66a3fe0aa"><path codeLine="60" d="M807,406.65 C807,502.17 807,659.93 807,715.13 " fill="none" id="ca625ae68e4d4a58f9ba859ff3420557-to-de82fbad4c9eebe0bd6d2fe66a3fe0aa" style="stroke:#181818;stroke-width:1.0;stroke-dasharray:7.0,7.0;"/><polygon fill="#181818" points="807,721.13,811,712.13,807,716.13,803,712.13,807,721.13" style="stroke:#181818;stroke-width:1.0;"/><text fill="#000000" font-family="sans-serif" font-size="13" lengthAdjust="spacing" textLength="23" x="808" y="568.3369">use</text></g><!--reverse link d9fe74bd71c5f1efd83d8f6cfdd7bef5 to d9c0e52dd15274d51041b489c7cea0ad--><g id="link_d9fe74bd71c5f1efd83d8f6cfdd7bef5_d9c0e52dd15274d51041b489c7cea0ad"><path codeLine="61" d="M1059,131.3 C1059,147.1625 1059,161.81 1059,183.9267 C1059,189.4559 1059,195.0769 1059,200.7379 C1059,203.5684 1059,206.409 1059,209.253 C1059,210.675 1059,212.0979 1059,213.5209 " fill="none" id="d9fe74bd71c5f1efd83d8f6cfdd7bef5-backto-d9c0e52dd15274d51041b489c7cea0ad" style="stroke:#181818;stroke-width:1.0;"/><polygon fill="#181818" points="1059,125.3,1055,134.3,1059,130.3,1063,134.3,1059,125.3" style="stroke:#181818;stroke-width:1.0;"/><text fill="#000000" font-family="sans-serif" font-size="13" lengthAdjust="spacing" textLength="60" x="1060" y="186.2569">alias:['ui']</text></g><!--reverse link cab64c5af73a02ce213c72c614ccdc8f to d9c0e52dd15274d51041b489c7cea0ad--><g id="link_cab64c5af73a02ce213c72c614ccdc8f_d9c0e52dd15274d51041b489c7cea0ad"><path codeLine="62" d="M673.2239,105.7898 C784.4239,125.9398 1014.84,170.47 1040,198.19 C1042.5063,200.9506 1044.776,203.8827 1046.8289,206.9547 C1047.8554,208.4907 1048.8276,210.0616 1049.7481,211.6636 C1050.2083,212.4646 1050.6556,213.2734 1051.0902,214.0894 " fill="none" id="cab64c5af73a02ce213c72c614ccdc8f-backto-d9c0e52dd15274d51041b489c7cea0ad" style="stroke:#181818;stroke-width:1.0;"/><polygon fill="#181818" points="667.32,104.72,675.4626,110.2606,672.2399,105.6115,676.889,102.3888,667.32,104.72" style="stroke:#181818;stroke-width:1.0;"/></g><!--SRC=[ZLRRQXn747sVhnZsnSd2Ids_25jWOiVumOcHOa9mZAZkgb8MQMUKlLW9mV-UdjbBLefDYrrseBVgrELKdHwulUtl5_E_vjrrq_L8xMGwvMNVhMVhEIsdqz-xvyyxMj_tovlpyqaBgnOZapS9lSoM9J46ZO5TPaIVYEq19a6- -IPAXkHCji1UWr2PbDJPg-oaoHbpu0CAu6BUVGr1IQKLg-Z1bYzueqCq8CX049ApFY1iEYIUTuHVGx5aZLRMPHC4PEizQi7USPHAKF9cX_9-sIze_GTjLgCN6HR2wP02I44kHaFE0oiEMg6LkVsdQNE_kEixwjPj4iafxIX0CZ4gKMAX5AnrP0d1GVkncKxl3X6cqwQPB-2QpjhXyFI_VvebhTQmN9-rc-wMLglPQjtVtH4spQVck-_RIHHHRBlBQD1euxHLBf71v19ghwALMBeJcW8oPyZhTd9AwtmKOdHFGJlBqHPkIpNCB0LwRL1AO6k4E7P_vEeSWN7Ibj9ii56Xj9eegsH3Oa3PVDbrzCqI63hOZLGMP1KMO-LD2IcCJ2R4x3E107pOpWnEMI0NIbq6RE2Oe8HYraO9Q_tOpkij_54lToUdk-StUqdTvtbPW4K9TTQ- -V7gylKF7oxU_lBRrSjNxzx-TFNXylN5Yt4eQvRlNrvU_lhpnQiN-uWxbgJo9w9yv5aGOSjNwLO0Is2ZZ4v67xHFc9WI8KbDuNz-GinY-TaEeqqoUyvP6bkMo2V5GeSWb7SsPaUFoTuteZ3tURwQzrtP_LE4DQpwpJBJbaUae3W1cXoff24IEbHCpe5c4W077byLH-oljyiKl9KE1bM0B59KKREMJfSiifQi7_78PNriyWCyEx1oM6Cosa7KQ36CFE8M_eZ7tSdfxZbqzSl3wLVE8vNoaxD52pmMRGb4LXkZNCdCZjQxpcCg1HaKALa0nvb11WIL9Nk8tkzjTwsMJfbSfam47LKWrgICG0o1LPbVFbwCayUReS0W9ih9b_4jaXDSq1QB37WCXNe-yXqyhuRwHaUGneGSaiMobu2WOw2oZSGIjV8-FmXwVRHMPUzS78PZa01joSUWWCaAXwNh9ZPLOPhXhAubDOCHfSf9JNEsA9KUjcVjPDbFweMTdE39oNbLw0QypOecJKtMnkngH8tPtJyzkshGVNRLwsYscPrNhzm13cxdi3hx-6mOlWGhUlRfgUYrw_WOVV7twi_RfqFNxkXZw4rtq_NttG1UlIS6pghAMpCOKMegCcIupdTFpAagw3M34QMcLOUSQbA_pQcY9VlDgnQuc-rgqFriLzyDnX6flPG-697vC1rFmwtjpBy0]--></g></svg>