<svg xmlns="http://www.w3.org/2000/svg" style="left: 0px; top: 0px; width: 100%; height: 100%; display: block; min-width: 739px; min-height: 545px;"><g><g/><g><g transform="translate(0.5,0.5)" style="visibility: visible;"><rect x="87.6" y="63.6" width="100" height="50" fill="#b5f5ff7f" stroke="#000000" pointer-events="all"/></g><g style=""><g fill="#774400" font-family="Arial,Helvetica" direction="" text-anchor="middle" font-size="11px"><rect fill="none" stroke="none" x="104" y="77" width="67" height="25" stroke-width="1" transform="translate(0.5, 0.5)"/><text x="137.6" y="86.6">Front-tier</text><text x="137.6" y="99.6">&lt;&lt;network&gt;&gt;</text></g></g><g transform="translate(0.5,0.5)" style="visibility: visible;"><rect x="187.6" y="63.6" width="100" height="50" fill="#b5f5ff7f" stroke="#000000" pointer-events="all"/></g><g style=""><g fill="#774400" font-family="Arial,Helvetica" direction="" text-anchor="middle" font-size="11px"><rect fill="none" stroke="none" x="204" y="77" width="67" height="25" stroke-width="1" transform="translate(0.5, 0.5)"/><text x="237.6" y="86.6">Back-tier</text><text x="237.6" y="99.6">&lt;&lt;network&gt;&gt;</text></g></g><g transform="translate(0.5,0.5)" style="visibility: visible; cursor: move;"><rect x="387.6" y="63.6" width="100" height="50" fill="#b5f5ff7f" stroke="#000000" pointer-events="all"/></g><g style="cursor: move;"><g fill="#774400" font-family="Arial,Helvetica" direction="" text-anchor="middle" font-size="11px"><rect fill="none" stroke="none" x="404" y="77" width="67" height="25" stroke-width="1" transform="translate(0.5, 0.5)"/><text x="437.6" y="86.6">Undefined</text><text x="437.6" y="99.6">&lt;&lt;network&gt;&gt;</text></g></g><g transform="translate(0.5,0.5)" style="visibility: visible;"><rect x="87.6" y="393.6" width="210" height="150" fill="#f1f1f17f" stroke="#000000" pointer-events="all"/></g><g style=""><g fill="#774400" font-family="Arial,Helvetica" direction="" text-anchor="middle" font-size="11px"><rect fill="none" stroke="none" x="161" y="401" width="62" height="12" stroke-width="1" transform="translate(0.5, 0.5)"/><text x="192.6" y="410.6">Prometheus</text></g></g><g transform="translate(0.5,0.5)" style="visibility: visible;"><rect x="92.6" y="418.6" width="200" height="100" fill="#f0fff07f" stroke="#000000" pointer-events="all"/></g><g style=""><g fill="#774400" font-family="Arial,Helvetica" direction="" text-anchor="middle" font-size="11px"><rect fill="none" stroke="none" x="54" y="431" width="277" height="64" stroke-width="1" transform="translate(0.5, 0.5)"/><text x="192.6" y="440.6">Prometheus</text><text x="192.6" y="466.6">image: prom/prometheus</text><text x="192.6" y="479.6">command: --config.file=/etc/prometheus/prometheus.yml</text><text x="192.6" y="492.6">restart: unless-stopped</text></g></g><g transform="translate(0.5,0.5)" style="visibility: visible;"><ellipse cx="107.6" cy="428.6" rx="10" ry="10" fill="#ffffd27f" stroke="#000000" pointer-events="all"/></g><g style=""><g fill="#774400" font-family="Arial,Helvetica" direction="" text-anchor="middle" font-size="11px"><rect fill="none" stroke="none" x="94" y="443" width="27" height="12" stroke-width="1" transform="translate(0.5, 0.5)"/><text x="107.6" y="453.1">9090</text></g></g><g transform="translate(0.5,0.5)" style="visibility: visible;"><rect x="97.6" y="428.6" width="90" height="25" fill="#f0f0f07f" stroke="#000000" pointer-events="all"/></g><g style=""><g fill="#774400" font-family="Arial,Helvetica" direction="" text-anchor="middle" font-size="11px"><rect fill="none" stroke="none" x="101" y="436" width="82" height="12" stroke-width="1" transform="translate(0.5, 0.5)"/><text x="142.6" y="445.6">/etc/prometheus</text></g></g><g transform="translate(0.5,0.5)" style="visibility: visible;"><rect x="197.6" y="428.6" width="77" height="25" fill="#f0f0f07f" stroke="#000000" pointer-events="all"/></g><g style=""><g fill="#774400" font-family="Arial,Helvetica" direction="" text-anchor="middle" font-size="11px"><rect fill="none" stroke="none" x="203" y="436" width="65" height="12" stroke-width="1" transform="translate(0.5, 0.5)"/><text x="236.1" y="445.6">/prometheus</text></g></g><g transform="translate(0.5,0.5)" style="visibility: visible;"><path d="M 192.6 418.6 L 192.6 413.6 Q 192.6 408.6 172.6 408.6 L 127.6 408.6 Q 107.6 408.6 107.6 410.42 L 107.6 412.23" fill="none" stroke="white" stroke-miterlimit="10" pointer-events="stroke" visibility="hidden" stroke-width="9"/><path d="M 192.6 418.6 L 192.6 413.6 Q 192.6 408.6 172.6 408.6 L 127.6 408.6 Q 107.6 408.6 107.6 410.42 L 107.6 412.23" fill="none" stroke="#000000" stroke-miterlimit="10" pointer-events="stroke"/><path d="M 107.6 417.48 L 104.1 410.48 L 107.6 412.23 L 111.1 410.48 Z" fill="#000000" stroke="#000000" stroke-miterlimit="10" pointer-events="all"/></g><g transform="translate(0.5,0.5)" style="visibility: visible;"><path d="M 192.6 418.6 L 192.6 413.6 Q 192.6 408.6 172.6 408.6 L 157.6 408.6 Q 142.6 408.6 142.6 415.42 L 142.6 422.23" fill="none" stroke="white" stroke-miterlimit="10" pointer-events="stroke" visibility="hidden" stroke-width="9"/><path d="M 192.6 418.6 L 192.6 413.6 Q 192.6 408.6 172.6 408.6 L 157.6 408.6 Q 142.6 408.6 142.6 415.42 L 142.6 422.23" fill="none" stroke="#000000" stroke-miterlimit="10" pointer-events="stroke"/><path d="M 142.6 427.48 L 139.1 420.48 L 142.6 422.23 L 146.1 420.48 Z" fill="#000000" stroke="#000000" stroke-miterlimit="10" pointer-events="all"/></g><g style=""><g fill="#000000" font-family="Arial,Helvetica" direction="" text-anchor="middle" font-size="11px"><rect fill="none" stroke="none" x="152" y="403" width="21" height="12" stroke-width="1" transform="translate(0.5, 0.5)"/><text x="162.6" y="413.1">use</text></g></g><g transform="translate(0.5,0.5)" style="visibility: visible;"><path d="M 192.6 418.6 L 192.6 413.6 Q 192.6 408.6 212.6 408.6 L 224.35 408.6 Q 236.1 408.6 236.1 415.42 L 236.1 422.23" fill="none" stroke="white" stroke-miterlimit="10" pointer-events="stroke" visibility="hidden" stroke-width="9"/><path d="M 192.6 418.6 L 192.6 413.6 Q 192.6 408.6 212.6 408.6 L 224.35 408.6 Q 236.1 408.6 236.1 415.42 L 236.1 422.23" fill="none" stroke="#000000" stroke-miterlimit="10" pointer-events="stroke"/><path d="M 236.1 427.48 L 232.6 420.48 L 236.1 422.23 L 239.6 420.48 Z" fill="#000000" stroke="#000000" stroke-miterlimit="10" pointer-events="all"/></g><g style=""><g fill="#000000" font-family="Arial,Helvetica" direction="" text-anchor="middle" font-size="11px"><rect fill="none" stroke="none" x="209" y="403" width="21" height="12" stroke-width="1" transform="translate(0.5, 0.5)"/><text x="219.6" y="413.1">use</text></g></g><g transform="translate(0.5,0.5)" style="visibility: visible; cursor: move;"><rect x="527.6" y="333.6" width="210" height="150" fill="#f1f1f17f" stroke="#000000" pointer-events="all"/></g><g style="cursor: move;"><g fill="#774400" font-family="Arial,Helvetica" direction="" text-anchor="middle" font-size="11px"><rect fill="none" stroke="none" x="610" y="341" width="44" height="12" stroke-width="1" transform="translate(0.5, 0.5)"/><text x="632.6" y="350.6">Datadog</text></g></g><g transform="translate(0.5,0.5)" style="visibility: visible; cursor: move;"><rect x="532.6" y="358.6" width="200" height="100" fill="#f0fff07f" stroke="#000000" pointer-events="all"/></g><g style="cursor: move;"><g fill="#774400" font-family="Arial,Helvetica" direction="" text-anchor="middle" font-size="11px"><rect fill="none" stroke="none" x="572" y="384" width="121" height="38" stroke-width="1" transform="translate(0.5, 0.5)"/><text x="632.6" y="393.6">Datadog</text><text x="632.6" y="419.6">image: datadog/datadog</text></g></g><g transform="translate(0.5,0.5)" style="visibility: visible;"><ellipse cx="97.6" cy="88.6" rx="10" ry="10" fill="#ffffd27f" stroke="#000000" pointer-events="all"/></g><g style=""><g fill="#774400" font-family="Arial,Helvetica" direction="" text-anchor="middle" font-size="11px"><rect fill="none" stroke="none" x="84" y="103" width="27" height="12" stroke-width="1" transform="translate(0.5, 0.5)"/><text x="97.6" y="113.1">9090</text></g></g><g transform="translate(0.5,0.5)" style="visibility: visible;"><ellipse cx="127.6" cy="88.6" rx="10" ry="10" fill="#ffffd27f" stroke="#000000" pointer-events="all"/></g><g style=""><g fill="#774400" font-family="Arial,Helvetica" direction="" text-anchor="middle" font-size="11px"><rect fill="none" stroke="none" x="120" y="103" width="15" height="12" stroke-width="1" transform="translate(0.5, 0.5)"/><text x="127.6" y="113.1">80</text></g></g><g transform="translate(0.5,0.5)" style="visibility: visible;"><ellipse cx="157.6" cy="88.6" rx="10" ry="10" fill="#ffffd27f" stroke="#000000" pointer-events="all"/></g><g style=""><g fill="#774400" font-family="Arial,Helvetica" direction="" text-anchor="middle" font-size="11px"><rect fill="none" stroke="none" x="144" y="103" width="27" height="12" stroke-width="1" transform="translate(0.5, 0.5)"/><text x="157.6" y="113.1">8000</text></g></g><g transform="translate(0.5,0.5)" style="visibility: visible;"><rect x="87.6" y="88.6" width="84" height="25" fill="#f0f0f07f" stroke="#000000" pointer-events="all"/></g><g style=""><g fill="#774400" font-family="Arial,Helvetica" direction="" text-anchor="middle" font-size="11px"><rect fill="none" stroke="none" x="96" y="96" width="67" height="12" stroke-width="1" transform="translate(0.5, 0.5)"/><text x="129.6" y="105.6">./prometheus</text></g></g><g transform="translate(0.5,0.5)" style="visibility: visible;"><rect x="187.6" y="88.6" width="63" height="25" fill="#f0f0f07f" stroke="#000000" pointer-events="all"/></g><g style=""><g fill="#774400" font-family="Arial,Helvetica" direction="" text-anchor="middle" font-size="11px"><rect fill="none" stroke="none" x="191" y="96" width="57" height="12" stroke-width="1" transform="translate(0.5, 0.5)"/><text x="219.1" y="105.6">Prom_data</text></g></g><g transform="translate(0.5,0.5)" style="visibility: visible;"><path d="M 107.6 418.6 L 107.6 278.6 Q 107.6 258.6 102.6 258.6 L 100.1 258.6 Q 97.6 258.6 97.6 238.6 L 97.6 104.97" fill="none" stroke="white" stroke-miterlimit="10" pointer-events="stroke" visibility="hidden" stroke-width="9"/><path d="M 107.6 418.6 L 107.6 278.6 Q 107.6 258.6 102.6 258.6 L 100.1 258.6 Q 97.6 258.6 97.6 238.6 L 97.6 104.97" fill="none" stroke="#000000" stroke-miterlimit="10" pointer-events="stroke"/><path d="M 97.6 99.72 L 101.1 106.72 L 97.6 104.97 L 94.1 106.72 Z" fill="#000000" stroke="#000000" stroke-miterlimit="10" pointer-events="all"/></g><g transform="translate(0.5,0.5)" style="visibility: visible;"><path d="M 142.6 428.6 L 142.6 291.1 Q 142.6 271.1 136.1 271.1 L 132.85 271.1 Q 129.6 271.1 129.6 251.1 L 129.6 119.97" fill="none" stroke="white" stroke-miterlimit="10" pointer-events="stroke" visibility="hidden" stroke-width="9"/><path d="M 142.6 428.6 L 142.6 291.1 Q 142.6 271.1 136.1 271.1 L 132.85 271.1 Q 129.6 271.1 129.6 251.1 L 129.6 119.97" fill="none" stroke="#000000" stroke-miterlimit="10" pointer-events="stroke"/><path d="M 129.6 114.72 L 133.1 121.72 L 129.6 119.97 L 126.1 121.72 Z" fill="#000000" stroke="#000000" stroke-miterlimit="10" pointer-events="all"/></g><g style=""><g fill="#000000" font-family="Arial,Helvetica" direction="" text-anchor="middle" font-size="11px"><rect fill="none" stroke="none" x="130" y="266" width="13" height="12" stroke-width="1" transform="translate(0.5, 0.5)"/><text x="136.1" y="275.6">ro</text></g></g><g transform="translate(0.5,0.5)" style="visibility: visible;"><path d="M 236.1 428.6 L 236.1 291.1 Q 236.1 271.1 227.6 271.1 L 223.35 271.1 Q 219.1 271.1 219.1 251.1 L 219.1 119.97" fill="none" stroke="white" stroke-miterlimit="10" pointer-events="stroke" visibility="hidden" stroke-width="9"/><path d="M 236.1 428.6 L 236.1 291.1 Q 236.1 271.1 227.6 271.1 L 223.35 271.1 Q 219.1 271.1 219.1 251.1 L 219.1 119.97" fill="none" stroke="#000000" stroke-miterlimit="10" pointer-events="stroke"/><path d="M 219.1 114.72 L 222.6 121.72 L 219.1 119.97 L 215.6 121.72 Z" fill="#000000" stroke="#000000" stroke-miterlimit="10" pointer-events="all"/></g><g style=""><g fill="#000000" font-family="Arial,Helvetica" direction="" text-anchor="middle" font-size="11px"><rect fill="none" stroke="none" x="220" y="266" width="15" height="12" stroke-width="1" transform="translate(0.5, 0.5)"/><text x="227.6" y="275.6">rw</text></g></g><g transform="translate(0.5,0.5)" style="visibility: visible;"><path d="M 192.6 393.6 L 192.6 273.6 Q 192.6 253.6 212.6 253.6 L 225.1 253.6 Q 237.6 253.6 237.6 233.6 L 237.6 119.97" fill="none" stroke="white" stroke-miterlimit="10" pointer-events="stroke" visibility="hidden" stroke-width="9"/><path d="M 192.6 393.6 L 192.6 273.6 Q 192.6 253.6 212.6 253.6 L 225.1 253.6 Q 237.6 253.6 237.6 233.6 L 237.6 119.97" fill="none" stroke="#000000" stroke-miterlimit="10" pointer-events="stroke"/><path d="M 237.6 114.72 L 241.1 121.72 L 237.6 119.97 L 234.1 121.72 Z" fill="#000000" stroke="#000000" stroke-miterlimit="10" pointer-events="all"/></g><g style=""><g fill="#000000" font-family="Arial,Helvetica" direction="" text-anchor="middle" font-size="11px"><rect fill="none" stroke="none" x="173" y="248" width="84" height="12" stroke-width="1" transform="translate(0.5, 0.5)"/><text x="215.6" y="258.1">alias:['database']</text></g></g><g transform="translate(0.5,0.5)" style="visibility: visible; cursor: move;"><path d="M 297.6 468.6 L 417.6 468.6 Q 437.6 468.6 437.6 448.6 L 437.6 119.97" fill="none" stroke="white" stroke-miterlimit="10" pointer-events="stroke" visibility="hidden" stroke-width="9"/><path d="M 297.6 468.6 L 417.6 468.6 Q 437.6 468.6 437.6 448.6 L 437.6 119.97" fill="none" stroke="#000000" stroke-miterlimit="10" pointer-events="stroke"/><path d="M 437.6 114.72 L 441.1 121.72 L 437.6 119.97 L 434.1 121.72 Z" fill="#000000" stroke="#000000" stroke-miterlimit="10" pointer-events="all"/></g><g style="cursor: move;"><g fill="#000000" font-family="Arial,Helvetica" direction="" text-anchor="middle" font-size="11px"><rect fill="none" stroke="none" x="396" y="356" width="83" height="12" stroke-width="1" transform="translate(0.5, 0.5)"/><text x="437.6" y="366.1">alias:['unknown']</text></g></g><g transform="translate(0.5,0.5)" style="visibility: visible; cursor: move;"><rect x="527.6" y="83.6" width="210" height="150" fill="#f1f1f17f" stroke="#000000" pointer-events="all"/></g><g style="cursor: move;"><g fill="#774400" font-family="Arial,Helvetica" direction="" text-anchor="middle" font-size="11px"><rect fill="none" stroke="none" x="613" y="91" width="38" height="12" stroke-width="1" transform="translate(0.5, 0.5)"/><text x="632.6" y="100.6">Golden</text></g></g><g transform="translate(0.5,0.5)" style="visibility: visible; cursor: move;"><rect x="537.6" y="113.6" width="200" height="100" fill="#f0fff07f" stroke="#000000" pointer-events="all"/></g><g style="cursor: move;"><g fill="#774400" font-family="Arial,Helvetica" direction="" text-anchor="middle" font-size="11px"><rect fill="none" stroke="none" x="605" y="139" width="66" height="38" stroke-width="1" transform="translate(0.5, 0.5)"/><text x="637.6" y="148.6">Retriever</text><text x="637.6" y="174.6">points: 10/10</text></g></g><g transform="translate(0.5,0.5)" style="visibility: visible; cursor: move;"><path d="M 632.6 233.6 L 632.6 327.23" fill="none" stroke="white" stroke-miterlimit="10" pointer-events="stroke" visibility="hidden" stroke-width="9"/><path d="M 632.6 233.6 L 632.6 327.23" fill="none" stroke="#000000" stroke-miterlimit="10" pointer-events="stroke"/><path d="M 632.6 332.48 L 629.1 325.48 L 632.6 327.23 L 636.1 325.48 Z" fill="#000000" stroke="#000000" stroke-miterlimit="10" pointer-events="all"/></g></g><g/><g/></g></svg>