<svg xmlns="http://www.w3.org/2000/svg" style="left: 0px; top: 0px; width: 100%; height: 100%; display: block; min-width: 881px; min-height: 596px;"><g><g/><g><g transform="translate(0.5,0.5)" style="visibility: visible;"><rect x="246" y="10" width="100" height="50" fill="#b5f5ff7f" stroke="#000000" pointer-events="all"/></g><g style=""><g fill="#774400" font-family="Arial,Helvetica" direction="" text-anchor="middle" font-size="11px"><rect fill="none" stroke="none" x="262" y="23" width="67" height="26" stroke-width="1" transform="translate(0.5, 0.5)"/><text x="296" y="33">Front-tier</text><text x="296" y="46">&lt;&lt;network&gt;&gt;</text></g></g><g transform="translate(0.5,0.5)" style="visibility: visible;"><rect x="96" y="10" width="100" height="50" fill="#b5f5ff7f" stroke="#000000" pointer-events="all"/></g><g style=""><g fill="#774400" font-family="Arial,Helvetica" direction="" text-anchor="middle" font-size="11px"><rect fill="none" stroke="none" x="112" y="23" width="67" height="26" stroke-width="1" transform="translate(0.5, 0.5)"/><text x="146" y="33">Back-tier</text><text x="146" y="46">&lt;&lt;network&gt;&gt;</text></g></g><g transform="translate(0.5,0.5)" style="visibility: visible;"><rect x="-24" y="10" width="100" height="50" fill="#b5f5ff7f" stroke="#000000" pointer-events="all"/></g><g style=""><g fill="#774400" font-family="Arial,Helvetica" direction="" text-anchor="middle" font-size="11px"><rect fill="none" stroke="none" x="-8" y="23" width="67" height="26" stroke-width="1" transform="translate(0.5, 0.5)"/><text x="26" y="33">Admin</text><text x="26" y="46">&lt;&lt;network&gt;&gt;</text></g></g><g transform="translate(0.5,0.5)" style="visibility: visible;"><rect x="-214" y="10" width="100" height="50" fill="#b5f5ff7f" stroke="#000000" pointer-events="all"/></g><g style=""><g fill="#774400" font-family="Arial,Helvetica" direction="" text-anchor="middle" font-size="11px"><rect fill="none" stroke="none" x="-198" y="23" width="67" height="26" stroke-width="1" transform="translate(0.5, 0.5)"/><text x="-164" y="33">Undefined</text><text x="-164" y="46">&lt;&lt;network&gt;&gt;</text></g></g><g transform="translate(0.5,0.5)" style="visibility: visible; cursor: move;"><rect x="-224" y="250" width="300" height="290" fill="#f1f1f17f" stroke="#000000" pointer-events="all"/></g><g style="cursor: move;"><g fill="#774400" font-family="Arial,Helvetica" direction="" text-anchor="middle" font-size="11px"><rect fill="none" stroke="none" x="-105" y="257" width="62" height="12" stroke-width="1" transform="translate(0.5, 0.5)"/><text x="-74" y="267">Prometheus</text></g></g><g transform="translate(0.5,0.5)" style="visibility: visible;"><rect x="-214" y="275" width="280" height="100" fill="#f0fff07f" stroke="#000000" pointer-events="all"/></g><g style=""><g fill="#774400" font-family="Arial,Helvetica" direction="" text-anchor="middle" font-size="11px"><rect fill="none" stroke="none" x="-213" y="287" width="277" height="64" stroke-width="1" transform="translate(0.5, 0.5)"/><text x="-74" y="297">Prometheus</text><text x="-74" y="323">image: prom/prometheus</text><text x="-74" y="336">command: --config.file=/etc/prometheus/prometheus.yml</text><text x="-74" y="349">restart: unless-stopped</text></g></g><g transform="translate(0.5,0.5)" style="visibility: visible;"><ellipse cx="26" cy="430" rx="10" ry="10" fill="#ffffd27f" stroke="#000000" pointer-events="all"/></g><g style=""><g fill="#774400" font-family="Arial,Helvetica" direction="" text-anchor="middle" font-size="11px"><rect fill="none" stroke="none" x="12" y="444" width="27" height="12" stroke-width="1" transform="translate(0.5, 0.5)"/><text x="26" y="454.5">9090</text></g></g><g transform="translate(0.5,0.5)" style="visibility: visible;"><rect x="-54" y="480" width="90" height="25" fill="#f0f0f07f" stroke="#000000" pointer-events="all"/></g><g style=""><g fill="#774400" font-family="Arial,Helvetica" direction="" text-anchor="middle" font-size="11px"><rect fill="none" stroke="none" x="-51" y="487" width="82" height="12" stroke-width="1" transform="translate(0.5, 0.5)"/><text x="-9" y="497">/etc/prometheus</text></g></g><g transform="translate(0.5,0.5)" style="visibility: visible;"><rect x="-184" y="480" width="77" height="25" fill="#f0f0f07f" stroke="#000000" pointer-events="all"/></g><g style=""><g fill="#774400" font-family="Arial,Helvetica" direction="" text-anchor="middle" font-size="11px"><rect fill="none" stroke="none" x="-178" y="487" width="65" height="12" stroke-width="1" transform="translate(0.5, 0.5)"/><text x="-145.5" y="497">/prometheus</text></g></g><g transform="translate(0.5,0.5)" style="visibility: visible;"><path d="M -74 375 L -74 386.25 Q -74 397.5 -54 397.5 L 6 397.5 Q 26 397.5 26 408.75 L 26 420" fill="none" stroke="white" stroke-miterlimit="10" pointer-events="stroke" visibility="hidden" stroke-width="9"/><path d="M -74 375 L -74 386.25 Q -74 397.5 -54 397.5 L 6 397.5 Q 26 397.5 26 408.75 L 26 420" fill="none" stroke="#000000" stroke-miterlimit="10" pointer-events="stroke"/></g><g transform="translate(0.5,0.5)" style="visibility: visible;"><path d="M -74 375 L -74 407.5 Q -74 427.5 -54 427.5 L -29 427.5 Q -9 427.5 -9 447.5 L -9 471.88" fill="none" stroke="white" stroke-miterlimit="10" pointer-events="stroke" visibility="hidden" stroke-width="9"/><path d="M -74 375 L -74 407.5 Q -74 427.5 -54 427.5 L -29 427.5 Q -9 427.5 -9 447.5 L -9 471.88" fill="none" stroke="#000000" stroke-miterlimit="10" stroke-dasharray="3 3" pointer-events="stroke"/><path d="M -9 478.88 L -12.5 471.88 L -5.5 471.88 Z" fill="#000000" stroke="#000000" stroke-miterlimit="10" pointer-events="all"/></g><g style=""><g fill="#000000" font-family="Arial,Helvetica" direction="" text-anchor="middle" font-size="11px"><rect fill="none" stroke="none" x="-52" y="422" width="21" height="12" stroke-width="1" transform="translate(0.5, 0.5)"/><text x="-41.5" y="432">use</text></g></g><g transform="translate(0.5,0.5)" style="visibility: visible;"><path d="M -74 375 L -74 407.5 Q -74 427.5 -94 427.5 L -125.5 427.5 Q -145.5 427.5 -145.5 447.5 L -145.5 471.88" fill="none" stroke="white" stroke-miterlimit="10" pointer-events="stroke" visibility="hidden" stroke-width="9"/><path d="M -74 375 L -74 407.5 Q -74 427.5 -94 427.5 L -125.5 427.5 Q -145.5 427.5 -145.5 447.5 L -145.5 471.88" fill="none" stroke="#000000" stroke-miterlimit="10" stroke-dasharray="3 3" pointer-events="stroke"/><path d="M -145.5 478.88 L -149 471.88 L -142 471.88 Z" fill="#000000" stroke="#000000" stroke-miterlimit="10" pointer-events="all"/></g><g style=""><g fill="#000000" font-family="Arial,Helvetica" direction="" text-anchor="middle" font-size="11px"><rect fill="none" stroke="none" x="-120" y="422" width="21" height="12" stroke-width="1" transform="translate(0.5, 0.5)"/><text x="-109.5" y="432">use</text></g></g><g transform="translate(0.5,0.5)" style="visibility: visible; cursor: move;"><rect x="176" y="300" width="340" height="290" fill="#f1f1f17f" stroke="#000000" pointer-events="all"/></g><g style="cursor: move;"><g fill="#774400" font-family="Arial,Helvetica" direction="" text-anchor="middle" font-size="11px"><rect fill="none" stroke="none" x="325" y="307" width="43" height="12" stroke-width="1" transform="translate(0.5, 0.5)"/><text x="346" y="317">Grafana</text></g></g><g transform="translate(0.5,0.5)" style="visibility: visible; cursor: move;"><rect x="186" y="325" width="320" height="100" fill="#f0fff07f" stroke="#000000" pointer-events="all"/></g><g style="cursor: move;"><g fill="#774400" font-family="Arial,Helvetica" direction="" text-anchor="middle" font-size="11px"><rect fill="none" stroke="none" x="195" y="330" width="301" height="77" stroke-width="1" transform="translate(0.5, 0.5)"/><text x="346" y="340.5">Grafana</text><text x="346" y="366.5">image: grafana/grafana</text><text x="346" y="379.5">restart: unless-stopped</text><text x="346" y="392.5">environment: GF_SECURITY_ADMIN_USER=admin</text><text x="346" y="405.5">environment: GF_SECURITY_ADMIN_PASSWORD=grafana</text></g></g><g transform="translate(0.5,0.5)" style="visibility: visible;"><ellipse cx="256" cy="480" rx="10" ry="10" fill="#ffffd27f" stroke="#000000" pointer-events="all"/></g><g style=""><g fill="#774400" font-family="Arial,Helvetica" direction="" text-anchor="middle" font-size="11px"><rect fill="none" stroke="none" x="218" y="494" width="76" height="12" stroke-width="1" transform="translate(0.5, 0.5)"/><text x="256" y="504.5">127.0.0.1:8080</text></g></g><g transform="translate(0.5,0.5)" style="visibility: visible;"><ellipse cx="446" cy="480" rx="10" ry="10" fill="#ffffd27f" stroke="#000000" pointer-events="all"/></g><g style=""><g fill="#774400" font-family="Arial,Helvetica" direction="" text-anchor="middle" font-size="11px"><rect fill="none" stroke="none" x="394" y="494" width="104" height="12" stroke-width="1" transform="translate(0.5, 0.5)"/><text x="446" y="504.5">127.0.0.1:8000-9000</text></g></g><g transform="translate(0.5,0.5)" style="visibility: visible;"><rect x="236" y="530" width="222" height="25" fill="#f0f0f07f" stroke="#000000" pointer-events="all"/></g><g style=""><g fill="#774400" font-family="Arial,Helvetica" direction="" text-anchor="middle" font-size="11px"><rect fill="none" stroke="none" x="253" y="537" width="186" height="12" stroke-width="1" transform="translate(0.5, 0.5)"/><text x="347" y="547">/etc/grafana/provisioning/datasources</text></g></g><g transform="translate(0.5,0.5)" style="visibility: visible;"><path d="M 346 425 L 346 436.25 Q 346 447.5 326 447.5 L 276 447.5 Q 256 447.5 256 458.75 L 256 470" fill="none" stroke="white" stroke-miterlimit="10" pointer-events="stroke" visibility="hidden" stroke-width="9"/><path d="M 346 425 L 346 436.25 Q 346 447.5 326 447.5 L 276 447.5 Q 256 447.5 256 458.75 L 256 470" fill="none" stroke="#000000" stroke-miterlimit="10" pointer-events="stroke"/></g><g transform="translate(0.5,0.5)" style="visibility: visible;"><path d="M 346 425 L 346 436.25 Q 346 447.5 366 447.5 L 426 447.5 Q 446 447.5 446 458.75 L 446 470" fill="none" stroke="white" stroke-miterlimit="10" pointer-events="stroke" visibility="hidden" stroke-width="9"/><path d="M 346 425 L 346 436.25 Q 346 447.5 366 447.5 L 426 447.5 Q 446 447.5 446 458.75 L 446 470" fill="none" stroke="#000000" stroke-miterlimit="10" pointer-events="stroke"/></g><g transform="translate(0.5,0.5)" style="visibility: visible;"><path d="M 346 425 L 346 457.5 Q 346 477.5 346.5 477.5 L 346.75 477.5 Q 347 477.5 347 497.5 L 347 521.88" fill="none" stroke="white" stroke-miterlimit="10" pointer-events="stroke" visibility="hidden" stroke-width="9"/><path d="M 346 425 L 346 457.5 Q 346 477.5 346.5 477.5 L 346.75 477.5 Q 347 477.5 347 497.5 L 347 521.88" fill="none" stroke="#000000" stroke-miterlimit="10" stroke-dasharray="3 3" pointer-events="stroke"/><path d="M 347 528.88 L 343.5 521.88 L 350.5 521.88 Z" fill="#000000" stroke="#000000" stroke-miterlimit="10" pointer-events="all"/></g><g style=""><g fill="#000000" font-family="Arial,Helvetica" direction="" text-anchor="middle" font-size="11px"><rect fill="none" stroke="none" x="336" y="472" width="21" height="12" stroke-width="1" transform="translate(0.5, 0.5)"/><text x="346.5" y="482">use</text></g></g><g transform="translate(0.5,0.5)" style="visibility: visible;"><rect x="436" y="50" width="220" height="150" fill="#f1f1f17f" stroke="#000000" pointer-events="all"/></g><g style=""><g fill="#774400" font-family="Arial,Helvetica" direction="" text-anchor="middle" font-size="11px"><rect fill="none" stroke="none" x="524" y="57" width="44" height="12" stroke-width="1" transform="translate(0.5, 0.5)"/><text x="546" y="67">Datadog</text></g></g><g transform="translate(0.5,0.5)" style="visibility: visible;"><rect x="446" y="75" width="200" height="100" fill="#f0fff07f" stroke="#000000" pointer-events="all"/></g><g style=""><g fill="#774400" font-family="Arial,Helvetica" direction="" text-anchor="middle" font-size="11px"><rect fill="none" stroke="none" x="485" y="100" width="121" height="38" stroke-width="1" transform="translate(0.5, 0.5)"/><text x="546" y="110">Datadog</text><text x="546" y="136">image: datadog/datadog</text></g></g><g transform="translate(0.5,0.5)" style="visibility: visible;"><ellipse cx="96" cy="430" rx="10" ry="10" fill="#ffffd27f" stroke="#000000" pointer-events="all"/></g><g style=""><g fill="#774400" font-family="Arial,Helvetica" direction="" text-anchor="middle" font-size="11px"><rect fill="none" stroke="none" x="82" y="444" width="27" height="12" stroke-width="1" transform="translate(0.5, 0.5)"/><text x="96" y="454.5">9090</text></g></g><g transform="translate(0.5,0.5)" style="visibility: visible;"><ellipse cx="156" cy="430" rx="10" ry="10" fill="#ffffd27f" stroke="#000000" pointer-events="all"/></g><g style=""><g fill="#774400" font-family="Arial,Helvetica" direction="" text-anchor="middle" font-size="11px"><rect fill="none" stroke="none" x="148" y="444" width="15" height="12" stroke-width="1" transform="translate(0.5, 0.5)"/><text x="156" y="454.5">80</text></g></g><g transform="translate(0.5,0.5)" style="visibility: visible;"><ellipse cx="576" cy="430" rx="10" ry="10" fill="#ffffd27f" stroke="#000000" pointer-events="all"/></g><g style=""><g fill="#774400" font-family="Arial,Helvetica" direction="" text-anchor="middle" font-size="11px"><rect fill="none" stroke="none" x="562" y="444" width="27" height="12" stroke-width="1" transform="translate(0.5, 0.5)"/><text x="576" y="454.5">8000</text></g></g><g transform="translate(0.5,0.5)" style="visibility: visible;"><rect x="-64" y="570" width="84" height="25" fill="#f0f0f07f" stroke="#000000" pointer-events="all"/></g><g style=""><g fill="#774400" font-family="Arial,Helvetica" direction="" text-anchor="middle" font-size="11px"><rect fill="none" stroke="none" x="-56" y="577" width="67" height="12" stroke-width="1" transform="translate(0.5, 0.5)"/><text x="-22" y="587">./prometheus</text></g></g><g transform="translate(0.5,0.5)" style="visibility: visible;"><rect x="-184" y="570" width="63" height="25" fill="#f0f0f07f" stroke="#000000" pointer-events="all"/></g><g style=""><g fill="#774400" font-family="Arial,Helvetica" direction="" text-anchor="middle" font-size="11px"><rect fill="none" stroke="none" x="-181" y="577" width="57" height="12" stroke-width="1" transform="translate(0.5, 0.5)"/><text x="-152.5" y="587">Prom_data</text></g></g><g transform="translate(0.5,0.5)" style="visibility: visible;"><rect x="326" y="570" width="63" height="25" fill="#f0f0f07f" stroke="#000000" pointer-events="all"/></g><g style=""><g fill="#774400" font-family="Arial,Helvetica" direction="" text-anchor="middle" font-size="11px"><rect fill="none" stroke="none" x="334" y="577" width="46" height="12" stroke-width="1" transform="translate(0.5, 0.5)"/><text x="357.5" y="587">./grafana</text></g></g><g transform="translate(0.5,0.5)" style="visibility: visible;"><path d="M 36 430 L 86 430" fill="none" stroke="white" stroke-miterlimit="10" pointer-events="stroke" visibility="hidden" stroke-width="9"/><path d="M 36 430 L 86 430" fill="none" stroke="#000000" stroke-miterlimit="10" pointer-events="stroke"/></g><g transform="translate(0.5,0.5)" style="visibility: visible;"><path d="M -9 505 L -9 521.25 Q -9 537.5 -15.5 537.5 L -18.75 537.5 Q -22 537.5 -22 553.75 L -22 570" fill="none" stroke="white" stroke-miterlimit="10" pointer-events="stroke" visibility="hidden" stroke-width="9"/><path d="M -9 505 L -9 521.25 Q -9 537.5 -15.5 537.5 L -18.75 537.5 Q -22 537.5 -22 553.75 L -22 570" fill="none" stroke="#000000" stroke-miterlimit="10" pointer-events="stroke"/></g><g style=""><g fill="#000000" font-family="Arial,Helvetica" direction="" text-anchor="middle" font-size="11px"><rect fill="none" stroke="none" x="-22" y="532" width="13" height="12" stroke-width="1" transform="translate(0.5, 0.5)"/><text x="-15.5" y="542">ro</text></g></g><g transform="translate(0.5,0.5)" style="visibility: visible;"><path d="M -145.5 505 L -145.5 521.25 Q -145.5 537.5 -149 537.5 L -150.75 537.5 Q -152.5 537.5 -152.5 553.75 L -152.5 570" fill="none" stroke="white" stroke-miterlimit="10" pointer-events="stroke" visibility="hidden" stroke-width="9"/><path d="M -145.5 505 L -145.5 521.25 Q -145.5 537.5 -149 537.5 L -150.75 537.5 Q -152.5 537.5 -152.5 553.75 L -152.5 570" fill="none" stroke="#000000" stroke-miterlimit="10" pointer-events="stroke"/></g><g style=""><g fill="#000000" font-family="Arial,Helvetica" direction="" text-anchor="middle" font-size="11px"><rect fill="none" stroke="none" x="-156" y="532" width="15" height="12" stroke-width="1" transform="translate(0.5, 0.5)"/><text x="-149" y="542">rw</text></g></g><g transform="translate(0.5,0.5)" style="visibility: visible; cursor: move;"><path d="M 76 395 L 126 395 Q 146 395 146 375 L 146 68.12" fill="none" stroke="white" stroke-miterlimit="10" pointer-events="stroke" visibility="hidden" stroke-width="9"/><path d="M 76 395 L 126 395 Q 146 395 146 375 L 146 68.12" fill="none" stroke="#000000" stroke-miterlimit="10" pointer-events="stroke"/><path d="M 146 61.12 L 149.5 68.12 L 142.5 68.12 Z" fill="#000000" stroke="#000000" stroke-miterlimit="10" pointer-events="all"/></g><g style="cursor: move;"><g fill="#000000" font-family="Arial,Helvetica" direction="" text-anchor="middle" font-size="11px"><rect fill="none" stroke="none" x="104" y="256" width="84" height="12" stroke-width="1" transform="translate(0.5, 0.5)"/><text x="146" y="266.5">alias:['database']</text></g></g><g transform="translate(0.5,0.5)" style="visibility: visible;"><path d="M -74 250 L -74 175 Q -74 155 -54 155 L 6 155 Q 26 155 26 135 L 26 68.12" fill="none" stroke="white" stroke-miterlimit="10" pointer-events="stroke" visibility="hidden" stroke-width="9"/><path d="M -74 250 L -74 175 Q -74 155 -54 155 L 6 155 Q 26 155 26 135 L 26 68.12" fill="none" stroke="#000000" stroke-miterlimit="10" pointer-events="stroke"/><path d="M 26 61.12 L 29.5 68.12 L 22.5 68.12 Z" fill="#000000" stroke="#000000" stroke-miterlimit="10" pointer-events="all"/></g><g style=""><g fill="#000000" font-family="Arial,Helvetica" direction="" text-anchor="middle" font-size="11px"><rect fill="none" stroke="none" x="-58" y="149" width="67" height="12" stroke-width="1" transform="translate(0.5, 0.5)"/><text x="-24" y="159.5">alias:['mysql']</text></g></g><g transform="translate(0.5,0.5)" style="visibility: visible;"><path d="M -74 250 L -74 175 Q -74 155 -94 155 L -144 155 Q -164 155 -164 135 L -164 68.12" fill="none" stroke="white" stroke-miterlimit="10" pointer-events="stroke" visibility="hidden" stroke-width="9"/><path d="M -74 250 L -74 175 Q -74 155 -94 155 L -144 155 Q -164 155 -164 135 L -164 68.12" fill="none" stroke="#000000" stroke-miterlimit="10" pointer-events="stroke"/><path d="M -164 61.12 L -160.5 68.12 L -167.5 68.12 Z" fill="#000000" stroke="#000000" stroke-miterlimit="10" pointer-events="all"/></g><g style=""><g fill="#000000" font-family="Arial,Helvetica" direction="" text-anchor="middle" font-size="11px"><rect fill="none" stroke="none" x="-161" y="149" width="83" height="12" stroke-width="1" transform="translate(0.5, 0.5)"/><text x="-119" y="159.5">alias:['unknown']</text></g></g><g transform="translate(0.5,0.5)" style="visibility: visible;"><path d="M 246 480 L 176 480 Q 156 480 156 460 L 156 440" fill="none" stroke="white" stroke-miterlimit="10" pointer-events="stroke" visibility="hidden" stroke-width="9"/><path d="M 246 480 L 176 480 Q 156 480 156 460 L 156 440" fill="none" stroke="#000000" stroke-miterlimit="10" pointer-events="stroke"/></g><g style=""><g fill="#000000" font-family="Arial,Helvetica" direction="" text-anchor="middle" font-size="11px"><rect fill="none" stroke="none" x="171" y="474" width="18" height="12" stroke-width="1" transform="translate(0.5, 0.5)"/><text x="181" y="484.5">tcp</text></g></g><g transform="translate(0.5,0.5)" style="visibility: visible;"><path d="M 456 480 L 556 480 Q 576 480 576 460 L 576 440" fill="none" stroke="white" stroke-miterlimit="10" pointer-events="stroke" visibility="hidden" stroke-width="9"/><path d="M 456 480 L 556 480 Q 576 480 576 460 L 576 440" fill="none" stroke="#000000" stroke-miterlimit="10" pointer-events="stroke"/></g><g style=""><g fill="#000000" font-family="Arial,Helvetica" direction="" text-anchor="middle" font-size="11px"><rect fill="none" stroke="none" x="526" y="474" width="18" height="12" stroke-width="1" transform="translate(0.5, 0.5)"/><text x="536" y="484.5">tcp</text></g></g><g transform="translate(0.5,0.5)" style="visibility: visible;"><path d="M 347 555 L 347 560 Q 347 565 352.25 565 L 354.88 565 Q 357.5 565 357.5 567.5 L 357.5 570" fill="none" stroke="white" stroke-miterlimit="10" pointer-events="stroke" visibility="hidden" stroke-width="9"/><path d="M 347 555 L 347 560 Q 347 565 352.25 565 L 354.88 565 Q 357.5 565 357.5 567.5 L 357.5 570" fill="none" stroke="#000000" stroke-miterlimit="10" pointer-events="stroke"/></g><g style=""><g fill="#000000" font-family="Arial,Helvetica" direction="" text-anchor="middle" font-size="11px"><rect fill="none" stroke="none" x="344" y="559" width="13" height="12" stroke-width="1" transform="translate(0.5, 0.5)"/><text x="350" y="569.5">ro</text></g></g><g transform="translate(0.5,0.5)" style="visibility: visible;"><path d="M 346 300 L 346 200 Q 346 180 326 180 L 311 180 Q 296 180 296 160 L 296 68.12" fill="none" stroke="white" stroke-miterlimit="10" pointer-events="stroke" visibility="hidden" stroke-width="9"/><path d="M 346 300 L 346 200 Q 346 180 326 180 L 311 180 Q 296 180 296 160 L 296 68.12" fill="none" stroke="#000000" stroke-miterlimit="10" pointer-events="stroke"/><path d="M 296 61.12 L 299.5 68.12 L 292.5 68.12 Z" fill="#000000" stroke="#000000" stroke-miterlimit="10" pointer-events="all"/></g><g style=""><g fill="#000000" font-family="Arial,Helvetica" direction="" text-anchor="middle" font-size="11px"><rect fill="none" stroke="none" x="297" y="174" width="47" height="12" stroke-width="1" transform="translate(0.5, 0.5)"/><text x="321" y="184.5">alias:['ui']</text></g></g><g transform="translate(0.5,0.5)" style="visibility: visible;"><path d="M 346 300 L 346 200 Q 346 180 326 180 L 166 180 Q 146 180 146 160 L 146 68.12" fill="none" stroke="white" stroke-miterlimit="10" pointer-events="stroke" visibility="hidden" stroke-width="9"/><path d="M 346 300 L 346 200 Q 346 180 326 180 L 166 180 Q 146 180 146 160 L 146 68.12" fill="none" stroke="#000000" stroke-miterlimit="10" pointer-events="stroke"/><path d="M 146 61.12 L 149.5 68.12 L 142.5 68.12 Z" fill="#000000" stroke="#000000" stroke-miterlimit="10" pointer-events="all"/></g></g><g/><g/></g></svg>