<?xml version="1.0" encoding="us-ascii" standalone="no"?><svg xmlns="http://www.w3.org/2000/svg" xmlns:xlink="http://www.w3.org/1999/xlink" contentStyleType="text/css" height="917px" preserveAspectRatio="none" style="width:1549px;height:917px;background:#FFFFFF;" version="1.1" viewBox="0 0 1549 917" width="1549px" zoomAndPan="magnify"><defs/><g><!--cluster e4f00638b8a10e6994e67af2f832d51c--><g id="cluster_e4f00638b8a10e6994e67af2f832d51c"><polygon fill="none" points="16,256.78,26,246.78,375,246.78,375,790.86,365,800.86,16,800.86,16,256.78" style="stroke:#181818;stroke-width:1.0;"/><line style="stroke:#181818;stroke-width:1.0;" x1="365" x2="375" y1="256.78" y2="246.78"/><line style="stroke:#181818;stroke-width:1.0;" x1="16" x2="365" y1="256.78" y2="256.78"/><line style="stroke:#181818;stroke-width:1.0;" x1="365" x2="365" y1="256.78" y2="800.86"/><text fill="#000000" font-family="sans-serif" font-size="14" font-weight="bold" lengthAdjust="spacing" textLength="96" x="143.5" y="272.7751">Prometheus</text></g><!--cluster d9c0e52dd15274d51041b489c7cea0ad--><g id="cluster_d9c0e52dd15274d51041b489c7cea0ad"><polygon fill="none" points="566,240.49,576,230.49,1067,230.49,1067,790.86,1057,800.86,566,800.86,566,240.49" style="stroke:#181818;stroke-width:1.0;"/><line style="stroke:#181818;stroke-width:1.0;" x1="1057" x2="1067" y1="240.49" y2="230.49"/><line style="stroke:#181818;stroke-width:1.0;" x1="566" x2="1057" y1="240.49" y2="240.49"/><line style="stroke:#181818;stroke-width:1.0;" x1="1057" x2="1057" y1="240.49" y2="800.86"/><text fill="#000000" font-family="sans-serif" font-size="14" font-weight="bold" lengthAdjust="spacing" textLength="62" x="781.5" y="256.4851">Grafana</text></g><!--cluster 587516af1efac0b9293f31639c6c31f3--><g id="cluster_587516af1efac0b9293f31639c6c31f3"><polygon fill="none" points="1290,16,1300,6,1532,6,1532,163.49,1522,173.49,1290,173.49,1290,16" style="stroke:#181818;stroke-width:1.0;"/><line style="stroke:#181818;stroke-width:1.0;" x1="1522" x2="1532" y1="16" y2="6"/><line style="stroke:#181818;stroke-width:1.0;" x1="1290" x2="1522" y1="16" y2="16"/><line style="stroke:#181818;stroke-width:1.0;" x1="1522" x2="1522" y1="16" y2="173.49"/><text fill="#000000" font-family="sans-serif" font-size="14" font-weight="bold" lengthAdjust="spacing" textLength="41" x="1386.5" y="31.9951">Woof</text></g><!--entity b0b6236e8ab49920c48d10f339f1a86a--><g id="elem_b0b6236e8ab49920c48d10f339f1a86a"><rect fill="#F1F1F1" height="111.4844" rx="2.5" ry="2.5" style="stroke:#181818;stroke-width:0.5;" width="217" x="114.5" y="294.78"/><rect fill="#F1F1F1" height="10" style="stroke:#181818;stroke-width:0.5;" width="15" x="311.5" y="299.78"/><rect fill="#F1F1F1" height="2" style="stroke:#181818;stroke-width:0.5;" width="4" x="309.5" y="301.78"/><rect fill="#F1F1F1" height="2" style="stroke:#181818;stroke-width:0.5;" width="4" x="309.5" y="305.78"/><text fill="#000000" font-family="sans-serif" font-size="14" font-weight="bold" lengthAdjust="spacing" textLength="96" x="129.5" y="327.7751">prometheus</text><text fill="#000000" font-family="sans-serif" font-size="14" lengthAdjust="spacing" textLength="4" x="129.5" y="344.072">&#160;</text><text fill="#000000" font-family="sans-serif" font-size="14" lengthAdjust="spacing" textLength="177" x="129.5" y="360.3689">image: prom/prometheus</text><text fill="#000000" font-family="sans-serif" font-size="14" lengthAdjust="spacing" textLength="163" x="129.5" y="376.6657">restart: unless-stopped</text><text fill="#000000" font-family="sans-serif" font-size="14" lengthAdjust="spacing" textLength="4" x="129.5" y="392.9626">&#160;</text></g><!--entity cfd4d43463526be4db6bd372951d8018--><g id="elem_cfd4d43463526be4db6bd372951d8018"><ellipse cx="308" cy="512.57" fill="#F1F1F1" rx="8" ry="8" style="stroke:#181818;stroke-width:0.5;"/><text fill="#000000" font-family="sans-serif" font-size="14" lengthAdjust="spacing" textLength="36" x="290" y="542.5651">9090</text></g><!--entity b8365f95fd8d51fff10d734d11af5400--><g id="elem_b8365f95fd8d51fff10d734d11af5400"><rect fill="#F1F1F1" height="39.2969" rx="2.5" ry="2.5" style="stroke:#181818;stroke-width:0.5;" width="147" x="195.5" y="737.57"/><polygon fill="#F1F1F1" points="325.5,742.57,325.5,756.57,337.5,756.57,337.5,748.57,331.5,742.57,325.5,742.57" style="stroke:#181818;stroke-width:0.5;"/><line style="stroke:#181818;stroke-width:0.5;" x1="331.5" x2="331.5" y1="742.57" y2="748.57"/><line style="stroke:#181818;stroke-width:0.5;" x1="337.5" x2="331.5" y1="748.57" y2="748.57"/><text fill="#000000" font-family="sans-serif" font-size="14" lengthAdjust="spacing" textLength="117" x="205.5" y="763.5651">/etc/prometheus</text></g><!--entity 66ea46159f158592d153eec2b58bfad1--><g id="elem_66ea46159f158592d153eec2b58bfad1"><rect fill="#F1F1F1" height="39.2969" rx="2.5" ry="2.5" style="stroke:#181818;stroke-width:0.5;" width="120" x="40" y="737.57"/><polygon fill="#F1F1F1" points="143,742.57,143,756.57,155,756.57,155,748.57,149,742.57,143,742.57" style="stroke:#181818;stroke-width:0.5;"/><line style="stroke:#181818;stroke-width:0.5;" x1="149" x2="149" y1="742.57" y2="748.57"/><line style="stroke:#181818;stroke-width:0.5;" x1="155" x2="149" y1="748.57" y2="748.57"/><text fill="#000000" font-family="sans-serif" font-size="14" lengthAdjust="spacing" textLength="90" x="50" y="763.5651">/prometheus</text></g><!--entity ca625ae68e4d4a58f9ba859ff3420557--><g id="elem_ca625ae68e4d4a58f9ba859ff3420557"><rect fill="#F1F1F1" height="144.0781" rx="2.5" ry="2.5" style="stroke:#181818;stroke-width:0.5;" width="434" x="590" y="278.49"/><rect fill="#F1F1F1" height="10" style="stroke:#181818;stroke-width:0.5;" width="15" x="1004" y="283.49"/><rect fill="#F1F1F1" height="2" style="stroke:#181818;stroke-width:0.5;" width="4" x="1002" y="285.49"/><rect fill="#F1F1F1" height="2" style="stroke:#181818;stroke-width:0.5;" width="4" x="1002" y="289.49"/><text fill="#000000" font-family="sans-serif" font-size="14" font-weight="bold" lengthAdjust="spacing" textLength="60" x="605" y="311.4851">grafana</text><text fill="#000000" font-family="sans-serif" font-size="14" lengthAdjust="spacing" textLength="4" x="605" y="327.782">&#160;</text><text fill="#000000" font-family="sans-serif" font-size="14" lengthAdjust="spacing" textLength="158" x="605" y="344.0789">image: grafana/grafana</text><text fill="#000000" font-family="sans-serif" font-size="14" lengthAdjust="spacing" textLength="163" x="605" y="360.3757">restart: unless-stopped</text><text fill="#000000" font-family="sans-serif" font-size="14" lengthAdjust="spacing" textLength="342" x="605" y="376.6726">environment: GF_SECURITY_ADMIN_USER=admin</text><text fill="#000000" font-family="sans-serif" font-size="14" lengthAdjust="spacing" textLength="394" x="605" y="392.9695">environment: GF_SECURITY_ADMIN_PASSWORD=grafana</text><text fill="#000000" font-family="sans-serif" font-size="14" lengthAdjust="spacing" textLength="4" x="605" y="409.2664">&#160;</text></g><!--entity 9f18a5ea59196197837bdbfebede13e8--><g id="elem_9f18a5ea59196197837bdbfebede13e8"><ellipse cx="934" cy="512.57" fill="#F1F1F1" rx="8" ry="8" style="stroke:#181818;stroke-width:0.5;"/><text fill="#000000" font-family="sans-serif" font-size="14" lengthAdjust="spacing" textLength="107" x="880.5" y="542.5651">127.0.0.1:8080</text></g><!--entity e5b1c7fcc1453c77b2f0388027659c6e--><g id="elem_e5b1c7fcc1453c77b2f0388027659c6e"><ellipse cx="681" cy="512.57" fill="#F1F1F1" rx="8" ry="8" style="stroke:#181818;stroke-width:0.5;"/><text fill="#000000" font-family="sans-serif" font-size="14" lengthAdjust="spacing" textLength="148" x="607" y="542.5651">127.0.0.1:8000-9000</text></g><!--entity de82fbad4c9eebe0bd6d2fe66a3fe0aa--><g id="elem_de82fbad4c9eebe0bd6d2fe66a3fe0aa"><rect fill="#F1F1F1" height="39.2969" rx="2.5" ry="2.5" style="stroke:#181818;stroke-width:0.5;" width="292" x="661" y="737.57"/><polygon fill="#F1F1F1" points="936,742.57,936,756.57,948,756.57,948,748.57,942,742.57,936,742.57" style="stroke:#181818;stroke-width:0.5;"/><line style="stroke:#181818;stroke-width:0.5;" x1="942" x2="942" y1="742.57" y2="748.57"/><line style="stroke:#181818;stroke-width:0.5;" x1="948" x2="942" y1="748.57" y2="748.57"/><text fill="#000000" font-family="sans-serif" font-size="14" lengthAdjust="spacing" textLength="262" x="671" y="763.5651">/etc/grafana/provisioning/datasources</text></g><!--entity cfb8a5b7ebe0f6a517a5ae436a93d5d8--><g id="elem_cfb8a5b7ebe0f6a517a5ae436a93d5d8"><rect fill="#F1F1F1" height="111.4844" rx="2.5" ry="2.5" style="stroke:#181818;stroke-width:0.5;" width="210" x="1306" y="46"/><rect fill="#F1F1F1" height="10" style="stroke:#181818;stroke-width:0.5;" width="15" x="1496" y="51"/><rect fill="#F1F1F1" height="2" style="stroke:#181818;stroke-width:0.5;" width="4" x="1494" y="53"/><rect fill="#F1F1F1" height="2" style="stroke:#181818;stroke-width:0.5;" width="4" x="1494" y="57"/><text fill="#000000" font-family="sans-serif" font-size="14" font-weight="bold" lengthAdjust="spacing" textLength="64" x="1321" y="78.9951">datadog</text><text fill="#000000" font-family="sans-serif" font-size="14" lengthAdjust="spacing" textLength="4" x="1321" y="95.292">&#160;</text><text fill="#000000" font-family="sans-serif" font-size="14" lengthAdjust="spacing" textLength="170" x="1321" y="111.5889">image: datadog/datadog</text><text fill="#000000" font-family="sans-serif" font-size="14" lengthAdjust="spacing" textLength="118" x="1321" y="127.8857">testing: newProp</text><text fill="#000000" font-family="sans-serif" font-size="14" lengthAdjust="spacing" textLength="4" x="1321" y="144.1826">&#160;</text></g><!--entity d9fe74bd71c5f1efd83d8f6cfdd7bef5--><g id="elem_d9fe74bd71c5f1efd83d8f6cfdd7bef5"><polygon fill="#F1F1F1" points="1002,80.45,1012,70.45,1116,70.45,1116,123.0437,1106,133.0437,1002,133.0437,1002,80.45" style="stroke:#181818;stroke-width:0.5;"/><line style="stroke:#181818;stroke-width:0.5;" x1="1106" x2="1116" y1="80.45" y2="70.45"/><line style="stroke:#181818;stroke-width:0.5;" x1="1002" x2="1106" y1="80.45" y2="80.45"/><line style="stroke:#181818;stroke-width:0.5;" x1="1106" x2="1106" y1="80.45" y2="133.0437"/><text fill="#000000" font-family="sans-serif" font-size="14" font-weight="bold" lengthAdjust="spacing" textLength="72" x="1017" y="103.4451">front-tier</text><text fill="#000000" font-family="sans-serif" font-size="14" lengthAdjust="spacing" textLength="74" x="1017" y="119.742">&#171;network&#187;</text></g><!--entity cab64c5af73a02ce213c72c614ccdc8f--><g id="elem_cab64c5af73a02ce213c72c614ccdc8f"><polygon fill="#F1F1F1" points="553,80.45,563,70.45,667,70.45,667,123.0437,657,133.0437,553,133.0437,553,80.45" style="stroke:#181818;stroke-width:0.5;"/><line style="stroke:#181818;stroke-width:0.5;" x1="657" x2="667" y1="80.45" y2="70.45"/><line style="stroke:#181818;stroke-width:0.5;" x1="553" x2="657" y1="80.45" y2="80.45"/><line style="stroke:#181818;stroke-width:0.5;" x1="657" x2="657" y1="80.45" y2="133.0437"/><text fill="#000000" font-family="sans-serif" font-size="14" font-weight="bold" lengthAdjust="spacing" textLength="70" x="568" y="103.4451">back-tier</text><text fill="#000000" font-family="sans-serif" font-size="14" lengthAdjust="spacing" textLength="74" x="568" y="119.742">&#171;network&#187;</text></g><!--entity 21232f297a57a5a743894a0e4a801fc3--><g id="elem_21232f297a57a5a743894a0e4a801fc3"><polygon fill="#F1F1F1" points="356,80.45,366,70.45,470,70.45,470,123.0437,460,133.0437,356,133.0437,356,80.45" style="stroke:#181818;stroke-width:0.5;"/><line style="stroke:#181818;stroke-width:0.5;" x1="460" x2="470" y1="80.45" y2="70.45"/><line style="stroke:#181818;stroke-width:0.5;" x1="356" x2="460" y1="80.45" y2="80.45"/><line style="stroke:#181818;stroke-width:0.5;" x1="460" x2="460" y1="80.45" y2="133.0437"/><text fill="#000000" font-family="sans-serif" font-size="14" font-weight="bold" lengthAdjust="spacing" textLength="47" x="371" y="103.4451">admin</text><text fill="#000000" font-family="sans-serif" font-size="14" lengthAdjust="spacing" textLength="74" x="371" y="119.742">&#171;network&#187;</text></g><!--entity 267de027b65a807d2138ee534426efa5--><g id="elem_267de027b65a807d2138ee534426efa5"><ellipse cx="426" cy="647.57" fill="#F1F1F1" rx="8" ry="8" style="stroke:#181818;stroke-width:0.5;"/><text fill="#000000" font-family="sans-serif" font-size="14" lengthAdjust="spacing" textLength="36" x="408" y="677.5651">9090</text></g><!--entity dba3f4d0bb5aa6fcfa18da2c1f7a9775--><g id="elem_dba3f4d0bb5aa6fcfa18da2c1f7a9775"><ellipse cx="1118" cy="647.57" fill="#F1F1F1" rx="8" ry="8" style="stroke:#181818;stroke-width:0.5;"/><text fill="#000000" font-family="sans-serif" font-size="14" lengthAdjust="spacing" textLength="18" x="1109" y="677.5651">80</text></g><!--entity 1624c420083928ef3e240dd88f2e52f0--><g id="elem_1624c420083928ef3e240dd88f2e52f0"><ellipse cx="515" cy="647.57" fill="#F1F1F1" rx="8" ry="8" style="stroke:#181818;stroke-width:0.5;"/><text fill="#000000" font-family="sans-serif" font-size="14" lengthAdjust="spacing" textLength="36" x="497" y="677.5651">8000</text></g><!--entity 2a4ddbecb762532586835d0f37d85eaf--><g id="elem_2a4ddbecb762532586835d0f37d85eaf"><rect fill="#F1F1F1" height="39.2969" rx="2.5" ry="2.5" style="stroke:#181818;stroke-width:0.5;" width="124" x="207" y="871.86"/><polygon fill="#F1F1F1" points="314,876.86,314,890.86,326,890.86,326,882.86,320,876.86,314,876.86" style="stroke:#181818;stroke-width:0.5;"/><line style="stroke:#181818;stroke-width:0.5;" x1="320" x2="320" y1="876.86" y2="882.86"/><line style="stroke:#181818;stroke-width:0.5;" x1="326" x2="320" y1="882.86" y2="882.86"/><text fill="#000000" font-family="sans-serif" font-size="14" lengthAdjust="spacing" textLength="94" x="217" y="897.8551">./prometheus</text></g><!--entity a1448c8b5db83ada398e734ef1d3277c--><g id="elem_a1448c8b5db83ada398e734ef1d3277c"><rect fill="#F1F1F1" height="39.2969" rx="2.5" ry="2.5" style="stroke:#181818;stroke-width:0.5;" width="103" x="48.5" y="871.86"/><polygon fill="#F1F1F1" points="134.5,876.86,134.5,890.86,146.5,890.86,146.5,882.86,140.5,876.86,134.5,876.86" style="stroke:#181818;stroke-width:0.5;"/><line style="stroke:#181818;stroke-width:0.5;" x1="140.5" x2="140.5" y1="876.86" y2="882.86"/><line style="stroke:#181818;stroke-width:0.5;" x1="146.5" x2="140.5" y1="882.86" y2="882.86"/><text fill="#000000" font-family="sans-serif" font-size="14" lengthAdjust="spacing" textLength="73" x="58.5" y="897.8551">prom_data</text></g><!--entity eec695b1c6be435e7982afe506db7e49--><g id="elem_eec695b1c6be435e7982afe506db7e49"><rect fill="#F1F1F1" height="39.2969" rx="2.5" ry="2.5" style="stroke:#181818;stroke-width:0.5;" width="90" x="762" y="871.86"/><polygon fill="#F1F1F1" points="835,876.86,835,890.86,847,890.86,847,882.86,841,876.86,835,876.86" style="stroke:#181818;stroke-width:0.5;"/><line style="stroke:#181818;stroke-width:0.5;" x1="841" x2="841" y1="876.86" y2="882.86"/><line style="stroke:#181818;stroke-width:0.5;" x1="847" x2="841" y1="882.86" y2="882.86"/><text fill="#000000" font-family="sans-serif" font-size="14" lengthAdjust="spacing" textLength="60" x="772" y="897.8551">./grafana</text></g><!--class 5e543256c480ac577d30f76f9120eb74--><g id="elem_5e543256c480ac577d30f76f9120eb74"><rect fill="#F1F1F1" height="48" id="5e543256c480ac577d30f76f9120eb74" rx="2.5" ry="2.5" style="stroke:#181818;stroke-width:0.5;" width="307" x="14.5" y="77.75"/><ellipse cx="29.5" cy="93.75" fill="#ADD1B2" rx="11" ry="11" style="stroke:#181818;stroke-width:1.0;"/><path d="M32.4688,99.3906 Q31.8906,99.6875 31.25,99.8281 Q30.6094,99.9844 29.9063,99.9844 Q27.4063,99.9844 26.0781,98.3438 Q24.7656,96.6875 24.7656,93.5625 Q24.7656,90.4375 26.0781,88.7813 Q27.4063,87.125 29.9063,87.125 Q30.6094,87.125 31.25,87.2813 Q31.9063,87.4375 32.4688,87.7344 L32.4688,90.4531 Q31.8438,89.875 31.25,89.6094 Q30.6563,89.3281 30.0313,89.3281 Q28.6875,89.3281 28,90.4063 Q27.3125,91.4688 27.3125,93.5625 Q27.3125,95.6563 28,96.7344 Q28.6875,97.7969 30.0313,97.7969 Q30.6563,97.7969 31.25,97.5313 Q31.8438,97.25 32.4688,96.6719 L32.4688,99.3906 Z " fill="#000000"/><text fill="#000000" font-family="sans-serif" font-size="14" lengthAdjust="spacing" textLength="275" x="43.5" y="98.5967">5e543256c480ac577d30f76f9120eb74</text><line style="stroke:#181818;stroke-width:0.5;" x1="15.5" x2="320.5" y1="109.75" y2="109.75"/><line style="stroke:#181818;stroke-width:0.5;" x1="15.5" x2="320.5" y1="117.75" y2="117.75"/></g><!--entity a4c7b81242d013184ed83e84e548d770--><g id="elem_a4c7b81242d013184ed83e84e548d770"><polygon fill="#F1F1F1" points="1151,80.45,1161,70.45,1271,70.45,1271,123.0437,1261,133.0437,1151,133.0437,1151,80.45" style="stroke:#181818;stroke-width:0.5;"/><line style="stroke:#181818;stroke-width:0.5;" x1="1261" x2="1271" y1="80.45" y2="70.45"/><line style="stroke:#181818;stroke-width:0.5;" x1="1151" x2="1261" y1="80.45" y2="80.45"/><line style="stroke:#181818;stroke-width:0.5;" x1="1261" x2="1261" y1="80.45" y2="133.0437"/><text fill="#000000" font-family="sans-serif" font-size="14" font-weight="bold" lengthAdjust="spacing" textLength="80" x="1166" y="103.4451">TestCloud</text><text fill="#000000" font-family="sans-serif" font-size="14" lengthAdjust="spacing" textLength="74" x="1166" y="119.742">&#171;network&#187;</text></g><!--link b0b6236e8ab49920c48d10f339f1a86a to cfd4d43463526be4db6bd372951d8018--><g id="link_b0b6236e8ab49920c48d10f339f1a86a_cfd4d43463526be4db6bd372951d8018"><path codeLine="46" d="M252.25,406.6 C271.37,442.59 294.45,486.05 303.78,503.62 " fill="none" id="b0b6236e8ab49920c48d10f339f1a86a-cfd4d43463526be4db6bd372951d8018" style="stroke:#181818;stroke-width:1.0;"/></g><!--link cfd4d43463526be4db6bd372951d8018 to 267de027b65a807d2138ee534426efa5--><g id="link_cfd4d43463526be4db6bd372951d8018_267de027b65a807d2138ee534426efa5"><path codeLine="47" d="M315.03,521.49 C336.07,545.2 398.36,615.42 419.16,638.85 " fill="none" id="cfd4d43463526be4db6bd372951d8018-267de027b65a807d2138ee534426efa5" style="stroke:#181818;stroke-width:1.0;"/></g><!--link b8365f95fd8d51fff10d734d11af5400 to 2a4ddbecb762532586835d0f37d85eaf--><g id="link_b8365f95fd8d51fff10d734d11af5400_2a4ddbecb762532586835d0f37d85eaf"><path codeLine="48" d="M269,777.17 C269,802.32 269,846.46 269,871.59 " fill="none" id="b8365f95fd8d51fff10d734d11af5400-2a4ddbecb762532586835d0f37d85eaf" style="stroke:#181818;stroke-width:1.0;"/><text fill="#000000" font-family="sans-serif" font-size="13" lengthAdjust="spacing" textLength="13" x="270" y="837.9269">ro</text></g><!--link b0b6236e8ab49920c48d10f339f1a86a to b8365f95fd8d51fff10d734d11af5400--><g id="link_b0b6236e8ab49920c48d10f339f1a86a_b8365f95fd8d51fff10d734d11af5400"><path codeLine="49" d="M229.25,406.53 C239.69,498.37 259.5127,672.7284 266.1727,731.3484 " fill="none" id="b0b6236e8ab49920c48d10f339f1a86a-to-b8365f95fd8d51fff10d734d11af5400" style="stroke:#181818;stroke-width:1.0;stroke-dasharray:7.0,7.0;"/><polygon fill="#181818" points="266.85,737.31,269.8084,727.916,266.2856,732.342,261.8596,728.8191,266.85,737.31" style="stroke:#181818;stroke-width:1.0;"/><text fill="#000000" font-family="sans-serif" font-size="13" lengthAdjust="spacing" textLength="23" x="251" y="584.6369">use</text></g><!--link 66ea46159f158592d153eec2b58bfad1 to a1448c8b5db83ada398e734ef1d3277c--><g id="link_66ea46159f158592d153eec2b58bfad1_a1448c8b5db83ada398e734ef1d3277c"><path codeLine="50" d="M100,777.17 C100,802.32 100,846.46 100,871.59 " fill="none" id="66ea46159f158592d153eec2b58bfad1-a1448c8b5db83ada398e734ef1d3277c" style="stroke:#181818;stroke-width:1.0;"/><text fill="#000000" font-family="sans-serif" font-size="13" lengthAdjust="spacing" textLength="14" x="101" y="837.9269">rw</text></g><!--link b0b6236e8ab49920c48d10f339f1a86a to 66ea46159f158592d153eec2b58bfad1--><g id="link_b0b6236e8ab49920c48d10f339f1a86a_66ea46159f158592d153eec2b58bfad1"><path codeLine="51" d="M206.28,406.53 C178.37,498.37 125.3042,672.9491 107.4942,731.5691 " fill="none" id="b0b6236e8ab49920c48d10f339f1a86a-to-66ea46159f158592d153eec2b58bfad1" style="stroke:#181818;stroke-width:1.0;stroke-dasharray:7.0,7.0;"/><polygon fill="#181818" points="105.75,737.31,112.1936,729.8615,107.2035,732.5259,104.539,727.5359,105.75,737.31" style="stroke:#181818;stroke-width:1.0;"/><text fill="#000000" font-family="sans-serif" font-size="13" lengthAdjust="spacing" textLength="23" x="157" y="584.6369">use</text></g><!--reverse link cab64c5af73a02ce213c72c614ccdc8f to e4f00638b8a10e6994e67af2f832d51c--><g id="link_cab64c5af73a02ce213c72c614ccdc8f_e4f00638b8a10e6994e67af2f832d51c"><path codeLine="52" d="M575.51,137.775 C543.445,170.335 495.6225,218.9 451.0463,264.17 C428.7581,286.805 408.3341,307.5475 393.202,322.9163 C389.419,326.7584 385.9668,330.2648 382.8988,333.3808 C381.3649,334.9389 379.927,336.3994 378.5918,337.7555 C377.9243,338.4335 377.2824,339.0855 376.6671,339.7105 C376.3594,340.023 376.0584,340.3288 375.7641,340.6277 C375.6169,340.7772 375.4715,340.925 375.3277,341.071 " fill="none" id="cab64c5af73a02ce213c72c614ccdc8f-backto-e4f00638b8a10e6994e67af2f832d51c" style="stroke:#181818;stroke-width:1.0;"/><polygon fill="#181818" points="579.72,133.5,570.555,137.1058,576.2116,137.0625,576.255,142.7192,579.72,133.5" style="stroke:#181818;stroke-width:1.0;"/><text fill="#000000" font-family="sans-serif" font-size="13" lengthAdjust="spacing" textLength="109" x="525" y="202.5569">alias:['database']</text></g><!--reverse link 21232f297a57a5a743894a0e4a801fc3 to e4f00638b8a10e6994e67af2f832d51c--><g id="link_21232f297a57a5a743894a0e4a801fc3_e4f00638b8a10e6994e67af2f832d51c"><path codeLine="53" d="M406.1704,139.3984 C400.1004,171.9584 391.35,218.9 382.9113,264.17 C380.8016,275.4875 378.7801,286.3319 376.9279,296.268 C376.4649,298.752 376.0124,301.1792 375.5718,303.5429 C375.4616,304.1339 375.3522,304.7208 375.2436,305.3037 C375.1893,305.5951 375.1351,305.8855 375.0812,306.1749 " fill="none" id="21232f297a57a5a743894a0e4a801fc3-backto-e4f00638b8a10e6994e67af2f832d51c" style="stroke:#181818;stroke-width:1.0;"/><polygon fill="#181818" points="407.27,133.5,401.6883,141.6145,406.3537,138.4153,409.5528,143.0806,407.27,133.5" style="stroke:#181818;stroke-width:1.0;"/><text fill="#000000" font-family="sans-serif" font-size="13" lengthAdjust="spacing" textLength="87" x="398" y="202.5569">alias:['mysql']</text></g><!--reverse link 5e543256c480ac577d30f76f9120eb74 to e4f00638b8a10e6994e67af2f832d51c--><g id="link_5e543256c480ac577d30f76f9120eb74_e4f00638b8a10e6994e67af2f832d51c"><path codeLine="54" d="M189.0513,130.6047 C208.9013,155.2747 240.14,188.5 280,206.49 C296.08,213.75 346.79,201.75 359,214.49 C379.485,235.845 381.7425,268.89 378.7525,296.945 C378.005,303.9587 376.9295,310.6606 375.7289,316.79 C375.5788,317.5562 375.4268,318.3134 375.2732,319.0612 C375.1964,319.4351 375.1192,319.8066 375.0417,320.1757 " fill="none" id="5e543256c480ac577d30f76f9120eb74-backto-e4f00638b8a10e6994e67af2f832d51c" style="stroke:#181818;stroke-width:1.0;"/><polygon fill="#181818" points="185.29,125.93,187.8156,135.4495,188.4244,129.8255,194.0484,130.4344,185.29,125.93" style="stroke:#181818;stroke-width:1.0;"/><text fill="#000000" font-family="sans-serif" font-size="13" lengthAdjust="spacing" textLength="105" x="281" y="202.5569">alias:['unknown']</text></g><!--link ca625ae68e4d4a58f9ba859ff3420557 to 9f18a5ea59196197837bdbfebede13e8--><g id="link_ca625ae68e4d4a58f9ba859ff3420557_9f18a5ea59196197837bdbfebede13e8"><path codeLine="55" d="M863.44,422.65 C888.88,454.71 915.85,488.7 927.75,503.68 " fill="none" id="ca625ae68e4d4a58f9ba859ff3420557-9f18a5ea59196197837bdbfebede13e8" style="stroke:#181818;stroke-width:1.0;"/></g><!--link 9f18a5ea59196197837bdbfebede13e8 to dba3f4d0bb5aa6fcfa18da2c1f7a9775--><g id="link_9f18a5ea59196197837bdbfebede13e8_dba3f4d0bb5aa6fcfa18da2c1f7a9775"><path codeLine="56" d="M942.87,519.98 C974.03,542.5 1078.2,617.8 1109.21,640.22 " fill="none" id="9f18a5ea59196197837bdbfebede13e8-dba3f4d0bb5aa6fcfa18da2c1f7a9775" style="stroke:#181818;stroke-width:1.0;"/><text fill="#000000" font-family="sans-serif" font-size="13" lengthAdjust="spacing" textLength="20" x="1038" y="584.6369">tcp</text></g><!--link ca625ae68e4d4a58f9ba859ff3420557 to e5b1c7fcc1453c77b2f0388027659c6e--><g id="link_ca625ae68e4d4a58f9ba859ff3420557_e5b1c7fcc1453c77b2f0388027659c6e"><path codeLine="57" d="M751,422.65 C725.76,454.71 699.01,488.7 687.21,503.68 " fill="none" id="ca625ae68e4d4a58f9ba859ff3420557-e5b1c7fcc1453c77b2f0388027659c6e" style="stroke:#181818;stroke-width:1.0;"/></g><!--link e5b1c7fcc1453c77b2f0388027659c6e to 1624c420083928ef3e240dd88f2e52f0--><g id="link_e5b1c7fcc1453c77b2f0388027659c6e_1624c420083928ef3e240dd88f2e52f0"><path codeLine="58" d="M672.08,520.72 C643.25,543.81 552.85,616.24 523.97,639.38 " fill="none" id="e5b1c7fcc1453c77b2f0388027659c6e-1624c420083928ef3e240dd88f2e52f0" style="stroke:#181818;stroke-width:1.0;"/><text fill="#000000" font-family="sans-serif" font-size="13" lengthAdjust="spacing" textLength="20" x="608" y="584.6369">tcp</text></g><!--link de82fbad4c9eebe0bd6d2fe66a3fe0aa to eec695b1c6be435e7982afe506db7e49--><g id="link_de82fbad4c9eebe0bd6d2fe66a3fe0aa_eec695b1c6be435e7982afe506db7e49"><path codeLine="59" d="M807,777.17 C807,802.32 807,846.46 807,871.59 " fill="none" id="de82fbad4c9eebe0bd6d2fe66a3fe0aa-eec695b1c6be435e7982afe506db7e49" style="stroke:#181818;stroke-width:1.0;"/><text fill="#000000" font-family="sans-serif" font-size="13" lengthAdjust="spacing" textLength="13" x="808" y="837.9269">ro</text></g><!--link ca625ae68e4d4a58f9ba859ff3420557 to de82fbad4c9eebe0bd6d2fe66a3fe0aa--><g id="link_ca625ae68e4d4a58f9ba859ff3420557_de82fbad4c9eebe0bd6d2fe66a3fe0aa"><path codeLine="60" d="M807,422.95 C807,518.47 807,676.23 807,731.43 " fill="none" id="ca625ae68e4d4a58f9ba859ff3420557-to-de82fbad4c9eebe0bd6d2fe66a3fe0aa" style="stroke:#181818;stroke-width:1.0;stroke-dasharray:7.0,7.0;"/><polygon fill="#181818" points="807,737.43,811,728.43,807,732.43,803,728.43,807,737.43" style="stroke:#181818;stroke-width:1.0;"/><text fill="#000000" font-family="sans-serif" font-size="13" lengthAdjust="spacing" textLength="23" x="808" y="584.6369">use</text></g><!--reverse link d9fe74bd71c5f1efd83d8f6cfdd7bef5 to d9c0e52dd15274d51041b489c7cea0ad--><g id="link_d9fe74bd71c5f1efd83d8f6cfdd7bef5_d9c0e52dd15274d51041b489c7cea0ad"><path codeLine="61" d="M1059,139.5 C1059,155.78 1059,171.13 1059,194.0688 C1059,205.5381 1059,217.4047 1059,229.2333 C1059,229.6029 1059,229.9725 1059,230.3421 " fill="none" id="d9fe74bd71c5f1efd83d8f6cfdd7bef5-backto-d9c0e52dd15274d51041b489c7cea0ad" style="stroke:#181818;stroke-width:1.0;"/><polygon fill="#181818" points="1059,133.5,1055,142.5,1059,138.5,1063,142.5,1059,133.5" style="stroke:#181818;stroke-width:1.0;"/><text fill="#000000" font-family="sans-serif" font-size="13" lengthAdjust="spacing" textLength="60" x="1060" y="202.5569">alias:['ui']</text></g><!--reverse link cab64c5af73a02ce213c72c614ccdc8f to d9c0e52dd15274d51041b489c7cea0ad--><g id="link_cab64c5af73a02ce213c72c614ccdc8f_d9c0e52dd15274d51041b489c7cea0ad"><path codeLine="62" d="M673.2329,115.1594 C784.4629,137.4594 1014.98,186.42 1040,214.49 C1042.4813,217.2731 1044.7291,220.2249 1046.7629,223.3141 C1047.7798,224.8587 1048.7431,226.4376 1049.6554,228.047 C1050.1116,228.8517 1050.5549,229.664 1050.9858,230.4834 " fill="none" id="cab64c5af73a02ce213c72c614ccdc8f-backto-d9c0e52dd15274d51041b489c7cea0ad" style="stroke:#181818;stroke-width:1.0;"/><polygon fill="#181818" points="667.35,113.98,675.3881,119.6711,672.2524,114.9629,676.9607,111.8272,667.35,113.98" style="stroke:#181818;stroke-width:1.0;"/></g><!--SRC=[ZLPRQnjN47xVNx7e9Qr0yhbVH688IHhoq3RO2Q6amSmvC-EAMBkkBd5BoN_lsPNiocx2CH9QMCryS_c-cNFWwgg_MIt_MdQNJTSZjPFfbDTzjvrjbxIUJd_ldZxjQ7lJhp-VdavQsBGOcRn9w6MsB8anQ0piCYFwH6plO1Bapzz5oP2SoHROQn0gav8wUvMTD3bZ3do70hXQTjz2K59fnIfwiEKBtkWG3GWo48Jah0y8RzVzYhP_q6upUf5X8PmEAO0Kv68qv3omug0LMfdRVveszwlhlgDksoQHdDAE0YGJenBP19I2jOui8JXeFpRJwVLTXEcqQPOhkAH5Exmy-U-VPasRBQotYtRNNT5cCzji- -jhmgRvrFpmOpk98efzNnWD6csSjiebCfXSGkrLj19BNQ4f84k6l6qd9xJDHo56znIqinnjOQLKmynIeDS6fGIsHeXZzmUkpX4O9sqfpGOR5KghYR9ADYG6bCtNGqTVhu6XWuCOiY2hi1WhRqf8OMGo8MQV2GJW_NPcSCe2kL3gCc03nmGb5BCsIbZhntPUxk6FUdbuSt9uVhUNr7rP5kckIgX5-_gdY_DNBzwVlNdtsyNpbp-_-UNY_VchisUZd6gMRv-Vdt_uzUpbizk81vQaydDHFd8HHDZpLReLm1BOAAEJqGVj4oQcH4XIK_YVdn2pM7xsOhH9PiyvIsEB_7rIB7G8GdbdOtRqaEpRHXJclYmtoxuhKtk2i8LDlrjdslE851GdG9CZbJH4GeUAoJdGJ0BWZiSFVS-ZXmtUIWV3C4CMAQgeMKkdImfPIzOFIEGoEpRv0PiTM3bC7ndj86gq64OIXwImlpmYyV3cvF1ijeN4alwYxUYcpEZrqEElzsT1EOzKcf6SBJFjiUo8G6IrCSgLLEreVU01KodFe4Z90ZZE338Wg2pPG_J-rlRGUEcKoKLp8kYe0h4cPGHY2AoAclbuJEOFvqI1GKoKaozYrie65xJ5iXGyXY84Fl8TF2-6WaT7aCQ479B5CgM0e6EWCfl44hNoFjyBUdaqP6KANHoaCYm4RSd7e8392eU51XERwfgQuQo-MMe68qgLaze6sgDKUjWksicwdzGBcyznFZ-jhhq1RxUXILDRScDsDQB6x6uUdrqrw6rsrSDfjfkTLe_E0Gwkbh1PV7moY2_1XfvyUYnwxLWzHb_zlVdpwl7GbgmfPBlI9m7PUezQi7SSfHAKl3c6tdMVk_wc6y2hfyR0MNKFrmn6bDeM6JBSvkj7vbHTxpM34QMsg-vogYt-VKwLNN8xUTK23zgk1htLTlMcC4gaThcy9v7be8x7uJxwklck74ilhleTVklA2IRx5AGo2eNKCXWg-L5vs3Bvtej_0G00]--></g></svg>