<svg xmlns="http://www.w3.org/2000/svg" style="left: 0px; top: 0px; width: 100%; height: 100%; display: block; min-width: 577px; min-height: 602px;"><g><g/><g><g transform="translate(0.5,0.5)" style="visibility: visible;"><rect x="70.8" y="10.8" width="100" height="50" fill="#b5f5ff7f" stroke="#000000" pointer-events="all"/></g><g style=""><g fill="#774400" font-family="Arial,Helvetica" direction="" text-anchor="middle" font-size="11px"><rect fill="none" stroke="none" x="87" y="24" width="67" height="25" stroke-width="1" transform="translate(0.5, 0.5)"/><text x="120.8" y="33.8">Front-tier</text><text x="120.8" y="46.8">&lt;&lt;network&gt;&gt;</text></g></g><g transform="translate(0.5,0.5)" style="visibility: visible;"><rect x="170.8" y="10.8" width="100" height="50" fill="#b5f5ff7f" stroke="#000000" pointer-events="all"/></g><g style=""><g fill="#774400" font-family="Arial,Helvetica" direction="" text-anchor="middle" font-size="11px"><rect fill="none" stroke="none" x="187" y="24" width="67" height="25" stroke-width="1" transform="translate(0.5, 0.5)"/><text x="220.8" y="33.8">Back-tier</text><text x="220.8" y="46.8">&lt;&lt;network&gt;&gt;</text></g></g><g transform="translate(0.5,0.5)" style="visibility: visible;"><rect x="270.8" y="10.8" width="100" height="50" fill="#b5f5ff7f" stroke="#000000" pointer-events="all"/></g><g style=""><g fill="#774400" font-family="Arial,Helvetica" direction="" text-anchor="middle" font-size="11px"><rect fill="none" stroke="none" x="287" y="24" width="67" height="25" stroke-width="1" transform="translate(0.5, 0.5)"/><text x="320.8" y="33.8">Admin</text><text x="320.8" y="46.8">&lt;&lt;network&gt;&gt;</text></g></g><g transform="translate(0.5,0.5)" style="visibility: visible;"><rect x="70.8" y="340.8" width="210" height="150" fill="#f1f1f17f" stroke="#000000" pointer-events="all"/></g><g style=""><g fill="#774400" font-family="Arial,Helvetica" direction="" text-anchor="middle" font-size="11px"><rect fill="none" stroke="none" x="145" y="348" width="62" height="12" stroke-width="1" transform="translate(0.5, 0.5)"/><text x="175.8" y="357.8">Prometheus</text></g></g><g transform="translate(0.5,0.5)" style="visibility: visible;"><rect x="75.8" y="365.8" width="200" height="100" fill="#f0fff07f" stroke="#000000" pointer-events="all"/></g><g style=""><g fill="#774400" font-family="Arial,Helvetica" direction="" text-anchor="middle" font-size="11px"><rect fill="none" stroke="none" x="37" y="378" width="277" height="64" stroke-width="1" transform="translate(0.5, 0.5)"/><text x="175.8" y="387.8">Prometheus</text><text x="175.8" y="413.8">image: prom/prometheus</text><text x="175.8" y="426.8">command: --config.file=/etc/prometheus/prometheus.yml</text><text x="175.8" y="439.8">restart: unless-stopped</text></g></g><g transform="translate(0.5,0.5)" style="visibility: visible;"><ellipse cx="90.8" cy="375.8" rx="10" ry="10" fill="#ffffd27f" stroke="#000000" pointer-events="all"/></g><g style=""><g fill="#774400" font-family="Arial,Helvetica" direction="" text-anchor="middle" font-size="11px"><rect fill="none" stroke="none" x="77" y="390" width="27" height="12" stroke-width="1" transform="translate(0.5, 0.5)"/><text x="90.8" y="400.3">9090</text></g></g><g transform="translate(0.5,0.5)" style="visibility: visible;"><rect x="80.8" y="375.8" width="90" height="25" fill="#f0f0f07f" stroke="#000000" pointer-events="all"/></g><g style=""><g fill="#774400" font-family="Arial,Helvetica" direction="" text-anchor="middle" font-size="11px"><rect fill="none" stroke="none" x="84" y="383" width="82" height="12" stroke-width="1" transform="translate(0.5, 0.5)"/><text x="125.8" y="392.8">/etc/prometheus</text></g></g><g transform="translate(0.5,0.5)" style="visibility: visible;"><rect x="180.8" y="375.8" width="77" height="25" fill="#f0f0f07f" stroke="#000000" pointer-events="all"/></g><g style=""><g fill="#774400" font-family="Arial,Helvetica" direction="" text-anchor="middle" font-size="11px"><rect fill="none" stroke="none" x="186" y="383" width="65" height="12" stroke-width="1" transform="translate(0.5, 0.5)"/><text x="219.3" y="392.8">/prometheus</text></g></g><g transform="translate(0.5,0.5)" style="visibility: visible;"><path d="M 175.8 365.8 L 175.8 360.8 Q 175.8 355.8 155.8 355.8 L 110.8 355.8 Q 90.8 355.8 90.8 357.62 L 90.8 359.43" fill="none" stroke="white" stroke-miterlimit="10" pointer-events="stroke" visibility="hidden" stroke-width="9"/><path d="M 175.8 365.8 L 175.8 360.8 Q 175.8 355.8 155.8 355.8 L 110.8 355.8 Q 90.8 355.8 90.8 357.62 L 90.8 359.43" fill="none" stroke="#000000" stroke-miterlimit="10" pointer-events="stroke"/><path d="M 90.8 364.68 L 87.3 357.68 L 90.8 359.43 L 94.3 357.68 Z" fill="#000000" stroke="#000000" stroke-miterlimit="10" pointer-events="all"/></g><g transform="translate(0.5,0.5)" style="visibility: visible;"><path d="M 175.8 365.8 L 175.8 360.8 Q 175.8 355.8 155.8 355.8 L 140.8 355.8 Q 125.8 355.8 125.8 362.62 L 125.8 369.43" fill="none" stroke="white" stroke-miterlimit="10" pointer-events="stroke" visibility="hidden" stroke-width="9"/><path d="M 175.8 365.8 L 175.8 360.8 Q 175.8 355.8 155.8 355.8 L 140.8 355.8 Q 125.8 355.8 125.8 362.62 L 125.8 369.43" fill="none" stroke="#000000" stroke-miterlimit="10" pointer-events="stroke"/><path d="M 125.8 374.68 L 122.3 367.68 L 125.8 369.43 L 129.3 367.68 Z" fill="#000000" stroke="#000000" stroke-miterlimit="10" pointer-events="all"/></g><g style=""><g fill="#000000" font-family="Arial,Helvetica" direction="" text-anchor="middle" font-size="11px"><rect fill="none" stroke="none" x="135" y="350" width="21" height="12" stroke-width="1" transform="translate(0.5, 0.5)"/><text x="145.8" y="360.3">use</text></g></g><g transform="translate(0.5,0.5)" style="visibility: visible;"><path d="M 175.8 365.8 L 175.8 360.8 Q 175.8 355.8 195.8 355.8 L 207.55 355.8 Q 219.3 355.8 219.3 362.62 L 219.3 369.43" fill="none" stroke="white" stroke-miterlimit="10" pointer-events="stroke" visibility="hidden" stroke-width="9"/><path d="M 175.8 365.8 L 175.8 360.8 Q 175.8 355.8 195.8 355.8 L 207.55 355.8 Q 219.3 355.8 219.3 362.62 L 219.3 369.43" fill="none" stroke="#000000" stroke-miterlimit="10" pointer-events="stroke"/><path d="M 219.3 374.68 L 215.8 367.68 L 219.3 369.43 L 222.8 367.68 Z" fill="#000000" stroke="#000000" stroke-miterlimit="10" pointer-events="all"/></g><g style=""><g fill="#000000" font-family="Arial,Helvetica" direction="" text-anchor="middle" font-size="11px"><rect fill="none" stroke="none" x="192" y="350" width="21" height="12" stroke-width="1" transform="translate(0.5, 0.5)"/><text x="202.8" y="360.3">use</text></g></g><g transform="translate(0.5,0.5)" style="visibility: visible; cursor: move;"><rect x="320.8" y="210.8" width="232" height="150" fill="#f1f1f17f" stroke="#000000" pointer-events="all"/></g><g style="cursor: move;"><g fill="#774400" font-family="Arial,Helvetica" direction="" text-anchor="middle" font-size="11px"><rect fill="none" stroke="none" x="415" y="218" width="43" height="12" stroke-width="1" transform="translate(0.5, 0.5)"/><text x="436.8" y="227.8">Grafana</text></g></g><g transform="translate(0.5,0.5)" style="visibility: visible; cursor: move;"><rect x="325.8" y="235.8" width="200" height="100" fill="#f0fff07f" stroke="#000000" pointer-events="all"/></g><g style="cursor: move;"><g fill="#774400" font-family="Arial,Helvetica" direction="" text-anchor="middle" font-size="11px"><rect fill="none" stroke="none" x="275" y="248" width="301" height="65" stroke-width="1" transform="translate(0.5, 0.5)"/><text x="425.8" y="257.8">Grafana</text><text x="425.8" y="283.8">image: grafana/grafana</text><text x="425.8" y="296.8">nono: aspirador</text><text x="425.8" y="309.8">environment: GF_SECURITY_ADMIN_PASSWORD=grafana</text></g></g><g transform="translate(0.5,0.5)" style="visibility: visible;"><ellipse cx="340.8" cy="245.8" rx="10" ry="10" fill="#ffffd27f" stroke="#000000" pointer-events="all"/></g><g style=""><g fill="#774400" font-family="Arial,Helvetica" direction="" text-anchor="middle" font-size="11px"><rect fill="none" stroke="none" x="303" y="260" width="76" height="12" stroke-width="1" transform="translate(0.5, 0.5)"/><text x="340.8" y="270.3">127.0.0.1:8080</text></g></g><g transform="translate(0.5,0.5)" style="visibility: visible;"><ellipse cx="370.8" cy="245.8" rx="10" ry="10" fill="#ffffd27f" stroke="#000000" pointer-events="all"/></g><g style=""><g fill="#774400" font-family="Arial,Helvetica" direction="" text-anchor="middle" font-size="11px"><rect fill="none" stroke="none" x="319" y="260" width="104" height="12" stroke-width="1" transform="translate(0.5, 0.5)"/><text x="370.8" y="270.3">127.0.0.1:8000-9000</text></g></g><g transform="translate(0.5,0.5)" style="visibility: visible; cursor: move;"><rect x="330.8" y="245.8" width="222" height="25" fill="#f0f0f07f" stroke="#000000" pointer-events="all"/></g><g style="cursor: move;"><g fill="#774400" font-family="Arial,Helvetica" direction="" text-anchor="middle" font-size="11px"><rect fill="none" stroke="none" x="348" y="253" width="186" height="12" stroke-width="1" transform="translate(0.5, 0.5)"/><text x="441.8" y="262.8">/etc/grafana/provisioning/datasources</text></g></g><g transform="translate(0.5,0.5)" style="visibility: visible;"><path d="M 425.8 235.8 L 425.8 230.8 Q 425.8 225.8 405.8 225.8 L 360.8 225.8 Q 340.8 225.8 340.8 227.62 L 340.8 229.43" fill="none" stroke="white" stroke-miterlimit="10" pointer-events="stroke" visibility="hidden" stroke-width="9"/><path d="M 425.8 235.8 L 425.8 230.8 Q 425.8 225.8 405.8 225.8 L 360.8 225.8 Q 340.8 225.8 340.8 227.62 L 340.8 229.43" fill="none" stroke="#000000" stroke-miterlimit="10" pointer-events="stroke"/><path d="M 340.8 234.68 L 337.3 227.68 L 340.8 229.43 L 344.3 227.68 Z" fill="#000000" stroke="#000000" stroke-miterlimit="10" pointer-events="all"/></g><g transform="translate(0.5,0.5)" style="visibility: visible;"><path d="M 425.8 235.8 L 425.8 230.8 Q 425.8 225.8 405.8 225.8 L 388.3 225.8 Q 370.8 225.8 370.8 227.62 L 370.8 229.43" fill="none" stroke="white" stroke-miterlimit="10" pointer-events="stroke" visibility="hidden" stroke-width="9"/><path d="M 425.8 235.8 L 425.8 230.8 Q 425.8 225.8 405.8 225.8 L 388.3 225.8 Q 370.8 225.8 370.8 227.62 L 370.8 229.43" fill="none" stroke="#000000" stroke-miterlimit="10" pointer-events="stroke"/><path d="M 370.8 234.68 L 367.3 227.68 L 370.8 229.43 L 374.3 227.68 Z" fill="#000000" stroke="#000000" stroke-miterlimit="10" pointer-events="all"/></g><g transform="translate(0.5,0.5)" style="visibility: visible;"><path d="M 425.8 235.8 L 425.8 230.8 Q 425.8 225.8 433.8 225.8 L 437.8 225.8 Q 441.8 225.8 441.8 232.62 L 441.8 239.43" fill="none" stroke="white" stroke-miterlimit="10" pointer-events="stroke" visibility="hidden" stroke-width="9"/><path d="M 425.8 235.8 L 425.8 230.8 Q 425.8 225.8 433.8 225.8 L 437.8 225.8 Q 441.8 225.8 441.8 232.62 L 441.8 239.43" fill="none" stroke="#000000" stroke-miterlimit="10" pointer-events="stroke"/><path d="M 441.8 244.68 L 438.3 237.68 L 441.8 239.43 L 445.3 237.68 Z" fill="#000000" stroke="#000000" stroke-miterlimit="10" pointer-events="all"/></g><g style=""><g fill="#000000" font-family="Arial,Helvetica" direction="" text-anchor="middle" font-size="11px"><rect fill="none" stroke="none" x="428" y="220" width="21" height="12" stroke-width="1" transform="translate(0.5, 0.5)"/><text x="438.8" y="230.3">use</text></g></g><g transform="translate(0.5,0.5)" style="visibility: visible; cursor: move;"><rect x="350.8" y="450.8" width="210" height="150" fill="#f1f1f17f" stroke="#000000" pointer-events="all"/></g><g style="cursor: move;"><g fill="#774400" font-family="Arial,Helvetica" direction="" text-anchor="middle" font-size="11px"><rect fill="none" stroke="none" x="434" y="458" width="44" height="12" stroke-width="1" transform="translate(0.5, 0.5)"/><text x="455.8" y="467.8">Datadog</text></g></g><g transform="translate(0.5,0.5)" style="visibility: visible; cursor: move;"><rect x="355.8" y="475.8" width="200" height="100" fill="#f0fff07f" stroke="#000000" pointer-events="all"/></g><g style="cursor: move;"><g fill="#774400" font-family="Arial,Helvetica" direction="" text-anchor="middle" font-size="11px"><rect fill="none" stroke="none" x="395" y="494" width="121" height="51" stroke-width="1" transform="translate(0.5, 0.5)"/><text x="455.8" y="504.3">Datadog</text><text x="455.8" y="530.3">image: datadog/datadog</text><text x="455.8" y="543.3">allo: wd</text></g></g><g transform="translate(0.5,0.5)" style="visibility: visible;"><ellipse cx="80.8" cy="35.8" rx="10" ry="10" fill="#ffffd27f" stroke="#000000" pointer-events="all"/></g><g style=""><g fill="#774400" font-family="Arial,Helvetica" direction="" text-anchor="middle" font-size="11px"><rect fill="none" stroke="none" x="67" y="50" width="27" height="12" stroke-width="1" transform="translate(0.5, 0.5)"/><text x="80.8" y="60.3">9090</text></g></g><g transform="translate(0.5,0.5)" style="visibility: visible;"><ellipse cx="110.8" cy="35.8" rx="10" ry="10" fill="#ffffd27f" stroke="#000000" pointer-events="all"/></g><g style=""><g fill="#774400" font-family="Arial,Helvetica" direction="" text-anchor="middle" font-size="11px"><rect fill="none" stroke="none" x="103" y="50" width="15" height="12" stroke-width="1" transform="translate(0.5, 0.5)"/><text x="110.8" y="60.3">80</text></g></g><g transform="translate(0.5,0.5)" style="visibility: visible;"><ellipse cx="140.8" cy="35.8" rx="10" ry="10" fill="#ffffd27f" stroke="#000000" pointer-events="all"/></g><g style=""><g fill="#774400" font-family="Arial,Helvetica" direction="" text-anchor="middle" font-size="11px"><rect fill="none" stroke="none" x="127" y="50" width="27" height="12" stroke-width="1" transform="translate(0.5, 0.5)"/><text x="140.8" y="60.3">8000</text></g></g><g transform="translate(0.5,0.5)" style="visibility: visible;"><rect x="70.8" y="35.8" width="84" height="25" fill="#f0f0f07f" stroke="#000000" pointer-events="all"/></g><g style=""><g fill="#774400" font-family="Arial,Helvetica" direction="" text-anchor="middle" font-size="11px"><rect fill="none" stroke="none" x="79" y="43" width="67" height="12" stroke-width="1" transform="translate(0.5, 0.5)"/><text x="112.8" y="52.8">./prometheus</text></g></g><g transform="translate(0.5,0.5)" style="visibility: visible;"><rect x="170.8" y="35.8" width="63" height="25" fill="#f0f0f07f" stroke="#000000" pointer-events="all"/></g><g style=""><g fill="#774400" font-family="Arial,Helvetica" direction="" text-anchor="middle" font-size="11px"><rect fill="none" stroke="none" x="174" y="43" width="57" height="12" stroke-width="1" transform="translate(0.5, 0.5)"/><text x="202.3" y="52.8">Prom_data</text></g></g><g transform="translate(0.5,0.5)" style="visibility: visible;"><rect x="270.8" y="35.8" width="63" height="25" fill="#f0f0f07f" stroke="#000000" pointer-events="all"/></g><g style=""><g fill="#774400" font-family="Arial,Helvetica" direction="" text-anchor="middle" font-size="11px"><rect fill="none" stroke="none" x="279" y="43" width="46" height="12" stroke-width="1" transform="translate(0.5, 0.5)"/><text x="302.3" y="52.8">./grafana</text></g></g><g transform="translate(0.5,0.5)" style="visibility: visible;"><path d="M 90.8 365.8 L 90.8 225.8 Q 90.8 205.8 85.8 205.8 L 83.3 205.8 Q 80.8 205.8 80.8 185.8 L 80.8 52.17" fill="none" stroke="white" stroke-miterlimit="10" pointer-events="stroke" visibility="hidden" stroke-width="9"/><path d="M 90.8 365.8 L 90.8 225.8 Q 90.8 205.8 85.8 205.8 L 83.3 205.8 Q 80.8 205.8 80.8 185.8 L 80.8 52.17" fill="none" stroke="#000000" stroke-miterlimit="10" pointer-events="stroke"/><path d="M 80.8 46.92 L 84.3 53.92 L 80.8 52.17 L 77.3 53.92 Z" fill="#000000" stroke="#000000" stroke-miterlimit="10" pointer-events="all"/></g><g transform="translate(0.5,0.5)" style="visibility: visible;"><path d="M 125.8 375.8 L 125.8 238.3 Q 125.8 218.3 119.3 218.3 L 116.05 218.3 Q 112.8 218.3 112.8 198.3 L 112.8 67.17" fill="none" stroke="white" stroke-miterlimit="10" pointer-events="stroke" visibility="hidden" stroke-width="9"/><path d="M 125.8 375.8 L 125.8 238.3 Q 125.8 218.3 119.3 218.3 L 116.05 218.3 Q 112.8 218.3 112.8 198.3 L 112.8 67.17" fill="none" stroke="#000000" stroke-miterlimit="10" pointer-events="stroke"/><path d="M 112.8 61.92 L 116.3 68.92 L 112.8 67.17 L 109.3 68.92 Z" fill="#000000" stroke="#000000" stroke-miterlimit="10" pointer-events="all"/></g><g style=""><g fill="#000000" font-family="Arial,Helvetica" direction="" text-anchor="middle" font-size="11px"><rect fill="none" stroke="none" x="113" y="213" width="13" height="12" stroke-width="1" transform="translate(0.5, 0.5)"/><text x="119.3" y="222.8">ro</text></g></g><g transform="translate(0.5,0.5)" style="visibility: visible;"><path d="M 219.3 375.8 L 219.3 238.3 Q 219.3 218.3 210.8 218.3 L 206.55 218.3 Q 202.3 218.3 202.3 198.3 L 202.3 67.17" fill="none" stroke="white" stroke-miterlimit="10" pointer-events="stroke" visibility="hidden" stroke-width="9"/><path d="M 219.3 375.8 L 219.3 238.3 Q 219.3 218.3 210.8 218.3 L 206.55 218.3 Q 202.3 218.3 202.3 198.3 L 202.3 67.17" fill="none" stroke="#000000" stroke-miterlimit="10" pointer-events="stroke"/><path d="M 202.3 61.92 L 205.8 68.92 L 202.3 67.17 L 198.8 68.92 Z" fill="#000000" stroke="#000000" stroke-miterlimit="10" pointer-events="all"/></g><g style=""><g fill="#000000" font-family="Arial,Helvetica" direction="" text-anchor="middle" font-size="11px"><rect fill="none" stroke="none" x="203" y="213" width="15" height="12" stroke-width="1" transform="translate(0.5, 0.5)"/><text x="210.8" y="222.8">rw</text></g></g><g transform="translate(0.5,0.5)" style="visibility: visible;"><path d="M 175.8 340.8 L 175.8 220.8 Q 175.8 200.8 195.8 200.8 L 208.3 200.8 Q 220.8 200.8 220.8 180.8 L 220.8 67.17" fill="none" stroke="white" stroke-miterlimit="10" pointer-events="stroke" visibility="hidden" stroke-width="9"/><path d="M 175.8 340.8 L 175.8 220.8 Q 175.8 200.8 195.8 200.8 L 208.3 200.8 Q 220.8 200.8 220.8 180.8 L 220.8 67.17" fill="none" stroke="#000000" stroke-miterlimit="10" pointer-events="stroke"/><path d="M 220.8 61.92 L 224.3 68.92 L 220.8 67.17 L 217.3 68.92 Z" fill="#000000" stroke="#000000" stroke-miterlimit="10" pointer-events="all"/></g><g style=""><g fill="#000000" font-family="Arial,Helvetica" direction="" text-anchor="middle" font-size="11px"><rect fill="none" stroke="none" x="157" y="195" width="84" height="12" stroke-width="1" transform="translate(0.5, 0.5)"/><text x="198.8" y="205.3">alias:['database']</text></g></g><g transform="translate(0.5,0.5)" style="visibility: visible;"><path d="M 175.8 340.8 L 175.8 220.8 Q 175.8 200.8 195.8 200.8 L 300.8 200.8 Q 320.8 200.8 320.8 180.8 L 320.8 67.17" fill="none" stroke="white" stroke-miterlimit="10" pointer-events="stroke" visibility="hidden" stroke-width="9"/><path d="M 175.8 340.8 L 175.8 220.8 Q 175.8 200.8 195.8 200.8 L 300.8 200.8 Q 320.8 200.8 320.8 180.8 L 320.8 67.17" fill="none" stroke="#000000" stroke-miterlimit="10" pointer-events="stroke"/><path d="M 320.8 61.92 L 324.3 68.92 L 320.8 67.17 L 317.3 68.92 Z" fill="#000000" stroke="#000000" stroke-miterlimit="10" pointer-events="all"/></g><g style=""><g fill="#000000" font-family="Arial,Helvetica" direction="" text-anchor="middle" font-size="11px"><rect fill="none" stroke="none" x="215" y="195" width="67" height="12" stroke-width="1" transform="translate(0.5, 0.5)"/><text x="248.8" y="205.3">alias:['mysql']</text></g></g><g transform="translate(0.5,0.5)" style="visibility: visible;"><path d="M 330.8 245.8 L 130.8 245.8 Q 110.8 245.8 110.8 225.8 L 110.8 52.17" fill="none" stroke="white" stroke-miterlimit="10" pointer-events="stroke" visibility="hidden" stroke-width="9"/><path d="M 330.8 245.8 L 130.8 245.8 Q 110.8 245.8 110.8 225.8 L 110.8 52.17" fill="none" stroke="#000000" stroke-miterlimit="10" pointer-events="stroke"/><path d="M 110.8 46.92 L 114.3 53.92 L 110.8 52.17 L 107.3 53.92 Z" fill="#000000" stroke="#000000" stroke-miterlimit="10" pointer-events="all"/></g><g style=""><g fill="#000000" font-family="Arial,Helvetica" direction="" text-anchor="middle" font-size="11px"><rect fill="none" stroke="none" x="111" y="240" width="18" height="12" stroke-width="1" transform="translate(0.5, 0.5)"/><text x="120.8" y="250.3">tcp</text></g></g><g transform="translate(0.5,0.5)" style="visibility: visible;"><path d="M 360.8 245.8 L 160.8 245.8 Q 140.8 245.8 140.8 225.8 L 140.8 52.17" fill="none" stroke="white" stroke-miterlimit="10" pointer-events="stroke" visibility="hidden" stroke-width="9"/><path d="M 360.8 245.8 L 160.8 245.8 Q 140.8 245.8 140.8 225.8 L 140.8 52.17" fill="none" stroke="#000000" stroke-miterlimit="10" pointer-events="stroke"/><path d="M 140.8 46.92 L 144.3 53.92 L 140.8 52.17 L 137.3 53.92 Z" fill="#000000" stroke="#000000" stroke-miterlimit="10" pointer-events="all"/></g><g style=""><g fill="#000000" font-family="Arial,Helvetica" direction="" text-anchor="middle" font-size="11px"><rect fill="none" stroke="none" x="141" y="240" width="18" height="12" stroke-width="1" transform="translate(0.5, 0.5)"/><text x="150.8" y="250.3">tcp</text></g></g><g transform="translate(0.5,0.5)" style="visibility: visible; cursor: move;"><path d="M 441.8 245.8 L 441.8 173.3 Q 441.8 153.3 421.8 153.3 L 322.3 153.3 Q 302.3 153.3 302.3 133.3 L 302.3 67.17" fill="none" stroke="white" stroke-miterlimit="10" pointer-events="stroke" visibility="hidden" stroke-width="9"/><path d="M 441.8 245.8 L 441.8 173.3 Q 441.8 153.3 421.8 153.3 L 322.3 153.3 Q 302.3 153.3 302.3 133.3 L 302.3 67.17" fill="none" stroke="#000000" stroke-miterlimit="10" pointer-events="stroke"/><path d="M 302.3 61.92 L 305.8 68.92 L 302.3 67.17 L 298.8 68.92 Z" fill="#000000" stroke="#000000" stroke-miterlimit="10" pointer-events="all"/></g><g style="cursor: move;"><g fill="#000000" font-family="Arial,Helvetica" direction="" text-anchor="middle" font-size="11px"><rect fill="none" stroke="none" x="366" y="148" width="13" height="12" stroke-width="1" transform="translate(0.5, 0.5)"/><text x="372.3" y="157.8">ro</text></g></g><g transform="translate(0.5,0.5)" style="visibility: visible;"><path d="M 320.8 285.8 L 140.8 285.8 Q 120.8 285.8 120.8 265.8 L 120.8 67.17" fill="none" stroke="white" stroke-miterlimit="10" pointer-events="stroke" visibility="hidden" stroke-width="9"/><path d="M 320.8 285.8 L 140.8 285.8 Q 120.8 285.8 120.8 265.8 L 120.8 67.17" fill="none" stroke="#000000" stroke-miterlimit="10" pointer-events="stroke"/><path d="M 120.8 61.92 L 124.3 68.92 L 120.8 67.17 L 117.3 68.92 Z" fill="#000000" stroke="#000000" stroke-miterlimit="10" pointer-events="all"/></g><g style=""><g fill="#000000" font-family="Arial,Helvetica" direction="" text-anchor="middle" font-size="11px"><rect fill="none" stroke="none" x="97" y="267" width="47" height="12" stroke-width="1" transform="translate(0.5, 0.5)"/><text x="120.8" y="277.3">alias:['ui']</text></g></g><g transform="translate(0.5,0.5)" style="visibility: visible;"><path d="M 320.8 285.8 L 240.8 285.8 Q 220.8 285.8 220.8 265.8 L 220.8 67.17" fill="none" stroke="white" stroke-miterlimit="10" pointer-events="stroke" visibility="hidden" stroke-width="9"/><path d="M 320.8 285.8 L 240.8 285.8 Q 220.8 285.8 220.8 265.8 L 220.8 67.17" fill="none" stroke="#000000" stroke-miterlimit="10" pointer-events="stroke"/><path d="M 220.8 61.92 L 224.3 68.92 L 220.8 67.17 L 217.3 68.92 Z" fill="#000000" stroke="#000000" stroke-miterlimit="10" pointer-events="all"/></g></g><g/><g/></g></svg>