<svg xmlns="http://www.w3.org/2000/svg" style="left: 0px; top: 0px; width: 100%; height: 100%; display: block; min-width: 900px; min-height: 737px;"><g><g/><g><g transform="translate(0.5,0.5)" style="visibility: visible; cursor: move;"><rect x="488" y="6" width="100" height="50" fill="#b5f5ff7f" stroke="#000000" pointer-events="all"/></g><g style="cursor: move;"><g fill="#774400" font-family="Arial,Helvetica" direction="" text-anchor="middle" font-size="11px"><rect fill="none" stroke="none" x="504" y="19" width="67" height="25" stroke-width="1" transform="translate(0.5, 0.5)"/><text x="538" y="29">Front-tier</text><text x="538" y="42">&lt;&lt;network&gt;&gt;</text></g></g><g transform="translate(0.5,0.5)" style="visibility: visible;"><rect x="218" y="6" width="100" height="50" fill="#b5f5ff7f" stroke="#000000" pointer-events="all"/></g><g style=""><g fill="#774400" font-family="Arial,Helvetica" direction="" text-anchor="middle" font-size="11px"><rect fill="none" stroke="none" x="234" y="19" width="67" height="25" stroke-width="1" transform="translate(0.5, 0.5)"/><text x="268" y="29">Admin</text><text x="268" y="42">&lt;&lt;network&gt;&gt;</text></g></g><g transform="translate(0.5,0.5)" style="visibility: visible;"><rect x="28" y="6" width="100" height="50" fill="#b5f5ff7f" stroke="#000000" pointer-events="all"/></g><g style=""><g fill="#774400" font-family="Arial,Helvetica" direction="" text-anchor="middle" font-size="11px"><rect fill="none" stroke="none" x="44" y="19" width="67" height="25" stroke-width="1" transform="translate(0.5, 0.5)"/><text x="78" y="29">Undefined</text><text x="78" y="42">&lt;&lt;network&gt;&gt;</text></g></g><g transform="translate(0.5,0.5)" style="visibility: visible; cursor: move;"><rect x="18" y="246" width="300" height="290" fill="#f1f1f17f" stroke="#000000" pointer-events="all"/></g><g style="cursor: move;"><g fill="#774400" font-family="Arial,Helvetica" direction="" text-anchor="middle" font-size="11px"><rect fill="none" stroke="none" x="137" y="253" width="62" height="12" stroke-width="1" transform="translate(0.5, 0.5)"/><text x="168" y="263">Prometheus</text></g></g><g transform="translate(0.5,0.5)" style="visibility: visible; cursor: move;"><rect x="28" y="271" width="280" height="100" fill="#f0fff07f" stroke="#000000" pointer-events="all"/></g><g style="cursor: move;"><g fill="#774400" font-family="Arial,Helvetica" direction="" text-anchor="middle" font-size="11px"><rect fill="none" stroke="none" x="29" y="283" width="278" height="64" stroke-width="1" transform="translate(0.5, 0.5)"/><text x="168" y="293">Prometheus</text><text x="168" y="319">image: prom/prometheus</text><text x="168" y="332">command: --config.file=/etc/prometheus/prometheus.yml</text><text x="168" y="345">restart: unless-stopped</text></g></g><g transform="translate(0.5,0.5)" style="visibility: visible;"><ellipse cx="268" cy="426" rx="10" ry="10" fill="#ffffd27f" stroke="#000000" pointer-events="all"/></g><g style=""><g fill="#774400" font-family="Arial,Helvetica" direction="" text-anchor="middle" font-size="11px"><rect fill="none" stroke="none" x="254" y="440" width="27" height="12" stroke-width="1" transform="translate(0.5, 0.5)"/><text x="268" y="450.5">9090</text></g></g><g transform="translate(0.5,0.5)" style="visibility: visible;"><rect x="188" y="476" width="90" height="25" fill="#f0f0f07f" stroke="#000000" pointer-events="all"/></g><g style=""><g fill="#774400" font-family="Arial,Helvetica" direction="" text-anchor="middle" font-size="11px"><rect fill="none" stroke="none" x="191" y="483" width="83" height="12" stroke-width="1" transform="translate(0.5, 0.5)"/><text x="233" y="493">/etc/prometheus</text></g></g><g transform="translate(0.5,0.5)" style="visibility: visible;"><rect x="58" y="476" width="77" height="25" fill="#f0f0f07f" stroke="#000000" pointer-events="all"/></g><g style=""><g fill="#774400" font-family="Arial,Helvetica" direction="" text-anchor="middle" font-size="11px"><rect fill="none" stroke="none" x="63" y="483" width="65" height="12" stroke-width="1" transform="translate(0.5, 0.5)"/><text x="96.5" y="493">/prometheus</text></g></g><g transform="translate(0.5,0.5)" style="visibility: visible;"><path d="M 168 371 L 168 382.25 Q 168 393.5 188 393.5 L 248 393.5 Q 268 393.5 268 404.75 L 268 416" fill="none" stroke="white" stroke-miterlimit="10" pointer-events="stroke" visibility="hidden" stroke-width="9"/><path d="M 168 371 L 168 382.25 Q 168 393.5 188 393.5 L 248 393.5 Q 268 393.5 268 404.75 L 268 416" fill="none" stroke="#000000" stroke-miterlimit="10" pointer-events="stroke"/></g><g transform="translate(0.5,0.5)" style="visibility: visible;"><path d="M 168 371 L 168 403.5 Q 168 423.5 188 423.5 L 213 423.5 Q 233 423.5 233 443.5 L 233 467.88" fill="none" stroke="white" stroke-miterlimit="10" pointer-events="stroke" visibility="hidden" stroke-width="9"/><path d="M 168 371 L 168 403.5 Q 168 423.5 188 423.5 L 213 423.5 Q 233 423.5 233 443.5 L 233 467.88" fill="none" stroke="#000000" stroke-miterlimit="10" stroke-dasharray="3 3" pointer-events="stroke"/><path d="M 233 474.88 L 229.5 467.88 L 236.5 467.88 Z" fill="#000000" stroke="#000000" stroke-miterlimit="10" pointer-events="all"/></g><g style=""><g fill="#000000" font-family="Arial,Helvetica" direction="" text-anchor="middle" font-size="11px"><rect fill="none" stroke="none" x="190" y="418" width="20" height="12" stroke-width="1" transform="translate(0.5, 0.5)"/><text x="200.5" y="428">use</text></g></g><g transform="translate(0.5,0.5)" style="visibility: visible;"><path d="M 168 371 L 168 403.5 Q 168 423.5 148 423.5 L 116.5 423.5 Q 96.5 423.5 96.5 443.5 L 96.5 467.88" fill="none" stroke="white" stroke-miterlimit="10" pointer-events="stroke" visibility="hidden" stroke-width="9"/><path d="M 168 371 L 168 403.5 Q 168 423.5 148 423.5 L 116.5 423.5 Q 96.5 423.5 96.5 443.5 L 96.5 467.88" fill="none" stroke="#000000" stroke-miterlimit="10" stroke-dasharray="3 3" pointer-events="stroke"/><path d="M 96.5 474.88 L 93 467.88 L 100 467.88 Z" fill="#000000" stroke="#000000" stroke-miterlimit="10" pointer-events="all"/></g><g style=""><g fill="#000000" font-family="Arial,Helvetica" direction="" text-anchor="middle" font-size="11px"><rect fill="none" stroke="none" x="122" y="418" width="20" height="12" stroke-width="1" transform="translate(0.5, 0.5)"/><text x="132.5" y="428">use</text></g></g><g transform="translate(0.5,0.5)" style="visibility: visible; cursor: move;"><rect x="428" y="246" width="340" height="290" fill="#f1f1f17f" stroke="#000000" pointer-events="all"/></g><g style="cursor: move;"><g fill="#774400" font-family="Arial,Helvetica" direction="" text-anchor="middle" font-size="11px"><rect fill="none" stroke="none" x="577" y="253" width="42" height="12" stroke-width="1" transform="translate(0.5, 0.5)"/><text x="598" y="263">Grafana</text></g></g><g transform="translate(0.5,0.5)" style="visibility: visible; cursor: move;"><rect x="438" y="271" width="320" height="100" fill="#f0fff07f" stroke="#000000" pointer-events="all"/></g><g style="cursor: move;"><g fill="#774400" font-family="Arial,Helvetica" direction="" text-anchor="middle" font-size="11px"><rect fill="none" stroke="none" x="447" y="270" width="301" height="90" stroke-width="1" transform="translate(0.5, 0.5)"/><text x="598" y="280">Grafana</text><text x="598" y="306">image: grafana/grafana</text><text x="598" y="319">restart: unless-stopped</text><text x="598" y="332">environment: GF_SECURITY_ADMIN_USER=admin</text><text x="598" y="345">environment: GF_SECURITY_ADMIN_PASSWORD=grafana</text><text x="598" y="358">newProp: this</text></g></g><g transform="translate(0.5,0.5)" style="visibility: visible; cursor: move;"><ellipse cx="508" cy="426" rx="10" ry="10" fill="#ffffd27f" stroke="#000000" pointer-events="all"/></g><g style="cursor: move;"><g fill="#774400" font-family="Arial,Helvetica" direction="" text-anchor="middle" font-size="11px"><rect fill="none" stroke="none" x="470" y="440" width="76" height="12" stroke-width="1" transform="translate(0.5, 0.5)"/><text x="508" y="450.5">127.0.0.1:8080</text></g></g><g transform="translate(0.5,0.5)" style="visibility: visible; cursor: move;"><ellipse cx="698" cy="426" rx="10" ry="10" fill="#ffffd27f" stroke="#000000" pointer-events="all"/></g><g style="cursor: move;"><g fill="#774400" font-family="Arial,Helvetica" direction="" text-anchor="middle" font-size="11px"><rect fill="none" stroke="none" x="646" y="440" width="104" height="12" stroke-width="1" transform="translate(0.5, 0.5)"/><text x="698" y="450.5">127.0.0.1:8000-9000</text></g></g><g transform="translate(0.5,0.5)" style="visibility: visible; cursor: move;"><rect x="488" y="476" width="222" height="25" fill="#f0f0f07f" stroke="#000000" pointer-events="all"/></g><g style="cursor: move;"><g fill="#774400" font-family="Arial,Helvetica" direction="" text-anchor="middle" font-size="11px"><rect fill="none" stroke="none" x="505" y="483" width="187" height="12" stroke-width="1" transform="translate(0.5, 0.5)"/><text x="599" y="493">/etc/grafana/provisioning/datasources</text></g></g><g transform="translate(0.5,0.5)" style="visibility: visible; cursor: move;"><path d="M 598 371 L 598 382.25 Q 598 393.5 578 393.5 L 528 393.5 Q 508 393.5 508 404.75 L 508 416" fill="none" stroke="white" stroke-miterlimit="10" pointer-events="stroke" visibility="hidden" stroke-width="9"/><path d="M 598 371 L 598 382.25 Q 598 393.5 578 393.5 L 528 393.5 Q 508 393.5 508 404.75 L 508 416" fill="none" stroke="#000000" stroke-miterlimit="10" pointer-events="stroke"/></g><g transform="translate(0.5,0.5)" style="visibility: visible; cursor: move;"><path d="M 598 371 L 598 382.25 Q 598 393.5 618 393.5 L 678 393.5 Q 698 393.5 698 404.75 L 698 416" fill="none" stroke="white" stroke-miterlimit="10" pointer-events="stroke" visibility="hidden" stroke-width="9"/><path d="M 598 371 L 598 382.25 Q 598 393.5 618 393.5 L 678 393.5 Q 698 393.5 698 404.75 L 698 416" fill="none" stroke="#000000" stroke-miterlimit="10" pointer-events="stroke"/></g><g transform="translate(0.5,0.5)" style="visibility: visible; cursor: move;"><path d="M 598 371 L 598 403.5 Q 598 423.5 598.5 423.5 L 598.75 423.5 Q 599 423.5 599 443.5 L 599 467.88" fill="none" stroke="white" stroke-miterlimit="10" pointer-events="stroke" visibility="hidden" stroke-width="9"/><path d="M 598 371 L 598 403.5 Q 598 423.5 598.5 423.5 L 598.75 423.5 Q 599 423.5 599 443.5 L 599 467.88" fill="none" stroke="#000000" stroke-miterlimit="10" stroke-dasharray="3 3" pointer-events="stroke"/><path d="M 599 474.88 L 595.5 467.88 L 602.5 467.88 Z" fill="#000000" stroke="#000000" stroke-miterlimit="10" pointer-events="all"/></g><g style="cursor: move;"><g fill="#000000" font-family="Arial,Helvetica" direction="" text-anchor="middle" font-size="11px"><rect fill="none" stroke="none" x="588" y="418" width="20" height="12" stroke-width="1" transform="translate(0.5, 0.5)"/><text x="598.5" y="428">use</text></g></g><g transform="translate(0.5,0.5)" style="visibility: visible; cursor: move;"><rect x="678" y="46" width="220" height="150" fill="#f1f1f17f" stroke="#000000" pointer-events="all"/></g><g style="cursor: move;"><g fill="#774400" font-family="Arial,Helvetica" direction="" text-anchor="middle" font-size="11px"><rect fill="none" stroke="none" x="766" y="53" width="44" height="12" stroke-width="1" transform="translate(0.5, 0.5)"/><text x="788" y="63">Datadog</text></g></g><g transform="translate(0.5,0.5)" style="visibility: visible; cursor: move;"><rect x="688" y="71" width="200" height="100" fill="#f0fff07f" stroke="#000000" pointer-events="all"/></g><g style="cursor: move;"><g fill="#774400" font-family="Arial,Helvetica" direction="" text-anchor="middle" font-size="11px"><rect fill="none" stroke="none" x="727" y="89" width="121" height="51" stroke-width="1" transform="translate(0.5, 0.5)"/><text x="788" y="99.5">Datadog</text><text x="788" y="125.5">image: datadog/datadog</text><text x="788" y="138.5">breed: golden_retriever</text></g></g><g transform="translate(0.5,0.5)" style="visibility: visible;"><ellipse cx="338" cy="426" rx="10" ry="10" fill="#ffffd27f" stroke="#000000" pointer-events="all"/></g><g style=""><g fill="#774400" font-family="Arial,Helvetica" direction="" text-anchor="middle" font-size="11px"><rect fill="none" stroke="none" x="324" y="440" width="27" height="12" stroke-width="1" transform="translate(0.5, 0.5)"/><text x="338" y="450.5">9090</text></g></g><g transform="translate(0.5,0.5)" style="visibility: visible;"><ellipse cx="398" cy="426" rx="10" ry="10" fill="#ffffd27f" stroke="#000000" pointer-events="all"/></g><g style=""><g fill="#774400" font-family="Arial,Helvetica" direction="" text-anchor="middle" font-size="11px"><rect fill="none" stroke="none" x="390" y="440" width="15" height="12" stroke-width="1" transform="translate(0.5, 0.5)"/><text x="398" y="450.5">80</text></g></g><g transform="translate(0.5,0.5)" style="visibility: visible; cursor: move;"><ellipse cx="818" cy="426" rx="10" ry="10" fill="#ffffd27f" stroke="#000000" pointer-events="all"/></g><g style="cursor: move;"><g fill="#774400" font-family="Arial,Helvetica" direction="" text-anchor="middle" font-size="11px"><rect fill="none" stroke="none" x="804" y="440" width="27" height="12" stroke-width="1" transform="translate(0.5, 0.5)"/><text x="818" y="450.5">8000</text></g></g><g transform="translate(0.5,0.5)" style="visibility: visible;"><rect x="178" y="566" width="84" height="25" fill="#f0f0f07f" stroke="#000000" pointer-events="all"/></g><g style=""><g fill="#774400" font-family="Arial,Helvetica" direction="" text-anchor="middle" font-size="11px"><rect fill="none" stroke="none" x="186" y="573" width="67" height="12" stroke-width="1" transform="translate(0.5, 0.5)"/><text x="220" y="583">./prometheus</text></g></g><g transform="translate(0.5,0.5)" style="visibility: visible;"><rect x="58" y="566" width="63" height="25" fill="#f0f0f07f" stroke="#000000" pointer-events="all"/></g><g style=""><g fill="#774400" font-family="Arial,Helvetica" direction="" text-anchor="middle" font-size="11px"><rect fill="none" stroke="none" x="61" y="573" width="56" height="12" stroke-width="1" transform="translate(0.5, 0.5)"/><text x="89.5" y="583">Prom_data</text></g></g><g transform="translate(0.5,0.5)" style="visibility: visible; cursor: move;"><rect x="568" y="566" width="63" height="25" fill="#f0f0f07f" stroke="#000000" pointer-events="all"/></g><g style="cursor: move;"><g fill="#774400" font-family="Arial,Helvetica" direction="" text-anchor="middle" font-size="11px"><rect fill="none" stroke="none" x="576" y="573" width="46" height="12" stroke-width="1" transform="translate(0.5, 0.5)"/><text x="599.5" y="583">./grafana</text></g></g><g transform="translate(0.5,0.5)" style="visibility: visible;"><path d="M 278 426 L 328 426" fill="none" stroke="white" stroke-miterlimit="10" pointer-events="stroke" visibility="hidden" stroke-width="9"/><path d="M 278 426 L 328 426" fill="none" stroke="#000000" stroke-miterlimit="10" pointer-events="stroke"/></g><g transform="translate(0.5,0.5)" style="visibility: visible;"><path d="M 233 501 L 233 517.25 Q 233 533.5 226.5 533.5 L 223.25 533.5 Q 220 533.5 220 549.75 L 220 566" fill="none" stroke="white" stroke-miterlimit="10" pointer-events="stroke" visibility="hidden" stroke-width="9"/><path d="M 233 501 L 233 517.25 Q 233 533.5 226.5 533.5 L 223.25 533.5 Q 220 533.5 220 549.75 L 220 566" fill="none" stroke="#000000" stroke-miterlimit="10" pointer-events="stroke"/></g><g style=""><g fill="#000000" font-family="Arial,Helvetica" direction="" text-anchor="middle" font-size="11px"><rect fill="none" stroke="none" x="220" y="528" width="12" height="12" stroke-width="1" transform="translate(0.5, 0.5)"/><text x="226.5" y="538">ro</text></g></g><g transform="translate(0.5,0.5)" style="visibility: visible;"><path d="M 96.5 501 L 96.5 517.25 Q 96.5 533.5 93 533.5 L 91.25 533.5 Q 89.5 533.5 89.5 549.75 L 89.5 566" fill="none" stroke="white" stroke-miterlimit="10" pointer-events="stroke" visibility="hidden" stroke-width="9"/><path d="M 96.5 501 L 96.5 517.25 Q 96.5 533.5 93 533.5 L 91.25 533.5 Q 89.5 533.5 89.5 549.75 L 89.5 566" fill="none" stroke="#000000" stroke-miterlimit="10" pointer-events="stroke"/></g><g style=""><g fill="#000000" font-family="Arial,Helvetica" direction="" text-anchor="middle" font-size="11px"><rect fill="none" stroke="none" x="86" y="528" width="15" height="12" stroke-width="1" transform="translate(0.5, 0.5)"/><text x="93" y="538">rw</text></g></g><g transform="translate(0.5,0.5)" style="visibility: visible;"><path d="M 168 246 L 168 171 Q 168 151 188 151 L 248 151 Q 268 151 268 131 L 268 64.12" fill="none" stroke="white" stroke-miterlimit="10" pointer-events="stroke" visibility="hidden" stroke-width="9"/><path d="M 168 246 L 168 171 Q 168 151 188 151 L 248 151 Q 268 151 268 131 L 268 64.12" fill="none" stroke="#000000" stroke-miterlimit="10" pointer-events="stroke"/><path d="M 268 57.12 L 271.5 64.12 L 264.5 64.12 Z" fill="#000000" stroke="#000000" stroke-miterlimit="10" pointer-events="all"/></g><g style=""><g fill="#000000" font-family="Arial,Helvetica" direction="" text-anchor="middle" font-size="11px"><rect fill="none" stroke="none" x="184" y="145" width="67" height="12" stroke-width="1" transform="translate(0.5, 0.5)"/><text x="218" y="155.5">alias:['mysql']</text></g></g><g transform="translate(0.5,0.5)" style="visibility: visible;"><path d="M 168 246 L 168 171 Q 168 151 148 151 L 98 151 Q 78 151 78 131 L 78 64.12" fill="none" stroke="white" stroke-miterlimit="10" pointer-events="stroke" visibility="hidden" stroke-width="9"/><path d="M 168 246 L 168 171 Q 168 151 148 151 L 98 151 Q 78 151 78 131 L 78 64.12" fill="none" stroke="#000000" stroke-miterlimit="10" pointer-events="stroke"/><path d="M 78 57.12 L 81.5 64.12 L 74.5 64.12 Z" fill="#000000" stroke="#000000" stroke-miterlimit="10" pointer-events="all"/></g><g style=""><g fill="#000000" font-family="Arial,Helvetica" direction="" text-anchor="middle" font-size="11px"><rect fill="none" stroke="none" x="81" y="145" width="83" height="12" stroke-width="1" transform="translate(0.5, 0.5)"/><text x="123" y="155.5">alias:['unknown']</text></g></g><g transform="translate(0.5,0.5)" style="visibility: visible; cursor: move;"><path d="M 498 426 L 408 426" fill="none" stroke="white" stroke-miterlimit="10" pointer-events="stroke" visibility="hidden" stroke-width="9"/><path d="M 498 426 L 408 426" fill="none" stroke="#000000" stroke-miterlimit="10" pointer-events="stroke"/></g><g style="cursor: move;"><g fill="#000000" font-family="Arial,Helvetica" direction="" text-anchor="middle" font-size="11px"><rect fill="none" stroke="none" x="443" y="420" width="19" height="12" stroke-width="1" transform="translate(0.5, 0.5)"/><text x="453" y="430.5">tcp</text></g></g><g transform="translate(0.5,0.5)" style="visibility: visible; cursor: move;"><path d="M 708 426 L 808 426" fill="none" stroke="white" stroke-miterlimit="10" pointer-events="stroke" visibility="hidden" stroke-width="9"/><path d="M 708 426 L 808 426" fill="none" stroke="#000000" stroke-miterlimit="10" pointer-events="stroke"/></g><g style="cursor: move;"><g fill="#000000" font-family="Arial,Helvetica" direction="" text-anchor="middle" font-size="11px"><rect fill="none" stroke="none" x="748" y="420" width="19" height="12" stroke-width="1" transform="translate(0.5, 0.5)"/><text x="758" y="430.5">tcp</text></g></g><g transform="translate(0.5,0.5)" style="visibility: visible;"><path d="M 599 501 L 599 517.25 Q 599 533.5 599.25 533.5 L 599.38 533.5 Q 599.5 533.5 599.5 549.75 L 599.5 566" fill="none" stroke="white" stroke-miterlimit="10" pointer-events="stroke" visibility="hidden" stroke-width="9"/><path d="M 599 501 L 599 517.25 Q 599 533.5 599.25 533.5 L 599.38 533.5 Q 599.5 533.5 599.5 549.75 L 599.5 566" fill="none" stroke="#000000" stroke-miterlimit="10" pointer-events="stroke"/></g><g style=""><g fill="#000000" font-family="Arial,Helvetica" direction="" text-anchor="middle" font-size="11px"><rect fill="none" stroke="none" x="593" y="528" width="12" height="12" stroke-width="1" transform="translate(0.5, 0.5)"/><text x="599.5" y="538">ro</text></g></g><g transform="translate(0.5,0.5)" style="visibility: visible; cursor: move;"><path d="M 598 246 L 598 171 Q 598 151 578 151 L 558 151 Q 538 151 538 131 L 538 64.12" fill="none" stroke="white" stroke-miterlimit="10" pointer-events="stroke" visibility="hidden" stroke-width="9"/><path d="M 598 246 L 598 171 Q 598 151 578 151 L 558 151 Q 538 151 538 131 L 538 64.12" fill="none" stroke="#000000" stroke-miterlimit="10" pointer-events="stroke"/><path d="M 538 57.12 L 541.5 64.12 L 534.5 64.12 Z" fill="#000000" stroke="#000000" stroke-miterlimit="10" pointer-events="all"/></g><g style="cursor: move;"><g fill="#000000" font-family="Arial,Helvetica" direction="" text-anchor="middle" font-size="11px"><rect fill="none" stroke="none" x="544" y="145" width="47" height="12" stroke-width="1" transform="translate(0.5, 0.5)"/><text x="568" y="155.5">alias:['ui']</text></g></g><g transform="translate(0.5,0.5)" style="visibility: visible; cursor: move;"><rect x="688" y="586" width="210" height="150" fill="#f1f1f17f" stroke="#000000" pointer-events="all"/></g><g style="cursor: move;"><g fill="#774400" font-family="Arial,Helvetica" direction="" text-anchor="middle" font-size="11px"><rect fill="none" stroke="none" x="764" y="593" width="58" height="12" stroke-width="1" transform="translate(0.5, 0.5)"/><text x="793" y="603">GoldenDog</text></g></g><g transform="translate(0.5,0.5)" style="visibility: visible; cursor: move;"><path d="M 888 586 L 888 506 Q 888 486 888 466 L 888 204.12" fill="none" stroke="white" stroke-miterlimit="10" pointer-events="stroke" visibility="hidden" stroke-width="9"/><path d="M 888 586 L 888 506 Q 888 486 888 466 L 888 204.12" fill="none" stroke="#000000" stroke-miterlimit="10" stroke-dasharray="3 3" pointer-events="stroke"/><path d="M 888 197.12 L 891.5 204.12 L 884.5 204.12 Z" fill="#000000" stroke="#000000" stroke-miterlimit="10" pointer-events="all"/></g><g style="cursor: move;"><g fill="#000000" font-family="Arial,Helvetica" direction="" text-anchor="middle" font-size="11px"><rect fill="none" stroke="none" x="876" y="385" width="23" height="12" stroke-width="1" transform="translate(0.5, 0.5)"/><text x="888" y="395.5">Link</text></g></g></g><g/><g/></g></svg>