<svg xmlns="http://www.w3.org/2000/svg" style="left: 0px; top: 0px; width: 100%; height: 100%; display: block; min-width: 699px; min-height: 671px;"><g><g/><g><g transform="translate(0.5,0.5)" style="visibility: visible;"><rect x="10" y="10" width="100" height="50" fill="#b5f5ff7f" stroke="#000000" pointer-events="all"/></g><g style=""><g fill="#774400" font-family="Arial,Helvetica" direction="" text-anchor="middle" font-size="11px"><rect fill="none" stroke="none" x="26" y="23" width="67" height="26" stroke-width="1" transform="translate(0.5, 0.5)"/><text x="60" y="33">Front-tier</text><text x="60" y="46">&lt;&lt;network&gt;&gt;</text></g></g><g transform="translate(0.5,0.5)" style="visibility: visible;"><rect x="110" y="10" width="100" height="50" fill="#b5f5ff7f" stroke="#000000" pointer-events="all"/></g><g style=""><g fill="#774400" font-family="Arial,Helvetica" direction="" text-anchor="middle" font-size="11px"><rect fill="none" stroke="none" x="126" y="23" width="67" height="26" stroke-width="1" transform="translate(0.5, 0.5)"/><text x="160" y="33">Back-tier</text><text x="160" y="46">&lt;&lt;network&gt;&gt;</text></g></g><g transform="translate(0.5,0.5)" style="visibility: visible;"><rect x="210" y="10" width="100" height="50" fill="#b5f5ff7f" stroke="#000000" pointer-events="all"/></g><g style=""><g fill="#774400" font-family="Arial,Helvetica" direction="" text-anchor="middle" font-size="11px"><rect fill="none" stroke="none" x="226" y="23" width="67" height="26" stroke-width="1" transform="translate(0.5, 0.5)"/><text x="260" y="33">Admin</text><text x="260" y="46">&lt;&lt;network&gt;&gt;</text></g></g><g transform="translate(0.5,0.5)" style="visibility: visible;"><rect x="310" y="10" width="100" height="50" fill="#b5f5ff7f" stroke="#000000" pointer-events="all"/></g><g style=""><g fill="#774400" font-family="Arial,Helvetica" direction="" text-anchor="middle" font-size="11px"><rect fill="none" stroke="none" x="326" y="23" width="67" height="26" stroke-width="1" transform="translate(0.5, 0.5)"/><text x="360" y="33">Undefined</text><text x="360" y="46">&lt;&lt;network&gt;&gt;</text></g></g><g transform="translate(0.5,0.5)" style="visibility: visible;"><rect x="10" y="340" width="210" height="150" fill="#f1f1f17f" stroke="#000000" pointer-events="all"/></g><g style=""><g fill="#774400" font-family="Arial,Helvetica" direction="" text-anchor="middle" font-size="11px"><rect fill="none" stroke="none" x="84" y="347" width="62" height="12" stroke-width="1" transform="translate(0.5, 0.5)"/><text x="115" y="357">Prometheus</text></g></g><g transform="translate(0.5,0.5)" style="visibility: visible;"><rect x="15" y="365" width="200" height="100" fill="#f0fff07f" stroke="#000000" pointer-events="all"/></g><g style=""><g fill="#774400" font-family="Arial,Helvetica" direction="" text-anchor="middle" font-size="11px"><rect fill="none" stroke="none" x="-24" y="377" width="277" height="64" stroke-width="1" transform="translate(0.5, 0.5)"/><text x="115" y="387">Prometheus</text><text x="115" y="413">image: prom/prometheus</text><text x="115" y="426">command: --config.file=/etc/prometheus/prometheus.yml</text><text x="115" y="439">restart: unless-stopped</text></g></g><g transform="translate(0.5,0.5)" style="visibility: visible;"><ellipse cx="30" cy="375" rx="10" ry="10" fill="#ffffd27f" stroke="#000000" pointer-events="all"/></g><g style=""><g fill="#774400" font-family="Arial,Helvetica" direction="" text-anchor="middle" font-size="11px"><rect fill="none" stroke="none" x="16" y="389" width="27" height="12" stroke-width="1" transform="translate(0.5, 0.5)"/><text x="30" y="399.5">9090</text></g></g><g transform="translate(0.5,0.5)" style="visibility: visible;"><rect x="20" y="375" width="90" height="25" fill="#f0f0f07f" stroke="#000000" pointer-events="all"/></g><g style=""><g fill="#774400" font-family="Arial,Helvetica" direction="" text-anchor="middle" font-size="11px"><rect fill="none" stroke="none" x="23" y="382" width="82" height="12" stroke-width="1" transform="translate(0.5, 0.5)"/><text x="65" y="392">/etc/prometheus</text></g></g><g transform="translate(0.5,0.5)" style="visibility: visible;"><rect x="120" y="375" width="77" height="25" fill="#f0f0f07f" stroke="#000000" pointer-events="all"/></g><g style=""><g fill="#774400" font-family="Arial,Helvetica" direction="" text-anchor="middle" font-size="11px"><rect fill="none" stroke="none" x="126" y="382" width="65" height="12" stroke-width="1" transform="translate(0.5, 0.5)"/><text x="158.5" y="392">/prometheus</text></g></g><g transform="translate(0.5,0.5)" style="visibility: visible;"><path d="M 115 365 L 115 360 Q 115 355 95 355 L 50 355 Q 30 355 30 356.82 L 30 358.63" fill="none" stroke="white" stroke-miterlimit="10" pointer-events="stroke" visibility="hidden" stroke-width="9"/><path d="M 115 365 L 115 360 Q 115 355 95 355 L 50 355 Q 30 355 30 356.82 L 30 358.63" fill="none" stroke="#000000" stroke-miterlimit="10" pointer-events="stroke"/><path d="M 30 363.88 L 26.5 356.88 L 30 358.63 L 33.5 356.88 Z" fill="#000000" stroke="#000000" stroke-miterlimit="10" pointer-events="all"/></g><g transform="translate(0.5,0.5)" style="visibility: visible;"><path d="M 115 365 L 115 360 Q 115 355 95 355 L 80 355 Q 65 355 65 361.82 L 65 368.63" fill="none" stroke="white" stroke-miterlimit="10" pointer-events="stroke" visibility="hidden" stroke-width="9"/><path d="M 115 365 L 115 360 Q 115 355 95 355 L 80 355 Q 65 355 65 361.82 L 65 368.63" fill="none" stroke="#000000" stroke-miterlimit="10" pointer-events="stroke"/><path d="M 65 373.88 L 61.5 366.88 L 65 368.63 L 68.5 366.88 Z" fill="#000000" stroke="#000000" stroke-miterlimit="10" pointer-events="all"/></g><g style=""><g fill="#000000" font-family="Arial,Helvetica" direction="" text-anchor="middle" font-size="11px"><rect fill="none" stroke="none" x="75" y="349" width="21" height="12" stroke-width="1" transform="translate(0.5, 0.5)"/><text x="85" y="359.5">use</text></g></g><g transform="translate(0.5,0.5)" style="visibility: visible;"><path d="M 115 365 L 115 360 Q 115 355 135 355 L 146.75 355 Q 158.5 355 158.5 361.82 L 158.5 368.63" fill="none" stroke="white" stroke-miterlimit="10" pointer-events="stroke" visibility="hidden" stroke-width="9"/><path d="M 115 365 L 115 360 Q 115 355 135 355 L 146.75 355 Q 158.5 355 158.5 361.82 L 158.5 368.63" fill="none" stroke="#000000" stroke-miterlimit="10" pointer-events="stroke"/><path d="M 158.5 373.88 L 155 366.88 L 158.5 368.63 L 162 366.88 Z" fill="#000000" stroke="#000000" stroke-miterlimit="10" pointer-events="all"/></g><g style=""><g fill="#000000" font-family="Arial,Helvetica" direction="" text-anchor="middle" font-size="11px"><rect fill="none" stroke="none" x="132" y="349" width="21" height="12" stroke-width="1" transform="translate(0.5, 0.5)"/><text x="142" y="359.5">use</text></g></g><g transform="translate(0.5,0.5)" style="visibility: visible; cursor: move;"><rect x="420" y="150" width="232" height="300" fill="#f1f1f17f" stroke="#000000" pointer-events="all"/></g><g style="cursor: move;"><g fill="#774400" font-family="Arial,Helvetica" direction="" text-anchor="middle" font-size="11px"><rect fill="none" stroke="none" x="515" y="157" width="43" height="12" stroke-width="1" transform="translate(0.5, 0.5)"/><text x="536" y="167">Grafana</text></g></g><g transform="translate(0.5,0.5)" style="visibility: visible; cursor: move;"><rect x="425" y="175" width="200" height="100" fill="#f0fff07f" stroke="#000000" pointer-events="all"/></g><g style="cursor: move;"><g fill="#774400" font-family="Arial,Helvetica" direction="" text-anchor="middle" font-size="11px"><rect fill="none" stroke="none" x="374" y="180" width="301" height="78" stroke-width="1" transform="translate(0.5, 0.5)"/><text x="525" y="190.5">Grafana</text><text x="525" y="216.5">image: grafana/grafana</text><text x="525" y="229.5">restart: unless-stopped</text><text x="525" y="242.5">environment: GF_SECURITY_ADMIN_USER=admin</text><text x="525" y="255.5">environment: GF_SECURITY_ADMIN_PASSWORD=grafana</text></g></g><g transform="translate(0.5,0.5)" style="visibility: visible;"><ellipse cx="440" cy="185" rx="10" ry="10" fill="#ffffd27f" stroke="#000000" pointer-events="all"/></g><g style=""><g fill="#774400" font-family="Arial,Helvetica" direction="" text-anchor="middle" font-size="11px"><rect fill="none" stroke="none" x="402" y="199" width="76" height="12" stroke-width="1" transform="translate(0.5, 0.5)"/><text x="440" y="209.5">127.0.0.1:8080</text></g></g><g transform="translate(0.5,0.5)" style="visibility: visible;"><ellipse cx="470" cy="185" rx="10" ry="10" fill="#ffffd27f" stroke="#000000" pointer-events="all"/></g><g style=""><g fill="#774400" font-family="Arial,Helvetica" direction="" text-anchor="middle" font-size="11px"><rect fill="none" stroke="none" x="418" y="199" width="104" height="12" stroke-width="1" transform="translate(0.5, 0.5)"/><text x="470" y="209.5">127.0.0.1:8000-9000</text></g></g><g transform="translate(0.5,0.5)" style="visibility: visible; cursor: move;"><rect x="430" y="185" width="222" height="25" fill="#f0f0f07f" stroke="#000000" pointer-events="all"/></g><g style="cursor: move;"><g fill="#774400" font-family="Arial,Helvetica" direction="" text-anchor="middle" font-size="11px"><rect fill="none" stroke="none" x="447" y="192" width="186" height="12" stroke-width="1" transform="translate(0.5, 0.5)"/><text x="541" y="202">/etc/grafana/provisioning/datasources</text></g></g><g transform="translate(0.5,0.5)" style="visibility: visible;"><path d="M 525 175 L 525 170 Q 525 165 505 165 L 460 165 Q 440 165 440 166.82 L 440 168.63" fill="none" stroke="white" stroke-miterlimit="10" pointer-events="stroke" visibility="hidden" stroke-width="9"/><path d="M 525 175 L 525 170 Q 525 165 505 165 L 460 165 Q 440 165 440 166.82 L 440 168.63" fill="none" stroke="#000000" stroke-miterlimit="10" pointer-events="stroke"/><path d="M 440 173.88 L 436.5 166.88 L 440 168.63 L 443.5 166.88 Z" fill="#000000" stroke="#000000" stroke-miterlimit="10" pointer-events="all"/></g><g transform="translate(0.5,0.5)" style="visibility: visible; cursor: move;"><path d="M 525 175 L 525 170 Q 525 165 505 165 L 487.5 165 Q 470 165 470 166.82 L 470 168.63" fill="none" stroke="white" stroke-miterlimit="10" pointer-events="stroke" visibility="hidden" stroke-width="9"/><path d="M 525 175 L 525 170 Q 525 165 505 165 L 487.5 165 Q 470 165 470 166.82 L 470 168.63" fill="none" stroke="#000000" stroke-miterlimit="10" pointer-events="stroke"/><path d="M 470 173.88 L 466.5 166.88 L 470 168.63 L 473.5 166.88 Z" fill="#000000" stroke="#000000" stroke-miterlimit="10" pointer-events="all"/></g><g transform="translate(0.5,0.5)" style="visibility: visible; cursor: move;"><path d="M 525 175 L 525 170 Q 525 165 533 165 L 537 165 Q 541 165 541 171.82 L 541 178.63" fill="none" stroke="white" stroke-miterlimit="10" pointer-events="stroke" visibility="hidden" stroke-width="9"/><path d="M 525 175 L 525 170 Q 525 165 533 165 L 537 165 Q 541 165 541 171.82 L 541 178.63" fill="none" stroke="#000000" stroke-miterlimit="10" pointer-events="stroke"/><path d="M 541 183.88 L 537.5 176.88 L 541 178.63 L 544.5 176.88 Z" fill="#000000" stroke="#000000" stroke-miterlimit="10" pointer-events="all"/></g><g style="cursor: move;"><g fill="#000000" font-family="Arial,Helvetica" direction="" text-anchor="middle" font-size="11px"><rect fill="none" stroke="none" x="528" y="159" width="21" height="12" stroke-width="1" transform="translate(0.5, 0.5)"/><text x="538" y="169.5">use</text></g></g><g transform="translate(0.5,0.5)" style="visibility: visible; cursor: move;"><rect x="430" y="350" width="200" height="100" fill="#f0fff07f" stroke="#000000" pointer-events="all"/></g><g style="cursor: move;"><g fill="#774400" font-family="Arial,Helvetica" direction="" text-anchor="middle" font-size="11px"><rect fill="none" stroke="none" x="489" y="394" width="82" height="12" stroke-width="1" transform="translate(0.5, 0.5)"/><text x="530" y="404.5">NewComponent</text></g></g><g transform="translate(0.5,0.5)" style="visibility: visible; cursor: move;"><rect x="120" y="520" width="210" height="150" fill="#f1f1f17f" stroke="#000000" pointer-events="all"/></g><g style="cursor: move;"><g fill="#774400" font-family="Arial,Helvetica" direction="" text-anchor="middle" font-size="11px"><rect fill="none" stroke="none" x="203" y="527" width="44" height="12" stroke-width="1" transform="translate(0.5, 0.5)"/><text x="225" y="537">Datadog</text></g></g><g transform="translate(0.5,0.5)" style="visibility: visible; cursor: move;"><rect x="125" y="545" width="200" height="100" fill="#f0fff07f" stroke="#000000" pointer-events="all"/></g><g style="cursor: move;"><g fill="#774400" font-family="Arial,Helvetica" direction="" text-anchor="middle" font-size="11px"><rect fill="none" stroke="none" x="164" y="563" width="121" height="51" stroke-width="1" transform="translate(0.5, 0.5)"/><text x="225" y="573.5">Datadog</text><text x="225" y="599.5">image: datadog/datadog</text><text x="225" y="612.5">restart: never</text></g></g><g transform="translate(0.5,0.5)" style="visibility: visible;"><ellipse cx="20" cy="35" rx="10" ry="10" fill="#ffffd27f" stroke="#000000" pointer-events="all"/></g><g style=""><g fill="#774400" font-family="Arial,Helvetica" direction="" text-anchor="middle" font-size="11px"><rect fill="none" stroke="none" x="6" y="49" width="27" height="12" stroke-width="1" transform="translate(0.5, 0.5)"/><text x="20" y="59.5">9090</text></g></g><g transform="translate(0.5,0.5)" style="visibility: visible;"><ellipse cx="50" cy="35" rx="10" ry="10" fill="#ffffd27f" stroke="#000000" pointer-events="all"/></g><g style=""><g fill="#774400" font-family="Arial,Helvetica" direction="" text-anchor="middle" font-size="11px"><rect fill="none" stroke="none" x="42" y="49" width="15" height="12" stroke-width="1" transform="translate(0.5, 0.5)"/><text x="50" y="59.5">80</text></g></g><g transform="translate(0.5,0.5)" style="visibility: visible;"><ellipse cx="80" cy="35" rx="10" ry="10" fill="#ffffd27f" stroke="#000000" pointer-events="all"/></g><g style=""><g fill="#774400" font-family="Arial,Helvetica" direction="" text-anchor="middle" font-size="11px"><rect fill="none" stroke="none" x="66" y="49" width="27" height="12" stroke-width="1" transform="translate(0.5, 0.5)"/><text x="80" y="59.5">8000</text></g></g><g transform="translate(0.5,0.5)" style="visibility: visible;"><rect x="10" y="35" width="84" height="25" fill="#f0f0f07f" stroke="#000000" pointer-events="all"/></g><g style=""><g fill="#774400" font-family="Arial,Helvetica" direction="" text-anchor="middle" font-size="11px"><rect fill="none" stroke="none" x="18" y="42" width="67" height="12" stroke-width="1" transform="translate(0.5, 0.5)"/><text x="52" y="52">./prometheus</text></g></g><g transform="translate(0.5,0.5)" style="visibility: visible;"><rect x="110" y="35" width="63" height="25" fill="#f0f0f07f" stroke="#000000" pointer-events="all"/></g><g style=""><g fill="#774400" font-family="Arial,Helvetica" direction="" text-anchor="middle" font-size="11px"><rect fill="none" stroke="none" x="113" y="42" width="57" height="12" stroke-width="1" transform="translate(0.5, 0.5)"/><text x="141.5" y="52">Prom_data</text></g></g><g transform="translate(0.5,0.5)" style="visibility: visible;"><rect x="210" y="35" width="63" height="25" fill="#f0f0f07f" stroke="#000000" pointer-events="all"/></g><g style=""><g fill="#774400" font-family="Arial,Helvetica" direction="" text-anchor="middle" font-size="11px"><rect fill="none" stroke="none" x="218" y="42" width="46" height="12" stroke-width="1" transform="translate(0.5, 0.5)"/><text x="241.5" y="52">./grafana</text></g></g><g transform="translate(0.5,0.5)" style="visibility: visible;"><path d="M 30 365 L 30 225 Q 30 205 25 205 L 22.5 205 Q 20 205 20 185 L 20 51.37" fill="none" stroke="white" stroke-miterlimit="10" pointer-events="stroke" visibility="hidden" stroke-width="9"/><path d="M 30 365 L 30 225 Q 30 205 25 205 L 22.5 205 Q 20 205 20 185 L 20 51.37" fill="none" stroke="#000000" stroke-miterlimit="10" pointer-events="stroke"/><path d="M 20 46.12 L 23.5 53.12 L 20 51.37 L 16.5 53.12 Z" fill="#000000" stroke="#000000" stroke-miterlimit="10" pointer-events="all"/></g><g transform="translate(0.5,0.5)" style="visibility: visible;"><path d="M 65 375 L 65 237.5 Q 65 217.5 58.5 217.5 L 55.25 217.5 Q 52 217.5 52 197.5 L 52 66.37" fill="none" stroke="white" stroke-miterlimit="10" pointer-events="stroke" visibility="hidden" stroke-width="9"/><path d="M 65 375 L 65 237.5 Q 65 217.5 58.5 217.5 L 55.25 217.5 Q 52 217.5 52 197.5 L 52 66.37" fill="none" stroke="#000000" stroke-miterlimit="10" pointer-events="stroke"/><path d="M 52 61.12 L 55.5 68.12 L 52 66.37 L 48.5 68.12 Z" fill="#000000" stroke="#000000" stroke-miterlimit="10" pointer-events="all"/></g><g style=""><g fill="#000000" font-family="Arial,Helvetica" direction="" text-anchor="middle" font-size="11px"><rect fill="none" stroke="none" x="52" y="212" width="13" height="12" stroke-width="1" transform="translate(0.5, 0.5)"/><text x="58.5" y="222">ro</text></g></g><g transform="translate(0.5,0.5)" style="visibility: visible;"><path d="M 158.5 375 L 158.5 237.5 Q 158.5 217.5 150 217.5 L 145.75 217.5 Q 141.5 217.5 141.5 197.5 L 141.5 66.37" fill="none" stroke="white" stroke-miterlimit="10" pointer-events="stroke" visibility="hidden" stroke-width="9"/><path d="M 158.5 375 L 158.5 237.5 Q 158.5 217.5 150 217.5 L 145.75 217.5 Q 141.5 217.5 141.5 197.5 L 141.5 66.37" fill="none" stroke="#000000" stroke-miterlimit="10" pointer-events="stroke"/><path d="M 141.5 61.12 L 145 68.12 L 141.5 66.37 L 138 68.12 Z" fill="#000000" stroke="#000000" stroke-miterlimit="10" pointer-events="all"/></g><g style=""><g fill="#000000" font-family="Arial,Helvetica" direction="" text-anchor="middle" font-size="11px"><rect fill="none" stroke="none" x="143" y="212" width="15" height="12" stroke-width="1" transform="translate(0.5, 0.5)"/><text x="150" y="222">rw</text></g></g><g transform="translate(0.5,0.5)" style="visibility: visible;"><path d="M 115 340 L 115 220 Q 115 200 135 200 L 147.5 200 Q 160 200 160 180 L 160 66.37" fill="none" stroke="white" stroke-miterlimit="10" pointer-events="stroke" visibility="hidden" stroke-width="9"/><path d="M 115 340 L 115 220 Q 115 200 135 200 L 147.5 200 Q 160 200 160 180 L 160 66.37" fill="none" stroke="#000000" stroke-miterlimit="10" pointer-events="stroke"/><path d="M 160 61.12 L 163.5 68.12 L 160 66.37 L 156.5 68.12 Z" fill="#000000" stroke="#000000" stroke-miterlimit="10" pointer-events="all"/></g><g style=""><g fill="#000000" font-family="Arial,Helvetica" direction="" text-anchor="middle" font-size="11px"><rect fill="none" stroke="none" x="96" y="194" width="84" height="12" stroke-width="1" transform="translate(0.5, 0.5)"/><text x="138" y="204.5">alias:['database']</text></g></g><g transform="translate(0.5,0.5)" style="visibility: visible;"><path d="M 115 340 L 115 220 Q 115 200 135 200 L 240 200 Q 260 200 260 180 L 260 66.37" fill="none" stroke="white" stroke-miterlimit="10" pointer-events="stroke" visibility="hidden" stroke-width="9"/><path d="M 115 340 L 115 220 Q 115 200 135 200 L 240 200 Q 260 200 260 180 L 260 66.37" fill="none" stroke="#000000" stroke-miterlimit="10" pointer-events="stroke"/><path d="M 260 61.12 L 263.5 68.12 L 260 66.37 L 256.5 68.12 Z" fill="#000000" stroke="#000000" stroke-miterlimit="10" pointer-events="all"/></g><g style=""><g fill="#000000" font-family="Arial,Helvetica" direction="" text-anchor="middle" font-size="11px"><rect fill="none" stroke="none" x="154" y="194" width="67" height="12" stroke-width="1" transform="translate(0.5, 0.5)"/><text x="188" y="204.5">alias:['mysql']</text></g></g><g transform="translate(0.5,0.5)" style="visibility: visible; cursor: move;"><path d="M 220 415 L 340 415 Q 360 415 360 395 L 360 66.37" fill="none" stroke="white" stroke-miterlimit="10" pointer-events="stroke" visibility="hidden" stroke-width="9"/><path d="M 220 415 L 340 415 Q 360 415 360 395 L 360 66.37" fill="none" stroke="#000000" stroke-miterlimit="10" pointer-events="stroke"/><path d="M 360 61.12 L 363.5 68.12 L 360 66.37 L 356.5 68.12 Z" fill="#000000" stroke="#000000" stroke-miterlimit="10" pointer-events="all"/></g><g style="cursor: move;"><g fill="#000000" font-family="Arial,Helvetica" direction="" text-anchor="middle" font-size="11px"><rect fill="none" stroke="none" x="318" y="301" width="83" height="12" stroke-width="1" transform="translate(0.5, 0.5)"/><text x="360" y="311.5">alias:['unknown']</text></g></g><g transform="translate(0.5,0.5)" style="visibility: visible;"><path d="M 430 185 L 70 185 Q 50 185 50 165 L 50 51.37" fill="none" stroke="white" stroke-miterlimit="10" pointer-events="stroke" visibility="hidden" stroke-width="9"/><path d="M 430 185 L 70 185 Q 50 185 50 165 L 50 51.37" fill="none" stroke="#000000" stroke-miterlimit="10" pointer-events="stroke"/><path d="M 50 46.12 L 53.5 53.12 L 50 51.37 L 46.5 53.12 Z" fill="#000000" stroke="#000000" stroke-miterlimit="10" pointer-events="all"/></g><g style=""><g fill="#000000" font-family="Arial,Helvetica" direction="" text-anchor="middle" font-size="11px"><rect fill="none" stroke="none" x="160" y="179" width="18" height="12" stroke-width="1" transform="translate(0.5, 0.5)"/><text x="170" y="189.5">tcp</text></g></g><g transform="translate(0.5,0.5)" style="visibility: visible; cursor: move;"><path d="M 460 185 L 100 185 Q 80 185 80 165 L 80 51.37" fill="none" stroke="white" stroke-miterlimit="10" pointer-events="stroke" visibility="hidden" stroke-width="9"/><path d="M 460 185 L 100 185 Q 80 185 80 165 L 80 51.37" fill="none" stroke="#000000" stroke-miterlimit="10" pointer-events="stroke"/><path d="M 80 46.12 L 83.5 53.12 L 80 51.37 L 76.5 53.12 Z" fill="#000000" stroke="#000000" stroke-miterlimit="10" pointer-events="all"/></g><g style="cursor: move;"><g fill="#000000" font-family="Arial,Helvetica" direction="" text-anchor="middle" font-size="11px"><rect fill="none" stroke="none" x="190" y="179" width="18" height="12" stroke-width="1" transform="translate(0.5, 0.5)"/><text x="200" y="189.5">tcp</text></g></g><g transform="translate(0.5,0.5)" style="visibility: visible; cursor: move;"><path d="M 430 197.5 L 261.5 197.5 Q 241.5 197.5 241.5 177.5 L 241.5 66.37" fill="none" stroke="white" stroke-miterlimit="10" pointer-events="stroke" visibility="hidden" stroke-width="9"/><path d="M 430 197.5 L 261.5 197.5 Q 241.5 197.5 241.5 177.5 L 241.5 66.37" fill="none" stroke="#000000" stroke-miterlimit="10" pointer-events="stroke"/><path d="M 241.5 61.12 L 245 68.12 L 241.5 66.37 L 238 68.12 Z" fill="#000000" stroke="#000000" stroke-miterlimit="10" pointer-events="all"/></g><g style="cursor: move;"><g fill="#000000" font-family="Arial,Helvetica" direction="" text-anchor="middle" font-size="11px"><rect fill="none" stroke="none" x="261" y="192" width="13" height="12" stroke-width="1" transform="translate(0.5, 0.5)"/><text x="267" y="202">ro</text></g></g><g transform="translate(0.5,0.5)" style="visibility: visible;"><path d="M 420 300 L 80 300 Q 60 300 60 280 L 60 66.37" fill="none" stroke="white" stroke-miterlimit="10" pointer-events="stroke" visibility="hidden" stroke-width="9"/><path d="M 420 300 L 80 300 Q 60 300 60 280 L 60 66.37" fill="none" stroke="#000000" stroke-miterlimit="10" pointer-events="stroke"/><path d="M 60 61.12 L 63.5 68.12 L 60 66.37 L 56.5 68.12 Z" fill="#000000" stroke="#000000" stroke-miterlimit="10" pointer-events="all"/></g><g style=""><g fill="#000000" font-family="Arial,Helvetica" direction="" text-anchor="middle" font-size="11px"><rect fill="none" stroke="none" x="96" y="294" width="47" height="12" stroke-width="1" transform="translate(0.5, 0.5)"/><text x="120" y="304.5">alias:['ui']</text></g></g><g transform="translate(0.5,0.5)" style="visibility: visible;"><path d="M 420 300 L 180 300 Q 160 300 160 280 L 160 66.37" fill="none" stroke="white" stroke-miterlimit="10" pointer-events="stroke" visibility="hidden" stroke-width="9"/><path d="M 420 300 L 180 300 Q 160 300 160 280 L 160 66.37" fill="none" stroke="#000000" stroke-miterlimit="10" pointer-events="stroke"/><path d="M 160 61.12 L 163.5 68.12 L 160 66.37 L 156.5 68.12 Z" fill="#000000" stroke="#000000" stroke-miterlimit="10" pointer-events="all"/></g><g transform="translate(0.5,0.5)" style="visibility: visible; cursor: move;"><rect x="500" y="30" width="100" height="50" fill="#b5f5ff7f" stroke="#000000" pointer-events="all"/></g><g style="cursor: move;"><g fill="#774400" font-family="Arial,Helvetica" direction="" text-anchor="middle" font-size="11px"><rect fill="none" stroke="none" x="516" y="43" width="67" height="25" stroke-width="1" transform="translate(0.5, 0.5)"/><text x="550" y="53">NewCloud</text><text x="550" y="66">&lt;&lt;network&gt;&gt;</text></g></g></g><g/><g/></g></svg>