<svg xmlns="http://www.w3.org/2000/svg" style="left: 0px; top: 0px; width: 100%; height: 100%; display: block; min-width: 895px; min-height: 613px;"><g><g/><g><g transform="translate(0.5,0.5)" style="visibility: visible; cursor: move;"><rect x="484" y="26.8" width="100" height="50" fill="#b5f5ff7f" stroke="#000000" pointer-events="all"/></g><g style="cursor: move;"><g fill="#774400" font-family="Arial,Helvetica" direction="" text-anchor="middle" font-size="11px"><rect fill="none" stroke="none" x="500" y="40" width="67" height="25" stroke-width="1" transform="translate(0.5, 0.5)"/><text x="534" y="49.8">Front-tier</text><text x="534" y="62.8">&lt;&lt;network&gt;&gt;</text></g></g><g transform="translate(0.5,0.5)" style="visibility: visible; cursor: move;"><rect x="334" y="26.8" width="100" height="50" fill="#b5f5ff7f" stroke="#000000" pointer-events="all"/></g><g style="cursor: move;"><g fill="#774400" font-family="Arial,Helvetica" direction="" text-anchor="middle" font-size="11px"><rect fill="none" stroke="none" x="350" y="40" width="67" height="25" stroke-width="1" transform="translate(0.5, 0.5)"/><text x="384" y="49.8">Back-tier</text><text x="384" y="62.8">&lt;&lt;network&gt;&gt;</text></g></g><g transform="translate(0.5,0.5)" style="visibility: visible; cursor: move;"><rect x="214" y="26.8" width="100" height="50" fill="#b5f5ff7f" stroke="#000000" pointer-events="all"/></g><g style="cursor: move;"><g fill="#774400" font-family="Arial,Helvetica" direction="" text-anchor="middle" font-size="11px"><rect fill="none" stroke="none" x="230" y="40" width="67" height="25" stroke-width="1" transform="translate(0.5, 0.5)"/><text x="264" y="49.8">Admin</text><text x="264" y="62.8">&lt;&lt;network&gt;&gt;</text></g></g><g transform="translate(0.5,0.5)" style="visibility: visible; cursor: move;"><rect x="24" y="26.8" width="100" height="50" fill="#b5f5ff7f" stroke="#000000" pointer-events="all"/></g><g style="cursor: move;"><g fill="#774400" font-family="Arial,Helvetica" direction="" text-anchor="middle" font-size="11px"><rect fill="none" stroke="none" x="40" y="40" width="67" height="25" stroke-width="1" transform="translate(0.5, 0.5)"/><text x="74" y="49.8">Undefined</text><text x="74" y="62.8">&lt;&lt;network&gt;&gt;</text></g></g><g transform="translate(0.5,0.5)" style="visibility: visible; cursor: move;"><rect x="4" y="266.8" width="300" height="290" fill="#f1f1f17f" stroke="#000000" pointer-events="all"/></g><g style="cursor: move;"><g fill="#774400" font-family="Arial,Helvetica" direction="" text-anchor="middle" font-size="11px"><rect fill="none" stroke="none" x="123" y="274" width="62" height="12" stroke-width="1" transform="translate(0.5, 0.5)"/><text x="154" y="283.8">Prometheus</text></g></g><g transform="translate(0.5,0.5)" style="visibility: visible; cursor: move;"><rect x="14" y="291.8" width="280" height="100" fill="#f0fff07f" stroke="#000000" pointer-events="all"/></g><g style="cursor: move;"><g fill="#774400" font-family="Arial,Helvetica" direction="" text-anchor="middle" font-size="11px"><rect fill="none" stroke="none" x="15" y="304" width="277" height="64" stroke-width="1" transform="translate(0.5, 0.5)"/><text x="154" y="313.8">Prometheus</text><text x="154" y="339.8">image: prom/prometheus</text><text x="154" y="352.8">command: --config.file=/etc/prometheus/prometheus.yml</text><text x="154" y="365.8">restart: unless-stopped</text></g></g><g transform="translate(0.5,0.5)" style="visibility: visible; cursor: move;"><ellipse cx="254" cy="446.8" rx="10" ry="10" fill="#ffffd27f" stroke="#000000" pointer-events="all"/></g><g style="cursor: move;"><g fill="#774400" font-family="Arial,Helvetica" direction="" text-anchor="middle" font-size="11px"><rect fill="none" stroke="none" x="240" y="461" width="27" height="12" stroke-width="1" transform="translate(0.5, 0.5)"/><text x="254" y="471.3">9090</text></g></g><g transform="translate(0.5,0.5)" style="visibility: visible; cursor: move;"><rect x="174" y="496.8" width="90" height="25" fill="#f0f0f07f" stroke="#000000" pointer-events="all"/></g><g style="cursor: move;"><g fill="#774400" font-family="Arial,Helvetica" direction="" text-anchor="middle" font-size="11px"><rect fill="none" stroke="none" x="177" y="504" width="82" height="12" stroke-width="1" transform="translate(0.5, 0.5)"/><text x="219" y="513.8">/etc/prometheus</text></g></g><g transform="translate(0.5,0.5)" style="visibility: visible; cursor: move;"><rect x="44" y="496.8" width="77" height="25" fill="#f0f0f07f" stroke="#000000" pointer-events="all"/></g><g style="cursor: move;"><g fill="#774400" font-family="Arial,Helvetica" direction="" text-anchor="middle" font-size="11px"><rect fill="none" stroke="none" x="50" y="504" width="65" height="12" stroke-width="1" transform="translate(0.5, 0.5)"/><text x="82.5" y="513.8">/prometheus</text></g></g><g transform="translate(0.5,0.5)" style="visibility: visible; cursor: move;"><path d="M 154 391.8 L 154 404.3 Q 154 416.8 174 416.8 L 234 416.8 Q 254 416.8 254 426.8 L 254 436.8" fill="none" stroke="white" stroke-miterlimit="10" pointer-events="stroke" visibility="hidden" stroke-width="9"/><path d="M 154 391.8 L 154 404.3 Q 154 416.8 174 416.8 L 234 416.8 Q 254 416.8 254 426.8 L 254 436.8" fill="none" stroke="#000000" stroke-miterlimit="10" pointer-events="stroke"/></g><g transform="translate(0.5,0.5)" style="visibility: visible; cursor: move;"><path d="M 154 391.8 L 154 424.3 Q 154 444.3 174 444.3 L 199 444.3 Q 219 444.3 219 464.3 L 219 488.68" fill="none" stroke="white" stroke-miterlimit="10" pointer-events="stroke" visibility="hidden" stroke-width="9"/><path d="M 154 391.8 L 154 424.3 Q 154 444.3 174 444.3 L 199 444.3 Q 219 444.3 219 464.3 L 219 488.68" fill="none" stroke="#000000" stroke-miterlimit="10" stroke-dasharray="3 3" pointer-events="stroke"/><path d="M 219 495.68 L 215.5 488.68 L 222.5 488.68 Z" fill="#000000" stroke="#000000" stroke-miterlimit="10" pointer-events="all"/></g><g style="cursor: move;"><g fill="#000000" font-family="Arial,Helvetica" direction="" text-anchor="middle" font-size="11px"><rect fill="none" stroke="none" x="176" y="439" width="21" height="12" stroke-width="1" transform="translate(0.5, 0.5)"/><text x="186.5" y="448.8">use</text></g></g><g transform="translate(0.5,0.5)" style="visibility: visible; cursor: move;"><path d="M 154 391.8 L 154 424.3 Q 154 444.3 134 444.3 L 102.5 444.3 Q 82.5 444.3 82.5 464.3 L 82.5 488.68" fill="none" stroke="white" stroke-miterlimit="10" pointer-events="stroke" visibility="hidden" stroke-width="9"/><path d="M 154 391.8 L 154 424.3 Q 154 444.3 134 444.3 L 102.5 444.3 Q 82.5 444.3 82.5 464.3 L 82.5 488.68" fill="none" stroke="#000000" stroke-miterlimit="10" stroke-dasharray="3 3" pointer-events="stroke"/><path d="M 82.5 495.68 L 79 488.68 L 86 488.68 Z" fill="#000000" stroke="#000000" stroke-miterlimit="10" pointer-events="all"/></g><g style="cursor: move;"><g fill="#000000" font-family="Arial,Helvetica" direction="" text-anchor="middle" font-size="11px"><rect fill="none" stroke="none" x="108" y="439" width="21" height="12" stroke-width="1" transform="translate(0.5, 0.5)"/><text x="118.5" y="448.8">use</text></g></g><g transform="translate(0.5,0.5)" style="visibility: visible; cursor: move;"><rect x="424" y="266.8" width="340" height="290" fill="#f1f1f17f" stroke="#000000" pointer-events="all"/></g><g style="cursor: move;"><g fill="#774400" font-family="Arial,Helvetica" direction="" text-anchor="middle" font-size="11px"><rect fill="none" stroke="none" x="573" y="274" width="43" height="12" stroke-width="1" transform="translate(0.5, 0.5)"/><text x="594" y="283.8">Grafana</text></g></g><g transform="translate(0.5,0.5)" style="visibility: visible; cursor: move;"><rect x="434" y="291.8" width="320" height="100" fill="#f0fff07f" stroke="#000000" pointer-events="all"/></g><g style="cursor: move;"><g fill="#774400" font-family="Arial,Helvetica" direction="" text-anchor="middle" font-size="11px"><rect fill="none" stroke="none" x="443" y="297" width="301" height="77" stroke-width="1" transform="translate(0.5, 0.5)"/><text x="594" y="307.3">Grafana</text><text x="594" y="333.3">image: grafana/grafana</text><text x="594" y="346.3">restart: unless-stopped</text><text x="594" y="359.3">environment: GF_SECURITY_ADMIN_USER=admin</text><text x="594" y="372.3">environment: GF_SECURITY_ADMIN_PASSWORD=grafana</text></g></g><g transform="translate(0.5,0.5)" style="visibility: visible; cursor: move;"><ellipse cx="504" cy="446.8" rx="10" ry="10" fill="#ffffd27f" stroke="#000000" pointer-events="all"/></g><g style="cursor: move;"><g fill="#774400" font-family="Arial,Helvetica" direction="" text-anchor="middle" font-size="11px"><rect fill="none" stroke="none" x="466" y="461" width="76" height="12" stroke-width="1" transform="translate(0.5, 0.5)"/><text x="504" y="471.3">127.0.0.1:8080</text></g></g><g transform="translate(0.5,0.5)" style="visibility: visible; cursor: move;"><ellipse cx="694" cy="446.8" rx="10" ry="10" fill="#ffffd27f" stroke="#000000" pointer-events="all"/></g><g style="cursor: move;"><g fill="#774400" font-family="Arial,Helvetica" direction="" text-anchor="middle" font-size="11px"><rect fill="none" stroke="none" x="642" y="461" width="104" height="12" stroke-width="1" transform="translate(0.5, 0.5)"/><text x="694" y="471.3">127.0.0.1:8000-9000</text></g></g><g transform="translate(0.5,0.5)" style="visibility: visible; cursor: move;"><rect x="484" y="496.8" width="222" height="25" fill="#f0f0f07f" stroke="#000000" pointer-events="all"/></g><g style="cursor: move;"><g fill="#774400" font-family="Arial,Helvetica" direction="" text-anchor="middle" font-size="11px"><rect fill="none" stroke="none" x="501" y="504" width="186" height="12" stroke-width="1" transform="translate(0.5, 0.5)"/><text x="595" y="513.8">/etc/grafana/provisioning/datasources</text></g></g><g transform="translate(0.5,0.5)" style="visibility: visible; cursor: move;"><path d="M 594 391.8 L 594 403.05 Q 594 414.3 574 414.3 L 524 414.3 Q 504 414.3 504 425.55 L 504 436.8" fill="none" stroke="white" stroke-miterlimit="10" pointer-events="stroke" visibility="hidden" stroke-width="9"/><path d="M 594 391.8 L 594 403.05 Q 594 414.3 574 414.3 L 524 414.3 Q 504 414.3 504 425.55 L 504 436.8" fill="none" stroke="#000000" stroke-miterlimit="10" pointer-events="stroke"/></g><g transform="translate(0.5,0.5)" style="visibility: visible; cursor: move;"><path d="M 594 391.8 L 594 403.05 Q 594 414.3 614 414.3 L 674 414.3 Q 694 414.3 694 425.55 L 694 436.8" fill="none" stroke="white" stroke-miterlimit="10" pointer-events="stroke" visibility="hidden" stroke-width="9"/><path d="M 594 391.8 L 594 403.05 Q 594 414.3 614 414.3 L 674 414.3 Q 694 414.3 694 425.55 L 694 436.8" fill="none" stroke="#000000" stroke-miterlimit="10" pointer-events="stroke"/></g><g transform="translate(0.5,0.5)" style="visibility: visible; cursor: move;"><path d="M 594 391.8 L 594 424.3 Q 594 444.3 594.5 444.3 L 594.75 444.3 Q 595 444.3 595 464.3 L 595 488.68" fill="none" stroke="white" stroke-miterlimit="10" pointer-events="stroke" visibility="hidden" stroke-width="9"/><path d="M 594 391.8 L 594 424.3 Q 594 444.3 594.5 444.3 L 594.75 444.3 Q 595 444.3 595 464.3 L 595 488.68" fill="none" stroke="#000000" stroke-miterlimit="10" stroke-dasharray="3 3" pointer-events="stroke"/><path d="M 595 495.68 L 591.5 488.68 L 598.5 488.68 Z" fill="#000000" stroke="#000000" stroke-miterlimit="10" pointer-events="all"/></g><g style="cursor: move;"><g fill="#000000" font-family="Arial,Helvetica" direction="" text-anchor="middle" font-size="11px"><rect fill="none" stroke="none" x="584" y="439" width="21" height="12" stroke-width="1" transform="translate(0.5, 0.5)"/><text x="594.5" y="448.8">use</text></g></g><g transform="translate(0.5,0.5)" style="visibility: visible; cursor: move;"><rect x="674" y="66.8" width="220" height="150" fill="#f1f1f17f" stroke="#000000" pointer-events="all"/></g><g style="cursor: move;"><g fill="#774400" font-family="Arial,Helvetica" direction="" text-anchor="middle" font-size="11px"><rect fill="none" stroke="none" x="762" y="74" width="44" height="12" stroke-width="1" transform="translate(0.5, 0.5)"/><text x="784" y="83.8">Datadog</text></g></g><g transform="translate(0.5,0.5)" style="visibility: visible; cursor: move;"><rect x="684" y="91.8" width="200" height="100" fill="#f0fff07f" stroke="#000000" pointer-events="all"/></g><g style="cursor: move;"><g fill="#774400" font-family="Arial,Helvetica" direction="" text-anchor="middle" font-size="11px"><rect fill="none" stroke="none" x="723" y="117" width="121" height="38" stroke-width="1" transform="translate(0.5, 0.5)"/><text x="784" y="126.8">Datadog</text><text x="784" y="152.8">image: datadog/datadog</text></g></g><g transform="translate(0.5,0.5)" style="visibility: visible; cursor: move;"><ellipse cx="334" cy="446.8" rx="10" ry="10" fill="#ffffd27f" stroke="#000000" pointer-events="all"/></g><g style="cursor: move;"><g fill="#774400" font-family="Arial,Helvetica" direction="" text-anchor="middle" font-size="11px"><rect fill="none" stroke="none" x="320" y="461" width="27" height="12" stroke-width="1" transform="translate(0.5, 0.5)"/><text x="334" y="471.3">9090</text></g></g><g transform="translate(0.5,0.5)" style="visibility: visible; cursor: move;"><ellipse cx="394" cy="446.8" rx="10" ry="10" fill="#ffffd27f" stroke="#000000" pointer-events="all"/></g><g style="cursor: move;"><g fill="#774400" font-family="Arial,Helvetica" direction="" text-anchor="middle" font-size="11px"><rect fill="none" stroke="none" x="386" y="461" width="15" height="12" stroke-width="1" transform="translate(0.5, 0.5)"/><text x="394" y="471.3">80</text></g></g><g transform="translate(0.5,0.5)" style="visibility: visible; cursor: move;"><ellipse cx="814" cy="446.8" rx="10" ry="10" fill="#ffffd27f" stroke="#000000" pointer-events="all"/></g><g style="cursor: move;"><g fill="#774400" font-family="Arial,Helvetica" direction="" text-anchor="middle" font-size="11px"><rect fill="none" stroke="none" x="800" y="461" width="27" height="12" stroke-width="1" transform="translate(0.5, 0.5)"/><text x="814" y="471.3">8000</text></g></g><g transform="translate(0.5,0.5)" style="visibility: visible; cursor: move;"><rect x="174" y="586.8" width="84" height="25" fill="#f0f0f07f" stroke="#000000" pointer-events="all"/></g><g style="cursor: move;"><g fill="#774400" font-family="Arial,Helvetica" direction="" text-anchor="middle" font-size="11px"><rect fill="none" stroke="none" x="182" y="594" width="67" height="12" stroke-width="1" transform="translate(0.5, 0.5)"/><text x="216" y="603.8">./prometheus</text></g></g><g transform="translate(0.5,0.5)" style="visibility: visible; cursor: move;"><rect x="54" y="586.8" width="63" height="25" fill="#f0f0f07f" stroke="#000000" pointer-events="all"/></g><g style="cursor: move;"><g fill="#774400" font-family="Arial,Helvetica" direction="" text-anchor="middle" font-size="11px"><rect fill="none" stroke="none" x="57" y="594" width="57" height="12" stroke-width="1" transform="translate(0.5, 0.5)"/><text x="85.5" y="603.8">Prom_data</text></g></g><g transform="translate(0.5,0.5)" style="visibility: visible; cursor: move;"><rect x="564" y="586.8" width="63" height="25" fill="#f0f0f07f" stroke="#000000" pointer-events="all"/></g><g style="cursor: move;"><g fill="#774400" font-family="Arial,Helvetica" direction="" text-anchor="middle" font-size="11px"><rect fill="none" stroke="none" x="572" y="594" width="46" height="12" stroke-width="1" transform="translate(0.5, 0.5)"/><text x="595.5" y="603.8">./grafana</text></g></g><g transform="translate(0.5,0.5)" style="visibility: visible; cursor: move;"><path d="M 264 446.8 L 324 446.8" fill="none" stroke="white" stroke-miterlimit="10" pointer-events="stroke" visibility="hidden" stroke-width="9"/><path d="M 264 446.8 L 324 446.8" fill="none" stroke="#000000" stroke-miterlimit="10" pointer-events="stroke"/></g><g transform="translate(0.5,0.5)" style="visibility: visible; cursor: move;"><path d="M 214 521.8 L 214 538.3 Q 214 554.8 215 554.8 L 215.5 554.8 Q 216 554.8 216 570.8 L 216 586.8" fill="none" stroke="white" stroke-miterlimit="10" pointer-events="stroke" visibility="hidden" stroke-width="9"/><path d="M 214 521.8 L 214 538.3 Q 214 554.8 215 554.8 L 215.5 554.8 Q 216 554.8 216 570.8 L 216 586.8" fill="none" stroke="#000000" stroke-miterlimit="10" pointer-events="stroke"/></g><g style="cursor: move;"><g fill="#000000" font-family="Arial,Helvetica" direction="" text-anchor="middle" font-size="11px"><rect fill="none" stroke="none" x="228" y="561" width="13" height="12" stroke-width="1" transform="translate(0.5, 0.5)"/><text x="234" y="571.3">ro</text></g></g><g transform="translate(0.5,0.5)" style="visibility: visible; cursor: move;"><path d="M 82.5 521.8 L 82.5 538.05 Q 82.5 554.3 84 554.3 L 84.75 554.3 Q 85.5 554.3 85.5 570.55 L 85.5 586.8" fill="none" stroke="white" stroke-miterlimit="10" pointer-events="stroke" visibility="hidden" stroke-width="9"/><path d="M 82.5 521.8 L 82.5 538.05 Q 82.5 554.3 84 554.3 L 84.75 554.3 Q 85.5 554.3 85.5 570.55 L 85.5 586.8" fill="none" stroke="#000000" stroke-miterlimit="10" pointer-events="stroke"/></g><g style="cursor: move;"><g fill="#000000" font-family="Arial,Helvetica" direction="" text-anchor="middle" font-size="11px"><rect fill="none" stroke="none" x="57" y="561" width="15" height="12" stroke-width="1" transform="translate(0.5, 0.5)"/><text x="64.5" y="571.3">rw</text></g></g><g transform="translate(0.5,0.5)" style="visibility: visible; cursor: move;"><path d="M 244 266.8 L 244 236.8 Q 244 216.8 264 216.8 L 364 216.8 Q 384 216.8 384 196.8 L 384 84.92" fill="none" stroke="white" stroke-miterlimit="10" pointer-events="stroke" visibility="hidden" stroke-width="9"/><path d="M 244 266.8 L 244 236.8 Q 244 216.8 264 216.8 L 364 216.8 Q 384 216.8 384 196.8 L 384 84.92" fill="none" stroke="#000000" stroke-miterlimit="10" pointer-events="stroke"/><path d="M 384 77.92 L 387.5 84.92 L 380.5 84.92 Z" fill="#000000" stroke="#000000" stroke-miterlimit="10" pointer-events="all"/></g><g style="cursor: move;"><g fill="#000000" font-family="Arial,Helvetica" direction="" text-anchor="middle" font-size="11px"><rect fill="none" stroke="none" x="282" y="191" width="84" height="12" stroke-width="1" transform="translate(0.5, 0.5)"/><text x="324" y="201.3">alias:['database']</text></g></g><g transform="translate(0.5,0.5)" style="visibility: visible; cursor: move;"><path d="M 154 266.8 L 154 191.8 Q 154 171.8 174 171.8 L 244 171.8 Q 264 171.8 264 151.8 L 264 84.92" fill="none" stroke="white" stroke-miterlimit="10" pointer-events="stroke" visibility="hidden" stroke-width="9"/><path d="M 154 266.8 L 154 191.8 Q 154 171.8 174 171.8 L 244 171.8 Q 264 171.8 264 151.8 L 264 84.92" fill="none" stroke="#000000" stroke-miterlimit="10" pointer-events="stroke"/><path d="M 264 77.92 L 267.5 84.92 L 260.5 84.92 Z" fill="#000000" stroke="#000000" stroke-miterlimit="10" pointer-events="all"/></g><g style="cursor: move;"><g fill="#000000" font-family="Arial,Helvetica" direction="" text-anchor="middle" font-size="11px"><rect fill="none" stroke="none" x="170" y="141" width="67" height="12" stroke-width="1" transform="translate(0.5, 0.5)"/><text x="204" y="151.3">alias:['mysql']</text></g></g><g transform="translate(0.5,0.5)" style="visibility: visible; cursor: move;"><path d="M 74 266.8 L 74 246.8 Q 74 226.8 74 206.8 L 74 84.92" fill="none" stroke="white" stroke-miterlimit="10" pointer-events="stroke" visibility="hidden" stroke-width="9"/><path d="M 74 266.8 L 74 246.8 Q 74 226.8 74 206.8 L 74 84.92" fill="none" stroke="#000000" stroke-miterlimit="10" pointer-events="stroke"/><path d="M 74 77.92 L 77.5 84.92 L 70.5 84.92 Z" fill="#000000" stroke="#000000" stroke-miterlimit="10" pointer-events="all"/></g><g style="cursor: move;"><g fill="#000000" font-family="Arial,Helvetica" direction="" text-anchor="middle" font-size="11px"><rect fill="none" stroke="none" x="32" y="166" width="83" height="12" stroke-width="1" transform="translate(0.5, 0.5)"/><text x="74" y="176.3">alias:['unknown']</text></g></g><g transform="translate(0.5,0.5)" style="visibility: visible; cursor: move;"><path d="M 494 446.8 L 404 446.8" fill="none" stroke="white" stroke-miterlimit="10" pointer-events="stroke" visibility="hidden" stroke-width="9"/><path d="M 494 446.8 L 404 446.8" fill="none" stroke="#000000" stroke-miterlimit="10" pointer-events="stroke"/></g><g style="cursor: move;"><g fill="#000000" font-family="Arial,Helvetica" direction="" text-anchor="middle" font-size="11px"><rect fill="none" stroke="none" x="444" y="431" width="18" height="12" stroke-width="1" transform="translate(0.5, 0.5)"/><text x="454" y="441.3">tcp</text></g></g><g transform="translate(0.5,0.5)" style="visibility: visible; cursor: move;"><path d="M 704 446.8 L 804 446.8" fill="none" stroke="white" stroke-miterlimit="10" pointer-events="stroke" visibility="hidden" stroke-width="9"/><path d="M 704 446.8 L 804 446.8" fill="none" stroke="#000000" stroke-miterlimit="10" pointer-events="stroke"/></g><g style="cursor: move;"><g fill="#000000" font-family="Arial,Helvetica" direction="" text-anchor="middle" font-size="11px"><rect fill="none" stroke="none" x="769" y="431" width="18" height="12" stroke-width="1" transform="translate(0.5, 0.5)"/><text x="779" y="441.3">tcp</text></g></g><g transform="translate(0.5,0.5)" style="visibility: visible; cursor: move;"><path d="M 595 521.8 L 595 586.8" fill="none" stroke="white" stroke-miterlimit="10" pointer-events="stroke" visibility="hidden" stroke-width="9"/><path d="M 595 521.8 L 595 586.8" fill="none" stroke="#000000" stroke-miterlimit="10" pointer-events="stroke"/></g><g style="cursor: move;"><g fill="#000000" font-family="Arial,Helvetica" direction="" text-anchor="middle" font-size="11px"><rect fill="none" stroke="none" x="608" y="561" width="13" height="12" stroke-width="1" transform="translate(0.5, 0.5)"/><text x="614" y="571.3">ro</text></g></g><g transform="translate(0.5,0.5)" style="visibility: visible; cursor: move;"><path d="M 534 266.8 L 534 246.8 Q 534 226.8 534 206.8 L 534 84.92" fill="none" stroke="white" stroke-miterlimit="10" pointer-events="stroke" visibility="hidden" stroke-width="9"/><path d="M 534 266.8 L 534 246.8 Q 534 226.8 534 206.8 L 534 84.92" fill="none" stroke="#000000" stroke-miterlimit="10" pointer-events="stroke"/><path d="M 534 77.92 L 537.5 84.92 L 530.5 84.92 Z" fill="#000000" stroke="#000000" stroke-miterlimit="10" pointer-events="all"/></g><g style="cursor: move;"><g fill="#000000" font-family="Arial,Helvetica" direction="" text-anchor="middle" font-size="11px"><rect fill="none" stroke="none" x="510" y="166" width="47" height="12" stroke-width="1" transform="translate(0.5, 0.5)"/><text x="534" y="176.3">alias:['ui']</text></g></g><g transform="translate(0.5,0.5)" style="visibility: visible; cursor: move;"><path d="M 534 266.8 L 534 236.8 Q 534 216.8 514 216.8 L 404 216.8 Q 384 216.8 384 196.8 L 384 84.92" fill="none" stroke="white" stroke-miterlimit="10" pointer-events="stroke" visibility="hidden" stroke-width="9"/><path d="M 534 266.8 L 534 236.8 Q 534 216.8 514 216.8 L 404 216.8 Q 384 216.8 384 196.8 L 384 84.92" fill="none" stroke="#000000" stroke-miterlimit="10" pointer-events="stroke"/><path d="M 384 77.92 L 387.5 84.92 L 380.5 84.92 Z" fill="#000000" stroke="#000000" stroke-miterlimit="10" pointer-events="all"/></g></g><g/><g/></g></svg>