<?xml version="1.0" encoding="us-ascii" standalone="no"?><svg xmlns="http://www.w3.org/2000/svg" xmlns:xlink="http://www.w3.org/1999/xlink" contentStyleType="text/css" height="917px" preserveAspectRatio="none" style="width:1732px;height:917px;background:#FFFFFF;" version="1.1" viewBox="0 0 1732 917" width="1732px" zoomAndPan="magnify"><defs/><g><!--cluster e4f00638b8a10e6994e67af2f832d51c--><g id="cluster_e4f00638b8a10e6994e67af2f832d51c"><polygon fill="none" points="16,256.78,26,246.78,455,246.78,455,790.86,445,800.86,16,800.86,16,256.78" style="stroke:#181818;stroke-width:1.0;"/><line style="stroke:#181818;stroke-width:1.0;" x1="445" x2="455" y1="256.78" y2="246.78"/><line style="stroke:#181818;stroke-width:1.0;" x1="16" x2="445" y1="256.78" y2="256.78"/><line style="stroke:#181818;stroke-width:1.0;" x1="445" x2="445" y1="256.78" y2="800.86"/><text fill="#000000" font-family="sans-serif" font-size="14" font-weight="bold" lengthAdjust="spacing" textLength="96" x="183.5" y="272.7751">Prometheus</text></g><!--cluster d9c0e52dd15274d51041b489c7cea0ad--><g id="cluster_d9c0e52dd15274d51041b489c7cea0ad"><polygon fill="none" points="646,240.49,656,230.49,1147,230.49,1147,790.86,1137,800.86,646,800.86,646,240.49" style="stroke:#181818;stroke-width:1.0;"/><line style="stroke:#181818;stroke-width:1.0;" x1="1137" x2="1147" y1="240.49" y2="230.49"/><line style="stroke:#181818;stroke-width:1.0;" x1="646" x2="1137" y1="240.49" y2="240.49"/><line style="stroke:#181818;stroke-width:1.0;" x1="1137" x2="1137" y1="240.49" y2="800.86"/><text fill="#000000" font-family="sans-serif" font-size="14" font-weight="bold" lengthAdjust="spacing" textLength="62" x="861.5" y="256.4851">Grafana</text></g><!--cluster 587516af1efac0b9293f31639c6c31f3--><g id="cluster_587516af1efac0b9293f31639c6c31f3"><polygon fill="none" points="1473,16,1483,6,1715,6,1715,163.49,1705,173.49,1473,173.49,1473,16" style="stroke:#181818;stroke-width:1.0;"/><line style="stroke:#181818;stroke-width:1.0;" x1="1705" x2="1715" y1="16" y2="6"/><line style="stroke:#181818;stroke-width:1.0;" x1="1473" x2="1705" y1="16" y2="16"/><line style="stroke:#181818;stroke-width:1.0;" x1="1705" x2="1705" y1="16" y2="173.49"/><text fill="#000000" font-family="sans-serif" font-size="14" font-weight="bold" lengthAdjust="spacing" textLength="41" x="1569.5" y="31.9951">Woof</text></g><!--entity b0b6236e8ab49920c48d10f339f1a86a--><g id="elem_b0b6236e8ab49920c48d10f339f1a86a"><rect fill="#F1F1F1" height="111.4844" rx="2.5" ry="2.5" style="stroke:#181818;stroke-width:0.5;" width="217" x="40.5" y="294.78"/><rect fill="#F1F1F1" height="10" style="stroke:#181818;stroke-width:0.5;" width="15" x="237.5" y="299.78"/><rect fill="#F1F1F1" height="2" style="stroke:#181818;stroke-width:0.5;" width="4" x="235.5" y="301.78"/><rect fill="#F1F1F1" height="2" style="stroke:#181818;stroke-width:0.5;" width="4" x="235.5" y="305.78"/><text fill="#000000" font-family="sans-serif" font-size="14" font-weight="bold" lengthAdjust="spacing" textLength="96" x="55.5" y="327.7751">prometheus</text><text fill="#000000" font-family="sans-serif" font-size="14" lengthAdjust="spacing" textLength="4" x="55.5" y="344.072">&#160;</text><text fill="#000000" font-family="sans-serif" font-size="14" lengthAdjust="spacing" textLength="177" x="55.5" y="360.3689">image: prom/prometheus</text><text fill="#000000" font-family="sans-serif" font-size="14" lengthAdjust="spacing" textLength="163" x="55.5" y="376.6657">restart: unless-stopped</text><text fill="#000000" font-family="sans-serif" font-size="14" lengthAdjust="spacing" textLength="4" x="55.5" y="392.9626">&#160;</text></g><!--entity 1af034f6312cee0ce136eb887c29a928--><g id="elem_1af034f6312cee0ce136eb887c29a928"><rect fill="#F1F1F1" height="78.8906" rx="2.5" ry="2.5" style="stroke:#181818;stroke-width:0.5;" width="119" x="292.5" y="311.08"/><rect fill="#F1F1F1" height="10" style="stroke:#181818;stroke-width:0.5;" width="15" x="391.5" y="316.08"/><rect fill="#F1F1F1" height="2" style="stroke:#181818;stroke-width:0.5;" width="4" x="389.5" y="318.08"/><rect fill="#F1F1F1" height="2" style="stroke:#181818;stroke-width:0.5;" width="4" x="389.5" y="322.08"/><text fill="#000000" font-family="sans-serif" font-size="14" font-weight="bold" lengthAdjust="spacing" textLength="79" x="307.5" y="344.0751">newComp</text><text fill="#000000" font-family="sans-serif" font-size="14" lengthAdjust="spacing" textLength="4" x="307.5" y="360.372">&#160;</text><text fill="#000000" font-family="sans-serif" font-size="14" lengthAdjust="spacing" textLength="4" x="307.5" y="376.6689">&#160;</text></g><!--entity cfd4d43463526be4db6bd372951d8018--><g id="elem_cfd4d43463526be4db6bd372951d8018"><ellipse cx="334" cy="512.57" fill="#F1F1F1" rx="8" ry="8" style="stroke:#181818;stroke-width:0.5;"/><text fill="#000000" font-family="sans-serif" font-size="14" lengthAdjust="spacing" textLength="36" x="316" y="542.5651">9090</text></g><!--entity b8365f95fd8d51fff10d734d11af5400--><g id="elem_b8365f95fd8d51fff10d734d11af5400"><rect fill="#F1F1F1" height="39.2969" rx="2.5" ry="2.5" style="stroke:#181818;stroke-width:0.5;" width="147" x="208.5" y="737.57"/><polygon fill="#F1F1F1" points="338.5,742.57,338.5,756.57,350.5,756.57,350.5,748.57,344.5,742.57,338.5,742.57" style="stroke:#181818;stroke-width:0.5;"/><line style="stroke:#181818;stroke-width:0.5;" x1="344.5" x2="344.5" y1="742.57" y2="748.57"/><line style="stroke:#181818;stroke-width:0.5;" x1="350.5" x2="344.5" y1="748.57" y2="748.57"/><text fill="#000000" font-family="sans-serif" font-size="14" lengthAdjust="spacing" textLength="117" x="218.5" y="763.5651">/etc/prometheus</text></g><!--entity 66ea46159f158592d153eec2b58bfad1--><g id="elem_66ea46159f158592d153eec2b58bfad1"><rect fill="#F1F1F1" height="39.2969" rx="2.5" ry="2.5" style="stroke:#181818;stroke-width:0.5;" width="120" x="53" y="737.57"/><polygon fill="#F1F1F1" points="156,742.57,156,756.57,168,756.57,168,748.57,162,742.57,156,742.57" style="stroke:#181818;stroke-width:0.5;"/><line style="stroke:#181818;stroke-width:0.5;" x1="162" x2="162" y1="742.57" y2="748.57"/><line style="stroke:#181818;stroke-width:0.5;" x1="168" x2="162" y1="748.57" y2="748.57"/><text fill="#000000" font-family="sans-serif" font-size="14" lengthAdjust="spacing" textLength="90" x="63" y="763.5651">/prometheus</text></g><!--entity ca625ae68e4d4a58f9ba859ff3420557--><g id="elem_ca625ae68e4d4a58f9ba859ff3420557"><rect fill="#F1F1F1" height="144.0781" rx="2.5" ry="2.5" style="stroke:#181818;stroke-width:0.5;" width="434" x="670" y="278.49"/><rect fill="#F1F1F1" height="10" style="stroke:#181818;stroke-width:0.5;" width="15" x="1084" y="283.49"/><rect fill="#F1F1F1" height="2" style="stroke:#181818;stroke-width:0.5;" width="4" x="1082" y="285.49"/><rect fill="#F1F1F1" height="2" style="stroke:#181818;stroke-width:0.5;" width="4" x="1082" y="289.49"/><text fill="#000000" font-family="sans-serif" font-size="14" font-weight="bold" lengthAdjust="spacing" textLength="60" x="685" y="311.4851">grafana</text><text fill="#000000" font-family="sans-serif" font-size="14" lengthAdjust="spacing" textLength="4" x="685" y="327.782">&#160;</text><text fill="#000000" font-family="sans-serif" font-size="14" lengthAdjust="spacing" textLength="158" x="685" y="344.0789">image: grafana/grafana</text><text fill="#000000" font-family="sans-serif" font-size="14" lengthAdjust="spacing" textLength="163" x="685" y="360.3757">restart: unless-stopped</text><text fill="#000000" font-family="sans-serif" font-size="14" lengthAdjust="spacing" textLength="342" x="685" y="376.6726">environment: GF_SECURITY_ADMIN_USER=admin</text><text fill="#000000" font-family="sans-serif" font-size="14" lengthAdjust="spacing" textLength="394" x="685" y="392.9695">environment: GF_SECURITY_ADMIN_PASSWORD=grafana</text><text fill="#000000" font-family="sans-serif" font-size="14" lengthAdjust="spacing" textLength="4" x="685" y="409.2664">&#160;</text></g><!--entity 9f18a5ea59196197837bdbfebede13e8--><g id="elem_9f18a5ea59196197837bdbfebede13e8"><ellipse cx="1014" cy="512.57" fill="#F1F1F1" rx="8" ry="8" style="stroke:#181818;stroke-width:0.5;"/><text fill="#000000" font-family="sans-serif" font-size="14" lengthAdjust="spacing" textLength="107" x="960.5" y="542.5651">127.0.0.1:8080</text></g><!--entity e5b1c7fcc1453c77b2f0388027659c6e--><g id="elem_e5b1c7fcc1453c77b2f0388027659c6e"><ellipse cx="761" cy="512.57" fill="#F1F1F1" rx="8" ry="8" style="stroke:#181818;stroke-width:0.5;"/><text fill="#000000" font-family="sans-serif" font-size="14" lengthAdjust="spacing" textLength="148" x="687" y="542.5651">127.0.0.1:8000-9000</text></g><!--entity de82fbad4c9eebe0bd6d2fe66a3fe0aa--><g id="elem_de82fbad4c9eebe0bd6d2fe66a3fe0aa"><rect fill="#F1F1F1" height="39.2969" rx="2.5" ry="2.5" style="stroke:#181818;stroke-width:0.5;" width="292" x="741" y="737.57"/><polygon fill="#F1F1F1" points="1016,742.57,1016,756.57,1028,756.57,1028,748.57,1022,742.57,1016,742.57" style="stroke:#181818;stroke-width:0.5;"/><line style="stroke:#181818;stroke-width:0.5;" x1="1022" x2="1022" y1="742.57" y2="748.57"/><line style="stroke:#181818;stroke-width:0.5;" x1="1028" x2="1022" y1="748.57" y2="748.57"/><text fill="#000000" font-family="sans-serif" font-size="14" lengthAdjust="spacing" textLength="262" x="751" y="763.5651">/etc/grafana/provisioning/datasources</text></g><!--entity cfb8a5b7ebe0f6a517a5ae436a93d5d8--><g id="elem_cfb8a5b7ebe0f6a517a5ae436a93d5d8"><rect fill="#F1F1F1" height="111.4844" rx="2.5" ry="2.5" style="stroke:#181818;stroke-width:0.5;" width="210" x="1489" y="46"/><rect fill="#F1F1F1" height="10" style="stroke:#181818;stroke-width:0.5;" width="15" x="1679" y="51"/><rect fill="#F1F1F1" height="2" style="stroke:#181818;stroke-width:0.5;" width="4" x="1677" y="53"/><rect fill="#F1F1F1" height="2" style="stroke:#181818;stroke-width:0.5;" width="4" x="1677" y="57"/><text fill="#000000" font-family="sans-serif" font-size="14" font-weight="bold" lengthAdjust="spacing" textLength="64" x="1504" y="78.9951">datadog</text><text fill="#000000" font-family="sans-serif" font-size="14" lengthAdjust="spacing" textLength="4" x="1504" y="95.292">&#160;</text><text fill="#000000" font-family="sans-serif" font-size="14" lengthAdjust="spacing" textLength="170" x="1504" y="111.5889">image: datadog/datadog</text><text fill="#000000" font-family="sans-serif" font-size="14" lengthAdjust="spacing" textLength="118" x="1504" y="127.8857">testing: newProp</text><text fill="#000000" font-family="sans-serif" font-size="14" lengthAdjust="spacing" textLength="4" x="1504" y="144.1826">&#160;</text></g><!--entity 2b7c36f028196eeaebd4a9aa8848e5c0--><g id="elem_2b7c36f028196eeaebd4a9aa8848e5c0"><polygon fill="#F1F1F1" points="1231,88.6,1241,78.6,1337,78.6,1337,114.8969,1327,124.8969,1231,124.8969,1231,88.6" style="stroke:#181818;stroke-width:0.5;"/><line style="stroke:#181818;stroke-width:0.5;" x1="1327" x2="1337" y1="88.6" y2="78.6"/><line style="stroke:#181818;stroke-width:0.5;" x1="1231" x2="1327" y1="88.6" y2="88.6"/><line style="stroke:#181818;stroke-width:0.5;" x1="1327" x2="1327" y1="88.6" y2="124.8969"/><text fill="#000000" font-family="sans-serif" font-size="14" lengthAdjust="spacing" textLength="66" x="1246" y="111.5951">Nodenew</text></g><!--entity d9fe74bd71c5f1efd83d8f6cfdd7bef5--><g id="elem_d9fe74bd71c5f1efd83d8f6cfdd7bef5"><polygon fill="#F1F1F1" points="1082,80.45,1092,70.45,1196,70.45,1196,123.0437,1186,133.0437,1082,133.0437,1082,80.45" style="stroke:#181818;stroke-width:0.5;"/><line style="stroke:#181818;stroke-width:0.5;" x1="1186" x2="1196" y1="80.45" y2="70.45"/><line style="stroke:#181818;stroke-width:0.5;" x1="1082" x2="1186" y1="80.45" y2="80.45"/><line style="stroke:#181818;stroke-width:0.5;" x1="1186" x2="1186" y1="80.45" y2="133.0437"/><text fill="#000000" font-family="sans-serif" font-size="14" font-weight="bold" lengthAdjust="spacing" textLength="72" x="1097" y="103.4451">front-tier</text><text fill="#000000" font-family="sans-serif" font-size="14" lengthAdjust="spacing" textLength="74" x="1097" y="119.742">&#171;network&#187;</text></g><!--entity cab64c5af73a02ce213c72c614ccdc8f--><g id="elem_cab64c5af73a02ce213c72c614ccdc8f"><polygon fill="#F1F1F1" points="633,80.45,643,70.45,747,70.45,747,123.0437,737,133.0437,633,133.0437,633,80.45" style="stroke:#181818;stroke-width:0.5;"/><line style="stroke:#181818;stroke-width:0.5;" x1="737" x2="747" y1="80.45" y2="70.45"/><line style="stroke:#181818;stroke-width:0.5;" x1="633" x2="737" y1="80.45" y2="80.45"/><line style="stroke:#181818;stroke-width:0.5;" x1="737" x2="737" y1="80.45" y2="133.0437"/><text fill="#000000" font-family="sans-serif" font-size="14" font-weight="bold" lengthAdjust="spacing" textLength="70" x="648" y="103.4451">back-tier</text><text fill="#000000" font-family="sans-serif" font-size="14" lengthAdjust="spacing" textLength="74" x="648" y="119.742">&#171;network&#187;</text></g><!--entity 21232f297a57a5a743894a0e4a801fc3--><g id="elem_21232f297a57a5a743894a0e4a801fc3"><polygon fill="#F1F1F1" points="436,80.45,446,70.45,550,70.45,550,123.0437,540,133.0437,436,133.0437,436,80.45" style="stroke:#181818;stroke-width:0.5;"/><line style="stroke:#181818;stroke-width:0.5;" x1="540" x2="550" y1="80.45" y2="70.45"/><line style="stroke:#181818;stroke-width:0.5;" x1="436" x2="540" y1="80.45" y2="80.45"/><line style="stroke:#181818;stroke-width:0.5;" x1="540" x2="540" y1="80.45" y2="133.0437"/><text fill="#000000" font-family="sans-serif" font-size="14" font-weight="bold" lengthAdjust="spacing" textLength="47" x="451" y="103.4451">admin</text><text fill="#000000" font-family="sans-serif" font-size="14" lengthAdjust="spacing" textLength="74" x="451" y="119.742">&#171;network&#187;</text></g><!--entity 5e543256c480ac577d30f76f9120eb74--><g id="elem_5e543256c480ac577d30f76f9120eb74"><polygon fill="#F1F1F1" points="281,80.45,291,70.45,401,70.45,401,123.0437,391,133.0437,281,133.0437,281,80.45" style="stroke:#181818;stroke-width:0.5;"/><line style="stroke:#181818;stroke-width:0.5;" x1="391" x2="401" y1="80.45" y2="70.45"/><line style="stroke:#181818;stroke-width:0.5;" x1="281" x2="391" y1="80.45" y2="80.45"/><line style="stroke:#181818;stroke-width:0.5;" x1="391" x2="391" y1="80.45" y2="133.0437"/><text fill="#000000" font-family="sans-serif" font-size="14" font-weight="bold" lengthAdjust="spacing" textLength="80" x="296" y="103.4451">undefined</text><text fill="#000000" font-family="sans-serif" font-size="14" lengthAdjust="spacing" textLength="74" x="296" y="119.742">&#171;network&#187;</text></g><!--entity 267de027b65a807d2138ee534426efa5--><g id="elem_267de027b65a807d2138ee534426efa5"><ellipse cx="506" cy="647.57" fill="#F1F1F1" rx="8" ry="8" style="stroke:#181818;stroke-width:0.5;"/><text fill="#000000" font-family="sans-serif" font-size="14" lengthAdjust="spacing" textLength="36" x="488" y="677.5651">9090</text></g><!--entity dba3f4d0bb5aa6fcfa18da2c1f7a9775--><g id="elem_dba3f4d0bb5aa6fcfa18da2c1f7a9775"><ellipse cx="1198" cy="647.57" fill="#F1F1F1" rx="8" ry="8" style="stroke:#181818;stroke-width:0.5;"/><text fill="#000000" font-family="sans-serif" font-size="14" lengthAdjust="spacing" textLength="18" x="1189" y="677.5651">80</text></g><!--entity 1624c420083928ef3e240dd88f2e52f0--><g id="elem_1624c420083928ef3e240dd88f2e52f0"><ellipse cx="595" cy="647.57" fill="#F1F1F1" rx="8" ry="8" style="stroke:#181818;stroke-width:0.5;"/><text fill="#000000" font-family="sans-serif" font-size="14" lengthAdjust="spacing" textLength="36" x="577" y="677.5651">8000</text></g><!--entity 2a4ddbecb762532586835d0f37d85eaf--><g id="elem_2a4ddbecb762532586835d0f37d85eaf"><rect fill="#F1F1F1" height="39.2969" rx="2.5" ry="2.5" style="stroke:#181818;stroke-width:0.5;" width="124" x="220" y="871.86"/><polygon fill="#F1F1F1" points="327,876.86,327,890.86,339,890.86,339,882.86,333,876.86,327,876.86" style="stroke:#181818;stroke-width:0.5;"/><line style="stroke:#181818;stroke-width:0.5;" x1="333" x2="333" y1="876.86" y2="882.86"/><line style="stroke:#181818;stroke-width:0.5;" x1="339" x2="333" y1="882.86" y2="882.86"/><text fill="#000000" font-family="sans-serif" font-size="14" lengthAdjust="spacing" textLength="94" x="230" y="897.8551">./prometheus</text></g><!--entity a1448c8b5db83ada398e734ef1d3277c--><g id="elem_a1448c8b5db83ada398e734ef1d3277c"><rect fill="#F1F1F1" height="39.2969" rx="2.5" ry="2.5" style="stroke:#181818;stroke-width:0.5;" width="103" x="61.5" y="871.86"/><polygon fill="#F1F1F1" points="147.5,876.86,147.5,890.86,159.5,890.86,159.5,882.86,153.5,876.86,147.5,876.86" style="stroke:#181818;stroke-width:0.5;"/><line style="stroke:#181818;stroke-width:0.5;" x1="153.5" x2="153.5" y1="876.86" y2="882.86"/><line style="stroke:#181818;stroke-width:0.5;" x1="159.5" x2="153.5" y1="882.86" y2="882.86"/><text fill="#000000" font-family="sans-serif" font-size="14" lengthAdjust="spacing" textLength="73" x="71.5" y="897.8551">prom_data</text></g><!--entity eec695b1c6be435e7982afe506db7e49--><g id="elem_eec695b1c6be435e7982afe506db7e49"><rect fill="#F1F1F1" height="39.2969" rx="2.5" ry="2.5" style="stroke:#181818;stroke-width:0.5;" width="90" x="842" y="871.86"/><polygon fill="#F1F1F1" points="915,876.86,915,890.86,927,890.86,927,882.86,921,876.86,915,876.86" style="stroke:#181818;stroke-width:0.5;"/><line style="stroke:#181818;stroke-width:0.5;" x1="921" x2="921" y1="876.86" y2="882.86"/><line style="stroke:#181818;stroke-width:0.5;" x1="927" x2="921" y1="882.86" y2="882.86"/><text fill="#000000" font-family="sans-serif" font-size="14" lengthAdjust="spacing" textLength="60" x="852" y="897.8551">./grafana</text></g><!--entity d44ecc465e3606ef9330e0d204bd13e1--><g id="elem_d44ecc465e3606ef9330e0d204bd13e1"><rect fill="#F1F1F1" height="39.2969" rx="2.5" ry="2.5" style="stroke:#181818;stroke-width:0.5;" width="82" x="1372" y="82.1"/><polygon fill="#F1F1F1" points="1437,87.1,1437,101.1,1449,101.1,1449,93.1,1443,87.1,1437,87.1" style="stroke:#181818;stroke-width:0.5;"/><line style="stroke:#181818;stroke-width:0.5;" x1="1443" x2="1443" y1="87.1" y2="93.1"/><line style="stroke:#181818;stroke-width:0.5;" x1="1449" x2="1443" y1="93.1" y2="93.1"/><text fill="#000000" font-family="sans-serif" font-size="14" lengthAdjust="spacing" textLength="52" x="1382" y="108.0951">Testing</text></g><!--link b0b6236e8ab49920c48d10f339f1a86a to cfd4d43463526be4db6bd372951d8018--><g id="link_b0b6236e8ab49920c48d10f339f1a86a_cfd4d43463526be4db6bd372951d8018"><path codeLine="52" d="M212.67,406.6 C254.47,442.77 305.01,486.49 325.12,503.89 " fill="none" id="b0b6236e8ab49920c48d10f339f1a86a-cfd4d43463526be4db6bd372951d8018" style="stroke:#181818;stroke-width:1.0;"/></g><!--link cfd4d43463526be4db6bd372951d8018 to 267de027b65a807d2138ee534426efa5--><g id="link_cfd4d43463526be4db6bd372951d8018_267de027b65a807d2138ee534426efa5"><path codeLine="53" d="M342.77,520.34 C372.2,543.11 467.33,616.66 497.05,639.64 " fill="none" id="cfd4d43463526be4db6bd372951d8018-267de027b65a807d2138ee534426efa5" style="stroke:#181818;stroke-width:1.0;"/></g><!--link b8365f95fd8d51fff10d734d11af5400 to 2a4ddbecb762532586835d0f37d85eaf--><g id="link_b8365f95fd8d51fff10d734d11af5400_2a4ddbecb762532586835d0f37d85eaf"><path codeLine="54" d="M282,777.17 C282,802.32 282,846.46 282,871.59 " fill="none" id="b8365f95fd8d51fff10d734d11af5400-2a4ddbecb762532586835d0f37d85eaf" style="stroke:#181818;stroke-width:1.0;"/><text fill="#000000" font-family="sans-serif" font-size="13" lengthAdjust="spacing" textLength="13" x="283" y="837.9269">ro</text></g><!--link b0b6236e8ab49920c48d10f339f1a86a to b8365f95fd8d51fff10d734d11af5400--><g id="link_b0b6236e8ab49920c48d10f339f1a86a_b8365f95fd8d51fff10d734d11af5400"><path codeLine="55" d="M167.08,406.53 C197.26,498.37 254.6463,672.9901 273.9163,731.6101 " fill="none" id="b0b6236e8ab49920c48d10f339f1a86a-to-b8365f95fd8d51fff10d734d11af5400" style="stroke:#181818;stroke-width:1.0;stroke-dasharray:7.0,7.0;"/><polygon fill="#181818" points="275.79,737.31,276.7794,727.511,274.2286,732.5601,269.1795,730.0093,275.79,737.31" style="stroke:#181818;stroke-width:1.0;"/><text fill="#000000" font-family="sans-serif" font-size="13" lengthAdjust="spacing" textLength="23" x="228" y="584.6369">use</text></g><!--link 66ea46159f158592d153eec2b58bfad1 to a1448c8b5db83ada398e734ef1d3277c--><g id="link_66ea46159f158592d153eec2b58bfad1_a1448c8b5db83ada398e734ef1d3277c"><path codeLine="56" d="M113,777.17 C113,802.32 113,846.46 113,871.59 " fill="none" id="66ea46159f158592d153eec2b58bfad1-a1448c8b5db83ada398e734ef1d3277c" style="stroke:#181818;stroke-width:1.0;"/><text fill="#000000" font-family="sans-serif" font-size="13" lengthAdjust="spacing" textLength="14" x="114" y="837.9269">rw</text></g><!--link b0b6236e8ab49920c48d10f339f1a86a to 66ea46159f158592d153eec2b58bfad1--><g id="link_b0b6236e8ab49920c48d10f339f1a86a_66ea46159f158592d153eec2b58bfad1"><path codeLine="57" d="M144.11,406.53 C135.94,498.37 120.4322,672.7136 115.2122,731.3336 " fill="none" id="b0b6236e8ab49920c48d10f339f1a86a-to-66ea46159f158592d153eec2b58bfad1" style="stroke:#181818;stroke-width:1.0;stroke-dasharray:7.0,7.0;"/><polygon fill="#181818" points="114.68,737.31,119.4625,728.7003,115.1235,732.3297,111.494,727.9907,114.68,737.31" style="stroke:#181818;stroke-width:1.0;"/><text fill="#000000" font-family="sans-serif" font-size="13" lengthAdjust="spacing" textLength="23" x="131" y="584.6369">use</text></g><!--reverse link cab64c5af73a02ce213c72c614ccdc8f to e4f00638b8a10e6994e67af2f832d51c--><g id="link_cab64c5af73a02ce213c72c614ccdc8f_e4f00638b8a10e6994e67af2f832d51c"><path codeLine="58" d="M655.51,137.775 C623.445,170.335 575.6225,218.9 531.0463,264.17 C508.7581,286.805 488.3341,307.5475 473.202,322.9163 C469.419,326.7584 465.9668,330.2648 462.8988,333.3808 C461.3649,334.9389 459.927,336.3994 458.5918,337.7555 C457.9243,338.4335 457.2824,339.0855 456.6671,339.7105 C456.3594,340.023 456.0584,340.3288 455.7641,340.6277 C455.6169,340.7772 455.4715,340.925 455.3277,341.071 " fill="none" id="cab64c5af73a02ce213c72c614ccdc8f-backto-e4f00638b8a10e6994e67af2f832d51c" style="stroke:#181818;stroke-width:1.0;"/><polygon fill="#181818" points="659.72,133.5,650.555,137.1058,656.2116,137.0625,656.255,142.7192,659.72,133.5" style="stroke:#181818;stroke-width:1.0;"/><text fill="#000000" font-family="sans-serif" font-size="13" lengthAdjust="spacing" textLength="109" x="606" y="202.5569">alias:['database']</text></g><!--reverse link 21232f297a57a5a743894a0e4a801fc3 to e4f00638b8a10e6994e67af2f832d51c--><g id="link_21232f297a57a5a743894a0e4a801fc3_e4f00638b8a10e6994e67af2f832d51c"><path codeLine="59" d="M486.1704,139.3984 C480.1004,171.9584 471.35,218.9 462.9113,264.17 C460.8016,275.4875 458.7801,286.3319 456.9279,296.268 C456.4649,298.752 456.0124,301.1792 455.5718,303.5429 C455.4616,304.1339 455.3522,304.7208 455.2436,305.3037 C455.1893,305.5951 455.1351,305.8855 455.0812,306.1749 " fill="none" id="21232f297a57a5a743894a0e4a801fc3-backto-e4f00638b8a10e6994e67af2f832d51c" style="stroke:#181818;stroke-width:1.0;"/><polygon fill="#181818" points="487.27,133.5,481.6883,141.6145,486.3537,138.4153,489.5528,143.0806,487.27,133.5" style="stroke:#181818;stroke-width:1.0;"/><text fill="#000000" font-family="sans-serif" font-size="13" lengthAdjust="spacing" textLength="87" x="478" y="202.5569">alias:['mysql']</text></g><!--reverse link 5e543256c480ac577d30f76f9120eb74 to e4f00638b8a10e6994e67af2f832d51c--><g id="link_5e543256c480ac577d30f76f9120eb74_e4f00638b8a10e6994e67af2f832d51c"><path codeLine="60" d="M337.5411,139.1373 C336.8411,162.5973 340.37,188.07 360,206.49 C382.2,227.31 406.24,193.22 428,214.49 C433.3325,219.7025 437.6403,225.6767 441.0949,232.1463 C442.8222,235.3811 444.3361,238.7397 445.6582,242.1889 C445.9888,243.0512 446.3073,243.9191 446.6142,244.7922 C446.7676,245.2287 446.9181,245.6666 447.0658,246.1056 C447.1396,246.3251 447.2127,246.545 447.2851,246.7651 " fill="none" id="5e543256c480ac577d30f76f9120eb74-backto-e4f00638b8a10e6994e67af2f832d51c" style="stroke:#181818;stroke-width:1.0;"/><polygon fill="#181818" points="337.72,133.14,333.4534,142.0167,337.5709,138.1378,341.4498,142.2553,337.72,133.14" style="stroke:#181818;stroke-width:1.0;"/><text fill="#000000" font-family="sans-serif" font-size="13" lengthAdjust="spacing" textLength="105" x="361" y="202.5569">alias:['unknown']</text></g><!--link ca625ae68e4d4a58f9ba859ff3420557 to 9f18a5ea59196197837bdbfebede13e8--><g id="link_ca625ae68e4d4a58f9ba859ff3420557_9f18a5ea59196197837bdbfebede13e8"><path codeLine="61" d="M943.44,422.65 C968.88,454.71 995.85,488.7 1007.75,503.68 " fill="none" id="ca625ae68e4d4a58f9ba859ff3420557-9f18a5ea59196197837bdbfebede13e8" style="stroke:#181818;stroke-width:1.0;"/></g><!--link 9f18a5ea59196197837bdbfebede13e8 to dba3f4d0bb5aa6fcfa18da2c1f7a9775--><g id="link_9f18a5ea59196197837bdbfebede13e8_dba3f4d0bb5aa6fcfa18da2c1f7a9775"><path codeLine="62" d="M1022.87,519.98 C1054.03,542.5 1158.2,617.8 1189.21,640.22 " fill="none" id="9f18a5ea59196197837bdbfebede13e8-dba3f4d0bb5aa6fcfa18da2c1f7a9775" style="stroke:#181818;stroke-width:1.0;"/><text fill="#000000" font-family="sans-serif" font-size="13" lengthAdjust="spacing" textLength="20" x="1118" y="584.6369">tcp</text></g><!--link ca625ae68e4d4a58f9ba859ff3420557 to e5b1c7fcc1453c77b2f0388027659c6e--><g id="link_ca625ae68e4d4a58f9ba859ff3420557_e5b1c7fcc1453c77b2f0388027659c6e"><path codeLine="63" d="M831,422.65 C805.76,454.71 779.01,488.7 767.21,503.68 " fill="none" id="ca625ae68e4d4a58f9ba859ff3420557-e5b1c7fcc1453c77b2f0388027659c6e" style="stroke:#181818;stroke-width:1.0;"/></g><!--link e5b1c7fcc1453c77b2f0388027659c6e to 1624c420083928ef3e240dd88f2e52f0--><g id="link_e5b1c7fcc1453c77b2f0388027659c6e_1624c420083928ef3e240dd88f2e52f0"><path codeLine="64" d="M752.08,520.72 C723.25,543.81 632.85,616.24 603.97,639.38 " fill="none" id="e5b1c7fcc1453c77b2f0388027659c6e-1624c420083928ef3e240dd88f2e52f0" style="stroke:#181818;stroke-width:1.0;"/><text fill="#000000" font-family="sans-serif" font-size="13" lengthAdjust="spacing" textLength="20" x="689" y="584.6369">tcp</text></g><!--link de82fbad4c9eebe0bd6d2fe66a3fe0aa to eec695b1c6be435e7982afe506db7e49--><g id="link_de82fbad4c9eebe0bd6d2fe66a3fe0aa_eec695b1c6be435e7982afe506db7e49"><path codeLine="65" d="M887,777.17 C887,802.32 887,846.46 887,871.59 " fill="none" id="de82fbad4c9eebe0bd6d2fe66a3fe0aa-eec695b1c6be435e7982afe506db7e49" style="stroke:#181818;stroke-width:1.0;"/><text fill="#000000" font-family="sans-serif" font-size="13" lengthAdjust="spacing" textLength="13" x="888" y="837.9269">ro</text></g><!--link ca625ae68e4d4a58f9ba859ff3420557 to de82fbad4c9eebe0bd6d2fe66a3fe0aa--><g id="link_ca625ae68e4d4a58f9ba859ff3420557_de82fbad4c9eebe0bd6d2fe66a3fe0aa"><path codeLine="66" d="M887,422.95 C887,518.47 887,676.23 887,731.43 " fill="none" id="ca625ae68e4d4a58f9ba859ff3420557-to-de82fbad4c9eebe0bd6d2fe66a3fe0aa" style="stroke:#181818;stroke-width:1.0;stroke-dasharray:7.0,7.0;"/><polygon fill="#181818" points="887,737.43,891,728.43,887,732.43,883,728.43,887,737.43" style="stroke:#181818;stroke-width:1.0;"/><text fill="#000000" font-family="sans-serif" font-size="13" lengthAdjust="spacing" textLength="23" x="888" y="584.6369">use</text></g><!--reverse link d9fe74bd71c5f1efd83d8f6cfdd7bef5 to d9c0e52dd15274d51041b489c7cea0ad--><g id="link_d9fe74bd71c5f1efd83d8f6cfdd7bef5_d9c0e52dd15274d51041b489c7cea0ad"><path codeLine="67" d="M1139,139.5 C1139,155.78 1139,171.13 1139,194.0688 C1139,205.5381 1139,217.4047 1139,229.2333 C1139,229.6029 1139,229.9725 1139,230.3421 " fill="none" id="d9fe74bd71c5f1efd83d8f6cfdd7bef5-backto-d9c0e52dd15274d51041b489c7cea0ad" style="stroke:#181818;stroke-width:1.0;"/><polygon fill="#181818" points="1139,133.5,1135,142.5,1139,138.5,1143,142.5,1139,133.5" style="stroke:#181818;stroke-width:1.0;"/><text fill="#000000" font-family="sans-serif" font-size="13" lengthAdjust="spacing" textLength="60" x="1140" y="202.5569">alias:['ui']</text></g><!--reverse link cab64c5af73a02ce213c72c614ccdc8f to d9c0e52dd15274d51041b489c7cea0ad--><g id="link_cab64c5af73a02ce213c72c614ccdc8f_d9c0e52dd15274d51041b489c7cea0ad"><path codeLine="68" d="M753.2329,115.1594 C864.4629,137.4594 1094.98,186.42 1120,214.49 C1122.4813,217.2731 1124.7291,220.2249 1126.7629,223.3141 C1127.7798,224.8587 1128.7431,226.4376 1129.6554,228.047 C1130.1116,228.8517 1130.5549,229.664 1130.9858,230.4834 " fill="none" id="cab64c5af73a02ce213c72c614ccdc8f-backto-d9c0e52dd15274d51041b489c7cea0ad" style="stroke:#181818;stroke-width:1.0;"/><polygon fill="#181818" points="747.35,113.98,755.3881,119.6711,752.2524,114.9629,756.9607,111.8272,747.35,113.98" style="stroke:#181818;stroke-width:1.0;"/></g><!--SRC=[ZLRRRXj737tVhrZe9Qq0sNE_28c184c3F3GDx0H1aGO6PyXnXLYxhYvnYyB_NkvATcGtmHWM960zFEJm71ukN5xsryl5tulkekbwf7OodPPLtsrccmMjfjC_kgTFEzfSzwil9oUJ5jOjnaBU9FGosoAfOD0OYii5qISgzWucGVxoGvGCoPbieNWDGcLIKcUlifCcPyoXtA40BXVTzn2KL5eL5JrO_e0tEaG3WWm48KlMTmZR3gaiEiBleLYoHYlhiWa2ilKUjIZUbIYLeEJD7kNTgb_Iva_QhiSeCaK8fqCA80Mv60qv3qMLe1LQcTj_cpRtowk-esxJ9f6Sqeu291EZ4fmBfIXQno8XE6W_DTFfrLs6wRHf5akue7axF3p-zfzcHUiDh3RpTjjTqdezMs_wgol2fldSV4ideGXjYjEI-qeYa-JSAGIVLOIemfYke-iN737auk2VVcudKKInewQWGQEDqrQvH0QJIwYzYbOYjpOqNC6YGDwqasFQv8Fwnl0KjBCbMXO6jwAK8WLwRL1oNTO8SHZ-8DGv0kEavRxOOAD2QJLHLic6L01bSxEdu_KA2dImrsCMP1NoOUKDfnH69XDYzfb00Dxd8eDJ5iW5lfS16qfCmAbAqKO9Q_tOd8iT_04H-oV7-zyV4a7TrmLFpv9JpTlNlvoVlNhnuVJD-z_Fdx_yzStRymzdhqwVZOgkdNpt_Epius-dBv_TPjop99K_4lmdvq647L_ShG2Mm4OPdOm-Q9ym5Kg4J3s5_yK9COlyjLEoJJBxahCqbYVG9yNY2K4exspCZXwIVTi8PkxhOhteEpQEOuGDhFljAjEEHwIWIW8qEHAN8H8wL8MS0rr80Dpn-B7losuCWxVImU0da4MAAkgYfTDSGjQow0Sa5Xuyc_o0NHnOEHW06UqWQhIuK_XG5FON1oJkdnplVviDayZbpriU1Xxmgw77D_TdGJcFnCr8phAjU6IR2aHM6wCSbsh7qtiUCF7r38gKB80hkO0C22hBuY5wVtjsttZfbCciEH4qpoGLJSe8n12AOZMNmp4vUZWd2WnYefmyYvdTAxYWBRAZU0miX78GEqIU3nSU0q4Q4t985dbA0K77G3oRL2HgvNs-b_JYOCXu2bqSf38OWhRaOr1Go0g7J8E9JTNZPZYhEqljm8XIvQJcG3kKIW_RUJjPzPFwnOwEyEZef6fx0zvsJPEcPd9ZTJMYnkgk7rzTDUbjTTNDDjlEJghRUu23omMivv-U3E9BiAOddn-BNjliX-ZBVzP_NJuUkhRk3w6ttPUkl-u6yEhM63Yh-d3jm8XISv6Xmas-UcHDLNkl7HXHQbvrLrFD-7SrLRpaTlAg5znhkvhqLjlLDuLH8hNtstiIMGpgU1pk8zzut_8txwETpoUVjIj21HOC4L3YHaI044mWcyMm5MyEFFlzRg7jjf4nbBDnbhGJx8jHQq42bU2hiTZaVm00]--></g></svg>