<svg xmlns="http://www.w3.org/2000/svg" style="left: 0px; top: 0px; width: 100%; height: 100%; display: block; min-width: 744px; min-height: 482px;"><g><g/><g><g transform="translate(0.5,0.5)" style="visibility: visible;"><rect x="-310" y="-72.4" width="100" height="50" fill="#b5f5ff7f" stroke="#000000" pointer-events="all"/></g><g style=""><g fill="#774400" font-family="Arial,Helvetica" direction="" text-anchor="middle" font-size="11px"><rect fill="none" stroke="none" x="-294" y="-59" width="67" height="25" stroke-width="1" transform="translate(0.5, 0.5)"/><text x="-260" y="-49.4">Front-tier</text><text x="-260" y="-36.4">&lt;&lt;network&gt;&gt;</text></g></g><g transform="translate(0.5,0.5)" style="visibility: visible;"><rect x="-210" y="-72.4" width="100" height="50" fill="#b5f5ff7f" stroke="#000000" pointer-events="all"/></g><g style=""><g fill="#774400" font-family="Arial,Helvetica" direction="" text-anchor="middle" font-size="11px"><rect fill="none" stroke="none" x="-194" y="-59" width="67" height="25" stroke-width="1" transform="translate(0.5, 0.5)"/><text x="-160" y="-49.4">Back-tier</text><text x="-160" y="-36.4">&lt;&lt;network&gt;&gt;</text></g></g><g transform="translate(0.5,0.5)" style="visibility: visible;"><rect x="-110" y="-72.4" width="100" height="50" fill="#b5f5ff7f" stroke="#000000" pointer-events="all"/></g><g style=""><g fill="#774400" font-family="Arial,Helvetica" direction="" text-anchor="middle" font-size="11px"><rect fill="none" stroke="none" x="-94" y="-59" width="67" height="25" stroke-width="1" transform="translate(0.5, 0.5)"/><text x="-60" y="-49.4">Admin</text><text x="-60" y="-36.4">&lt;&lt;network&gt;&gt;</text></g></g><g transform="translate(0.5,0.5)" style="visibility: visible; cursor: move;"><rect x="-10" y="-72.4" width="100" height="50" fill="#b5f5ff7f" stroke="#000000" pointer-events="all"/></g><g style="cursor: move;"><g fill="#774400" font-family="Arial,Helvetica" direction="" text-anchor="middle" font-size="11px"><rect fill="none" stroke="none" x="6" y="-59" width="67" height="25" stroke-width="1" transform="translate(0.5, 0.5)"/><text x="40" y="-49.4">Undefined</text><text x="40" y="-36.4">&lt;&lt;network&gt;&gt;</text></g></g><g transform="translate(0.5,0.5)" style="visibility: visible;"><rect x="-310" y="257.6" width="210" height="150" fill="#f1f1f17f" stroke="#000000" pointer-events="all"/></g><g style=""><g fill="#774400" font-family="Arial,Helvetica" direction="" text-anchor="middle" font-size="11px"><rect fill="none" stroke="none" x="-236" y="265" width="62" height="12" stroke-width="1" transform="translate(0.5, 0.5)"/><text x="-205" y="274.6">Prometheus</text></g></g><g transform="translate(0.5,0.5)" style="visibility: visible;"><rect x="-305" y="282.6" width="200" height="100" fill="#f0fff07f" stroke="#000000" pointer-events="all"/></g><g style=""><g fill="#774400" font-family="Arial,Helvetica" direction="" text-anchor="middle" font-size="11px"><rect fill="none" stroke="none" x="-344" y="295" width="277" height="64" stroke-width="1" transform="translate(0.5, 0.5)"/><text x="-205" y="304.6">Prometheus</text><text x="-205" y="330.6">image: prom/prometheus</text><text x="-205" y="343.6">command: --config.file=/etc/prometheus/prometheus.yml</text><text x="-205" y="356.6">restart: unless-stopped</text></g></g><g transform="translate(0.5,0.5)" style="visibility: visible;"><ellipse cx="-290" cy="292.6" rx="10" ry="10" fill="#ffffd27f" stroke="#000000" pointer-events="all"/></g><g style=""><g fill="#774400" font-family="Arial,Helvetica" direction="" text-anchor="middle" font-size="11px"><rect fill="none" stroke="none" x="-304" y="307" width="27" height="12" stroke-width="1" transform="translate(0.5, 0.5)"/><text x="-290" y="317.1">9090</text></g></g><g transform="translate(0.5,0.5)" style="visibility: visible;"><rect x="-300" y="292.6" width="90" height="25" fill="#f0f0f07f" stroke="#000000" pointer-events="all"/></g><g style=""><g fill="#774400" font-family="Arial,Helvetica" direction="" text-anchor="middle" font-size="11px"><rect fill="none" stroke="none" x="-297" y="300" width="82" height="12" stroke-width="1" transform="translate(0.5, 0.5)"/><text x="-255" y="309.6">/etc/prometheus</text></g></g><g transform="translate(0.5,0.5)" style="visibility: visible;"><rect x="-200" y="292.6" width="77" height="25" fill="#f0f0f07f" stroke="#000000" pointer-events="all"/></g><g style=""><g fill="#774400" font-family="Arial,Helvetica" direction="" text-anchor="middle" font-size="11px"><rect fill="none" stroke="none" x="-194" y="300" width="65" height="12" stroke-width="1" transform="translate(0.5, 0.5)"/><text x="-161.5" y="309.6">/prometheus</text></g></g><g transform="translate(0.5,0.5)" style="visibility: visible;"><path d="M -205 282.6 L -205 277.6 Q -205 272.6 -225 272.6 L -270 272.6 Q -290 272.6 -290 274.42 L -290 276.23" fill="none" stroke="white" stroke-miterlimit="10" pointer-events="stroke" visibility="hidden" stroke-width="9"/><path d="M -205 282.6 L -205 277.6 Q -205 272.6 -225 272.6 L -270 272.6 Q -290 272.6 -290 274.42 L -290 276.23" fill="none" stroke="#000000" stroke-miterlimit="10" pointer-events="stroke"/><path d="M -290 281.48 L -293.5 274.48 L -290 276.23 L -286.5 274.48 Z" fill="#000000" stroke="#000000" stroke-miterlimit="10" pointer-events="all"/></g><g transform="translate(0.5,0.5)" style="visibility: visible;"><path d="M -205 282.6 L -205 277.6 Q -205 272.6 -225 272.6 L -240 272.6 Q -255 272.6 -255 279.42 L -255 286.23" fill="none" stroke="white" stroke-miterlimit="10" pointer-events="stroke" visibility="hidden" stroke-width="9"/><path d="M -205 282.6 L -205 277.6 Q -205 272.6 -225 272.6 L -240 272.6 Q -255 272.6 -255 279.42 L -255 286.23" fill="none" stroke="#000000" stroke-miterlimit="10" pointer-events="stroke"/><path d="M -255 291.48 L -258.5 284.48 L -255 286.23 L -251.5 284.48 Z" fill="#000000" stroke="#000000" stroke-miterlimit="10" pointer-events="all"/></g><g style=""><g fill="#000000" font-family="Arial,Helvetica" direction="" text-anchor="middle" font-size="11px"><rect fill="none" stroke="none" x="-245" y="267" width="21" height="12" stroke-width="1" transform="translate(0.5, 0.5)"/><text x="-235" y="277.1">use</text></g></g><g transform="translate(0.5,0.5)" style="visibility: visible;"><path d="M -205 282.6 L -205 277.6 Q -205 272.6 -185 272.6 L -173.25 272.6 Q -161.5 272.6 -161.5 279.42 L -161.5 286.23" fill="none" stroke="white" stroke-miterlimit="10" pointer-events="stroke" visibility="hidden" stroke-width="9"/><path d="M -205 282.6 L -205 277.6 Q -205 272.6 -185 272.6 L -173.25 272.6 Q -161.5 272.6 -161.5 279.42 L -161.5 286.23" fill="none" stroke="#000000" stroke-miterlimit="10" pointer-events="stroke"/><path d="M -161.5 291.48 L -165 284.48 L -161.5 286.23 L -158 284.48 Z" fill="#000000" stroke="#000000" stroke-miterlimit="10" pointer-events="all"/></g><g style=""><g fill="#000000" font-family="Arial,Helvetica" direction="" text-anchor="middle" font-size="11px"><rect fill="none" stroke="none" x="-188" y="267" width="21" height="12" stroke-width="1" transform="translate(0.5, 0.5)"/><text x="-178" y="277.1">use</text></g></g><g transform="translate(0.5,0.5)" style="visibility: visible; cursor: move;"><rect x="-60" y="257.6" width="232" height="150" fill="#f1f1f17f" stroke="#000000" pointer-events="all"/></g><g style="cursor: move;"><g fill="#774400" font-family="Arial,Helvetica" direction="" text-anchor="middle" font-size="11px"><rect fill="none" stroke="none" x="35" y="265" width="43" height="12" stroke-width="1" transform="translate(0.5, 0.5)"/><text x="56" y="274.6">Grafana</text></g></g><g transform="translate(0.5,0.5)" style="visibility: visible; cursor: move;"><rect x="-55" y="282.6" width="200" height="100" fill="#f0fff07f" stroke="#000000" pointer-events="all"/></g><g style="cursor: move;"><g fill="#774400" font-family="Arial,Helvetica" direction="" text-anchor="middle" font-size="11px"><rect fill="none" stroke="none" x="-106" y="288" width="301" height="77" stroke-width="1" transform="translate(0.5, 0.5)"/><text x="45" y="298.1">Grafana</text><text x="45" y="324.1">image: grafana/grafana</text><text x="45" y="337.1">restart: unless-stopped</text><text x="45" y="350.1">environment: GF_SECURITY_ADMIN_USER=admin</text><text x="45" y="363.1">environment: GF_SECURITY_ADMIN_PASSWORD=grafana</text></g></g><g transform="translate(0.5,0.5)" style="visibility: visible;"><ellipse cx="-40" cy="292.6" rx="10" ry="10" fill="#ffffd27f" stroke="#000000" pointer-events="all"/></g><g style=""><g fill="#774400" font-family="Arial,Helvetica" direction="" text-anchor="middle" font-size="11px"><rect fill="none" stroke="none" x="-78" y="307" width="76" height="12" stroke-width="1" transform="translate(0.5, 0.5)"/><text x="-40" y="317.1">127.0.0.1:8080</text></g></g><g transform="translate(0.5,0.5)" style="visibility: visible;"><ellipse cx="-10" cy="292.6" rx="10" ry="10" fill="#ffffd27f" stroke="#000000" pointer-events="all"/></g><g style=""><g fill="#774400" font-family="Arial,Helvetica" direction="" text-anchor="middle" font-size="11px"><rect fill="none" stroke="none" x="-62" y="307" width="104" height="12" stroke-width="1" transform="translate(0.5, 0.5)"/><text x="-10" y="317.1">127.0.0.1:8000-9000</text></g></g><g transform="translate(0.5,0.5)" style="visibility: visible; cursor: move;"><rect x="-50" y="292.6" width="222" height="25" fill="#f0f0f07f" stroke="#000000" pointer-events="all"/></g><g style="cursor: move;"><g fill="#774400" font-family="Arial,Helvetica" direction="" text-anchor="middle" font-size="11px"><rect fill="none" stroke="none" x="-33" y="300" width="186" height="12" stroke-width="1" transform="translate(0.5, 0.5)"/><text x="61" y="309.6">/etc/grafana/provisioning/datasources</text></g></g><g transform="translate(0.5,0.5)" style="visibility: visible;"><path d="M 45 282.6 L 45 277.6 Q 45 272.6 25 272.6 L -20 272.6 Q -40 272.6 -40 274.42 L -40 276.23" fill="none" stroke="white" stroke-miterlimit="10" pointer-events="stroke" visibility="hidden" stroke-width="9"/><path d="M 45 282.6 L 45 277.6 Q 45 272.6 25 272.6 L -20 272.6 Q -40 272.6 -40 274.42 L -40 276.23" fill="none" stroke="#000000" stroke-miterlimit="10" pointer-events="stroke"/><path d="M -40 281.48 L -43.5 274.48 L -40 276.23 L -36.5 274.48 Z" fill="#000000" stroke="#000000" stroke-miterlimit="10" pointer-events="all"/></g><g transform="translate(0.5,0.5)" style="visibility: visible;"><path d="M 45 282.6 L 45 277.6 Q 45 272.6 25 272.6 L 7.5 272.6 Q -10 272.6 -10 274.42 L -10 276.23" fill="none" stroke="white" stroke-miterlimit="10" pointer-events="stroke" visibility="hidden" stroke-width="9"/><path d="M 45 282.6 L 45 277.6 Q 45 272.6 25 272.6 L 7.5 272.6 Q -10 272.6 -10 274.42 L -10 276.23" fill="none" stroke="#000000" stroke-miterlimit="10" pointer-events="stroke"/><path d="M -10 281.48 L -13.5 274.48 L -10 276.23 L -6.5 274.48 Z" fill="#000000" stroke="#000000" stroke-miterlimit="10" pointer-events="all"/></g><g transform="translate(0.5,0.5)" style="visibility: visible;"><path d="M 45 282.6 L 45 277.6 Q 45 272.6 53 272.6 L 57 272.6 Q 61 272.6 61 279.42 L 61 286.23" fill="none" stroke="white" stroke-miterlimit="10" pointer-events="stroke" visibility="hidden" stroke-width="9"/><path d="M 45 282.6 L 45 277.6 Q 45 272.6 53 272.6 L 57 272.6 Q 61 272.6 61 279.42 L 61 286.23" fill="none" stroke="#000000" stroke-miterlimit="10" pointer-events="stroke"/><path d="M 61 291.48 L 57.5 284.48 L 61 286.23 L 64.5 284.48 Z" fill="#000000" stroke="#000000" stroke-miterlimit="10" pointer-events="all"/></g><g style=""><g fill="#000000" font-family="Arial,Helvetica" direction="" text-anchor="middle" font-size="11px"><rect fill="none" stroke="none" x="48" y="267" width="21" height="12" stroke-width="1" transform="translate(0.5, 0.5)"/><text x="58" y="277.1">use</text></g></g><g transform="translate(0.5,0.5)" style="visibility: visible; cursor: move;"><rect x="190" y="257.6" width="210" height="150" fill="#f1f1f17f" stroke="#000000" pointer-events="all"/></g><g style="cursor: move;"><g fill="#774400" font-family="Arial,Helvetica" direction="" text-anchor="middle" font-size="11px"><rect fill="none" stroke="none" x="280" y="265" width="30" height="12" stroke-width="1" transform="translate(0.5, 0.5)"/><text x="295" y="274.6">Woof</text></g></g><g transform="translate(0.5,0.5)" style="visibility: visible; cursor: move;"><rect x="195" y="282.6" width="200" height="100" fill="#f0fff07f" stroke="#000000" pointer-events="all"/></g><g style="cursor: move;"><g fill="#774400" font-family="Arial,Helvetica" direction="" text-anchor="middle" font-size="11px"><rect fill="none" stroke="none" x="234" y="308" width="121" height="38" stroke-width="1" transform="translate(0.5, 0.5)"/><text x="295" y="317.6">Datadog</text><text x="295" y="343.6">image: datadog/datadog</text></g></g><g transform="translate(0.5,0.5)" style="visibility: visible;"><ellipse cx="-300" cy="-47.4" rx="10" ry="10" fill="#ffffd27f" stroke="#000000" pointer-events="all"/></g><g style=""><g fill="#774400" font-family="Arial,Helvetica" direction="" text-anchor="middle" font-size="11px"><rect fill="none" stroke="none" x="-314" y="-33" width="27" height="12" stroke-width="1" transform="translate(0.5, 0.5)"/><text x="-300" y="-22.9">9090</text></g></g><g transform="translate(0.5,0.5)" style="visibility: visible;"><ellipse cx="-270" cy="-47.4" rx="10" ry="10" fill="#ffffd27f" stroke="#000000" pointer-events="all"/></g><g style=""><g fill="#774400" font-family="Arial,Helvetica" direction="" text-anchor="middle" font-size="11px"><rect fill="none" stroke="none" x="-278" y="-33" width="15" height="12" stroke-width="1" transform="translate(0.5, 0.5)"/><text x="-270" y="-22.9">80</text></g></g><g transform="translate(0.5,0.5)" style="visibility: visible;"><ellipse cx="-240" cy="-47.4" rx="10" ry="10" fill="#ffffd27f" stroke="#000000" pointer-events="all"/></g><g style=""><g fill="#774400" font-family="Arial,Helvetica" direction="" text-anchor="middle" font-size="11px"><rect fill="none" stroke="none" x="-254" y="-33" width="27" height="12" stroke-width="1" transform="translate(0.5, 0.5)"/><text x="-240" y="-22.9">8000</text></g></g><g transform="translate(0.5,0.5)" style="visibility: visible;"><rect x="-310" y="-47.4" width="84" height="25" fill="#f0f0f07f" stroke="#000000" pointer-events="all"/></g><g style=""><g fill="#774400" font-family="Arial,Helvetica" direction="" text-anchor="middle" font-size="11px"><rect fill="none" stroke="none" x="-302" y="-40" width="67" height="12" stroke-width="1" transform="translate(0.5, 0.5)"/><text x="-268" y="-30.4">./prometheus</text></g></g><g transform="translate(0.5,0.5)" style="visibility: visible;"><rect x="-210" y="-47.4" width="63" height="25" fill="#f0f0f07f" stroke="#000000" pointer-events="all"/></g><g style=""><g fill="#774400" font-family="Arial,Helvetica" direction="" text-anchor="middle" font-size="11px"><rect fill="none" stroke="none" x="-207" y="-40" width="57" height="12" stroke-width="1" transform="translate(0.5, 0.5)"/><text x="-178.5" y="-30.4">Prom_data</text></g></g><g transform="translate(0.5,0.5)" style="visibility: visible;"><rect x="-110" y="-47.4" width="63" height="25" fill="#f0f0f07f" stroke="#000000" pointer-events="all"/></g><g style=""><g fill="#774400" font-family="Arial,Helvetica" direction="" text-anchor="middle" font-size="11px"><rect fill="none" stroke="none" x="-102" y="-40" width="46" height="12" stroke-width="1" transform="translate(0.5, 0.5)"/><text x="-78.5" y="-30.4">./grafana</text></g></g><g transform="translate(0.5,0.5)" style="visibility: visible;"><path d="M -290 282.6 L -290 142.6 Q -290 122.6 -295 122.6 L -297.5 122.6 Q -300 122.6 -300 102.6 L -300 -31.03" fill="none" stroke="white" stroke-miterlimit="10" pointer-events="stroke" visibility="hidden" stroke-width="9"/><path d="M -290 282.6 L -290 142.6 Q -290 122.6 -295 122.6 L -297.5 122.6 Q -300 122.6 -300 102.6 L -300 -31.03" fill="none" stroke="#000000" stroke-miterlimit="10" pointer-events="stroke"/><path d="M -300 -36.28 L -296.5 -29.28 L -300 -31.03 L -303.5 -29.28 Z" fill="#000000" stroke="#000000" stroke-miterlimit="10" pointer-events="all"/></g><g transform="translate(0.5,0.5)" style="visibility: visible;"><path d="M -255 292.6 L -255 155.1 Q -255 135.1 -261.5 135.1 L -264.75 135.1 Q -268 135.1 -268 115.1 L -268 -16.03" fill="none" stroke="white" stroke-miterlimit="10" pointer-events="stroke" visibility="hidden" stroke-width="9"/><path d="M -255 292.6 L -255 155.1 Q -255 135.1 -261.5 135.1 L -264.75 135.1 Q -268 135.1 -268 115.1 L -268 -16.03" fill="none" stroke="#000000" stroke-miterlimit="10" pointer-events="stroke"/><path d="M -268 -21.28 L -264.5 -14.28 L -268 -16.03 L -271.5 -14.28 Z" fill="#000000" stroke="#000000" stroke-miterlimit="10" pointer-events="all"/></g><g style=""><g fill="#000000" font-family="Arial,Helvetica" direction="" text-anchor="middle" font-size="11px"><rect fill="none" stroke="none" x="-268" y="130" width="13" height="12" stroke-width="1" transform="translate(0.5, 0.5)"/><text x="-261.5" y="139.6">ro</text></g></g><g transform="translate(0.5,0.5)" style="visibility: visible;"><path d="M -161.5 292.6 L -161.5 155.1 Q -161.5 135.1 -170 135.1 L -174.25 135.1 Q -178.5 135.1 -178.5 115.1 L -178.5 -16.03" fill="none" stroke="white" stroke-miterlimit="10" pointer-events="stroke" visibility="hidden" stroke-width="9"/><path d="M -161.5 292.6 L -161.5 155.1 Q -161.5 135.1 -170 135.1 L -174.25 135.1 Q -178.5 135.1 -178.5 115.1 L -178.5 -16.03" fill="none" stroke="#000000" stroke-miterlimit="10" pointer-events="stroke"/><path d="M -178.5 -21.28 L -175 -14.28 L -178.5 -16.03 L -182 -14.28 Z" fill="#000000" stroke="#000000" stroke-miterlimit="10" pointer-events="all"/></g><g style=""><g fill="#000000" font-family="Arial,Helvetica" direction="" text-anchor="middle" font-size="11px"><rect fill="none" stroke="none" x="-177" y="130" width="15" height="12" stroke-width="1" transform="translate(0.5, 0.5)"/><text x="-170" y="139.6">rw</text></g></g><g transform="translate(0.5,0.5)" style="visibility: visible;"><path d="M -205 257.6 L -205 137.6 Q -205 117.6 -185 117.6 L -172.5 117.6 Q -160 117.6 -160 97.6 L -160 -16.03" fill="none" stroke="white" stroke-miterlimit="10" pointer-events="stroke" visibility="hidden" stroke-width="9"/><path d="M -205 257.6 L -205 137.6 Q -205 117.6 -185 117.6 L -172.5 117.6 Q -160 117.6 -160 97.6 L -160 -16.03" fill="none" stroke="#000000" stroke-miterlimit="10" pointer-events="stroke"/><path d="M -160 -21.28 L -156.5 -14.28 L -160 -16.03 L -163.5 -14.28 Z" fill="#000000" stroke="#000000" stroke-miterlimit="10" pointer-events="all"/></g><g style=""><g fill="#000000" font-family="Arial,Helvetica" direction="" text-anchor="middle" font-size="11px"><rect fill="none" stroke="none" x="-224" y="112" width="84" height="12" stroke-width="1" transform="translate(0.5, 0.5)"/><text x="-182" y="122.1">alias:['database']</text></g></g><g transform="translate(0.5,0.5)" style="visibility: visible;"><path d="M -205 257.6 L -205 137.6 Q -205 117.6 -185 117.6 L -80 117.6 Q -60 117.6 -60 97.6 L -60 -16.03" fill="none" stroke="white" stroke-miterlimit="10" pointer-events="stroke" visibility="hidden" stroke-width="9"/><path d="M -205 257.6 L -205 137.6 Q -205 117.6 -185 117.6 L -80 117.6 Q -60 117.6 -60 97.6 L -60 -16.03" fill="none" stroke="#000000" stroke-miterlimit="10" pointer-events="stroke"/><path d="M -60 -21.28 L -56.5 -14.28 L -60 -16.03 L -63.5 -14.28 Z" fill="#000000" stroke="#000000" stroke-miterlimit="10" pointer-events="all"/></g><g style=""><g fill="#000000" font-family="Arial,Helvetica" direction="" text-anchor="middle" font-size="11px"><rect fill="none" stroke="none" x="-166" y="112" width="67" height="12" stroke-width="1" transform="translate(0.5, 0.5)"/><text x="-132" y="122.1">alias:['mysql']</text></g></g><g transform="translate(0.5,0.5)" style="visibility: visible; cursor: move;"><path d="M -100 332.6 L 20 332.6 Q 40 332.6 40 312.6 L 40 -16.03" fill="none" stroke="white" stroke-miterlimit="10" pointer-events="stroke" visibility="hidden" stroke-width="9"/><path d="M -100 332.6 L 20 332.6 Q 40 332.6 40 312.6 L 40 -16.03" fill="none" stroke="#000000" stroke-miterlimit="10" pointer-events="stroke"/><path d="M 40 -21.28 L 43.5 -14.28 L 40 -16.03 L 36.5 -14.28 Z" fill="#000000" stroke="#000000" stroke-miterlimit="10" pointer-events="all"/></g><g style="cursor: move;"><g fill="#000000" font-family="Arial,Helvetica" direction="" text-anchor="middle" font-size="11px"><rect fill="none" stroke="none" x="-2" y="219" width="83" height="12" stroke-width="1" transform="translate(0.5, 0.5)"/><text x="40" y="229.1">alias:['unknown']</text></g></g><g transform="translate(0.5,0.5)" style="visibility: visible;"><path d="M -50 292.6 L -250 292.6 Q -270 292.6 -270 272.6 L -270 -31.03" fill="none" stroke="white" stroke-miterlimit="10" pointer-events="stroke" visibility="hidden" stroke-width="9"/><path d="M -50 292.6 L -250 292.6 Q -270 292.6 -270 272.6 L -270 -31.03" fill="none" stroke="#000000" stroke-miterlimit="10" pointer-events="stroke"/><path d="M -270 -36.28 L -266.5 -29.28 L -270 -31.03 L -273.5 -29.28 Z" fill="#000000" stroke="#000000" stroke-miterlimit="10" pointer-events="all"/></g><g style=""><g fill="#000000" font-family="Arial,Helvetica" direction="" text-anchor="middle" font-size="11px"><rect fill="none" stroke="none" x="-280" y="232" width="18" height="12" stroke-width="1" transform="translate(0.5, 0.5)"/><text x="-270" y="242.1">tcp</text></g></g><g transform="translate(0.5,0.5)" style="visibility: visible;"><path d="M -20 292.6 L -220 292.6 Q -240 292.6 -240 272.6 L -240 -31.03" fill="none" stroke="white" stroke-miterlimit="10" pointer-events="stroke" visibility="hidden" stroke-width="9"/><path d="M -20 292.6 L -220 292.6 Q -240 292.6 -240 272.6 L -240 -31.03" fill="none" stroke="#000000" stroke-miterlimit="10" pointer-events="stroke"/><path d="M -240 -36.28 L -236.5 -29.28 L -240 -31.03 L -243.5 -29.28 Z" fill="#000000" stroke="#000000" stroke-miterlimit="10" pointer-events="all"/></g><g style=""><g fill="#000000" font-family="Arial,Helvetica" direction="" text-anchor="middle" font-size="11px"><rect fill="none" stroke="none" x="-250" y="232" width="18" height="12" stroke-width="1" transform="translate(0.5, 0.5)"/><text x="-240" y="242.1">tcp</text></g></g><g transform="translate(0.5,0.5)" style="visibility: visible; cursor: move;"><path d="M 61 292.6 L 61 155.1 Q 61 135.1 41 135.1 L -58.5 135.1 Q -78.5 135.1 -78.5 115.1 L -78.5 -16.03" fill="none" stroke="white" stroke-miterlimit="10" pointer-events="stroke" visibility="hidden" stroke-width="9"/><path d="M 61 292.6 L 61 155.1 Q 61 135.1 41 135.1 L -58.5 135.1 Q -78.5 135.1 -78.5 115.1 L -78.5 -16.03" fill="none" stroke="#000000" stroke-miterlimit="10" pointer-events="stroke"/><path d="M -78.5 -21.28 L -75 -14.28 L -78.5 -16.03 L -82 -14.28 Z" fill="#000000" stroke="#000000" stroke-miterlimit="10" pointer-events="all"/></g><g style="cursor: move;"><g fill="#000000" font-family="Arial,Helvetica" direction="" text-anchor="middle" font-size="11px"><rect fill="none" stroke="none" x="-15" y="130" width="13" height="12" stroke-width="1" transform="translate(0.5, 0.5)"/><text x="-8.5" y="139.6">ro</text></g></g><g transform="translate(0.5,0.5)" style="visibility: visible;"><path d="M -60 332.6 L -240 332.6 Q -260 332.6 -260 312.6 L -260 -16.03" fill="none" stroke="white" stroke-miterlimit="10" pointer-events="stroke" visibility="hidden" stroke-width="9"/><path d="M -60 332.6 L -240 332.6 Q -260 332.6 -260 312.6 L -260 -16.03" fill="none" stroke="#000000" stroke-miterlimit="10" pointer-events="stroke"/><path d="M -260 -21.28 L -256.5 -14.28 L -260 -16.03 L -263.5 -14.28 Z" fill="#000000" stroke="#000000" stroke-miterlimit="10" pointer-events="all"/></g><g style=""><g fill="#000000" font-family="Arial,Helvetica" direction="" text-anchor="middle" font-size="11px"><rect fill="none" stroke="none" x="-284" y="250" width="47" height="12" stroke-width="1" transform="translate(0.5, 0.5)"/><text x="-260" y="260.1">alias:['ui']</text></g></g><g transform="translate(0.5,0.5)" style="visibility: visible;"><path d="M -60 332.6 L -140 332.6 Q -160 332.6 -160 312.6 L -160 -16.03" fill="none" stroke="white" stroke-miterlimit="10" pointer-events="stroke" visibility="hidden" stroke-width="9"/><path d="M -60 332.6 L -140 332.6 Q -160 332.6 -160 312.6 L -160 -16.03" fill="none" stroke="#000000" stroke-miterlimit="10" pointer-events="stroke"/><path d="M -160 -21.28 L -156.5 -14.28 L -160 -16.03 L -163.5 -14.28 Z" fill="#000000" stroke="#000000" stroke-miterlimit="10" pointer-events="all"/></g><g transform="translate(0.5,0.5)" style="visibility: visible; cursor: move;"><rect x="240" y="27.6" width="100" height="50" fill="#b5f5ff7f" stroke="#000000" pointer-events="all"/></g><g style="cursor: move;"><g fill="#774400" font-family="Arial,Helvetica" direction="" text-anchor="middle" font-size="11px"><rect fill="none" stroke="none" x="256" y="41" width="67" height="25" stroke-width="1" transform="translate(0.5, 0.5)"/><text x="290" y="50.6">TayTay</text><text x="290" y="63.6">&lt;&lt;network&gt;&gt;</text></g></g><g transform="translate(0.5,0.5)" style="visibility: visible;"><path d="M 290 77.6 L 290 147.6 Q 290 167.6 292.5 167.6 L 293.75 167.6 Q 295 167.6 295 187.6 L 295 251.23" fill="none" stroke="white" stroke-miterlimit="10" pointer-events="stroke" visibility="hidden" stroke-width="9"/><path d="M 290 77.6 L 290 147.6 Q 290 167.6 292.5 167.6 L 293.75 167.6 Q 295 167.6 295 187.6 L 295 251.23" fill="none" stroke="#000000" stroke-miterlimit="10" pointer-events="stroke"/><path d="M 295 256.48 L 291.5 249.48 L 295 251.23 L 298.5 249.48 Z" fill="#000000" stroke="#000000" stroke-miterlimit="10" pointer-events="all"/></g></g><g/><g/></g></svg>