<svg xmlns="http://www.w3.org/2000/svg" style="left: 0px; top: 0px; width: 100%; height: 100%; display: block; min-width: 664px; min-height: 491px;"><g><g/><g><g transform="translate(0.5,0.5)" style="visibility: visible;"><rect x="10" y="10" width="100" height="50" fill="#b5f5ff7f" stroke="#000000" pointer-events="all"/></g><g style=""><g fill="#774400" font-family="Arial,Helvetica" direction="" text-anchor="middle" font-size="11px"><rect fill="none" stroke="none" x="26" y="23" width="67" height="26" stroke-width="1" transform="translate(0.5, 0.5)"/><text x="60" y="33">Front-tier</text><text x="60" y="46">&lt;&lt;network&gt;&gt;</text></g></g><g transform="translate(0.5,0.5)" style="visibility: visible;"><rect x="110" y="10" width="100" height="50" fill="#b5f5ff7f" stroke="#000000" pointer-events="all"/></g><g style=""><g fill="#774400" font-family="Arial,Helvetica" direction="" text-anchor="middle" font-size="11px"><rect fill="none" stroke="none" x="126" y="23" width="67" height="26" stroke-width="1" transform="translate(0.5, 0.5)"/><text x="160" y="33">Back-tier</text><text x="160" y="46">&lt;&lt;network&gt;&gt;</text></g></g><g transform="translate(0.5,0.5)" style="visibility: visible;"><rect x="210" y="10" width="100" height="50" fill="#b5f5ff7f" stroke="#000000" pointer-events="all"/></g><g style=""><g fill="#774400" font-family="Arial,Helvetica" direction="" text-anchor="middle" font-size="11px"><rect fill="none" stroke="none" x="226" y="23" width="67" height="26" stroke-width="1" transform="translate(0.5, 0.5)"/><text x="260" y="33">Admin</text><text x="260" y="46">&lt;&lt;network&gt;&gt;</text></g></g><g transform="translate(0.5,0.5)" style="visibility: visible;"><rect x="310" y="10" width="100" height="50" fill="#b5f5ff7f" stroke="#000000" pointer-events="all"/></g><g style=""><g fill="#774400" font-family="Arial,Helvetica" direction="" text-anchor="middle" font-size="11px"><rect fill="none" stroke="none" x="326" y="23" width="67" height="26" stroke-width="1" transform="translate(0.5, 0.5)"/><text x="360" y="33">Undefined</text><text x="360" y="46">&lt;&lt;network&gt;&gt;</text></g></g><g transform="translate(0.5,0.5)" style="visibility: visible;"><rect x="10" y="340" width="210" height="150" fill="#f1f1f17f" stroke="#000000" pointer-events="all"/></g><g style=""><g fill="#774400" font-family="Arial,Helvetica" direction="" text-anchor="middle" font-size="11px"><rect fill="none" stroke="none" x="84" y="347" width="62" height="12" stroke-width="1" transform="translate(0.5, 0.5)"/><text x="115" y="357">Prometheus</text></g></g><g transform="translate(0.5,0.5)" style="visibility: visible;"><rect x="15" y="365" width="200" height="100" fill="#f0fff07f" stroke="#000000" pointer-events="all"/></g><g style=""><g fill="#774400" font-family="Arial,Helvetica" direction="" text-anchor="middle" font-size="11px"><rect fill="none" stroke="none" x="-24" y="377" width="277" height="64" stroke-width="1" transform="translate(0.5, 0.5)"/><text x="115" y="387">Prometheus</text><text x="115" y="413">image: prom/prometheus</text><text x="115" y="426">command: --config.file=/etc/prometheus/prometheus.yml</text><text x="115" y="439">restart: unless-stopped</text></g></g><g transform="translate(0.5,0.5)" style="visibility: visible;"><ellipse cx="30" cy="375" rx="10" ry="10" fill="#ffffd27f" stroke="#000000" pointer-events="all"/></g><g style=""><g fill="#774400" font-family="Arial,Helvetica" direction="" text-anchor="middle" font-size="11px"><rect fill="none" stroke="none" x="16" y="389" width="27" height="12" stroke-width="1" transform="translate(0.5, 0.5)"/><text x="30" y="399.5">9090</text></g></g><g transform="translate(0.5,0.5)" style="visibility: visible;"><rect x="20" y="375" width="90" height="25" fill="#f0f0f07f" stroke="#000000" pointer-events="all"/></g><g style=""><g fill="#774400" font-family="Arial,Helvetica" direction="" text-anchor="middle" font-size="11px"><rect fill="none" stroke="none" x="23" y="382" width="82" height="12" stroke-width="1" transform="translate(0.5, 0.5)"/><text x="65" y="392">/etc/prometheus</text></g></g><g transform="translate(0.5,0.5)" style="visibility: visible;"><rect x="120" y="375" width="77" height="25" fill="#f0f0f07f" stroke="#000000" pointer-events="all"/></g><g style=""><g fill="#774400" font-family="Arial,Helvetica" direction="" text-anchor="middle" font-size="11px"><rect fill="none" stroke="none" x="126" y="382" width="65" height="12" stroke-width="1" transform="translate(0.5, 0.5)"/><text x="158.5" y="392">/prometheus</text></g></g><g transform="translate(0.5,0.5)" style="visibility: visible;"><path d="M 115 365 L 115 360 Q 115 355 95 355 L 50 355 Q 30 355 30 356.82 L 30 358.63" fill="none" stroke="white" stroke-miterlimit="10" pointer-events="stroke" visibility="hidden" stroke-width="9"/><path d="M 115 365 L 115 360 Q 115 355 95 355 L 50 355 Q 30 355 30 356.82 L 30 358.63" fill="none" stroke="#000000" stroke-miterlimit="10" pointer-events="stroke"/><path d="M 30 363.88 L 26.5 356.88 L 30 358.63 L 33.5 356.88 Z" fill="#000000" stroke="#000000" stroke-miterlimit="10" pointer-events="all"/></g><g transform="translate(0.5,0.5)" style="visibility: visible;"><path d="M 115 365 L 115 360 Q 115 355 95 355 L 80 355 Q 65 355 65 361.82 L 65 368.63" fill="none" stroke="white" stroke-miterlimit="10" pointer-events="stroke" visibility="hidden" stroke-width="9"/><path d="M 115 365 L 115 360 Q 115 355 95 355 L 80 355 Q 65 355 65 361.82 L 65 368.63" fill="none" stroke="#000000" stroke-miterlimit="10" pointer-events="stroke"/><path d="M 65 373.88 L 61.5 366.88 L 65 368.63 L 68.5 366.88 Z" fill="#000000" stroke="#000000" stroke-miterlimit="10" pointer-events="all"/></g><g style=""><g fill="#000000" font-family="Arial,Helvetica" direction="" text-anchor="middle" font-size="11px"><rect fill="none" stroke="none" x="75" y="349" width="21" height="12" stroke-width="1" transform="translate(0.5, 0.5)"/><text x="85" y="359.5">use</text></g></g><g transform="translate(0.5,0.5)" style="visibility: visible;"><path d="M 115 365 L 115 360 Q 115 355 135 355 L 146.75 355 Q 158.5 355 158.5 361.82 L 158.5 368.63" fill="none" stroke="white" stroke-miterlimit="10" pointer-events="stroke" visibility="hidden" stroke-width="9"/><path d="M 115 365 L 115 360 Q 115 355 135 355 L 146.75 355 Q 158.5 355 158.5 361.82 L 158.5 368.63" fill="none" stroke="#000000" stroke-miterlimit="10" pointer-events="stroke"/><path d="M 158.5 373.88 L 155 366.88 L 158.5 368.63 L 162 366.88 Z" fill="#000000" stroke="#000000" stroke-miterlimit="10" pointer-events="all"/></g><g style=""><g fill="#000000" font-family="Arial,Helvetica" direction="" text-anchor="middle" font-size="11px"><rect fill="none" stroke="none" x="132" y="349" width="21" height="12" stroke-width="1" transform="translate(0.5, 0.5)"/><text x="142" y="359.5">use</text></g></g><g transform="translate(0.5,0.5)" style="visibility: visible; cursor: move;"><rect x="260" y="340" width="232" height="150" fill="#f1f1f17f" stroke="#000000" pointer-events="all"/></g><g style="cursor: move;"><g fill="#774400" font-family="Arial,Helvetica" direction="" text-anchor="middle" font-size="11px"><rect fill="none" stroke="none" x="355" y="347" width="43" height="12" stroke-width="1" transform="translate(0.5, 0.5)"/><text x="376" y="357">Grafana</text></g></g><g transform="translate(0.5,0.5)" style="visibility: visible; cursor: move;"><rect x="265" y="365" width="200" height="100" fill="#f0fff07f" stroke="#000000" pointer-events="all"/></g><g style="cursor: move;"><g fill="#774400" font-family="Arial,Helvetica" direction="" text-anchor="middle" font-size="11px"><rect fill="none" stroke="none" x="234" y="377" width="261" height="64" stroke-width="1" transform="translate(0.5, 0.5)"/><text x="365" y="387">Grafana</text><text x="365" y="413">image: grafana/grafana</text><text x="365" y="426">restart: never</text><text x="365" y="439">environment: GF_SECURITY_ADMIN_USER=admin</text></g></g><g transform="translate(0.5,0.5)" style="visibility: visible;"><ellipse cx="280" cy="375" rx="10" ry="10" fill="#ffffd27f" stroke="#000000" pointer-events="all"/></g><g style=""><g fill="#774400" font-family="Arial,Helvetica" direction="" text-anchor="middle" font-size="11px"><rect fill="none" stroke="none" x="242" y="389" width="76" height="12" stroke-width="1" transform="translate(0.5, 0.5)"/><text x="280" y="399.5">127.0.0.1:8080</text></g></g><g transform="translate(0.5,0.5)" style="visibility: visible;"><ellipse cx="310" cy="375" rx="10" ry="10" fill="#ffffd27f" stroke="#000000" pointer-events="all"/></g><g style=""><g fill="#774400" font-family="Arial,Helvetica" direction="" text-anchor="middle" font-size="11px"><rect fill="none" stroke="none" x="258" y="389" width="104" height="12" stroke-width="1" transform="translate(0.5, 0.5)"/><text x="310" y="399.5">127.0.0.1:8000-9000</text></g></g><g transform="translate(0.5,0.5)" style="visibility: visible;"><rect x="270" y="375" width="222" height="25" fill="#f0f0f07f" stroke="#000000" pointer-events="all"/></g><g style=""><g fill="#774400" font-family="Arial,Helvetica" direction="" text-anchor="middle" font-size="11px"><rect fill="none" stroke="none" x="287" y="382" width="186" height="12" stroke-width="1" transform="translate(0.5, 0.5)"/><text x="381" y="392">/etc/grafana/provisioning/datasources</text></g></g><g transform="translate(0.5,0.5)" style="visibility: visible;"><path d="M 365 365 L 365 360 Q 365 355 345 355 L 300 355 Q 280 355 280 356.82 L 280 358.63" fill="none" stroke="white" stroke-miterlimit="10" pointer-events="stroke" visibility="hidden" stroke-width="9"/><path d="M 365 365 L 365 360 Q 365 355 345 355 L 300 355 Q 280 355 280 356.82 L 280 358.63" fill="none" stroke="#000000" stroke-miterlimit="10" pointer-events="stroke"/><path d="M 280 363.88 L 276.5 356.88 L 280 358.63 L 283.5 356.88 Z" fill="#000000" stroke="#000000" stroke-miterlimit="10" pointer-events="all"/></g><g transform="translate(0.5,0.5)" style="visibility: visible;"><path d="M 365 365 L 365 360 Q 365 355 345 355 L 327.5 355 Q 310 355 310 356.82 L 310 358.63" fill="none" stroke="white" stroke-miterlimit="10" pointer-events="stroke" visibility="hidden" stroke-width="9"/><path d="M 365 365 L 365 360 Q 365 355 345 355 L 327.5 355 Q 310 355 310 356.82 L 310 358.63" fill="none" stroke="#000000" stroke-miterlimit="10" pointer-events="stroke"/><path d="M 310 363.88 L 306.5 356.88 L 310 358.63 L 313.5 356.88 Z" fill="#000000" stroke="#000000" stroke-miterlimit="10" pointer-events="all"/></g><g transform="translate(0.5,0.5)" style="visibility: visible;"><path d="M 365 365 L 365 360 Q 365 355 373 355 L 377 355 Q 381 355 381 361.82 L 381 368.63" fill="none" stroke="white" stroke-miterlimit="10" pointer-events="stroke" visibility="hidden" stroke-width="9"/><path d="M 365 365 L 365 360 Q 365 355 373 355 L 377 355 Q 381 355 381 361.82 L 381 368.63" fill="none" stroke="#000000" stroke-miterlimit="10" pointer-events="stroke"/><path d="M 381 373.88 L 377.5 366.88 L 381 368.63 L 384.5 366.88 Z" fill="#000000" stroke="#000000" stroke-miterlimit="10" pointer-events="all"/></g><g style=""><g fill="#000000" font-family="Arial,Helvetica" direction="" text-anchor="middle" font-size="11px"><rect fill="none" stroke="none" x="368" y="349" width="21" height="12" stroke-width="1" transform="translate(0.5, 0.5)"/><text x="378" y="359.5">use</text></g></g><g transform="translate(0.5,0.5)" style="visibility: visible; cursor: move;"><rect x="430" y="120" width="210" height="150" fill="#f1f1f17f" stroke="#000000" pointer-events="all"/></g><g style="cursor: move;"><g fill="#774400" font-family="Arial,Helvetica" direction="" text-anchor="middle" font-size="11px"><rect fill="none" stroke="none" x="513" y="127" width="44" height="12" stroke-width="1" transform="translate(0.5, 0.5)"/><text x="535" y="137">Datadog</text></g></g><g transform="translate(0.5,0.5)" style="visibility: visible; cursor: move;"><rect x="435" y="145" width="200" height="100" fill="#f0fff07f" stroke="#000000" pointer-events="all"/></g><g style="cursor: move;"><g fill="#774400" font-family="Arial,Helvetica" direction="" text-anchor="middle" font-size="11px"><rect fill="none" stroke="none" x="474" y="163" width="121" height="51" stroke-width="1" transform="translate(0.5, 0.5)"/><text x="535" y="173.5">Datadog</text><text x="535" y="199.5">image: datadog/datadog</text><text x="535" y="212.5">oi: dwd</text></g></g><g transform="translate(0.5,0.5)" style="visibility: visible;"><ellipse cx="20" cy="35" rx="10" ry="10" fill="#ffffd27f" stroke="#000000" pointer-events="all"/></g><g style=""><g fill="#774400" font-family="Arial,Helvetica" direction="" text-anchor="middle" font-size="11px"><rect fill="none" stroke="none" x="6" y="49" width="27" height="12" stroke-width="1" transform="translate(0.5, 0.5)"/><text x="20" y="59.5">9090</text></g></g><g transform="translate(0.5,0.5)" style="visibility: visible;"><ellipse cx="50" cy="35" rx="10" ry="10" fill="#ffffd27f" stroke="#000000" pointer-events="all"/></g><g style=""><g fill="#774400" font-family="Arial,Helvetica" direction="" text-anchor="middle" font-size="11px"><rect fill="none" stroke="none" x="42" y="49" width="15" height="12" stroke-width="1" transform="translate(0.5, 0.5)"/><text x="50" y="59.5">80</text></g></g><g transform="translate(0.5,0.5)" style="visibility: visible;"><ellipse cx="80" cy="35" rx="10" ry="10" fill="#ffffd27f" stroke="#000000" pointer-events="all"/></g><g style=""><g fill="#774400" font-family="Arial,Helvetica" direction="" text-anchor="middle" font-size="11px"><rect fill="none" stroke="none" x="66" y="49" width="27" height="12" stroke-width="1" transform="translate(0.5, 0.5)"/><text x="80" y="59.5">8000</text></g></g><g transform="translate(0.5,0.5)" style="visibility: visible;"><rect x="10" y="35" width="84" height="25" fill="#f0f0f07f" stroke="#000000" pointer-events="all"/></g><g style=""><g fill="#774400" font-family="Arial,Helvetica" direction="" text-anchor="middle" font-size="11px"><rect fill="none" stroke="none" x="18" y="42" width="67" height="12" stroke-width="1" transform="translate(0.5, 0.5)"/><text x="52" y="52">./prometheus</text></g></g><g transform="translate(0.5,0.5)" style="visibility: visible;"><rect x="110" y="35" width="63" height="25" fill="#f0f0f07f" stroke="#000000" pointer-events="all"/></g><g style=""><g fill="#774400" font-family="Arial,Helvetica" direction="" text-anchor="middle" font-size="11px"><rect fill="none" stroke="none" x="113" y="42" width="57" height="12" stroke-width="1" transform="translate(0.5, 0.5)"/><text x="141.5" y="52">Prom_data</text></g></g><g transform="translate(0.5,0.5)" style="visibility: visible;"><rect x="210" y="35" width="63" height="25" fill="#f0f0f07f" stroke="#000000" pointer-events="all"/></g><g style=""><g fill="#774400" font-family="Arial,Helvetica" direction="" text-anchor="middle" font-size="11px"><rect fill="none" stroke="none" x="218" y="42" width="46" height="12" stroke-width="1" transform="translate(0.5, 0.5)"/><text x="241.5" y="52">./grafana</text></g></g><g transform="translate(0.5,0.5)" style="visibility: visible;"><path d="M 30 365 L 30 225 Q 30 205 25 205 L 22.5 205 Q 20 205 20 185 L 20 51.37" fill="none" stroke="white" stroke-miterlimit="10" pointer-events="stroke" visibility="hidden" stroke-width="9"/><path d="M 30 365 L 30 225 Q 30 205 25 205 L 22.5 205 Q 20 205 20 185 L 20 51.37" fill="none" stroke="#000000" stroke-miterlimit="10" pointer-events="stroke"/><path d="M 20 46.12 L 23.5 53.12 L 20 51.37 L 16.5 53.12 Z" fill="#000000" stroke="#000000" stroke-miterlimit="10" pointer-events="all"/></g><g transform="translate(0.5,0.5)" style="visibility: visible;"><path d="M 65 375 L 65 237.5 Q 65 217.5 58.5 217.5 L 55.25 217.5 Q 52 217.5 52 197.5 L 52 66.37" fill="none" stroke="white" stroke-miterlimit="10" pointer-events="stroke" visibility="hidden" stroke-width="9"/><path d="M 65 375 L 65 237.5 Q 65 217.5 58.5 217.5 L 55.25 217.5 Q 52 217.5 52 197.5 L 52 66.37" fill="none" stroke="#000000" stroke-miterlimit="10" pointer-events="stroke"/><path d="M 52 61.12 L 55.5 68.12 L 52 66.37 L 48.5 68.12 Z" fill="#000000" stroke="#000000" stroke-miterlimit="10" pointer-events="all"/></g><g style=""><g fill="#000000" font-family="Arial,Helvetica" direction="" text-anchor="middle" font-size="11px"><rect fill="none" stroke="none" x="52" y="212" width="13" height="12" stroke-width="1" transform="translate(0.5, 0.5)"/><text x="58.5" y="222">ro</text></g></g><g transform="translate(0.5,0.5)" style="visibility: visible;"><path d="M 158.5 375 L 158.5 237.5 Q 158.5 217.5 150 217.5 L 145.75 217.5 Q 141.5 217.5 141.5 197.5 L 141.5 66.37" fill="none" stroke="white" stroke-miterlimit="10" pointer-events="stroke" visibility="hidden" stroke-width="9"/><path d="M 158.5 375 L 158.5 237.5 Q 158.5 217.5 150 217.5 L 145.75 217.5 Q 141.5 217.5 141.5 197.5 L 141.5 66.37" fill="none" stroke="#000000" stroke-miterlimit="10" pointer-events="stroke"/><path d="M 141.5 61.12 L 145 68.12 L 141.5 66.37 L 138 68.12 Z" fill="#000000" stroke="#000000" stroke-miterlimit="10" pointer-events="all"/></g><g style=""><g fill="#000000" font-family="Arial,Helvetica" direction="" text-anchor="middle" font-size="11px"><rect fill="none" stroke="none" x="143" y="212" width="15" height="12" stroke-width="1" transform="translate(0.5, 0.5)"/><text x="150" y="222">rw</text></g></g><g transform="translate(0.5,0.5)" style="visibility: visible;"><path d="M 115 340 L 115 220 Q 115 200 135 200 L 147.5 200 Q 160 200 160 180 L 160 66.37" fill="none" stroke="white" stroke-miterlimit="10" pointer-events="stroke" visibility="hidden" stroke-width="9"/><path d="M 115 340 L 115 220 Q 115 200 135 200 L 147.5 200 Q 160 200 160 180 L 160 66.37" fill="none" stroke="#000000" stroke-miterlimit="10" pointer-events="stroke"/><path d="M 160 61.12 L 163.5 68.12 L 160 66.37 L 156.5 68.12 Z" fill="#000000" stroke="#000000" stroke-miterlimit="10" pointer-events="all"/></g><g style=""><g fill="#000000" font-family="Arial,Helvetica" direction="" text-anchor="middle" font-size="11px"><rect fill="none" stroke="none" x="96" y="194" width="84" height="12" stroke-width="1" transform="translate(0.5, 0.5)"/><text x="138" y="204.5">alias:['database']</text></g></g><g transform="translate(0.5,0.5)" style="visibility: visible;"><path d="M 115 340 L 115 220 Q 115 200 135 200 L 240 200 Q 260 200 260 180 L 260 66.37" fill="none" stroke="white" stroke-miterlimit="10" pointer-events="stroke" visibility="hidden" stroke-width="9"/><path d="M 115 340 L 115 220 Q 115 200 135 200 L 240 200 Q 260 200 260 180 L 260 66.37" fill="none" stroke="#000000" stroke-miterlimit="10" pointer-events="stroke"/><path d="M 260 61.12 L 263.5 68.12 L 260 66.37 L 256.5 68.12 Z" fill="#000000" stroke="#000000" stroke-miterlimit="10" pointer-events="all"/></g><g style=""><g fill="#000000" font-family="Arial,Helvetica" direction="" text-anchor="middle" font-size="11px"><rect fill="none" stroke="none" x="154" y="194" width="67" height="12" stroke-width="1" transform="translate(0.5, 0.5)"/><text x="188" y="204.5">alias:['mysql']</text></g></g><g transform="translate(0.5,0.5)" style="visibility: visible;"><path d="M 220 415 L 340 415 Q 360 415 360 395 L 360 66.37" fill="none" stroke="white" stroke-miterlimit="10" pointer-events="stroke" visibility="hidden" stroke-width="9"/><path d="M 220 415 L 340 415 Q 360 415 360 395 L 360 66.37" fill="none" stroke="#000000" stroke-miterlimit="10" pointer-events="stroke"/><path d="M 360 61.12 L 363.5 68.12 L 360 66.37 L 356.5 68.12 Z" fill="#000000" stroke="#000000" stroke-miterlimit="10" pointer-events="all"/></g><g style=""><g fill="#000000" font-family="Arial,Helvetica" direction="" text-anchor="middle" font-size="11px"><rect fill="none" stroke="none" x="318" y="301" width="83" height="12" stroke-width="1" transform="translate(0.5, 0.5)"/><text x="360" y="311.5">alias:['unknown']</text></g></g><g transform="translate(0.5,0.5)" style="visibility: visible;"><path d="M 270 375 L 70 375 Q 50 375 50 355 L 50 51.37" fill="none" stroke="white" stroke-miterlimit="10" pointer-events="stroke" visibility="hidden" stroke-width="9"/><path d="M 270 375 L 70 375 Q 50 375 50 355 L 50 51.37" fill="none" stroke="#000000" stroke-miterlimit="10" pointer-events="stroke"/><path d="M 50 46.12 L 53.5 53.12 L 50 51.37 L 46.5 53.12 Z" fill="#000000" stroke="#000000" stroke-miterlimit="10" pointer-events="all"/></g><g style=""><g fill="#000000" font-family="Arial,Helvetica" direction="" text-anchor="middle" font-size="11px"><rect fill="none" stroke="none" x="40" y="314" width="18" height="12" stroke-width="1" transform="translate(0.5, 0.5)"/><text x="50" y="324.5">tcp</text></g></g><g transform="translate(0.5,0.5)" style="visibility: visible;"><path d="M 300 375 L 100 375 Q 80 375 80 355 L 80 51.37" fill="none" stroke="white" stroke-miterlimit="10" pointer-events="stroke" visibility="hidden" stroke-width="9"/><path d="M 300 375 L 100 375 Q 80 375 80 355 L 80 51.37" fill="none" stroke="#000000" stroke-miterlimit="10" pointer-events="stroke"/><path d="M 80 46.12 L 83.5 53.12 L 80 51.37 L 76.5 53.12 Z" fill="#000000" stroke="#000000" stroke-miterlimit="10" pointer-events="all"/></g><g style=""><g fill="#000000" font-family="Arial,Helvetica" direction="" text-anchor="middle" font-size="11px"><rect fill="none" stroke="none" x="70" y="314" width="18" height="12" stroke-width="1" transform="translate(0.5, 0.5)"/><text x="80" y="324.5">tcp</text></g></g><g transform="translate(0.5,0.5)" style="visibility: visible;"><path d="M 381 375 L 381 237.5 Q 381 217.5 361 217.5 L 261.5 217.5 Q 241.5 217.5 241.5 197.5 L 241.5 66.37" fill="none" stroke="white" stroke-miterlimit="10" pointer-events="stroke" visibility="hidden" stroke-width="9"/><path d="M 381 375 L 381 237.5 Q 381 217.5 361 217.5 L 261.5 217.5 Q 241.5 217.5 241.5 197.5 L 241.5 66.37" fill="none" stroke="#000000" stroke-miterlimit="10" pointer-events="stroke"/><path d="M 241.5 61.12 L 245 68.12 L 241.5 66.37 L 238 68.12 Z" fill="#000000" stroke="#000000" stroke-miterlimit="10" pointer-events="all"/></g><g style=""><g fill="#000000" font-family="Arial,Helvetica" direction="" text-anchor="middle" font-size="11px"><rect fill="none" stroke="none" x="305" y="212" width="13" height="12" stroke-width="1" transform="translate(0.5, 0.5)"/><text x="311.5" y="222">ro</text></g></g><g transform="translate(0.5,0.5)" style="visibility: visible;"><path d="M 260 415 L 80 415 Q 60 415 60 395 L 60 66.37" fill="none" stroke="white" stroke-miterlimit="10" pointer-events="stroke" visibility="hidden" stroke-width="9"/><path d="M 260 415 L 80 415 Q 60 415 60 395 L 60 66.37" fill="none" stroke="#000000" stroke-miterlimit="10" pointer-events="stroke"/><path d="M 60 61.12 L 63.5 68.12 L 60 66.37 L 56.5 68.12 Z" fill="#000000" stroke="#000000" stroke-miterlimit="10" pointer-events="all"/></g><g style=""><g fill="#000000" font-family="Arial,Helvetica" direction="" text-anchor="middle" font-size="11px"><rect fill="none" stroke="none" x="36" y="331" width="47" height="12" stroke-width="1" transform="translate(0.5, 0.5)"/><text x="60" y="341.5">alias:['ui']</text></g></g><g transform="translate(0.5,0.5)" style="visibility: visible;"><path d="M 260 415 L 180 415 Q 160 415 160 395 L 160 66.37" fill="none" stroke="white" stroke-miterlimit="10" pointer-events="stroke" visibility="hidden" stroke-width="9"/><path d="M 260 415 L 180 415 Q 160 415 160 395 L 160 66.37" fill="none" stroke="#000000" stroke-miterlimit="10" pointer-events="stroke"/><path d="M 160 61.12 L 163.5 68.12 L 160 66.37 L 156.5 68.12 Z" fill="#000000" stroke="#000000" stroke-miterlimit="10" pointer-events="all"/></g></g><g/><g/></g></svg>