<svg xmlns="http://www.w3.org/2000/svg" style="left: 0px; top: 0px; width: 100%; height: 100%; display: block; min-width: 587px; min-height: 493px;"><g><g/><g><g transform="translate(0.5,0.5)" style="visibility: visible;"><rect x="126" y="11.6" width="100" height="50" fill="#b5f5ff7f" stroke="#000000" pointer-events="all"/></g><g style=""><g fill="#774400" font-family="Arial,Helvetica" direction="" text-anchor="middle" font-size="11px"><rect fill="none" stroke="none" x="142" y="25" width="67" height="25" stroke-width="1" transform="translate(0.5, 0.5)"/><text x="176" y="34.6">Front-tier</text><text x="176" y="47.6">&lt;&lt;network&gt;&gt;</text></g></g><g transform="translate(0.5,0.5)" style="visibility: visible;"><rect x="226" y="11.6" width="100" height="50" fill="#b5f5ff7f" stroke="#000000" pointer-events="all"/></g><g style=""><g fill="#774400" font-family="Arial,Helvetica" direction="" text-anchor="middle" font-size="11px"><rect fill="none" stroke="none" x="242" y="25" width="67" height="25" stroke-width="1" transform="translate(0.5, 0.5)"/><text x="276" y="34.6">Back-tier</text><text x="276" y="47.6">&lt;&lt;network&gt;&gt;</text></g></g><g transform="translate(0.5,0.5)" style="visibility: visible; cursor: move;"><rect x="326" y="11.6" width="100" height="50" fill="#b5f5ff7f" stroke="#000000" pointer-events="all"/></g><g style="cursor: move;"><g fill="#774400" font-family="Arial,Helvetica" direction="" text-anchor="middle" font-size="11px"><rect fill="none" stroke="none" x="342" y="25" width="67" height="25" stroke-width="1" transform="translate(0.5, 0.5)"/><text x="376" y="34.6">Admin</text><text x="376" y="47.6">&lt;&lt;network&gt;&gt;</text></g></g><g transform="translate(0.5,0.5)" style="visibility: visible;"><rect x="126" y="341.6" width="210" height="150" fill="#f1f1f17f" stroke="#000000" pointer-events="all"/></g><g style=""><g fill="#774400" font-family="Arial,Helvetica" direction="" text-anchor="middle" font-size="11px"><rect fill="none" stroke="none" x="200" y="349" width="62" height="12" stroke-width="1" transform="translate(0.5, 0.5)"/><text x="231" y="358.6">Prometheus</text></g></g><g transform="translate(0.5,0.5)" style="visibility: visible;"><rect x="131" y="366.6" width="200" height="100" fill="#f0fff07f" stroke="#000000" pointer-events="all"/></g><g style=""><g fill="#774400" font-family="Arial,Helvetica" direction="" text-anchor="middle" font-size="11px"><rect fill="none" stroke="none" x="92" y="379" width="277" height="64" stroke-width="1" transform="translate(0.5, 0.5)"/><text x="231" y="388.6">Prometheus</text><text x="231" y="414.6">image: prom/prometheus</text><text x="231" y="427.6">command: --config.file=/etc/prometheus/prometheus.yml</text><text x="231" y="440.6">restart: unless-stopped</text></g></g><g transform="translate(0.5,0.5)" style="visibility: visible;"><ellipse cx="146" cy="376.6" rx="10" ry="10" fill="#ffffd27f" stroke="#000000" pointer-events="all"/></g><g style=""><g fill="#774400" font-family="Arial,Helvetica" direction="" text-anchor="middle" font-size="11px"><rect fill="none" stroke="none" x="132" y="391" width="27" height="12" stroke-width="1" transform="translate(0.5, 0.5)"/><text x="146" y="401.1">9090</text></g></g><g transform="translate(0.5,0.5)" style="visibility: visible;"><rect x="136" y="376.6" width="90" height="25" fill="#f0f0f07f" stroke="#000000" pointer-events="all"/></g><g style=""><g fill="#774400" font-family="Arial,Helvetica" direction="" text-anchor="middle" font-size="11px"><rect fill="none" stroke="none" x="139" y="384" width="82" height="12" stroke-width="1" transform="translate(0.5, 0.5)"/><text x="181" y="393.6">/etc/prometheus</text></g></g><g transform="translate(0.5,0.5)" style="visibility: visible;"><rect x="236" y="376.6" width="77" height="25" fill="#f0f0f07f" stroke="#000000" pointer-events="all"/></g><g style=""><g fill="#774400" font-family="Arial,Helvetica" direction="" text-anchor="middle" font-size="11px"><rect fill="none" stroke="none" x="242" y="384" width="65" height="12" stroke-width="1" transform="translate(0.5, 0.5)"/><text x="274.5" y="393.6">/prometheus</text></g></g><g transform="translate(0.5,0.5)" style="visibility: visible;"><path d="M 231 366.6 L 231 361.6 Q 231 356.6 211 356.6 L 166 356.6 Q 146 356.6 146 358.42 L 146 360.23" fill="none" stroke="white" stroke-miterlimit="10" pointer-events="stroke" visibility="hidden" stroke-width="9"/><path d="M 231 366.6 L 231 361.6 Q 231 356.6 211 356.6 L 166 356.6 Q 146 356.6 146 358.42 L 146 360.23" fill="none" stroke="#000000" stroke-miterlimit="10" pointer-events="stroke"/><path d="M 146 365.48 L 142.5 358.48 L 146 360.23 L 149.5 358.48 Z" fill="#000000" stroke="#000000" stroke-miterlimit="10" pointer-events="all"/></g><g transform="translate(0.5,0.5)" style="visibility: visible;"><path d="M 231 366.6 L 231 361.6 Q 231 356.6 211 356.6 L 196 356.6 Q 181 356.6 181 363.42 L 181 370.23" fill="none" stroke="white" stroke-miterlimit="10" pointer-events="stroke" visibility="hidden" stroke-width="9"/><path d="M 231 366.6 L 231 361.6 Q 231 356.6 211 356.6 L 196 356.6 Q 181 356.6 181 363.42 L 181 370.23" fill="none" stroke="#000000" stroke-miterlimit="10" pointer-events="stroke"/><path d="M 181 375.48 L 177.5 368.48 L 181 370.23 L 184.5 368.48 Z" fill="#000000" stroke="#000000" stroke-miterlimit="10" pointer-events="all"/></g><g style=""><g fill="#000000" font-family="Arial,Helvetica" direction="" text-anchor="middle" font-size="11px"><rect fill="none" stroke="none" x="191" y="351" width="21" height="12" stroke-width="1" transform="translate(0.5, 0.5)"/><text x="201" y="361.1">use</text></g></g><g transform="translate(0.5,0.5)" style="visibility: visible;"><path d="M 231 366.6 L 231 361.6 Q 231 356.6 251 356.6 L 262.75 356.6 Q 274.5 356.6 274.5 363.42 L 274.5 370.23" fill="none" stroke="white" stroke-miterlimit="10" pointer-events="stroke" visibility="hidden" stroke-width="9"/><path d="M 231 366.6 L 231 361.6 Q 231 356.6 251 356.6 L 262.75 356.6 Q 274.5 356.6 274.5 363.42 L 274.5 370.23" fill="none" stroke="#000000" stroke-miterlimit="10" pointer-events="stroke"/><path d="M 274.5 375.48 L 271 368.48 L 274.5 370.23 L 278 368.48 Z" fill="#000000" stroke="#000000" stroke-miterlimit="10" pointer-events="all"/></g><g style=""><g fill="#000000" font-family="Arial,Helvetica" direction="" text-anchor="middle" font-size="11px"><rect fill="none" stroke="none" x="248" y="351" width="21" height="12" stroke-width="1" transform="translate(0.5, 0.5)"/><text x="258" y="361.1">use</text></g></g><g transform="translate(0.5,0.5)" style="visibility: visible; cursor: move;"><rect x="376" y="211.6" width="210" height="130" fill="#f1f1f17f" stroke="#000000" pointer-events="all"/></g><g style="cursor: move;"><g fill="#774400" font-family="Arial,Helvetica" direction="" text-anchor="middle" font-size="11px"><rect fill="none" stroke="none" x="459" y="219" width="44" height="12" stroke-width="1" transform="translate(0.5, 0.5)"/><text x="481" y="228.6">Datadog</text></g></g><g transform="translate(0.5,0.5)" style="visibility: visible; cursor: move;"><ellipse cx="476" cy="291.6" rx="10" ry="10" fill="#ffffd27f" stroke="#000000" pointer-events="all"/></g><g style="cursor: move;"><g fill="#774400" font-family="Arial,Helvetica" direction="" text-anchor="middle" font-size="11px"><rect fill="none" stroke="none" x="459" y="306" width="33" height="12" stroke-width="1" transform="translate(0.5, 0.5)"/><text x="476" y="316.1">80808</text></g></g><g transform="translate(0.5,0.5)" style="visibility: visible;"><ellipse cx="136" cy="36.6" rx="10" ry="10" fill="#ffffd27f" stroke="#000000" pointer-events="all"/></g><g style=""><g fill="#774400" font-family="Arial,Helvetica" direction="" text-anchor="middle" font-size="11px"><rect fill="none" stroke="none" x="122" y="51" width="27" height="12" stroke-width="1" transform="translate(0.5, 0.5)"/><text x="136" y="61.1">9090</text></g></g><g transform="translate(0.5,0.5)" style="visibility: visible;"><ellipse cx="166" cy="36.6" rx="10" ry="10" fill="#ffffd27f" stroke="#000000" pointer-events="all"/></g><g style=""><g fill="#774400" font-family="Arial,Helvetica" direction="" text-anchor="middle" font-size="11px"><rect fill="none" stroke="none" x="158" y="51" width="15" height="12" stroke-width="1" transform="translate(0.5, 0.5)"/><text x="166" y="61.1">80</text></g></g><g transform="translate(0.5,0.5)" style="visibility: visible;"><ellipse cx="196" cy="36.6" rx="10" ry="10" fill="#ffffd27f" stroke="#000000" pointer-events="all"/></g><g style=""><g fill="#774400" font-family="Arial,Helvetica" direction="" text-anchor="middle" font-size="11px"><rect fill="none" stroke="none" x="182" y="51" width="27" height="12" stroke-width="1" transform="translate(0.5, 0.5)"/><text x="196" y="61.1">8000</text></g></g><g transform="translate(0.5,0.5)" style="visibility: visible;"><rect x="126" y="36.6" width="84" height="25" fill="#f0f0f07f" stroke="#000000" pointer-events="all"/></g><g style=""><g fill="#774400" font-family="Arial,Helvetica" direction="" text-anchor="middle" font-size="11px"><rect fill="none" stroke="none" x="134" y="44" width="67" height="12" stroke-width="1" transform="translate(0.5, 0.5)"/><text x="168" y="53.6">./prometheus</text></g></g><g transform="translate(0.5,0.5)" style="visibility: visible;"><rect x="226" y="36.6" width="63" height="25" fill="#f0f0f07f" stroke="#000000" pointer-events="all"/></g><g style=""><g fill="#774400" font-family="Arial,Helvetica" direction="" text-anchor="middle" font-size="11px"><rect fill="none" stroke="none" x="229" y="44" width="57" height="12" stroke-width="1" transform="translate(0.5, 0.5)"/><text x="257.5" y="53.6">Prom_data</text></g></g><g transform="translate(0.5,0.5)" style="visibility: visible;"><rect x="326" y="36.6" width="63" height="25" fill="#f0f0f07f" stroke="#000000" pointer-events="all"/></g><g style=""><g fill="#774400" font-family="Arial,Helvetica" direction="" text-anchor="middle" font-size="11px"><rect fill="none" stroke="none" x="334" y="44" width="46" height="12" stroke-width="1" transform="translate(0.5, 0.5)"/><text x="357.5" y="53.6">./grafana</text></g></g><g transform="translate(0.5,0.5)" style="visibility: visible;"><path d="M 146 366.6 L 146 226.6 Q 146 206.6 141 206.6 L 138.5 206.6 Q 136 206.6 136 186.6 L 136 52.97" fill="none" stroke="white" stroke-miterlimit="10" pointer-events="stroke" visibility="hidden" stroke-width="9"/><path d="M 146 366.6 L 146 226.6 Q 146 206.6 141 206.6 L 138.5 206.6 Q 136 206.6 136 186.6 L 136 52.97" fill="none" stroke="#000000" stroke-miterlimit="10" pointer-events="stroke"/><path d="M 136 47.72 L 139.5 54.72 L 136 52.97 L 132.5 54.72 Z" fill="#000000" stroke="#000000" stroke-miterlimit="10" pointer-events="all"/></g><g transform="translate(0.5,0.5)" style="visibility: visible;"><path d="M 181 376.6 L 181 239.1 Q 181 219.1 174.5 219.1 L 171.25 219.1 Q 168 219.1 168 199.1 L 168 67.97" fill="none" stroke="white" stroke-miterlimit="10" pointer-events="stroke" visibility="hidden" stroke-width="9"/><path d="M 181 376.6 L 181 239.1 Q 181 219.1 174.5 219.1 L 171.25 219.1 Q 168 219.1 168 199.1 L 168 67.97" fill="none" stroke="#000000" stroke-miterlimit="10" pointer-events="stroke"/><path d="M 168 62.72 L 171.5 69.72 L 168 67.97 L 164.5 69.72 Z" fill="#000000" stroke="#000000" stroke-miterlimit="10" pointer-events="all"/></g><g style=""><g fill="#000000" font-family="Arial,Helvetica" direction="" text-anchor="middle" font-size="11px"><rect fill="none" stroke="none" x="168" y="214" width="13" height="12" stroke-width="1" transform="translate(0.5, 0.5)"/><text x="174.5" y="223.6">ro</text></g></g><g transform="translate(0.5,0.5)" style="visibility: visible;"><path d="M 274.5 376.6 L 274.5 239.1 Q 274.5 219.1 266 219.1 L 261.75 219.1 Q 257.5 219.1 257.5 199.1 L 257.5 67.97" fill="none" stroke="white" stroke-miterlimit="10" pointer-events="stroke" visibility="hidden" stroke-width="9"/><path d="M 274.5 376.6 L 274.5 239.1 Q 274.5 219.1 266 219.1 L 261.75 219.1 Q 257.5 219.1 257.5 199.1 L 257.5 67.97" fill="none" stroke="#000000" stroke-miterlimit="10" pointer-events="stroke"/><path d="M 257.5 62.72 L 261 69.72 L 257.5 67.97 L 254 69.72 Z" fill="#000000" stroke="#000000" stroke-miterlimit="10" pointer-events="all"/></g><g style=""><g fill="#000000" font-family="Arial,Helvetica" direction="" text-anchor="middle" font-size="11px"><rect fill="none" stroke="none" x="259" y="214" width="15" height="12" stroke-width="1" transform="translate(0.5, 0.5)"/><text x="266" y="223.6">rw</text></g></g><g transform="translate(0.5,0.5)" style="visibility: visible;"><path d="M 231 341.6 L 231 221.6 Q 231 201.6 251 201.6 L 263.5 201.6 Q 276 201.6 276 181.6 L 276 67.97" fill="none" stroke="white" stroke-miterlimit="10" pointer-events="stroke" visibility="hidden" stroke-width="9"/><path d="M 231 341.6 L 231 221.6 Q 231 201.6 251 201.6 L 263.5 201.6 Q 276 201.6 276 181.6 L 276 67.97" fill="none" stroke="#000000" stroke-miterlimit="10" pointer-events="stroke"/><path d="M 276 62.72 L 279.5 69.72 L 276 67.97 L 272.5 69.72 Z" fill="#000000" stroke="#000000" stroke-miterlimit="10" pointer-events="all"/></g><g style=""><g fill="#000000" font-family="Arial,Helvetica" direction="" text-anchor="middle" font-size="11px"><rect fill="none" stroke="none" x="212" y="196" width="84" height="12" stroke-width="1" transform="translate(0.5, 0.5)"/><text x="254" y="206.1">alias:['database']</text></g></g><g transform="translate(0.5,0.5)" style="visibility: visible;"><path d="M 231 341.6 L 231 221.6 Q 231 201.6 251 201.6 L 356 201.6 Q 376 201.6 376 181.6 L 376 67.97" fill="none" stroke="white" stroke-miterlimit="10" pointer-events="stroke" visibility="hidden" stroke-width="9"/><path d="M 231 341.6 L 231 221.6 Q 231 201.6 251 201.6 L 356 201.6 Q 376 201.6 376 181.6 L 376 67.97" fill="none" stroke="#000000" stroke-miterlimit="10" pointer-events="stroke"/><path d="M 376 62.72 L 379.5 69.72 L 376 67.97 L 372.5 69.72 Z" fill="#000000" stroke="#000000" stroke-miterlimit="10" pointer-events="all"/></g><g style=""><g fill="#000000" font-family="Arial,Helvetica" direction="" text-anchor="middle" font-size="11px"><rect fill="none" stroke="none" x="270" y="196" width="67" height="12" stroke-width="1" transform="translate(0.5, 0.5)"/><text x="304" y="206.1">alias:['mysql']</text></g></g></g><g/><g/></g></svg>