<svg xmlns="http://www.w3.org/2000/svg" style="left: 0px; top: 0px; width: 100%; height: 100%; display: block; min-width: 539px; min-height: 689px;"><g><g/><g><g transform="translate(0.5,0.5)" style="visibility: visible;"><rect x="5.6" y="18" width="100" height="50" fill="#b5f5ff7f" stroke="#000000" pointer-events="all"/></g><g style=""><g fill="#774400" font-family="Arial,Helvetica" direction="" text-anchor="middle" font-size="11px"><rect fill="none" stroke="none" x="22" y="31" width="67" height="26" stroke-width="1" transform="translate(0.5, 0.5)"/><text x="55.6" y="41">Front-tier</text><text x="55.6" y="54">&lt;&lt;network&gt;&gt;</text></g></g><g transform="translate(0.5,0.5)" style="visibility: visible;"><rect x="105.6" y="18" width="100" height="50" fill="#b5f5ff7f" stroke="#000000" pointer-events="all"/></g><g style=""><g fill="#774400" font-family="Arial,Helvetica" direction="" text-anchor="middle" font-size="11px"><rect fill="none" stroke="none" x="122" y="31" width="67" height="26" stroke-width="1" transform="translate(0.5, 0.5)"/><text x="155.6" y="41">Back-tier</text><text x="155.6" y="54">&lt;&lt;network&gt;&gt;</text></g></g><g transform="translate(0.5,0.5)" style="visibility: visible;"><rect x="205.6" y="18" width="100" height="50" fill="#b5f5ff7f" stroke="#000000" pointer-events="all"/></g><g style=""><g fill="#774400" font-family="Arial,Helvetica" direction="" text-anchor="middle" font-size="11px"><rect fill="none" stroke="none" x="222" y="31" width="67" height="26" stroke-width="1" transform="translate(0.5, 0.5)"/><text x="255.6" y="41">Admin</text><text x="255.6" y="54">&lt;&lt;network&gt;&gt;</text></g></g><g transform="translate(0.5,0.5)" style="visibility: visible;"><rect x="305.6" y="18" width="100" height="50" fill="#b5f5ff7f" stroke="#000000" pointer-events="all"/></g><g style=""><g fill="#774400" font-family="Arial,Helvetica" direction="" text-anchor="middle" font-size="11px"><rect fill="none" stroke="none" x="322" y="31" width="67" height="26" stroke-width="1" transform="translate(0.5, 0.5)"/><text x="355.6" y="41">Undefined</text><text x="355.6" y="54">&lt;&lt;network&gt;&gt;</text></g></g><g transform="translate(0.5,0.5)" style="visibility: visible;"><rect x="5.6" y="348" width="210" height="150" fill="#f1f1f17f" stroke="#000000" pointer-events="all"/></g><g style=""><g fill="#774400" font-family="Arial,Helvetica" direction="" text-anchor="middle" font-size="11px"><rect fill="none" stroke="none" x="79" y="355" width="62" height="12" stroke-width="1" transform="translate(0.5, 0.5)"/><text x="110.6" y="365">Prometheus</text></g></g><g transform="translate(0.5,0.5)" style="visibility: visible;"><rect x="10.6" y="373" width="200" height="100" fill="#f0fff07f" stroke="#000000" pointer-events="all"/></g><g style=""><g fill="#774400" font-family="Arial,Helvetica" direction="" text-anchor="middle" font-size="11px"><rect fill="none" stroke="none" x="-28" y="385" width="277" height="64" stroke-width="1" transform="translate(0.5, 0.5)"/><text x="110.6" y="395">Prometheus</text><text x="110.6" y="421">image: prom/prometheus</text><text x="110.6" y="434">command: --config.file=/etc/prometheus/prometheus.yml</text><text x="110.6" y="447">restart: unless-stopped</text></g></g><g transform="translate(0.5,0.5)" style="visibility: visible;"><ellipse cx="25.6" cy="383" rx="10" ry="10" fill="#ffffd27f" stroke="#000000" pointer-events="all"/></g><g style=""><g fill="#774400" font-family="Arial,Helvetica" direction="" text-anchor="middle" font-size="11px"><rect fill="none" stroke="none" x="12" y="397" width="27" height="12" stroke-width="1" transform="translate(0.5, 0.5)"/><text x="25.6" y="407.5">9090</text></g></g><g transform="translate(0.5,0.5)" style="visibility: visible;"><rect x="15.6" y="383" width="90" height="25" fill="#f0f0f07f" stroke="#000000" pointer-events="all"/></g><g style=""><g fill="#774400" font-family="Arial,Helvetica" direction="" text-anchor="middle" font-size="11px"><rect fill="none" stroke="none" x="19" y="390" width="82" height="12" stroke-width="1" transform="translate(0.5, 0.5)"/><text x="60.6" y="400">/etc/prometheus</text></g></g><g transform="translate(0.5,0.5)" style="visibility: visible;"><rect x="115.6" y="383" width="77" height="25" fill="#f0f0f07f" stroke="#000000" pointer-events="all"/></g><g style=""><g fill="#774400" font-family="Arial,Helvetica" direction="" text-anchor="middle" font-size="11px"><rect fill="none" stroke="none" x="121" y="390" width="65" height="12" stroke-width="1" transform="translate(0.5, 0.5)"/><text x="154.1" y="400">/prometheus</text></g></g><g transform="translate(0.5,0.5)" style="visibility: visible;"><path d="M 110.6 373 L 110.6 368 Q 110.6 363 90.6 363 L 45.6 363 Q 25.6 363 25.6 364.82 L 25.6 366.63" fill="none" stroke="white" stroke-miterlimit="10" pointer-events="stroke" visibility="hidden" stroke-width="9"/><path d="M 110.6 373 L 110.6 368 Q 110.6 363 90.6 363 L 45.6 363 Q 25.6 363 25.6 364.82 L 25.6 366.63" fill="none" stroke="#000000" stroke-miterlimit="10" pointer-events="stroke"/><path d="M 25.6 371.88 L 22.1 364.88 L 25.6 366.63 L 29.1 364.88 Z" fill="#000000" stroke="#000000" stroke-miterlimit="10" pointer-events="all"/></g><g transform="translate(0.5,0.5)" style="visibility: visible;"><path d="M 110.6 373 L 110.6 368 Q 110.6 363 90.6 363 L 75.6 363 Q 60.6 363 60.6 369.82 L 60.6 376.63" fill="none" stroke="white" stroke-miterlimit="10" pointer-events="stroke" visibility="hidden" stroke-width="9"/><path d="M 110.6 373 L 110.6 368 Q 110.6 363 90.6 363 L 75.6 363 Q 60.6 363 60.6 369.82 L 60.6 376.63" fill="none" stroke="#000000" stroke-miterlimit="10" pointer-events="stroke"/><path d="M 60.6 381.88 L 57.1 374.88 L 60.6 376.63 L 64.1 374.88 Z" fill="#000000" stroke="#000000" stroke-miterlimit="10" pointer-events="all"/></g><g style=""><g fill="#000000" font-family="Arial,Helvetica" direction="" text-anchor="middle" font-size="11px"><rect fill="none" stroke="none" x="70" y="357" width="21" height="12" stroke-width="1" transform="translate(0.5, 0.5)"/><text x="80.6" y="367.5">use</text></g></g><g transform="translate(0.5,0.5)" style="visibility: visible;"><path d="M 110.6 373 L 110.6 368 Q 110.6 363 130.6 363 L 142.35 363 Q 154.1 363 154.1 369.82 L 154.1 376.63" fill="none" stroke="white" stroke-miterlimit="10" pointer-events="stroke" visibility="hidden" stroke-width="9"/><path d="M 110.6 373 L 110.6 368 Q 110.6 363 130.6 363 L 142.35 363 Q 154.1 363 154.1 369.82 L 154.1 376.63" fill="none" stroke="#000000" stroke-miterlimit="10" pointer-events="stroke"/><path d="M 154.1 381.88 L 150.6 374.88 L 154.1 376.63 L 157.6 374.88 Z" fill="#000000" stroke="#000000" stroke-miterlimit="10" pointer-events="all"/></g><g style=""><g fill="#000000" font-family="Arial,Helvetica" direction="" text-anchor="middle" font-size="11px"><rect fill="none" stroke="none" x="127" y="357" width="21" height="12" stroke-width="1" transform="translate(0.5, 0.5)"/><text x="137.6" y="367.5">use</text></g></g><g transform="translate(0.5,0.5)" style="visibility: visible; cursor: move;"><rect x="255.6" y="348" width="232" height="150" fill="#f1f1f17f" stroke="#000000" pointer-events="all"/></g><g style="cursor: move;"><g fill="#774400" font-family="Arial,Helvetica" direction="" text-anchor="middle" font-size="11px"><rect fill="none" stroke="none" x="350" y="355" width="43" height="12" stroke-width="1" transform="translate(0.5, 0.5)"/><text x="371.6" y="365">Grafana</text></g></g><g transform="translate(0.5,0.5)" style="visibility: visible; cursor: move;"><rect x="260.6" y="373" width="200" height="100" fill="#f0fff07f" stroke="#000000" pointer-events="all"/></g><g style="cursor: move;"><g fill="#774400" font-family="Arial,Helvetica" direction="" text-anchor="middle" font-size="11px"><rect fill="none" stroke="none" x="210" y="378" width="301" height="77" stroke-width="1" transform="translate(0.5, 0.5)"/><text x="360.6" y="388.5">Grafana</text><text x="360.6" y="414.5">image: grafana/grafana</text><text x="360.6" y="427.5">restart: unless-stopped</text><text x="360.6" y="440.5">environment: GF_SECURITY_ADMIN_USER=admin</text><text x="360.6" y="453.5">environment: GF_SECURITY_ADMIN_PASSWORD=grafana</text></g></g><g transform="translate(0.5,0.5)" style="visibility: visible;"><ellipse cx="275.6" cy="383" rx="10" ry="10" fill="#ffffd27f" stroke="#000000" pointer-events="all"/></g><g style=""><g fill="#774400" font-family="Arial,Helvetica" direction="" text-anchor="middle" font-size="11px"><rect fill="none" stroke="none" x="237" y="397" width="76" height="12" stroke-width="1" transform="translate(0.5, 0.5)"/><text x="275.6" y="407.5">127.0.0.1:8080</text></g></g><g transform="translate(0.5,0.5)" style="visibility: visible;"><ellipse cx="305.6" cy="383" rx="10" ry="10" fill="#ffffd27f" stroke="#000000" pointer-events="all"/></g><g style=""><g fill="#774400" font-family="Arial,Helvetica" direction="" text-anchor="middle" font-size="11px"><rect fill="none" stroke="none" x="253" y="397" width="104" height="12" stroke-width="1" transform="translate(0.5, 0.5)"/><text x="305.6" y="407.5">127.0.0.1:8000-9000</text></g></g><g transform="translate(0.5,0.5)" style="visibility: visible; cursor: move;"><rect x="265.6" y="383" width="222" height="25" fill="#f0f0f07f" stroke="#000000" pointer-events="all"/></g><g style="cursor: move;"><g fill="#774400" font-family="Arial,Helvetica" direction="" text-anchor="middle" font-size="11px"><rect fill="none" stroke="none" x="283" y="390" width="186" height="12" stroke-width="1" transform="translate(0.5, 0.5)"/><text x="376.6" y="400">/etc/grafana/provisioning/datasources</text></g></g><g transform="translate(0.5,0.5)" style="visibility: visible;"><path d="M 360.6 373 L 360.6 368 Q 360.6 363 340.6 363 L 295.6 363 Q 275.6 363 275.6 364.82 L 275.6 366.63" fill="none" stroke="white" stroke-miterlimit="10" pointer-events="stroke" visibility="hidden" stroke-width="9"/><path d="M 360.6 373 L 360.6 368 Q 360.6 363 340.6 363 L 295.6 363 Q 275.6 363 275.6 364.82 L 275.6 366.63" fill="none" stroke="#000000" stroke-miterlimit="10" pointer-events="stroke"/><path d="M 275.6 371.88 L 272.1 364.88 L 275.6 366.63 L 279.1 364.88 Z" fill="#000000" stroke="#000000" stroke-miterlimit="10" pointer-events="all"/></g><g transform="translate(0.5,0.5)" style="visibility: visible;"><path d="M 360.6 373 L 360.6 368 Q 360.6 363 340.6 363 L 323.1 363 Q 305.6 363 305.6 364.82 L 305.6 366.63" fill="none" stroke="white" stroke-miterlimit="10" pointer-events="stroke" visibility="hidden" stroke-width="9"/><path d="M 360.6 373 L 360.6 368 Q 360.6 363 340.6 363 L 323.1 363 Q 305.6 363 305.6 364.82 L 305.6 366.63" fill="none" stroke="#000000" stroke-miterlimit="10" pointer-events="stroke"/><path d="M 305.6 371.88 L 302.1 364.88 L 305.6 366.63 L 309.1 364.88 Z" fill="#000000" stroke="#000000" stroke-miterlimit="10" pointer-events="all"/></g><g transform="translate(0.5,0.5)" style="visibility: visible;"><path d="M 360.6 373 L 360.6 368 Q 360.6 363 368.6 363 L 372.6 363 Q 376.6 363 376.6 369.82 L 376.6 376.63" fill="none" stroke="white" stroke-miterlimit="10" pointer-events="stroke" visibility="hidden" stroke-width="9"/><path d="M 360.6 373 L 360.6 368 Q 360.6 363 368.6 363 L 372.6 363 Q 376.6 363 376.6 369.82 L 376.6 376.63" fill="none" stroke="#000000" stroke-miterlimit="10" pointer-events="stroke"/><path d="M 376.6 381.88 L 373.1 374.88 L 376.6 376.63 L 380.1 374.88 Z" fill="#000000" stroke="#000000" stroke-miterlimit="10" pointer-events="all"/></g><g style=""><g fill="#000000" font-family="Arial,Helvetica" direction="" text-anchor="middle" font-size="11px"><rect fill="none" stroke="none" x="363" y="357" width="21" height="12" stroke-width="1" transform="translate(0.5, 0.5)"/><text x="373.6" y="367.5">use</text></g></g><g transform="translate(0.5,0.5)" style="visibility: visible; cursor: move;"><rect x="125.6" y="538" width="210" height="150" fill="#f1f1f17f" stroke="#000000" pointer-events="all"/></g><g style="cursor: move;"><g fill="#774400" font-family="Arial,Helvetica" direction="" text-anchor="middle" font-size="11px"><rect fill="none" stroke="none" x="216" y="545" width="30" height="12" stroke-width="1" transform="translate(0.5, 0.5)"/><text x="230.6" y="555">Woof</text></g></g><g transform="translate(0.5,0.5)" style="visibility: visible; cursor: move;"><rect x="130.6" y="563" width="200" height="100" fill="#f0fff07f" stroke="#000000" pointer-events="all"/></g><g style="cursor: move;"><g fill="#774400" font-family="Arial,Helvetica" direction="" text-anchor="middle" font-size="11px"><rect fill="none" stroke="none" x="170" y="588" width="121" height="38" stroke-width="1" transform="translate(0.5, 0.5)"/><text x="230.6" y="598">Datadog</text><text x="230.6" y="624">image: datadog/datadog</text></g></g><g transform="translate(0.5,0.5)" style="visibility: visible;"><ellipse cx="15.6" cy="43" rx="10" ry="10" fill="#ffffd27f" stroke="#000000" pointer-events="all"/></g><g style=""><g fill="#774400" font-family="Arial,Helvetica" direction="" text-anchor="middle" font-size="11px"><rect fill="none" stroke="none" x="2" y="57" width="27" height="12" stroke-width="1" transform="translate(0.5, 0.5)"/><text x="15.6" y="67.5">9090</text></g></g><g transform="translate(0.5,0.5)" style="visibility: visible;"><ellipse cx="45.6" cy="43" rx="10" ry="10" fill="#ffffd27f" stroke="#000000" pointer-events="all"/></g><g style=""><g fill="#774400" font-family="Arial,Helvetica" direction="" text-anchor="middle" font-size="11px"><rect fill="none" stroke="none" x="38" y="57" width="15" height="12" stroke-width="1" transform="translate(0.5, 0.5)"/><text x="45.6" y="67.5">80</text></g></g><g transform="translate(0.5,0.5)" style="visibility: visible;"><ellipse cx="75.6" cy="43" rx="10" ry="10" fill="#ffffd27f" stroke="#000000" pointer-events="all"/></g><g style=""><g fill="#774400" font-family="Arial,Helvetica" direction="" text-anchor="middle" font-size="11px"><rect fill="none" stroke="none" x="62" y="57" width="27" height="12" stroke-width="1" transform="translate(0.5, 0.5)"/><text x="75.6" y="67.5">8000</text></g></g><g transform="translate(0.5,0.5)" style="visibility: visible;"><rect x="5.6" y="43" width="84" height="25" fill="#f0f0f07f" stroke="#000000" pointer-events="all"/></g><g style=""><g fill="#774400" font-family="Arial,Helvetica" direction="" text-anchor="middle" font-size="11px"><rect fill="none" stroke="none" x="14" y="50" width="67" height="12" stroke-width="1" transform="translate(0.5, 0.5)"/><text x="47.6" y="60">./prometheus</text></g></g><g transform="translate(0.5,0.5)" style="visibility: visible;"><rect x="105.6" y="43" width="63" height="25" fill="#f0f0f07f" stroke="#000000" pointer-events="all"/></g><g style=""><g fill="#774400" font-family="Arial,Helvetica" direction="" text-anchor="middle" font-size="11px"><rect fill="none" stroke="none" x="109" y="50" width="57" height="12" stroke-width="1" transform="translate(0.5, 0.5)"/><text x="137.1" y="60">Prom_data</text></g></g><g transform="translate(0.5,0.5)" style="visibility: visible;"><rect x="205.6" y="43" width="63" height="25" fill="#f0f0f07f" stroke="#000000" pointer-events="all"/></g><g style=""><g fill="#774400" font-family="Arial,Helvetica" direction="" text-anchor="middle" font-size="11px"><rect fill="none" stroke="none" x="214" y="50" width="46" height="12" stroke-width="1" transform="translate(0.5, 0.5)"/><text x="237.1" y="60">./grafana</text></g></g><g transform="translate(0.5,0.5)" style="visibility: visible;"><path d="M 25.6 373 L 25.6 233 Q 25.6 213 20.6 213 L 18.1 213 Q 15.6 213 15.6 193 L 15.6 59.37" fill="none" stroke="white" stroke-miterlimit="10" pointer-events="stroke" visibility="hidden" stroke-width="9"/><path d="M 25.6 373 L 25.6 233 Q 25.6 213 20.6 213 L 18.1 213 Q 15.6 213 15.6 193 L 15.6 59.37" fill="none" stroke="#000000" stroke-miterlimit="10" pointer-events="stroke"/><path d="M 15.6 54.12 L 19.1 61.12 L 15.6 59.37 L 12.1 61.12 Z" fill="#000000" stroke="#000000" stroke-miterlimit="10" pointer-events="all"/></g><g transform="translate(0.5,0.5)" style="visibility: visible;"><path d="M 60.6 383 L 60.6 245.5 Q 60.6 225.5 54.1 225.5 L 50.85 225.5 Q 47.6 225.5 47.6 205.5 L 47.6 74.37" fill="none" stroke="white" stroke-miterlimit="10" pointer-events="stroke" visibility="hidden" stroke-width="9"/><path d="M 60.6 383 L 60.6 245.5 Q 60.6 225.5 54.1 225.5 L 50.85 225.5 Q 47.6 225.5 47.6 205.5 L 47.6 74.37" fill="none" stroke="#000000" stroke-miterlimit="10" pointer-events="stroke"/><path d="M 47.6 69.12 L 51.1 76.12 L 47.6 74.37 L 44.1 76.12 Z" fill="#000000" stroke="#000000" stroke-miterlimit="10" pointer-events="all"/></g><g style=""><g fill="#000000" font-family="Arial,Helvetica" direction="" text-anchor="middle" font-size="11px"><rect fill="none" stroke="none" x="48" y="220" width="13" height="12" stroke-width="1" transform="translate(0.5, 0.5)"/><text x="54.1" y="230">ro</text></g></g><g transform="translate(0.5,0.5)" style="visibility: visible;"><path d="M 154.1 383 L 154.1 245.5 Q 154.1 225.5 145.6 225.5 L 141.35 225.5 Q 137.1 225.5 137.1 205.5 L 137.1 74.37" fill="none" stroke="white" stroke-miterlimit="10" pointer-events="stroke" visibility="hidden" stroke-width="9"/><path d="M 154.1 383 L 154.1 245.5 Q 154.1 225.5 145.6 225.5 L 141.35 225.5 Q 137.1 225.5 137.1 205.5 L 137.1 74.37" fill="none" stroke="#000000" stroke-miterlimit="10" pointer-events="stroke"/><path d="M 137.1 69.12 L 140.6 76.12 L 137.1 74.37 L 133.6 76.12 Z" fill="#000000" stroke="#000000" stroke-miterlimit="10" pointer-events="all"/></g><g style=""><g fill="#000000" font-family="Arial,Helvetica" direction="" text-anchor="middle" font-size="11px"><rect fill="none" stroke="none" x="138" y="220" width="15" height="12" stroke-width="1" transform="translate(0.5, 0.5)"/><text x="145.6" y="230">rw</text></g></g><g transform="translate(0.5,0.5)" style="visibility: visible;"><path d="M 110.6 348 L 110.6 228 Q 110.6 208 130.6 208 L 143.1 208 Q 155.6 208 155.6 188 L 155.6 74.37" fill="none" stroke="white" stroke-miterlimit="10" pointer-events="stroke" visibility="hidden" stroke-width="9"/><path d="M 110.6 348 L 110.6 228 Q 110.6 208 130.6 208 L 143.1 208 Q 155.6 208 155.6 188 L 155.6 74.37" fill="none" stroke="#000000" stroke-miterlimit="10" pointer-events="stroke"/><path d="M 155.6 69.12 L 159.1 76.12 L 155.6 74.37 L 152.1 76.12 Z" fill="#000000" stroke="#000000" stroke-miterlimit="10" pointer-events="all"/></g><g style=""><g fill="#000000" font-family="Arial,Helvetica" direction="" text-anchor="middle" font-size="11px"><rect fill="none" stroke="none" x="91" y="202" width="84" height="12" stroke-width="1" transform="translate(0.5, 0.5)"/><text x="133.6" y="212.5">alias:['database']</text></g></g><g transform="translate(0.5,0.5)" style="visibility: visible;"><path d="M 110.6 348 L 110.6 228 Q 110.6 208 130.6 208 L 235.6 208 Q 255.6 208 255.6 188 L 255.6 74.37" fill="none" stroke="white" stroke-miterlimit="10" pointer-events="stroke" visibility="hidden" stroke-width="9"/><path d="M 110.6 348 L 110.6 228 Q 110.6 208 130.6 208 L 235.6 208 Q 255.6 208 255.6 188 L 255.6 74.37" fill="none" stroke="#000000" stroke-miterlimit="10" pointer-events="stroke"/><path d="M 255.6 69.12 L 259.1 76.12 L 255.6 74.37 L 252.1 76.12 Z" fill="#000000" stroke="#000000" stroke-miterlimit="10" pointer-events="all"/></g><g style=""><g fill="#000000" font-family="Arial,Helvetica" direction="" text-anchor="middle" font-size="11px"><rect fill="none" stroke="none" x="150" y="202" width="67" height="12" stroke-width="1" transform="translate(0.5, 0.5)"/><text x="183.6" y="212.5">alias:['mysql']</text></g></g><g transform="translate(0.5,0.5)" style="visibility: visible;"><path d="M 215.6 423 L 335.6 423 Q 355.6 423 355.6 403 L 355.6 74.37" fill="none" stroke="white" stroke-miterlimit="10" pointer-events="stroke" visibility="hidden" stroke-width="9"/><path d="M 215.6 423 L 335.6 423 Q 355.6 423 355.6 403 L 355.6 74.37" fill="none" stroke="#000000" stroke-miterlimit="10" pointer-events="stroke"/><path d="M 355.6 69.12 L 359.1 76.12 L 355.6 74.37 L 352.1 76.12 Z" fill="#000000" stroke="#000000" stroke-miterlimit="10" pointer-events="all"/></g><g style=""><g fill="#000000" font-family="Arial,Helvetica" direction="" text-anchor="middle" font-size="11px"><rect fill="none" stroke="none" x="314" y="310" width="83" height="12" stroke-width="1" transform="translate(0.5, 0.5)"/><text x="355.6" y="320.5">alias:['unknown']</text></g></g><g transform="translate(0.5,0.5)" style="visibility: visible;"><path d="M 265.6 383 L 65.6 383 Q 45.6 383 45.6 363 L 45.6 233 Q 45.6 213 45.6 193 L 45.6 59.37" fill="none" stroke="white" stroke-miterlimit="10" pointer-events="stroke" visibility="hidden" stroke-width="9"/><path d="M 265.6 383 L 65.6 383 Q 45.6 383 45.6 363 L 45.6 233 Q 45.6 213 45.6 193 L 45.6 59.37" fill="none" stroke="#000000" stroke-miterlimit="10" pointer-events="stroke"/><path d="M 45.6 54.12 L 49.1 61.12 L 45.6 59.37 L 42.1 61.12 Z" fill="#000000" stroke="#000000" stroke-miterlimit="10" pointer-events="all"/></g><g style=""><g fill="#000000" font-family="Arial,Helvetica" direction="" text-anchor="middle" font-size="11px"><rect fill="none" stroke="none" x="36" y="322" width="18" height="12" stroke-width="1" transform="translate(0.5, 0.5)"/><text x="45.6" y="332.5">tcp</text></g></g><g transform="translate(0.5,0.5)" style="visibility: visible;"><path d="M 295.6 383 L 95.6 383 Q 75.6 383 75.6 363 L 75.6 59.37" fill="none" stroke="white" stroke-miterlimit="10" pointer-events="stroke" visibility="hidden" stroke-width="9"/><path d="M 295.6 383 L 95.6 383 Q 75.6 383 75.6 363 L 75.6 59.37" fill="none" stroke="#000000" stroke-miterlimit="10" pointer-events="stroke"/><path d="M 75.6 54.12 L 79.1 61.12 L 75.6 59.37 L 72.1 61.12 Z" fill="#000000" stroke="#000000" stroke-miterlimit="10" pointer-events="all"/></g><g style=""><g fill="#000000" font-family="Arial,Helvetica" direction="" text-anchor="middle" font-size="11px"><rect fill="none" stroke="none" x="66" y="322" width="18" height="12" stroke-width="1" transform="translate(0.5, 0.5)"/><text x="75.6" y="332.5">tcp</text></g></g><g transform="translate(0.5,0.5)" style="visibility: visible;"><path d="M 376.6 383 L 376.6 245.5 Q 376.6 225.5 356.6 225.5 L 257.1 225.5 Q 237.1 225.5 237.1 205.5 L 237.1 74.37" fill="none" stroke="white" stroke-miterlimit="10" pointer-events="stroke" visibility="hidden" stroke-width="9"/><path d="M 376.6 383 L 376.6 245.5 Q 376.6 225.5 356.6 225.5 L 257.1 225.5 Q 237.1 225.5 237.1 205.5 L 237.1 74.37" fill="none" stroke="#000000" stroke-miterlimit="10" pointer-events="stroke"/><path d="M 237.1 69.12 L 240.6 76.12 L 237.1 74.37 L 233.6 76.12 Z" fill="#000000" stroke="#000000" stroke-miterlimit="10" pointer-events="all"/></g><g style=""><g fill="#000000" font-family="Arial,Helvetica" direction="" text-anchor="middle" font-size="11px"><rect fill="none" stroke="none" x="301" y="220" width="13" height="12" stroke-width="1" transform="translate(0.5, 0.5)"/><text x="307.1" y="230">ro</text></g></g><g transform="translate(0.5,0.5)" style="visibility: visible;"><path d="M 255.6 423 L 75.6 423 Q 55.6 423 55.6 403 L 55.6 228 Q 55.6 208 55.6 188 L 55.6 74.37" fill="none" stroke="white" stroke-miterlimit="10" pointer-events="stroke" visibility="hidden" stroke-width="9"/><path d="M 255.6 423 L 75.6 423 Q 55.6 423 55.6 403 L 55.6 228 Q 55.6 208 55.6 188 L 55.6 74.37" fill="none" stroke="#000000" stroke-miterlimit="10" pointer-events="stroke"/><path d="M 55.6 69.12 L 59.1 76.12 L 55.6 74.37 L 52.1 76.12 Z" fill="#000000" stroke="#000000" stroke-miterlimit="10" pointer-events="all"/></g><g style=""><g fill="#000000" font-family="Arial,Helvetica" direction="" text-anchor="middle" font-size="11px"><rect fill="none" stroke="none" x="32" y="340" width="47" height="12" stroke-width="1" transform="translate(0.5, 0.5)"/><text x="55.6" y="350.5">alias:['ui']</text></g></g><g transform="translate(0.5,0.5)" style="visibility: visible;"><path d="M 255.6 423 L 175.6 423 Q 155.6 423 155.6 403 L 155.6 74.37" fill="none" stroke="white" stroke-miterlimit="10" pointer-events="stroke" visibility="hidden" stroke-width="9"/><path d="M 255.6 423 L 175.6 423 Q 155.6 423 155.6 403 L 155.6 74.37" fill="none" stroke="#000000" stroke-miterlimit="10" pointer-events="stroke"/><path d="M 155.6 69.12 L 159.1 76.12 L 155.6 74.37 L 152.1 76.12 Z" fill="#000000" stroke="#000000" stroke-miterlimit="10" pointer-events="all"/></g></g><g/><g/></g></svg>