<?xml version="1.0" encoding="us-ascii" standalone="no"?><svg xmlns="http://www.w3.org/2000/svg" xmlns:xlink="http://www.w3.org/1999/xlink" contentStyleType="text/css" height="923px" preserveAspectRatio="none" style="width:1680px;height:923px;background:#FFFFFF;" version="1.1" viewBox="0 0 1680 923" width="1680px" zoomAndPan="magnify"><defs/><g><!--cluster e4f00638b8a10e6994e67af2f832d51c--><g id="cluster_e4f00638b8a10e6994e67af2f832d51c"><polygon fill="none" points="346.5,149.59,356.5,139.59,786.5,139.59,786.5,769.32,776.5,779.32,346.5,779.32,346.5,149.59" style="stroke:#181818;stroke-width:1.0;"/><line style="stroke:#181818;stroke-width:1.0;" x1="776.5" x2="786.5" y1="149.59" y2="139.59"/><line style="stroke:#181818;stroke-width:1.0;" x1="346.5" x2="776.5" y1="149.59" y2="149.59"/><line style="stroke:#181818;stroke-width:1.0;" x1="776.5" x2="776.5" y1="149.59" y2="779.32"/><text fill="#000000" font-family="sans-serif" font-size="14" font-weight="bold" lengthAdjust="spacing" textLength="96" x="514.5" y="165.5851">Prometheus</text></g><!--cluster 587516af1efac0b9293f31639c6c31f3--><g id="cluster_587516af1efac0b9293f31639c6c31f3"><polygon fill="none" points="826.5,650.08,836.5,640.08,1103.5,640.08,1103.5,797.26,1093.5,807.26,826.5,807.26,826.5,650.08" style="stroke:#181818;stroke-width:1.0;"/><line style="stroke:#181818;stroke-width:1.0;" x1="1093.5" x2="1103.5" y1="650.08" y2="640.08"/><line style="stroke:#181818;stroke-width:1.0;" x1="826.5" x2="1093.5" y1="650.08" y2="650.08"/><line style="stroke:#181818;stroke-width:1.0;" x1="1093.5" x2="1093.5" y1="650.08" y2="807.26"/><text fill="#000000" font-family="sans-serif" font-size="14" font-weight="bold" lengthAdjust="spacing" textLength="65" x="928.5" y="666.0751">Datadog</text></g><!--entity b0b6236e8ab49920c48d10f339f1a86a--><g id="elem_b0b6236e8ab49920c48d10f339f1a86a"><rect fill="#F1F1F1" height="111.4844" rx="2.5" ry="2.5" style="stroke:#181818;stroke-width:0.5;" width="217" x="371" y="187.59"/><rect fill="#F1F1F1" height="10" style="stroke:#181818;stroke-width:0.5;" width="15" x="568" y="192.59"/><rect fill="#F1F1F1" height="2" style="stroke:#181818;stroke-width:0.5;" width="4" x="566" y="194.59"/><rect fill="#F1F1F1" height="2" style="stroke:#181818;stroke-width:0.5;" width="4" x="566" y="198.59"/><text fill="#000000" font-family="sans-serif" font-size="14" font-weight="bold" lengthAdjust="spacing" textLength="96" x="386" y="220.5851">prometheus</text><text fill="#000000" font-family="sans-serif" font-size="14" lengthAdjust="spacing" textLength="4" x="386" y="236.882">&#160;</text><text fill="#000000" font-family="sans-serif" font-size="14" lengthAdjust="spacing" textLength="177" x="386" y="253.1789">image: prom/prometheus</text><text fill="#000000" font-family="sans-serif" font-size="14" lengthAdjust="spacing" textLength="163" x="386" y="269.4757">restart: unless-stopped</text><text fill="#000000" font-family="sans-serif" font-size="14" lengthAdjust="spacing" textLength="4" x="386" y="285.7726">&#160;</text></g><!--entity cfd4d43463526be4db6bd372951d8018--><g id="elem_cfd4d43463526be4db6bd372951d8018"><ellipse cx="629.5" cy="405.08" fill="#F1F1F1" rx="8" ry="8" style="stroke:#181818;stroke-width:0.5;"/><text fill="#000000" font-family="sans-serif" font-size="14" lengthAdjust="spacing" textLength="36" x="611.5" y="435.0751">9090</text></g><!--entity b8365f95fd8d51fff10d734d11af5400--><g id="elem_b8365f95fd8d51fff10d734d11af5400"><rect fill="#F1F1F1" height="39.2969" rx="2.5" ry="2.5" style="stroke:#181818;stroke-width:0.5;" width="147" x="406" y="716.02"/><polygon fill="#F1F1F1" points="536,721.02,536,735.02,548,735.02,548,727.02,542,721.02,536,721.02" style="stroke:#181818;stroke-width:0.5;"/><line style="stroke:#181818;stroke-width:0.5;" x1="542" x2="542" y1="721.02" y2="727.02"/><line style="stroke:#181818;stroke-width:0.5;" x1="548" x2="542" y1="727.02" y2="727.02"/><text fill="#000000" font-family="sans-serif" font-size="14" lengthAdjust="spacing" textLength="117" x="416" y="742.0151">/etc/prometheus</text></g><!--entity 66ea46159f158592d153eec2b58bfad1--><g id="elem_66ea46159f158592d153eec2b58bfad1"><rect fill="#F1F1F1" height="39.2969" rx="2.5" ry="2.5" style="stroke:#181818;stroke-width:0.5;" width="120" x="623.5" y="223.68"/><polygon fill="#F1F1F1" points="726.5,228.68,726.5,242.68,738.5,242.68,738.5,234.68,732.5,228.68,726.5,228.68" style="stroke:#181818;stroke-width:0.5;"/><line style="stroke:#181818;stroke-width:0.5;" x1="732.5" x2="732.5" y1="228.68" y2="234.68"/><line style="stroke:#181818;stroke-width:0.5;" x1="738.5" x2="732.5" y1="234.68" y2="234.68"/><text fill="#000000" font-family="sans-serif" font-size="14" lengthAdjust="spacing" textLength="90" x="633.5" y="249.6751">/prometheus</text></g><!--entity cfb8a5b7ebe0f6a517a5ae436a93d5d8--><g id="elem_cfb8a5b7ebe0f6a517a5ae436a93d5d8"><rect fill="#F1F1F1" height="95.1875" rx="2.5" ry="2.5" style="stroke:#181818;stroke-width:0.5;" width="210" x="850.5" y="688.08"/><rect fill="#F1F1F1" height="10" style="stroke:#181818;stroke-width:0.5;" width="15" x="1040.5" y="693.08"/><rect fill="#F1F1F1" height="2" style="stroke:#181818;stroke-width:0.5;" width="4" x="1038.5" y="695.08"/><rect fill="#F1F1F1" height="2" style="stroke:#181818;stroke-width:0.5;" width="4" x="1038.5" y="699.08"/><text fill="#000000" font-family="sans-serif" font-size="14" font-weight="bold" lengthAdjust="spacing" textLength="64" x="865.5" y="721.0751">datadog</text><text fill="#000000" font-family="sans-serif" font-size="14" lengthAdjust="spacing" textLength="4" x="865.5" y="737.372">&#160;</text><text fill="#000000" font-family="sans-serif" font-size="14" lengthAdjust="spacing" textLength="170" x="865.5" y="753.6689">image: datadog/datadog</text><text fill="#000000" font-family="sans-serif" font-size="14" lengthAdjust="spacing" textLength="4" x="865.5" y="769.9657">&#160;</text></g><!--entity d9fe74bd71c5f1efd83d8f6cfdd7bef5--><g id="elem_d9fe74bd71c5f1efd83d8f6cfdd7bef5"><polygon fill="#F1F1F1" points="102,16,112,6,227,6,227,58.5938,217,68.5938,102,68.5938,102,16" style="stroke:#181818;stroke-width:0.5;"/><line style="stroke:#181818;stroke-width:0.5;" x1="217" x2="227" y1="16" y2="6"/><line style="stroke:#181818;stroke-width:0.5;" x1="102" x2="217" y1="16" y2="16"/><line style="stroke:#181818;stroke-width:0.5;" x1="217" x2="217" y1="16" y2="68.5938"/><text fill="#000000" font-family="sans-serif" font-size="14" font-weight="bold" lengthAdjust="spacing" textLength="85" x="117" y="38.9951">FRONT-tier</text><text fill="#000000" font-family="sans-serif" font-size="14" lengthAdjust="spacing" textLength="74" x="117" y="55.292">&#171;network&#187;</text></g><!--entity cab64c5af73a02ce213c72c614ccdc8f--><g id="elem_cab64c5af73a02ce213c72c614ccdc8f"><polygon fill="#F1F1F1" points="353.5,16,363.5,6,467.5,6,467.5,58.5938,457.5,68.5938,353.5,68.5938,353.5,16" style="stroke:#181818;stroke-width:0.5;"/><line style="stroke:#181818;stroke-width:0.5;" x1="457.5" x2="467.5" y1="16" y2="6"/><line style="stroke:#181818;stroke-width:0.5;" x1="353.5" x2="457.5" y1="16" y2="16"/><line style="stroke:#181818;stroke-width:0.5;" x1="457.5" x2="457.5" y1="16" y2="68.5938"/><text fill="#000000" font-family="sans-serif" font-size="14" font-weight="bold" lengthAdjust="spacing" textLength="70" x="368.5" y="38.9951">back-tier</text><text fill="#000000" font-family="sans-serif" font-size="14" lengthAdjust="spacing" textLength="74" x="368.5" y="55.292">&#171;network&#187;</text></g><!--entity 21232f297a57a5a743894a0e4a801fc3--><g id="elem_21232f297a57a5a743894a0e4a801fc3"><polygon fill="#F1F1F1" points="603.5,16,613.5,6,717.5,6,717.5,58.5938,707.5,68.5938,603.5,68.5938,603.5,16" style="stroke:#181818;stroke-width:0.5;"/><line style="stroke:#181818;stroke-width:0.5;" x1="707.5" x2="717.5" y1="16" y2="6"/><line style="stroke:#181818;stroke-width:0.5;" x1="603.5" x2="707.5" y1="16" y2="16"/><line style="stroke:#181818;stroke-width:0.5;" x1="707.5" x2="707.5" y1="16" y2="68.5938"/><text fill="#000000" font-family="sans-serif" font-size="14" font-weight="bold" lengthAdjust="spacing" textLength="47" x="618.5" y="38.9951">admin</text><text fill="#000000" font-family="sans-serif" font-size="14" lengthAdjust="spacing" textLength="74" x="618.5" y="55.292">&#171;network&#187;</text></g><!--entity 5e543256c480ac577d30f76f9120eb74--><g id="elem_5e543256c480ac577d30f76f9120eb74"><polygon fill="#F1F1F1" points="752.5,16,762.5,6,872.5,6,872.5,58.5938,862.5,68.5938,752.5,68.5938,752.5,16" style="stroke:#181818;stroke-width:0.5;"/><line style="stroke:#181818;stroke-width:0.5;" x1="862.5" x2="872.5" y1="16" y2="6"/><line style="stroke:#181818;stroke-width:0.5;" x1="752.5" x2="862.5" y1="16" y2="16"/><line style="stroke:#181818;stroke-width:0.5;" x1="862.5" x2="862.5" y1="16" y2="68.5938"/><text fill="#000000" font-family="sans-serif" font-size="14" font-weight="bold" lengthAdjust="spacing" textLength="80" x="767.5" y="38.9951">undefined</text><text fill="#000000" font-family="sans-serif" font-size="14" lengthAdjust="spacing" textLength="74" x="767.5" y="55.292">&#171;network&#187;</text></g><!--entity 267de027b65a807d2138ee534426efa5--><g id="elem_267de027b65a807d2138ee534426efa5"><ellipse cx="953.5" cy="540.08" fill="#F1F1F1" rx="8" ry="8" style="stroke:#181818;stroke-width:0.5;"/><text fill="#000000" font-family="sans-serif" font-size="14" lengthAdjust="spacing" textLength="36" x="935.5" y="570.0751">9090</text></g><!--entity dba3f4d0bb5aa6fcfa18da2c1f7a9775--><g id="elem_dba3f4d0bb5aa6fcfa18da2c1f7a9775"><ellipse cx="976.5" cy="405.08" fill="#F1F1F1" rx="8" ry="8" style="stroke:#181818;stroke-width:0.5;"/><text fill="#000000" font-family="sans-serif" font-size="14" lengthAdjust="spacing" textLength="18" x="967.5" y="435.0751">80</text></g><!--entity 1624c420083928ef3e240dd88f2e52f0--><g id="elem_1624c420083928ef3e240dd88f2e52f0"><ellipse cx="1318.5" cy="405.08" fill="#F1F1F1" rx="8" ry="8" style="stroke:#181818;stroke-width:0.5;"/><text fill="#000000" font-family="sans-serif" font-size="14" lengthAdjust="spacing" textLength="36" x="1300.5" y="435.0751">8000</text></g><!--entity 2a4ddbecb762532586835d0f37d85eaf--><g id="elem_2a4ddbecb762532586835d0f37d85eaf"><rect fill="#F1F1F1" height="39.2969" rx="2.5" ry="2.5" style="stroke:#181818;stroke-width:0.5;" width="124" x="417.5" y="878.26"/><polygon fill="#F1F1F1" points="524.5,883.26,524.5,897.26,536.5,897.26,536.5,889.26,530.5,883.26,524.5,883.26" style="stroke:#181818;stroke-width:0.5;"/><line style="stroke:#181818;stroke-width:0.5;" x1="530.5" x2="530.5" y1="883.26" y2="889.26"/><line style="stroke:#181818;stroke-width:0.5;" x1="536.5" x2="530.5" y1="889.26" y2="889.26"/><text fill="#000000" font-family="sans-serif" font-size="14" lengthAdjust="spacing" textLength="94" x="427.5" y="904.2551">./prometheus</text></g><!--entity a1448c8b5db83ada398e734ef1d3277c--><g id="elem_a1448c8b5db83ada398e734ef1d3277c"><rect fill="#F1F1F1" height="39.2969" rx="2.5" ry="2.5" style="stroke:#181818;stroke-width:0.5;" width="103" x="811" y="385.43"/><polygon fill="#F1F1F1" points="897,390.43,897,404.43,909,404.43,909,396.43,903,390.43,897,390.43" style="stroke:#181818;stroke-width:0.5;"/><line style="stroke:#181818;stroke-width:0.5;" x1="903" x2="903" y1="390.43" y2="396.43"/><line style="stroke:#181818;stroke-width:0.5;" x1="909" x2="903" y1="396.43" y2="396.43"/><text fill="#000000" font-family="sans-serif" font-size="14" lengthAdjust="spacing" textLength="73" x="821" y="411.4251">prom_data</text></g><!--entity eec695b1c6be435e7982afe506db7e49--><g id="elem_eec695b1c6be435e7982afe506db7e49"><rect fill="#F1F1F1" height="39.2969" rx="2.5" ry="2.5" style="stroke:#181818;stroke-width:0.5;" width="90" x="1478.5" y="716.02"/><polygon fill="#F1F1F1" points="1551.5,721.02,1551.5,735.02,1563.5,735.02,1563.5,727.02,1557.5,721.02,1551.5,721.02" style="stroke:#181818;stroke-width:0.5;"/><line style="stroke:#181818;stroke-width:0.5;" x1="1557.5" x2="1557.5" y1="721.02" y2="727.02"/><line style="stroke:#181818;stroke-width:0.5;" x1="1563.5" x2="1557.5" y1="727.02" y2="727.02"/><text fill="#000000" font-family="sans-serif" font-size="14" lengthAdjust="spacing" textLength="60" x="1488.5" y="742.0151">./grafana</text></g><!--class ca625ae68e4d4a58f9ba859ff3420557--><g id="elem_ca625ae68e4d4a58f9ba859ff3420557"><rect fill="#F1F1F1" height="48" id="ca625ae68e4d4a58f9ba859ff3420557" rx="2.5" ry="2.5" style="stroke:#181818;stroke-width:0.5;" width="300" x="1168.5" y="13.29"/><ellipse cx="1183.5" cy="29.29" fill="#ADD1B2" rx="11" ry="11" style="stroke:#181818;stroke-width:1.0;"/><path d="M1186.4688,34.9306 Q1185.8906,35.2275 1185.25,35.3681 Q1184.6094,35.5244 1183.9063,35.5244 Q1181.4063,35.5244 1180.0781,33.8837 Q1178.7656,32.2275 1178.7656,29.1025 Q1178.7656,25.9775 1180.0781,24.3212 Q1181.4063,22.665 1183.9063,22.665 Q1184.6094,22.665 1185.25,22.8212 Q1185.9063,22.9775 1186.4688,23.2744 L1186.4688,25.9931 Q1185.8438,25.415 1185.25,25.1494 Q1184.6563,24.8681 1184.0313,24.8681 Q1182.6875,24.8681 1182,25.9462 Q1181.3125,27.0087 1181.3125,29.1025 Q1181.3125,31.1962 1182,32.2744 Q1182.6875,33.3369 1184.0313,33.3369 Q1184.6563,33.3369 1185.25,33.0712 Q1185.8438,32.79 1186.4688,32.2119 L1186.4688,34.9306 Z " fill="#000000"/><text fill="#000000" font-family="sans-serif" font-size="14" lengthAdjust="spacing" textLength="268" x="1197.5" y="34.1367">ca625ae68e4d4a58f9ba859ff3420557</text><line style="stroke:#181818;stroke-width:0.5;" x1="1169.5" x2="1467.5" y1="45.29" y2="45.29"/><line style="stroke:#181818;stroke-width:0.5;" x1="1169.5" x2="1467.5" y1="53.29" y2="53.29"/></g><!--class 9f18a5ea59196197837bdbfebede13e8--><g id="elem_9f18a5ea59196197837bdbfebede13e8"><rect fill="#F1F1F1" height="48" id="9f18a5ea59196197837bdbfebede13e8" rx="2.5" ry="2.5" style="stroke:#181818;stroke-width:0.5;" width="308" x="822.5" y="219.33"/><ellipse cx="837.5" cy="235.33" fill="#ADD1B2" rx="11" ry="11" style="stroke:#181818;stroke-width:1.0;"/><path d="M840.4688,240.9706 Q839.8906,241.2675 839.25,241.4081 Q838.6094,241.5644 837.9063,241.5644 Q835.4063,241.5644 834.0781,239.9237 Q832.7656,238.2675 832.7656,235.1425 Q832.7656,232.0175 834.0781,230.3612 Q835.4063,228.705 837.9063,228.705 Q838.6094,228.705 839.25,228.8612 Q839.9063,229.0175 840.4688,229.3144 L840.4688,232.0331 Q839.8438,231.455 839.25,231.1894 Q838.6563,230.9081 838.0313,230.9081 Q836.6875,230.9081 836,231.9862 Q835.3125,233.0487 835.3125,235.1425 Q835.3125,237.2362 836,238.3144 Q836.6875,239.3769 838.0313,239.3769 Q838.6563,239.3769 839.25,239.1112 Q839.8438,238.83 840.4688,238.2519 L840.4688,240.9706 Z " fill="#000000"/><text fill="#000000" font-family="sans-serif" font-size="14" lengthAdjust="spacing" textLength="276" x="851.5" y="240.1767">9f18a5ea59196197837bdbfebede13e8</text><line style="stroke:#181818;stroke-width:0.5;" x1="823.5" x2="1129.5" y1="251.33" y2="251.33"/><line style="stroke:#181818;stroke-width:0.5;" x1="823.5" x2="1129.5" y1="259.33" y2="259.33"/></g><!--class e5b1c7fcc1453c77b2f0388027659c6e--><g id="elem_e5b1c7fcc1453c77b2f0388027659c6e"><rect fill="#F1F1F1" height="48" id="e5b1c7fcc1453c77b2f0388027659c6e" rx="2.5" ry="2.5" style="stroke:#181818;stroke-width:0.5;" width="305" x="1166" y="219.33"/><ellipse cx="1181" cy="235.33" fill="#ADD1B2" rx="11" ry="11" style="stroke:#181818;stroke-width:1.0;"/><path d="M1183.9688,240.9706 Q1183.3906,241.2675 1182.75,241.4081 Q1182.1094,241.5644 1181.4063,241.5644 Q1178.9063,241.5644 1177.5781,239.9237 Q1176.2656,238.2675 1176.2656,235.1425 Q1176.2656,232.0175 1177.5781,230.3612 Q1178.9063,228.705 1181.4063,228.705 Q1182.1094,228.705 1182.75,228.8612 Q1183.4063,229.0175 1183.9688,229.3144 L1183.9688,232.0331 Q1183.3438,231.455 1182.75,231.1894 Q1182.1563,230.9081 1181.5313,230.9081 Q1180.1875,230.9081 1179.5,231.9862 Q1178.8125,233.0487 1178.8125,235.1425 Q1178.8125,237.2362 1179.5,238.3144 Q1180.1875,239.3769 1181.5313,239.3769 Q1182.1563,239.3769 1182.75,239.1112 Q1183.3438,238.83 1183.9688,238.2519 L1183.9688,240.9706 Z " fill="#000000"/><text fill="#000000" font-family="sans-serif" font-size="14" lengthAdjust="spacing" textLength="273" x="1195" y="240.1767">e5b1c7fcc1453c77b2f0388027659c6e</text><line style="stroke:#181818;stroke-width:0.5;" x1="1167" x2="1470" y1="251.33" y2="251.33"/><line style="stroke:#181818;stroke-width:0.5;" x1="1167" x2="1470" y1="259.33" y2="259.33"/></g><!--class de82fbad4c9eebe0bd6d2fe66a3fe0aa--><g id="elem_de82fbad4c9eebe0bd6d2fe66a3fe0aa"><rect fill="#F1F1F1" height="48" id="de82fbad4c9eebe0bd6d2fe66a3fe0aa" rx="2.5" ry="2.5" style="stroke:#181818;stroke-width:0.5;" width="300" x="1373.5" y="516.08"/><ellipse cx="1388.5" cy="532.08" fill="#ADD1B2" rx="11" ry="11" style="stroke:#181818;stroke-width:1.0;"/><path d="M1391.4688,537.7206 Q1390.8906,538.0175 1390.25,538.1581 Q1389.6094,538.3144 1388.9063,538.3144 Q1386.4063,538.3144 1385.0781,536.6737 Q1383.7656,535.0175 1383.7656,531.8925 Q1383.7656,528.7675 1385.0781,527.1112 Q1386.4063,525.455 1388.9063,525.455 Q1389.6094,525.455 1390.25,525.6112 Q1390.9063,525.7675 1391.4688,526.0644 L1391.4688,528.7831 Q1390.8438,528.205 1390.25,527.9394 Q1389.6563,527.6581 1389.0313,527.6581 Q1387.6875,527.6581 1387,528.7362 Q1386.3125,529.7987 1386.3125,531.8925 Q1386.3125,533.9862 1387,535.0644 Q1387.6875,536.1269 1389.0313,536.1269 Q1389.6563,536.1269 1390.25,535.8612 Q1390.8438,535.58 1391.4688,535.0019 L1391.4688,537.7206 Z " fill="#000000"/><text fill="#000000" font-family="sans-serif" font-size="14" lengthAdjust="spacing" textLength="268" x="1402.5" y="536.9267">de82fbad4c9eebe0bd6d2fe66a3fe0aa</text><line style="stroke:#181818;stroke-width:0.5;" x1="1374.5" x2="1672.5" y1="548.08" y2="548.08"/><line style="stroke:#181818;stroke-width:0.5;" x1="1374.5" x2="1672.5" y1="556.08" y2="556.08"/></g><!--class d9c0e52dd15274d51041b489c7cea0ad--><g id="elem_d9c0e52dd15274d51041b489c7cea0ad"><rect fill="#F1F1F1" height="48" id="d9c0e52dd15274d51041b489c7cea0ad" rx="2.5" ry="2.5" style="stroke:#181818;stroke-width:0.5;" width="315" x="7" y="219.33"/><ellipse cx="22" cy="235.33" fill="#ADD1B2" rx="11" ry="11" style="stroke:#181818;stroke-width:1.0;"/><path d="M24.9688,240.9706 Q24.3906,241.2675 23.75,241.4081 Q23.1094,241.5644 22.4063,241.5644 Q19.9063,241.5644 18.5781,239.9237 Q17.2656,238.2675 17.2656,235.1425 Q17.2656,232.0175 18.5781,230.3612 Q19.9063,228.705 22.4063,228.705 Q23.1094,228.705 23.75,228.8612 Q24.4063,229.0175 24.9688,229.3144 L24.9688,232.0331 Q24.3438,231.455 23.75,231.1894 Q23.1563,230.9081 22.5313,230.9081 Q21.1875,230.9081 20.5,231.9862 Q19.8125,233.0487 19.8125,235.1425 Q19.8125,237.2362 20.5,238.3144 Q21.1875,239.3769 22.5313,239.3769 Q23.1563,239.3769 23.75,239.1112 Q24.3438,238.83 24.9688,238.2519 L24.9688,240.9706 Z " fill="#000000"/><text fill="#000000" font-family="sans-serif" font-size="14" lengthAdjust="spacing" textLength="283" x="36" y="240.1767">d9c0e52dd15274d51041b489c7cea0ad</text><line style="stroke:#181818;stroke-width:0.5;" x1="8" x2="321" y1="251.33" y2="251.33"/><line style="stroke:#181818;stroke-width:0.5;" x1="8" x2="321" y1="259.33" y2="259.33"/></g><!--entity d6a1ade96b7e9337893d846d5320f507--><g id="elem_d6a1ade96b7e9337893d846d5320f507"><polygon fill="#F1F1F1" points="1503.5,16,1513.5,6,1617.5,6,1617.5,58.5938,1607.5,68.5938,1503.5,68.5938,1503.5,16" style="stroke:#181818;stroke-width:0.5;"/><line style="stroke:#181818;stroke-width:0.5;" x1="1607.5" x2="1617.5" y1="16" y2="6"/><line style="stroke:#181818;stroke-width:0.5;" x1="1503.5" x2="1607.5" y1="16" y2="16"/><line style="stroke:#181818;stroke-width:0.5;" x1="1607.5" x2="1607.5" y1="16" y2="68.5938"/><text fill="#000000" font-family="sans-serif" font-size="14" font-weight="bold" lengthAdjust="spacing" textLength="43" x="1518.5" y="38.9951">cloud</text><text fill="#000000" font-family="sans-serif" font-size="14" lengthAdjust="spacing" textLength="74" x="1518.5" y="55.292">&#171;network&#187;</text></g><!--link b0b6236e8ab49920c48d10f339f1a86a to cfd4d43463526be4db6bd372951d8018--><g id="link_b0b6236e8ab49920c48d10f339f1a86a_cfd4d43463526be4db6bd372951d8018"><path codeLine="32" d="M531.12,299.31 C564.85,335.23 605.59,378.61 622.06,396.15 " fill="none" id="b0b6236e8ab49920c48d10f339f1a86a-cfd4d43463526be4db6bd372951d8018" style="stroke:#181818;stroke-width:1.0;"/></g><!--link cfd4d43463526be4db6bd372951d8018 to 267de027b65a807d2138ee534426efa5--><g id="link_cfd4d43463526be4db6bd372951d8018_267de027b65a807d2138ee534426efa5"><path codeLine="33" d="M638.17,409.63 C684.06,428.47 898.33,516.43 944.66,535.44 " fill="none" id="cfd4d43463526be4db6bd372951d8018-267de027b65a807d2138ee534426efa5" style="stroke:#181818;stroke-width:1.0;"/></g><!--link b8365f95fd8d51fff10d734d11af5400 to 2a4ddbecb762532586835d0f37d85eaf--><g id="link_b8365f95fd8d51fff10d734d11af5400_2a4ddbecb762532586835d0f37d85eaf"><path codeLine="34" d="M479.5,755.68 C479.5,786.52 479.5,847.1 479.5,877.93 " fill="none" id="b8365f95fd8d51fff10d734d11af5400-2a4ddbecb762532586835d0f37d85eaf" style="stroke:#181818;stroke-width:1.0;"/><text fill="#000000" font-family="sans-serif" font-size="13" lengthAdjust="spacing" textLength="13" x="480.5" y="844.3269">ro</text></g><!--link b0b6236e8ab49920c48d10f339f1a86a to b8365f95fd8d51fff10d734d11af5400--><g id="link_b0b6236e8ab49920c48d10f339f1a86a_b8365f95fd8d51fff10d734d11af5400"><path codeLine="35" d="M479.5,299.15 C479.5,408.11 479.5,641.32 479.5,709.93 " fill="none" id="b0b6236e8ab49920c48d10f339f1a86a-to-b8365f95fd8d51fff10d734d11af5400" style="stroke:#181818;stroke-width:1.0;stroke-dasharray:7.0,7.0;"/><polygon fill="#181818" points="479.5,715.93,483.5,706.93,479.5,710.93,475.5,706.93,479.5,715.93" style="stroke:#181818;stroke-width:1.0;"/><text fill="#000000" font-family="sans-serif" font-size="13" lengthAdjust="spacing" textLength="23" x="480.5" y="477.1469">use</text></g><!--link 66ea46159f158592d153eec2b58bfad1 to a1448c8b5db83ada398e734ef1d3277c--><g id="link_66ea46159f158592d153eec2b58bfad1_a1448c8b5db83ada398e734ef1d3277c"><path codeLine="36" d="M704.74,263.29 C739.19,294.03 806.86,354.42 841.29,385.15 " fill="none" id="66ea46159f158592d153eec2b58bfad1-a1448c8b5db83ada398e734ef1d3277c" style="stroke:#181818;stroke-width:1.0;"/><text fill="#000000" font-family="sans-serif" font-size="13" lengthAdjust="spacing" textLength="14" x="794.5" y="342.1469">rw</text></g><!--reverse link cab64c5af73a02ce213c72c614ccdc8f to e4f00638b8a10e6994e67af2f832d51c--><g id="link_cab64c5af73a02ce213c72c614ccdc8f_e4f00638b8a10e6994e67af2f832d51c"><path codeLine="37" d="M464.5615,71.9233 C494.5515,89.0333 529.23,105.84 567.5,115.59 C588.19,120.86 743.54,109.4 759.5,123.59 C764.4137,127.96 768.4059,133.0523 771.629,138.6231 C771.7297,138.7972 771.8297,138.9717 771.9289,139.1468 " fill="none" id="cab64c5af73a02ce213c72c614ccdc8f-backto-e4f00638b8a10e6994e67af2f832d51c" style="stroke:#181818;stroke-width:1.0;"/><polygon fill="#181818" points="459.35,68.95,465.185,76.8842,463.6929,71.4277,469.1494,69.9356,459.35,68.95" style="stroke:#181818;stroke-width:1.0;"/><text fill="#000000" font-family="sans-serif" font-size="13" lengthAdjust="spacing" textLength="109" x="568.5" y="111.6569">alias:['database']</text></g><!--reverse link 21232f297a57a5a743894a0e4a801fc3 to e4f00638b8a10e6994e67af2f832d51c--><g id="link_21232f297a57a5a743894a0e4a801fc3_e4f00638b8a10e6994e67af2f832d51c"><path codeLine="38" d="M672.2761,74.5356 C678.9861,90.9856 687.43,104.54 703.5,115.59 C724.21,129.84 741.57,105.96 759.5,123.59 C764.1888,128.2012 768.0113,133.4755 771.1097,139.1797 " fill="none" id="21232f297a57a5a743894a0e4a801fc3-backto-e4f00638b8a10e6994e67af2f832d51c" style="stroke:#181818;stroke-width:1.0;"/><polygon fill="#181818" points="670.01,68.98,669.7055,78.8241,671.8985,73.6097,677.1129,75.8026,670.01,68.98" style="stroke:#181818;stroke-width:1.0;"/><text fill="#000000" font-family="sans-serif" font-size="13" lengthAdjust="spacing" textLength="87" x="704.5" y="111.6569">alias:['mysql']</text></g><!--reverse link 5e543256c480ac577d30f76f9120eb74 to e4f00638b8a10e6994e67af2f832d51c--><g id="link_5e543256c480ac577d30f76f9120eb74_e4f00638b8a10e6994e67af2f832d51c"><path codeLine="39" d="M806.4234,74.7583 C801.7534,102.7733 795.6625,139.3225 789.6788,175.2287 C788.9308,179.717 788.1999,184.1028 787.493,188.345 C787.3162,189.4055 787.141,190.4571 786.9673,191.4991 C786.8805,192.0201 786.7941,192.5386 786.7081,193.0547 C786.6651,193.3128 786.6222,193.5702 786.5794,193.827 " fill="none" id="5e543256c480ac577d30f76f9120eb74-backto-e4f00638b8a10e6994e67af2f832d51c" style="stroke:#181818;stroke-width:1.0;"/><polygon fill="#181818" points="807.41,68.84,801.9846,77.0598,806.5879,73.7719,809.8757,78.3752,807.41,68.84" style="stroke:#181818;stroke-width:1.0;"/><text fill="#000000" font-family="sans-serif" font-size="13" lengthAdjust="spacing" textLength="105" x="802.5" y="111.6569">alias:['unknown']</text></g><!--link ca625ae68e4d4a58f9ba859ff3420557 to 9f18a5ea59196197837bdbfebede13e8--><g id="link_ca625ae68e4d4a58f9ba859ff3420557_9f18a5ea59196197837bdbfebede13e8"><path codeLine="40" d="M1267.31,61.69 C1233.04,77.9 1187.28,100.63 1148.5,123.59 C1097.45,153.82 1041.45,193.87 1007.65,218.87 " fill="none" id="ca625ae68e4d4a58f9ba859ff3420557-9f18a5ea59196197837bdbfebede13e8" style="stroke:#181818;stroke-width:1.0;"/></g><!--link 9f18a5ea59196197837bdbfebede13e8 to dba3f4d0bb5aa6fcfa18da2c1f7a9775--><g id="link_9f18a5ea59196197837bdbfebede13e8_dba3f4d0bb5aa6fcfa18da2c1f7a9775"><path codeLine="41" d="M976.5,267.56 C976.5,304.08 976.5,373.14 976.5,396.29 " fill="none" id="9f18a5ea59196197837bdbfebede13e8-dba3f4d0bb5aa6fcfa18da2c1f7a9775" style="stroke:#181818;stroke-width:1.0;"/><text fill="#000000" font-family="sans-serif" font-size="13" lengthAdjust="spacing" textLength="20" x="977.5" y="342.1469">tcp</text></g><!--link ca625ae68e4d4a58f9ba859ff3420557 to e5b1c7fcc1453c77b2f0388027659c6e--><g id="link_ca625ae68e4d4a58f9ba859ff3420557_e5b1c7fcc1453c77b2f0388027659c6e"><path codeLine="42" d="M1318.5,61.7 C1318.5,100.95 1318.5,179.61 1318.5,218.89 " fill="none" id="ca625ae68e4d4a58f9ba859ff3420557-e5b1c7fcc1453c77b2f0388027659c6e" style="stroke:#181818;stroke-width:1.0;"/></g><!--link e5b1c7fcc1453c77b2f0388027659c6e to 1624c420083928ef3e240dd88f2e52f0--><g id="link_e5b1c7fcc1453c77b2f0388027659c6e_1624c420083928ef3e240dd88f2e52f0"><path codeLine="43" d="M1318.5,267.56 C1318.5,304.08 1318.5,373.14 1318.5,396.29 " fill="none" id="e5b1c7fcc1453c77b2f0388027659c6e-1624c420083928ef3e240dd88f2e52f0" style="stroke:#181818;stroke-width:1.0;"/><text fill="#000000" font-family="sans-serif" font-size="13" lengthAdjust="spacing" textLength="20" x="1319.5" y="342.1469">tcp</text></g><!--link de82fbad4c9eebe0bd6d2fe66a3fe0aa to eec695b1c6be435e7982afe506db7e49--><g id="link_de82fbad4c9eebe0bd6d2fe66a3fe0aa_eec695b1c6be435e7982afe506db7e49"><path codeLine="44" d="M1523.5,564.43 C1523.5,603.15 1523.5,679.9 1523.5,715.59 " fill="none" id="de82fbad4c9eebe0bd6d2fe66a3fe0aa-eec695b1c6be435e7982afe506db7e49" style="stroke:#181818;stroke-width:1.0;"/><text fill="#000000" font-family="sans-serif" font-size="13" lengthAdjust="spacing" textLength="13" x="1524.5" y="612.1469">ro</text></g><!--link ca625ae68e4d4a58f9ba859ff3420557 to de82fbad4c9eebe0bd6d2fe66a3fe0aa--><g id="link_ca625ae68e4d4a58f9ba859ff3420557_de82fbad4c9eebe0bd6d2fe66a3fe0aa"><path codeLine="45" d="M1404.55,61.79 C1436.06,74.81 1468.79,94.47 1488.5,123.59 C1573.69,249.49 1543.8814,442.5436 1529.9814,509.9736 " fill="none" id="ca625ae68e4d4a58f9ba859ff3420557-to-de82fbad4c9eebe0bd6d2fe66a3fe0aa" style="stroke:#181818;stroke-width:1.0;stroke-dasharray:7.0,7.0;"/><polygon fill="#181818" points="1528.77,515.85,1534.5047,507.8429,1529.7795,510.953,1526.6694,506.2278,1528.77,515.85" style="stroke:#181818;stroke-width:1.0;"/><text fill="#000000" font-family="sans-serif" font-size="13" lengthAdjust="spacing" textLength="23" x="1546.5" y="342.1469">use</text></g><!--reverse link d9fe74bd71c5f1efd83d8f6cfdd7bef5 to d9c0e52dd15274d51041b489c7cea0ad--><g id="link_d9fe74bd71c5f1efd83d8f6cfdd7bef5_d9c0e52dd15274d51041b489c7cea0ad"><path codeLine="46" d="M164.5,74.84 C164.5,115.86 164.5,181.87 164.5,218.89 " fill="none" id="d9fe74bd71c5f1efd83d8f6cfdd7bef5-backto-d9c0e52dd15274d51041b489c7cea0ad" style="stroke:#181818;stroke-width:1.0;"/><polygon fill="#181818" points="164.5,68.84,160.5,77.84,164.5,73.84,168.5,77.84,164.5,68.84" style="stroke:#181818;stroke-width:1.0;"/><text fill="#000000" font-family="sans-serif" font-size="13" lengthAdjust="spacing" textLength="60" x="165.5" y="111.6569">alias:['ui']</text></g><!--reverse link cab64c5af73a02ce213c72c614ccdc8f to d9c0e52dd15274d51041b489c7cea0ad--><g id="link_cab64c5af73a02ce213c72c614ccdc8f_d9c0e52dd15274d51041b489c7cea0ad"><path codeLine="47" d="M368.7821,72.8908 C319.2621,113.9708 237.23,182.01 192.69,218.95 " fill="none" id="cab64c5af73a02ce213c72c614ccdc8f-backto-d9c0e52dd15274d51041b489c7cea0ad" style="stroke:#181818;stroke-width:1.0;"/><polygon fill="#181818" points="373.4,69.06,363.9193,71.7277,369.5518,72.2524,369.0271,77.8848,373.4,69.06" style="stroke:#181818;stroke-width:1.0;"/></g><!--link 267de027b65a807d2138ee534426efa5 to 587516af1efac0b9293f31639c6c31f3--><g id="link_267de027b65a807d2138ee534426efa5_587516af1efac0b9293f31639c6c31f3"><path codeLine="49" d="M962.45,544.24 C985.6,552.92 1047.7,579.5 1076.5,624.08 C1078.165,626.6569 1079.697,629.3353 1081.1062,632.0929 C1081.8107,633.4718 1082.4846,634.8704 1083.1289,636.2861 C1083.4511,636.994 1083.7659,637.7061 1084.0735,638.4221 C1084.2273,638.7801 1084.3793,639.1391 1084.5295,639.499 C1084.6046,639.679 1082.3967,634.3103 1082.4709,634.4908 " fill="none" id="267de027b65a807d2138ee534426efa5-to-587516af1efac0b9293f31639c6c31f3" style="stroke:#181818;stroke-width:1.0;"/><polygon fill="#181818" points="1084.7535,640.0396,1085.0289,630.1946,1082.8514,635.4156,1077.6304,633.2381,1084.7535,640.0396" style="stroke:#181818;stroke-width:1.0;"/></g><!--SRC=[ZLPDQoD74BtFhnXqsKGWkx-gFypYKyWn2I6ttILKTrKvmjAC8urmGjZ_dfwHxSYBGni4WfcgrrMlNhrftEt6n_tsh-rmrmqZSRzQht_yzUUVVjjCMpwirv-7Zny7dXx7m_tjxQh7Oqz9EBXCGHSGpKBHKXHVX2Xa5dY1oLZk_nUbOFQk04gmg4nXesq9fdZjIg4IvGK5QRyTta8msbWZ9WM4-iFWR4mE5JkCIaknBmYdWLYs0zDRAC3Wh05VN5HO80IoIeANf8tY7DmJoY-7SS_J7tmwBbdiH2blOuwe5VkK7Fk0OYHQGw1B_q_Nbt7_C0uyJ7rMsHlhEM9sAHbLpoAjnDea6gF7_bEtNZ-ydB1UTzrsZtTyqyyFh_zxqntuEE5XkkbFmuwFnyrn6XyUcBhkI_VTz_qggQJEx0evSjPv2yPdTfHz9XjC0asLdTXLaArWcVhLDK_bueWbFKVhGHBKsTPkH4Gh2jQHrYZWbBfC_oRLUqRdDTJM848ofC4o5vCXPa7ItTSdHd_02McyEmyX1j0UPpLXKJcPPCLgRrFnnMgnh-aiKcc773Yp4e-Wv_6pinwJ9Q2uq4bd-0ikdvvSF_tFd7rzpPhnWLYPa3rK3GMgcepCO9qplbO6ItGynr96AuvKpe3efGZgI6YAbe0fXETOTOxMthZYZ5BH9XDPB1kdY68Kms3aaj2hRnarw8WobnoyWIhLwAC5gl89585HBdBdpD_d_fP4rCx54ZDGdISIsXIvJf55apKXb5U7tXrGS3Wdrddv15cNMJeMEAHeK1YKfygwIrrJq1lQj3NO2bXGcZDfQVMCqk2ml-bNXt7LRkpgYgwkRfiBCkETZhpgMkkmLDSQr5BTuwfhkixcjBbjEkkCXhij7cy-VPYral787xwy5xtbkfVe-x-FV-xU3zsoualeqt0_Z8_335wmpXJPnweWXn0bPQnKYzYwS01XeRZoNps34P9ENgSGRSYKfLe8iROSkrR0Wj9Q-hd2gJoyioQULon8ATf17L78rGXiZ5Ni7ghpSTSAM51Qrl9I4t4qaf5SIJnRPoPFHjZxsXChF2zjQ_MV5wNPuDEYD0zzNXHAHTLwgIw82QwAGZcTNKmb54Q5T9P8w-xnIYBRMHtlmtttRQJinjERzmZog94u-KfJiZR4-YsApbDr6oMWGjSoifd-s-QNy5y0]--></g></svg>