<?xml version="1.0" encoding="us-ascii" standalone="no"?><svg xmlns="http://www.w3.org/2000/svg" xmlns:xlink="http://www.w3.org/1999/xlink" contentStyleType="text/css" height="932px" preserveAspectRatio="none" style="width:1915px;height:932px;background:#FFFFFF;" version="1.1" viewBox="0 0 1915 932" width="1915px" zoomAndPan="magnify"><defs/><g><!--cluster d9c0e52dd15274d51041b489c7cea0ad--><g id="cluster_d9c0e52dd15274d51041b489c7cea0ad"><polygon fill="none" points="333,224.19,343,214.19,834,214.19,834,806.56,824,816.56,333,816.56,333,224.19" style="stroke:#181818;stroke-width:1.0;"/><line style="stroke:#181818;stroke-width:1.0;" x1="824" x2="834" y1="224.19" y2="214.19"/><line style="stroke:#181818;stroke-width:1.0;" x1="333" x2="824" y1="224.19" y2="224.19"/><line style="stroke:#181818;stroke-width:1.0;" x1="824" x2="824" y1="224.19" y2="816.56"/><text fill="#000000" font-family="sans-serif" font-size="14" font-weight="bold" lengthAdjust="spacing" textLength="62" x="548.5" y="240.1851">Grafana</text></g><!--cluster 587516af1efac0b9293f31639c6c31f3--><g id="cluster_587516af1efac0b9293f31639c6c31f3"><polygon fill="none" points="1656,16,1666,6,1898,6,1898,147.19,1888,157.19,1656,157.19,1656,16" style="stroke:#181818;stroke-width:1.0;"/><line style="stroke:#181818;stroke-width:1.0;" x1="1888" x2="1898" y1="16" y2="6"/><line style="stroke:#181818;stroke-width:1.0;" x1="1656" x2="1888" y1="16" y2="16"/><line style="stroke:#181818;stroke-width:1.0;" x1="1888" x2="1888" y1="16" y2="157.19"/><text fill="#000000" font-family="sans-serif" font-size="14" font-weight="bold" lengthAdjust="spacing" textLength="65" x="1740.5" y="31.9951">Datadog</text></g><!--entity ca625ae68e4d4a58f9ba859ff3420557--><g id="elem_ca625ae68e4d4a58f9ba859ff3420557"><rect fill="#F1F1F1" height="144.0781" rx="2.5" ry="2.5" style="stroke:#181818;stroke-width:0.5;" width="434" x="357" y="262.19"/><rect fill="#F1F1F1" height="10" style="stroke:#181818;stroke-width:0.5;" width="15" x="771" y="267.19"/><rect fill="#F1F1F1" height="2" style="stroke:#181818;stroke-width:0.5;" width="4" x="769" y="269.19"/><rect fill="#F1F1F1" height="2" style="stroke:#181818;stroke-width:0.5;" width="4" x="769" y="273.19"/><text fill="#000000" font-family="sans-serif" font-size="14" font-weight="bold" lengthAdjust="spacing" textLength="60" x="372" y="295.1851">grafana</text><text fill="#000000" font-family="sans-serif" font-size="14" lengthAdjust="spacing" textLength="4" x="372" y="311.482">&#160;</text><text fill="#000000" font-family="sans-serif" font-size="14" lengthAdjust="spacing" textLength="158" x="372" y="327.7789">image: grafana/grafana</text><text fill="#000000" font-family="sans-serif" font-size="14" lengthAdjust="spacing" textLength="163" x="372" y="344.0757">restart: unless-stopped</text><text fill="#000000" font-family="sans-serif" font-size="14" lengthAdjust="spacing" textLength="342" x="372" y="360.3726">environment: GF_SECURITY_ADMIN_USER=admin</text><text fill="#000000" font-family="sans-serif" font-size="14" lengthAdjust="spacing" textLength="394" x="372" y="376.6695">environment: GF_SECURITY_ADMIN_PASSWORD=grafana</text><text fill="#000000" font-family="sans-serif" font-size="14" lengthAdjust="spacing" textLength="4" x="372" y="392.9664">&#160;</text></g><!--entity 9f18a5ea59196197837bdbfebede13e8--><g id="elem_9f18a5ea59196197837bdbfebede13e8"><ellipse cx="531" cy="512.27" fill="#F1F1F1" rx="8" ry="8" style="stroke:#181818;stroke-width:0.5;"/><text fill="#000000" font-family="sans-serif" font-size="14" lengthAdjust="spacing" textLength="107" x="477.5" y="542.2651">127.0.0.1:8080</text></g><!--entity e5b1c7fcc1453c77b2f0388027659c6e--><g id="elem_e5b1c7fcc1453c77b2f0388027659c6e"><ellipse cx="709" cy="512.27" fill="#F1F1F1" rx="8" ry="8" style="stroke:#181818;stroke-width:0.5;"/><text fill="#000000" font-family="sans-serif" font-size="14" lengthAdjust="spacing" textLength="148" x="635" y="542.2651">127.0.0.1:8000-9000</text></g><!--entity de82fbad4c9eebe0bd6d2fe66a3fe0aa--><g id="elem_de82fbad4c9eebe0bd6d2fe66a3fe0aa"><rect fill="#F1F1F1" height="39.2969" rx="2.5" ry="2.5" style="stroke:#181818;stroke-width:0.5;" width="292" x="357" y="753.27"/><polygon fill="#F1F1F1" points="632,758.27,632,772.27,644,772.27,644,764.27,638,758.27,632,758.27" style="stroke:#181818;stroke-width:0.5;"/><line style="stroke:#181818;stroke-width:0.5;" x1="638" x2="638" y1="758.27" y2="764.27"/><line style="stroke:#181818;stroke-width:0.5;" x1="644" x2="638" y1="764.27" y2="764.27"/><text fill="#000000" font-family="sans-serif" font-size="14" lengthAdjust="spacing" textLength="262" x="367" y="779.2651">/etc/grafana/provisioning/datasources</text></g><!--entity cfb8a5b7ebe0f6a517a5ae436a93d5d8--><g id="elem_cfb8a5b7ebe0f6a517a5ae436a93d5d8"><rect fill="#F1F1F1" height="95.1875" rx="2.5" ry="2.5" style="stroke:#181818;stroke-width:0.5;" width="210" x="1672" y="46"/><rect fill="#F1F1F1" height="10" style="stroke:#181818;stroke-width:0.5;" width="15" x="1862" y="51"/><rect fill="#F1F1F1" height="2" style="stroke:#181818;stroke-width:0.5;" width="4" x="1860" y="53"/><rect fill="#F1F1F1" height="2" style="stroke:#181818;stroke-width:0.5;" width="4" x="1860" y="57"/><text fill="#000000" font-family="sans-serif" font-size="14" font-weight="bold" lengthAdjust="spacing" textLength="64" x="1687" y="78.9951">datadog</text><text fill="#000000" font-family="sans-serif" font-size="14" lengthAdjust="spacing" textLength="4" x="1687" y="95.292">&#160;</text><text fill="#000000" font-family="sans-serif" font-size="14" lengthAdjust="spacing" textLength="170" x="1687" y="111.5889">image: datadog/datadog</text><text fill="#000000" font-family="sans-serif" font-size="14" lengthAdjust="spacing" textLength="4" x="1687" y="127.8857">&#160;</text></g><!--entity d9fe74bd71c5f1efd83d8f6cfdd7bef5--><g id="elem_d9fe74bd71c5f1efd83d8f6cfdd7bef5"><polygon fill="#F1F1F1" points="769,72.3,779,62.3,883,62.3,883,114.8938,873,124.8938,769,124.8938,769,72.3" style="stroke:#181818;stroke-width:0.5;"/><line style="stroke:#181818;stroke-width:0.5;" x1="873" x2="883" y1="72.3" y2="62.3"/><line style="stroke:#181818;stroke-width:0.5;" x1="769" x2="873" y1="72.3" y2="72.3"/><line style="stroke:#181818;stroke-width:0.5;" x1="873" x2="873" y1="72.3" y2="124.8938"/><text fill="#000000" font-family="sans-serif" font-size="14" font-weight="bold" lengthAdjust="spacing" textLength="72" x="784" y="95.2951">front-tier</text><text fill="#000000" font-family="sans-serif" font-size="14" lengthAdjust="spacing" textLength="74" x="784" y="111.592">&#171;network&#187;</text></g><!--entity cab64c5af73a02ce213c72c614ccdc8f--><g id="elem_cab64c5af73a02ce213c72c614ccdc8f"><polygon fill="#F1F1F1" points="395,72.3,405,62.3,509,62.3,509,114.8938,499,124.8938,395,124.8938,395,72.3" style="stroke:#181818;stroke-width:0.5;"/><line style="stroke:#181818;stroke-width:0.5;" x1="499" x2="509" y1="72.3" y2="62.3"/><line style="stroke:#181818;stroke-width:0.5;" x1="395" x2="499" y1="72.3" y2="72.3"/><line style="stroke:#181818;stroke-width:0.5;" x1="499" x2="499" y1="72.3" y2="124.8938"/><text fill="#000000" font-family="sans-serif" font-size="14" font-weight="bold" lengthAdjust="spacing" textLength="70" x="410" y="95.2951">back-tier</text><text fill="#000000" font-family="sans-serif" font-size="14" lengthAdjust="spacing" textLength="74" x="410" y="111.592">&#171;network&#187;</text></g><!--entity 21232f297a57a5a743894a0e4a801fc3--><g id="elem_21232f297a57a5a743894a0e4a801fc3"><polygon fill="#F1F1F1" points="177,72.3,187,62.3,291,62.3,291,114.8938,281,124.8938,177,124.8938,177,72.3" style="stroke:#181818;stroke-width:0.5;"/><line style="stroke:#181818;stroke-width:0.5;" x1="281" x2="291" y1="72.3" y2="62.3"/><line style="stroke:#181818;stroke-width:0.5;" x1="177" x2="281" y1="72.3" y2="72.3"/><line style="stroke:#181818;stroke-width:0.5;" x1="281" x2="281" y1="72.3" y2="124.8938"/><text fill="#000000" font-family="sans-serif" font-size="14" font-weight="bold" lengthAdjust="spacing" textLength="47" x="192" y="95.2951">admin</text><text fill="#000000" font-family="sans-serif" font-size="14" lengthAdjust="spacing" textLength="74" x="192" y="111.592">&#171;network&#187;</text></g><!--entity 5e543256c480ac577d30f76f9120eb74--><g id="elem_5e543256c480ac577d30f76f9120eb74"><polygon fill="#F1F1F1" points="22,72.3,32,62.3,142,62.3,142,114.8938,132,124.8938,22,124.8938,22,72.3" style="stroke:#181818;stroke-width:0.5;"/><line style="stroke:#181818;stroke-width:0.5;" x1="132" x2="142" y1="72.3" y2="62.3"/><line style="stroke:#181818;stroke-width:0.5;" x1="22" x2="132" y1="72.3" y2="72.3"/><line style="stroke:#181818;stroke-width:0.5;" x1="132" x2="132" y1="72.3" y2="124.8938"/><text fill="#000000" font-family="sans-serif" font-size="14" font-weight="bold" lengthAdjust="spacing" textLength="80" x="37" y="95.2951">undefined</text><text fill="#000000" font-family="sans-serif" font-size="14" lengthAdjust="spacing" textLength="74" x="37" y="111.592">&#171;network&#187;</text></g><!--entity 267de027b65a807d2138ee534426efa5--><g id="elem_267de027b65a807d2138ee534426efa5"><ellipse cx="1125" cy="512.27" fill="#F1F1F1" rx="8" ry="8" style="stroke:#181818;stroke-width:0.5;"/><text fill="#000000" font-family="sans-serif" font-size="14" lengthAdjust="spacing" textLength="36" x="1107" y="542.2651">9090</text></g><!--entity dba3f4d0bb5aa6fcfa18da2c1f7a9775--><g id="elem_dba3f4d0bb5aa6fcfa18da2c1f7a9775"><ellipse cx="885" cy="647.27" fill="#F1F1F1" rx="8" ry="8" style="stroke:#181818;stroke-width:0.5;"/><text fill="#000000" font-family="sans-serif" font-size="14" lengthAdjust="spacing" textLength="18" x="876" y="677.2651">80</text></g><!--entity 1624c420083928ef3e240dd88f2e52f0--><g id="elem_1624c420083928ef3e240dd88f2e52f0"><ellipse cx="974" cy="647.27" fill="#F1F1F1" rx="8" ry="8" style="stroke:#181818;stroke-width:0.5;"/><text fill="#000000" font-family="sans-serif" font-size="14" lengthAdjust="spacing" textLength="36" x="956" y="677.2651">8000</text></g><!--entity 2a4ddbecb762532586835d0f37d85eaf--><g id="elem_2a4ddbecb762532586835d0f37d85eaf"><rect fill="#F1F1F1" height="39.2969" rx="2.5" ry="2.5" style="stroke:#181818;stroke-width:0.5;" width="124" x="1196" y="753.27"/><polygon fill="#F1F1F1" points="1303,758.27,1303,772.27,1315,772.27,1315,764.27,1309,758.27,1303,758.27" style="stroke:#181818;stroke-width:0.5;"/><line style="stroke:#181818;stroke-width:0.5;" x1="1309" x2="1309" y1="758.27" y2="764.27"/><line style="stroke:#181818;stroke-width:0.5;" x1="1315" x2="1309" y1="764.27" y2="764.27"/><text fill="#000000" font-family="sans-serif" font-size="14" lengthAdjust="spacing" textLength="94" x="1206" y="779.2651">./prometheus</text></g><!--entity a1448c8b5db83ada398e734ef1d3277c--><g id="elem_a1448c8b5db83ada398e734ef1d3277c"><rect fill="#F1F1F1" height="39.2969" rx="2.5" ry="2.5" style="stroke:#181818;stroke-width:0.5;" width="103" x="1539.5" y="753.27"/><polygon fill="#F1F1F1" points="1625.5,758.27,1625.5,772.27,1637.5,772.27,1637.5,764.27,1631.5,758.27,1625.5,758.27" style="stroke:#181818;stroke-width:0.5;"/><line style="stroke:#181818;stroke-width:0.5;" x1="1631.5" x2="1631.5" y1="758.27" y2="764.27"/><line style="stroke:#181818;stroke-width:0.5;" x1="1637.5" x2="1631.5" y1="764.27" y2="764.27"/><text fill="#000000" font-family="sans-serif" font-size="14" lengthAdjust="spacing" textLength="73" x="1549.5" y="779.2651">prom_data</text></g><!--entity eec695b1c6be435e7982afe506db7e49--><g id="elem_eec695b1c6be435e7982afe506db7e49"><rect fill="#F1F1F1" height="39.2969" rx="2.5" ry="2.5" style="stroke:#181818;stroke-width:0.5;" width="90" x="458" y="887.56"/><polygon fill="#F1F1F1" points="531,892.56,531,906.56,543,906.56,543,898.56,537,892.56,531,892.56" style="stroke:#181818;stroke-width:0.5;"/><line style="stroke:#181818;stroke-width:0.5;" x1="537" x2="537" y1="892.56" y2="898.56"/><line style="stroke:#181818;stroke-width:0.5;" x1="543" x2="537" y1="898.56" y2="898.56"/><text fill="#000000" font-family="sans-serif" font-size="14" lengthAdjust="spacing" textLength="60" x="468" y="913.5551">./grafana</text></g><!--class b0b6236e8ab49920c48d10f339f1a86a--><g id="elem_b0b6236e8ab49920c48d10f339f1a86a"><rect fill="#F1F1F1" height="48" id="b0b6236e8ab49920c48d10f339f1a86a" rx="2.5" ry="2.5" style="stroke:#181818;stroke-width:0.5;" width="306" x="1182" y="69.59"/><ellipse cx="1197" cy="85.59" fill="#ADD1B2" rx="11" ry="11" style="stroke:#181818;stroke-width:1.0;"/><path d="M1199.9688,91.2306 Q1199.3906,91.5275 1198.75,91.6681 Q1198.1094,91.8244 1197.4063,91.8244 Q1194.9063,91.8244 1193.5781,90.1838 Q1192.2656,88.5275 1192.2656,85.4025 Q1192.2656,82.2775 1193.5781,80.6213 Q1194.9063,78.965 1197.4063,78.965 Q1198.1094,78.965 1198.75,79.1213 Q1199.4063,79.2775 1199.9688,79.5744 L1199.9688,82.2931 Q1199.3438,81.715 1198.75,81.4494 Q1198.1563,81.1681 1197.5313,81.1681 Q1196.1875,81.1681 1195.5,82.2463 Q1194.8125,83.3088 1194.8125,85.4025 Q1194.8125,87.4963 1195.5,88.5744 Q1196.1875,89.6369 1197.5313,89.6369 Q1198.1563,89.6369 1198.75,89.3713 Q1199.3438,89.09 1199.9688,88.5119 L1199.9688,91.2306 Z " fill="#000000"/><text fill="#000000" font-family="sans-serif" font-size="14" lengthAdjust="spacing" textLength="274" x="1211" y="90.4367">b0b6236e8ab49920c48d10f339f1a86a</text><line style="stroke:#181818;stroke-width:0.5;" x1="1183" x2="1487" y1="101.59" y2="101.59"/><line style="stroke:#181818;stroke-width:0.5;" x1="1183" x2="1487" y1="109.59" y2="109.59"/></g><!--class cfd4d43463526be4db6bd372951d8018--><g id="elem_cfd4d43463526be4db6bd372951d8018"><rect fill="#F1F1F1" height="48" id="cfd4d43463526be4db6bd372951d8018" rx="2.5" ry="2.5" style="stroke:#181818;stroke-width:0.5;" width="314" x="968" y="310.23"/><ellipse cx="983" cy="326.23" fill="#ADD1B2" rx="11" ry="11" style="stroke:#181818;stroke-width:1.0;"/><path d="M985.9688,331.8706 Q985.3906,332.1675 984.75,332.3081 Q984.1094,332.4644 983.4063,332.4644 Q980.9063,332.4644 979.5781,330.8238 Q978.2656,329.1675 978.2656,326.0425 Q978.2656,322.9175 979.5781,321.2613 Q980.9063,319.605 983.4063,319.605 Q984.1094,319.605 984.75,319.7613 Q985.4063,319.9175 985.9688,320.2144 L985.9688,322.9331 Q985.3438,322.355 984.75,322.0894 Q984.1563,321.8081 983.5313,321.8081 Q982.1875,321.8081 981.5,322.8863 Q980.8125,323.9488 980.8125,326.0425 Q980.8125,328.1363 981.5,329.2144 Q982.1875,330.2769 983.5313,330.2769 Q984.1563,330.2769 984.75,330.0113 Q985.3438,329.73 985.9688,329.1519 L985.9688,331.8706 Z " fill="#000000"/><text fill="#000000" font-family="sans-serif" font-size="14" lengthAdjust="spacing" textLength="282" x="997" y="331.0767">cfd4d43463526be4db6bd372951d8018</text><line style="stroke:#181818;stroke-width:0.5;" x1="969" x2="1281" y1="342.23" y2="342.23"/><line style="stroke:#181818;stroke-width:0.5;" x1="969" x2="1281" y1="350.23" y2="350.23"/></g><!--class b8365f95fd8d51fff10d734d11af5400--><g id="elem_b8365f95fd8d51fff10d734d11af5400"><rect fill="#F1F1F1" height="48" id="b8365f95fd8d51fff10d734d11af5400" rx="2.5" ry="2.5" style="stroke:#181818;stroke-width:0.5;" width="289" x="1113.5" y="623.27"/><ellipse cx="1128.5" cy="639.27" fill="#ADD1B2" rx="11" ry="11" style="stroke:#181818;stroke-width:1.0;"/><path d="M1131.4688,644.9106 Q1130.8906,645.2075 1130.25,645.3481 Q1129.6094,645.5044 1128.9063,645.5044 Q1126.4063,645.5044 1125.0781,643.8638 Q1123.7656,642.2075 1123.7656,639.0825 Q1123.7656,635.9575 1125.0781,634.3013 Q1126.4063,632.645 1128.9063,632.645 Q1129.6094,632.645 1130.25,632.8013 Q1130.9063,632.9575 1131.4688,633.2544 L1131.4688,635.9731 Q1130.8438,635.395 1130.25,635.1294 Q1129.6563,634.8481 1129.0313,634.8481 Q1127.6875,634.8481 1127,635.9263 Q1126.3125,636.9888 1126.3125,639.0825 Q1126.3125,641.1763 1127,642.2544 Q1127.6875,643.3169 1129.0313,643.3169 Q1129.6563,643.3169 1130.25,643.0513 Q1130.8438,642.77 1131.4688,642.1919 L1131.4688,644.9106 Z " fill="#000000"/><text fill="#000000" font-family="sans-serif" font-size="14" lengthAdjust="spacing" textLength="257" x="1142.5" y="644.1167">b8365f95fd8d51fff10d734d11af5400</text><line style="stroke:#181818;stroke-width:0.5;" x1="1114.5" x2="1401.5" y1="655.27" y2="655.27"/><line style="stroke:#181818;stroke-width:0.5;" x1="1114.5" x2="1401.5" y1="663.27" y2="663.27"/></g><!--class 66ea46159f158592d153eec2b58bfad1--><g id="elem_66ea46159f158592d153eec2b58bfad1"><rect fill="#F1F1F1" height="48" id="66ea46159f158592d153eec2b58bfad1" rx="2.5" ry="2.5" style="stroke:#181818;stroke-width:0.5;" width="307" x="1437.5" y="623.27"/><ellipse cx="1452.5" cy="639.27" fill="#ADD1B2" rx="11" ry="11" style="stroke:#181818;stroke-width:1.0;"/><path d="M1455.4688,644.9106 Q1454.8906,645.2075 1454.25,645.3481 Q1453.6094,645.5044 1452.9063,645.5044 Q1450.4063,645.5044 1449.0781,643.8638 Q1447.7656,642.2075 1447.7656,639.0825 Q1447.7656,635.9575 1449.0781,634.3013 Q1450.4063,632.645 1452.9063,632.645 Q1453.6094,632.645 1454.25,632.8013 Q1454.9063,632.9575 1455.4688,633.2544 L1455.4688,635.9731 Q1454.8438,635.395 1454.25,635.1294 Q1453.6563,634.8481 1453.0313,634.8481 Q1451.6875,634.8481 1451,635.9263 Q1450.3125,636.9888 1450.3125,639.0825 Q1450.3125,641.1763 1451,642.2544 Q1451.6875,643.3169 1453.0313,643.3169 Q1453.6563,643.3169 1454.25,643.0513 Q1454.8438,642.77 1455.4688,642.1919 L1455.4688,644.9106 Z " fill="#000000"/><text fill="#000000" font-family="sans-serif" font-size="14" lengthAdjust="spacing" textLength="275" x="1466.5" y="644.1167">66ea46159f158592d153eec2b58bfad1</text><line style="stroke:#181818;stroke-width:0.5;" x1="1438.5" x2="1743.5" y1="655.27" y2="655.27"/><line style="stroke:#181818;stroke-width:0.5;" x1="1438.5" x2="1743.5" y1="663.27" y2="663.27"/></g><!--class e4f00638b8a10e6994e67af2f832d51c--><g id="elem_e4f00638b8a10e6994e67af2f832d51c"><rect fill="#F1F1F1" height="48" id="e4f00638b8a10e6994e67af2f832d51c" rx="2.5" ry="2.5" style="stroke:#181818;stroke-width:0.5;" width="302" x="7" y="310.23"/><ellipse cx="22" cy="326.23" fill="#ADD1B2" rx="11" ry="11" style="stroke:#181818;stroke-width:1.0;"/><path d="M24.9688,331.8706 Q24.3906,332.1675 23.75,332.3081 Q23.1094,332.4644 22.4063,332.4644 Q19.9063,332.4644 18.5781,330.8238 Q17.2656,329.1675 17.2656,326.0425 Q17.2656,322.9175 18.5781,321.2613 Q19.9063,319.605 22.4063,319.605 Q23.1094,319.605 23.75,319.7613 Q24.4063,319.9175 24.9688,320.2144 L24.9688,322.9331 Q24.3438,322.355 23.75,322.0894 Q23.1563,321.8081 22.5313,321.8081 Q21.1875,321.8081 20.5,322.8863 Q19.8125,323.9488 19.8125,326.0425 Q19.8125,328.1363 20.5,329.2144 Q21.1875,330.2769 22.5313,330.2769 Q23.1563,330.2769 23.75,330.0113 Q24.3438,329.73 24.9688,329.1519 L24.9688,331.8706 Z " fill="#000000"/><text fill="#000000" font-family="sans-serif" font-size="14" lengthAdjust="spacing" textLength="270" x="36" y="331.0767">e4f00638b8a10e6994e67af2f832d51c</text><line style="stroke:#181818;stroke-width:0.5;" x1="8" x2="308" y1="342.23" y2="342.23"/><line style="stroke:#181818;stroke-width:0.5;" x1="8" x2="308" y1="350.23" y2="350.23"/></g><!--entity 84aea25b168ead654f1c330a655e79b9--><g id="elem_84aea25b168ead654f1c330a655e79b9"><polygon fill="#F1F1F1" points="1523,72.3,1533,62.3,1637,62.3,1637,114.8938,1627,124.8938,1523,124.8938,1523,72.3" style="stroke:#181818;stroke-width:0.5;"/><line style="stroke:#181818;stroke-width:0.5;" x1="1627" x2="1637" y1="72.3" y2="62.3"/><line style="stroke:#181818;stroke-width:0.5;" x1="1523" x2="1627" y1="72.3" y2="72.3"/><line style="stroke:#181818;stroke-width:0.5;" x1="1627" x2="1627" y1="72.3" y2="124.8938"/><text fill="#000000" font-family="sans-serif" font-size="14" font-weight="bold" lengthAdjust="spacing" textLength="35" x="1538" y="95.2951">Test</text><text fill="#000000" font-family="sans-serif" font-size="14" lengthAdjust="spacing" textLength="74" x="1538" y="111.592">&#171;network&#187;</text></g><!--link b0b6236e8ab49920c48d10f339f1a86a to cfd4d43463526be4db6bd372951d8018--><g id="link_b0b6236e8ab49920c48d10f339f1a86a_cfd4d43463526be4db6bd372951d8018"><path codeLine="34" d="M1314.48,117.91 C1274.33,163.53 1185.82,264.12 1145.6,309.82 " fill="none" id="b0b6236e8ab49920c48d10f339f1a86a-cfd4d43463526be4db6bd372951d8018" style="stroke:#181818;stroke-width:1.0;"/></g><!--link cfd4d43463526be4db6bd372951d8018 to 267de027b65a807d2138ee534426efa5--><g id="link_cfd4d43463526be4db6bd372951d8018_267de027b65a807d2138ee534426efa5"><path codeLine="35" d="M1125,358.6 C1125,398.63 1125,478.42 1125,503.52 " fill="none" id="cfd4d43463526be4db6bd372951d8018-267de027b65a807d2138ee534426efa5" style="stroke:#181818;stroke-width:1.0;"/></g><!--link b8365f95fd8d51fff10d734d11af5400 to 2a4ddbecb762532586835d0f37d85eaf--><g id="link_b8365f95fd8d51fff10d734d11af5400_2a4ddbecb762532586835d0f37d85eaf"><path codeLine="36" d="M1258,671.52 C1258,695.03 1258,730.92 1258,752.81 " fill="none" id="b8365f95fd8d51fff10d734d11af5400-2a4ddbecb762532586835d0f37d85eaf" style="stroke:#181818;stroke-width:1.0;"/><text fill="#000000" font-family="sans-serif" font-size="13" lengthAdjust="spacing" textLength="13" x="1259" y="719.3369">ro</text></g><!--link b0b6236e8ab49920c48d10f339f1a86a to b8365f95fd8d51fff10d734d11af5400--><g id="link_b0b6236e8ab49920c48d10f339f1a86a_b8365f95fd8d51fff10d734d11af5400"><path codeLine="37" d="M1332.76,117.72 C1327.66,169.5 1314.39,298.69 1299,406.27 C1287.6,485.98 1271.5633,574.0623 1263.5433,616.9323 " fill="none" id="b0b6236e8ab49920c48d10f339f1a86a-to-b8365f95fd8d51fff10d734d11af5400" style="stroke:#181818;stroke-width:1.0;stroke-dasharray:7.0,7.0;"/><polygon fill="#181818" points="1262.44,622.83,1268.0268,614.719,1263.3594,617.9153,1260.1632,613.2479,1262.44,622.83" style="stroke:#181818;stroke-width:1.0;"/><text fill="#000000" font-family="sans-serif" font-size="13" lengthAdjust="spacing" textLength="23" x="1295" y="449.3369">use</text></g><!--link 66ea46159f158592d153eec2b58bfad1 to a1448c8b5db83ada398e734ef1d3277c--><g id="link_66ea46159f158592d153eec2b58bfad1_a1448c8b5db83ada398e734ef1d3277c"><path codeLine="38" d="M1591,671.52 C1591,695.03 1591,730.92 1591,752.81 " fill="none" id="66ea46159f158592d153eec2b58bfad1-a1448c8b5db83ada398e734ef1d3277c" style="stroke:#181818;stroke-width:1.0;"/><text fill="#000000" font-family="sans-serif" font-size="13" lengthAdjust="spacing" textLength="14" x="1592" y="719.3369">rw</text></g><!--link b0b6236e8ab49920c48d10f339f1a86a to 66ea46159f158592d153eec2b58bfad1--><g id="link_b0b6236e8ab49920c48d10f339f1a86a_66ea46159f158592d153eec2b58bfad1"><path codeLine="39" d="M1345.84,117.95 C1387.66,208.08 1535.8046,527.3174 1577.6346,617.4674 " fill="none" id="b0b6236e8ab49920c48d10f339f1a86a-to-66ea46159f158592d153eec2b58bfad1" style="stroke:#181818;stroke-width:1.0;stroke-dasharray:7.0,7.0;"/><polygon fill="#181818" points="1580.16,622.91,1580.0003,613.0624,1578.0555,618.3745,1572.7435,616.4296,1580.16,622.91" style="stroke:#181818;stroke-width:1.0;"/><text fill="#000000" font-family="sans-serif" font-size="13" lengthAdjust="spacing" textLength="23" x="1501" y="449.3369">use</text></g><!--reverse link cab64c5af73a02ce213c72c614ccdc8f to e4f00638b8a10e6994e67af2f832d51c--><g id="link_cab64c5af73a02ce213c72c614ccdc8f_e4f00638b8a10e6994e67af2f832d51c"><path codeLine="40" d="M409.5113,129.0811 C349.9513,177.4211 240.3,266.43 186.86,309.8 " fill="none" id="cab64c5af73a02ce213c72c614ccdc8f-backto-e4f00638b8a10e6994e67af2f832d51c" style="stroke:#181818;stroke-width:1.0;"/><polygon fill="#181818" points="414.17,125.3,404.6612,127.8658,410.2878,128.4509,409.7027,134.0774,414.17,125.3" style="stroke:#181818;stroke-width:1.0;"/><text fill="#000000" font-family="sans-serif" font-size="13" lengthAdjust="spacing" textLength="109" x="350" y="186.2569">alias:['database']</text></g><!--reverse link 21232f297a57a5a743894a0e4a801fc3 to e4f00638b8a10e6994e67af2f832d51c--><g id="link_21232f297a57a5a743894a0e4a801fc3_e4f00638b8a10e6994e67af2f832d51c"><path codeLine="41" d="M222.3998,131.0172 C207.0098,179.3572 179.27,266.43 165.46,309.8 " fill="none" id="21232f297a57a5a743894a0e4a801fc3-backto-e4f00638b8a10e6994e67af2f832d51c" style="stroke:#181818;stroke-width:1.0;"/><polygon fill="#181818" points="224.22,125.3,217.6782,132.6624,222.7032,130.0644,225.3012,135.0893,224.22,125.3" style="stroke:#181818;stroke-width:1.0;"/><text fill="#000000" font-family="sans-serif" font-size="13" lengthAdjust="spacing" textLength="87" x="209" y="186.2569">alias:['mysql']</text></g><!--reverse link 5e543256c480ac577d30f76f9120eb74 to e4f00638b8a10e6994e67af2f832d51c--><g id="link_5e543256c480ac577d30f76f9120eb74_e4f00638b8a10e6994e67af2f832d51c"><path codeLine="42" d="M82.4661,131.205 C83.2461,150.205 85.22,168.96 91,190.19 C103.11,234.64 128.18,282.35 143.98,309.9 " fill="none" id="5e543256c480ac577d30f76f9120eb74-backto-e4f00638b8a10e6994e67af2f832d51c" style="stroke:#181818;stroke-width:1.0;"/><polygon fill="#181818" points="82.22,125.21,78.5925,134.3665,82.4251,130.2058,86.5858,134.0384,82.22,125.21" style="stroke:#181818;stroke-width:1.0;"/><text fill="#000000" font-family="sans-serif" font-size="13" lengthAdjust="spacing" textLength="105" x="92" y="186.2569">alias:['unknown']</text></g><!--link ca625ae68e4d4a58f9ba859ff3420557 to 9f18a5ea59196197837bdbfebede13e8--><g id="link_ca625ae68e4d4a58f9ba859ff3420557_9f18a5ea59196197837bdbfebede13e8"><path codeLine="43" d="M556.57,406.58 C547.35,444.32 537.1,486.3 532.92,503.39 " fill="none" id="ca625ae68e4d4a58f9ba859ff3420557-9f18a5ea59196197837bdbfebede13e8" style="stroke:#181818;stroke-width:1.0;"/></g><!--link 9f18a5ea59196197837bdbfebede13e8 to dba3f4d0bb5aa6fcfa18da2c1f7a9775--><g id="link_9f18a5ea59196197837bdbfebede13e8_dba3f4d0bb5aa6fcfa18da2c1f7a9775"><path codeLine="44" d="M539.75,516.55 C588.62,534.91 827.34,624.6 876.24,642.97 " fill="none" id="9f18a5ea59196197837bdbfebede13e8-dba3f4d0bb5aa6fcfa18da2c1f7a9775" style="stroke:#181818;stroke-width:1.0;"/><text fill="#000000" font-family="sans-serif" font-size="13" lengthAdjust="spacing" textLength="20" x="731" y="584.3369">tcp</text></g><!--link ca625ae68e4d4a58f9ba859ff3420557 to e5b1c7fcc1453c77b2f0388027659c6e--><g id="link_ca625ae68e4d4a58f9ba859ff3420557_e5b1c7fcc1453c77b2f0388027659c6e"><path codeLine="45" d="M628.72,406.58 C657.66,444.32 689.86,486.3 702.96,503.39 " fill="none" id="ca625ae68e4d4a58f9ba859ff3420557-e5b1c7fcc1453c77b2f0388027659c6e" style="stroke:#181818;stroke-width:1.0;"/></g><!--link e5b1c7fcc1453c77b2f0388027659c6e to 1624c420083928ef3e240dd88f2e52f0--><g id="link_e5b1c7fcc1453c77b2f0388027659c6e_1624c420083928ef3e240dd88f2e52f0"><path codeLine="46" d="M717.63,513.8 C747.5,516.04 848.28,526.66 915,571.27 C941.72,589.13 961.82,622.99 970,638.34 " fill="none" id="e5b1c7fcc1453c77b2f0388027659c6e-1624c420083928ef3e240dd88f2e52f0" style="stroke:#181818;stroke-width:1.0;"/><text fill="#000000" font-family="sans-serif" font-size="13" lengthAdjust="spacing" textLength="20" x="935" y="584.3369">tcp</text></g><!--link de82fbad4c9eebe0bd6d2fe66a3fe0aa to eec695b1c6be435e7982afe506db7e49--><g id="link_de82fbad4c9eebe0bd6d2fe66a3fe0aa_eec695b1c6be435e7982afe506db7e49"><path codeLine="47" d="M503,792.87 C503,818.02 503,862.16 503,887.29 " fill="none" id="de82fbad4c9eebe0bd6d2fe66a3fe0aa-eec695b1c6be435e7982afe506db7e49" style="stroke:#181818;stroke-width:1.0;"/><text fill="#000000" font-family="sans-serif" font-size="13" lengthAdjust="spacing" textLength="13" x="504" y="853.6269">ro</text></g><!--link ca625ae68e4d4a58f9ba859ff3420557 to de82fbad4c9eebe0bd6d2fe66a3fe0aa--><g id="link_ca625ae68e4d4a58f9ba859ff3420557_de82fbad4c9eebe0bd6d2fe66a3fe0aa"><path codeLine="48" d="M498.77,406.41 C479.81,428.98 462.01,455.37 452,483.27 C417.01,580.74 467.2347,700.2546 490.3847,747.3846 " fill="none" id="ca625ae68e4d4a58f9ba859ff3420557-to-de82fbad4c9eebe0bd6d2fe66a3fe0aa" style="stroke:#181818;stroke-width:1.0;stroke-dasharray:7.0,7.0;"/><polygon fill="#181818" points="493.03,752.77,492.6523,742.9284,490.8256,748.2822,485.4718,746.4554,493.03,752.77" style="stroke:#181818;stroke-width:1.0;"/><text fill="#000000" font-family="sans-serif" font-size="13" lengthAdjust="spacing" textLength="23" x="444" y="584.3369">use</text></g><!--reverse link d9fe74bd71c5f1efd83d8f6cfdd7bef5 to d9c0e52dd15274d51041b489c7cea0ad--><g id="link_d9fe74bd71c5f1efd83d8f6cfdd7bef5_d9c0e52dd15274d51041b489c7cea0ad"><path codeLine="49" d="M826,131.3 C826,147.1625 826,161.81 826,183.9267 C826,189.4559 826,195.0769 826,200.7379 C826,203.5684 826,206.409 826,209.253 C826,210.675 826,212.0979 826,213.5209 " fill="none" id="d9fe74bd71c5f1efd83d8f6cfdd7bef5-backto-d9c0e52dd15274d51041b489c7cea0ad" style="stroke:#181818;stroke-width:1.0;"/><polygon fill="#181818" points="826,125.3,822,134.3,826,130.3,830,134.3,826,125.3" style="stroke:#181818;stroke-width:1.0;"/><text fill="#000000" font-family="sans-serif" font-size="13" lengthAdjust="spacing" textLength="60" x="827" y="186.2569">alias:['ui']</text></g><!--reverse link cab64c5af73a02ce213c72c614ccdc8f to d9c0e52dd15274d51041b489c7cea0ad--><g id="link_cab64c5af73a02ce213c72c614ccdc8f_d9c0e52dd15274d51041b489c7cea0ad"><path codeLine="50" d="M515.1213,109.0907 C610.4113,131.4507 787.23,175.34 807,198.19 C809.44,201.0094 811.6517,203.993 813.6539,207.1099 C814.655,208.6684 815.6037,210.2602 816.5025,211.8814 C816.7272,212.2868 816.9487,212.6939 817.1672,213.1029 C817.2764,213.3073 817.3849,213.5123 817.4926,213.7176 " fill="none" id="cab64c5af73a02ce213c72c614ccdc8f-backto-d9c0e52dd15274d51041b489c7cea0ad" style="stroke:#181818;stroke-width:1.0;"/><polygon fill="#181818" points="509.28,107.72,517.1282,113.6702,514.1478,108.8622,518.9558,105.8818,509.28,107.72" style="stroke:#181818;stroke-width:1.0;"/></g><!--SRC=[ZLRRRjj647tdLn1wIIj0yjulGc8WgDCW3xt0Jb0KQM3CxiouWYtI5QcuHP5_xvAI3ALrGKE4212pPsVEEJExS7VNFcpMVwwRcwffaUhPVCxRjkaN_Pgsy_blpSkN3VKFxVRs_7nMGrTZPF8cePVPiYJ6e36moupe4x5zX4cGR_yN9KDo9bjWhq6eJ4hgx5LsqkICEV0Z2k1ctJo5eAJIYbNqOCi3tkWG3GWo48Jah1yHTWqIhnl2fr0iMQELTTa40TbwZrgmTnob4fIyEQ2ytG930mS2iY2h4ALLtg2LmiXaGim-4mZ0-k-gpktclcsewKkXJbaW5yYW0Hiu9WWsCckZXBM-_bZDvpTx-FcygjORkA5LVVXoTdXNM-fwsFQhUjVSKTSjkhwzloUigFcyBd9jobQh-kttrrTllljm-UxzhzUlBtvuz-FrXwitbwz62gSYVtvzTVNBJvSNhuuxLf-gRxwjPrBvfIW_kGeYY960o3A09R1HHYUZ3zedJ4o9aAIcy9zrGYnY-HiNaqqoUyvP6biazqcnq248vPsDsL5LgbmpvBwUdL6VZmIStM_Rp-jktJR5gMS8FNJjRfkfsqj2GN42D3bIIKCaTAYOd0FD902gBmSTByf2R6_sqWTlfOF1mv15YYfgrjBfaaNMalM_TEHKYav-W6S7LWwc8wCTH8qMmwWZxk5FT3nyEJky1rQ_ZFn44VU4AEUHIld9sU9SZwKJ0f7LnYXNChDZz85vJAKWWo8b2-0uCyY0eB9a3z7xO-o1QkcKoSLb8kYe0h4cPGHY2AoAVrcSKBqS-DrG_pljzemgC8Y9SlB5lgL1WWlQec3jCHJf-MJjiF9wg6zS2DAOa4Eoc88611q3UMs89MhbVVvgqvkJjYBABWxcSAdGQid7e8392eU5THEh999Jsb60P69KehGiofAHBdw4uA1UuAB8XANFj77QgW48aqkelOfMOfaBePeA654cDIcrESlHbkbN1W0pIu6bIfGIs1eXzYWJ7DQhUhPjPzE5BPUuN9xNaviMl5r7iyev0kDacJBIbbcZogJIXLwLR4WCACVifeGQitjuVdQJcnwp8yD2E1rAFqb1BaP3pWCh3bgLkdAzs2tE9m-80Gxkrj2jFhuOp9UWenUVdei-TNYSec_-wlwuUpxqr8bo2hrhRflseHd09y-9GRF9oJiLCA9CJP4XmpxVFpEdoO4-5J2YJCsgnvocHlq-fubPSkoyoG8FtfxSzEZjoRl1Q96fAzHN5baFxdWUxhClLU_BRUAfsr0mGA0ASOKHG6SDowor06S73bFy1m00]--></g></svg>