<svg xmlns="http://www.w3.org/2000/svg" style="left: 0px; top: 0px; width: 100%; height: 100%; display: block; min-width: 839px; min-height: 710px;"><g><g/><g><g transform="translate(0.5,0.5)" style="visibility: visible; cursor: move;"><rect x="507.6" y="233.6" width="100" height="50" fill="#b5f5ff7f" stroke="#000000" pointer-events="all"/></g><g style="cursor: move;"><g fill="#774400" font-family="Arial,Helvetica" direction="" text-anchor="middle" font-size="11px"><rect fill="none" stroke="none" x="524" y="247" width="67" height="25" stroke-width="1" transform="translate(0.5, 0.5)"/><text x="557.6" y="256.6">Front-tier</text><text x="557.6" y="269.6">&lt;&lt;network&gt;&gt;</text></g></g><g transform="translate(0.5,0.5)" style="visibility: visible; cursor: move;"><rect x="357.6" y="233.6" width="100" height="50" fill="#b5f5ff7f" stroke="#000000" pointer-events="all"/></g><g style="cursor: move;"><g fill="#774400" font-family="Arial,Helvetica" direction="" text-anchor="middle" font-size="11px"><rect fill="none" stroke="none" x="374" y="247" width="67" height="25" stroke-width="1" transform="translate(0.5, 0.5)"/><text x="407.6" y="256.6">Back-tier</text><text x="407.6" y="269.6">&lt;&lt;network&gt;&gt;</text></g></g><g transform="translate(0.5,0.5)" style="visibility: visible; cursor: move;"><rect x="87.6" y="233.6" width="100" height="50" fill="#b5f5ff7f" stroke="#000000" pointer-events="all"/></g><g style="cursor: move;"><g fill="#774400" font-family="Arial,Helvetica" direction="" text-anchor="middle" font-size="11px"><rect fill="none" stroke="none" x="104" y="247" width="67" height="25" stroke-width="1" transform="translate(0.5, 0.5)"/><text x="137.6" y="256.6">Admin</text><text x="137.6" y="269.6">&lt;&lt;network&gt;&gt;</text></g></g><g transform="translate(0.5,0.5)" style="visibility: visible; cursor: move;"><rect x="227.6" y="233.6" width="100" height="50" fill="#b5f5ff7f" stroke="#000000" pointer-events="all"/></g><g style="cursor: move;"><g fill="#774400" font-family="Arial,Helvetica" direction="" text-anchor="middle" font-size="11px"><rect fill="none" stroke="none" x="244" y="247" width="67" height="25" stroke-width="1" transform="translate(0.5, 0.5)"/><text x="277.6" y="256.6">Undefined</text><text x="277.6" y="269.6">&lt;&lt;network&gt;&gt;</text></g></g><g transform="translate(0.5,0.5)" style="visibility: visible; cursor: move;"><rect x="87.6" y="433.6" width="210" height="230" fill="#f1f1f17f" stroke="#000000" pointer-events="all"/></g><g style="cursor: move;"><g fill="#774400" font-family="Arial,Helvetica" direction="" text-anchor="middle" font-size="11px"><rect fill="none" stroke="none" x="161" y="441" width="62" height="12" stroke-width="1" transform="translate(0.5, 0.5)"/><text x="192.6" y="450.6">Prometheus</text></g></g><g transform="translate(0.5,0.5)" style="visibility: visible; cursor: move;"><rect x="92.6" y="458.6" width="200" height="100" fill="#f0fff07f" stroke="#000000" pointer-events="all"/></g><g style="cursor: move;"><g fill="#774400" font-family="Arial,Helvetica" direction="" text-anchor="middle" font-size="11px"><rect fill="none" stroke="none" x="130" y="471" width="125" height="64" stroke-width="1" transform="translate(0.5, 0.5)"/><text x="192.6" y="480.6">Prometheus</text><text x="192.6" y="506.6">image: prom/prometheus</text><text x="192.6" y="519.6">command: run this</text><text x="192.6" y="532.6">restart: unless-stopped</text></g></g><g transform="translate(0.5,0.5)" style="visibility: visible; cursor: move;"><ellipse cx="107.6" cy="593.6" rx="10" ry="10" fill="#ffffd27f" stroke="#000000" pointer-events="all"/></g><g style="cursor: move;"><g fill="#774400" font-family="Arial,Helvetica" direction="" text-anchor="middle" font-size="11px"><rect fill="none" stroke="none" x="94" y="608" width="27" height="12" stroke-width="1" transform="translate(0.5, 0.5)"/><text x="107.6" y="618.1">9090</text></g></g><g transform="translate(0.5,0.5)" style="visibility: visible; cursor: move;"><rect x="97.6" y="623.6" width="90" height="25" fill="#f0f0f07f" stroke="#000000" pointer-events="all"/></g><g style="cursor: move;"><g fill="#774400" font-family="Arial,Helvetica" direction="" text-anchor="middle" font-size="11px"><rect fill="none" stroke="none" x="101" y="631" width="82" height="12" stroke-width="1" transform="translate(0.5, 0.5)"/><text x="142.6" y="640.6">/etc/prometheus</text></g></g><g transform="translate(0.5,0.5)" style="visibility: visible; cursor: move;"><rect x="197.6" y="623.6" width="77" height="25" fill="#f0f0f07f" stroke="#000000" pointer-events="all"/></g><g style="cursor: move;"><g fill="#774400" font-family="Arial,Helvetica" direction="" text-anchor="middle" font-size="11px"><rect fill="none" stroke="none" x="203" y="631" width="65" height="12" stroke-width="1" transform="translate(0.5, 0.5)"/><text x="236.1" y="640.6">/prometheus</text></g></g><g transform="translate(0.5,0.5)" style="visibility: visible; cursor: move;"><path d="M 192.6 558.6 L 192.6 566.1 Q 192.6 573.6 172.6 573.6 L 127.6 573.6 Q 107.6 573.6 107.6 575.42 L 107.6 577.23" fill="none" stroke="white" stroke-miterlimit="10" pointer-events="stroke" visibility="hidden" stroke-width="9"/><path d="M 192.6 558.6 L 192.6 566.1 Q 192.6 573.6 172.6 573.6 L 127.6 573.6 Q 107.6 573.6 107.6 575.42 L 107.6 577.23" fill="none" stroke="#000000" stroke-miterlimit="10" pointer-events="stroke"/><path d="M 107.6 582.48 L 104.1 575.48 L 107.6 577.23 L 111.1 575.48 Z" fill="#000000" stroke="#000000" stroke-miterlimit="10" pointer-events="all"/></g><g transform="translate(0.5,0.5)" style="visibility: visible; cursor: move;"><path d="M 192.6 558.6 L 192.6 566.1 Q 192.6 573.6 172.6 573.6 L 157.6 573.6 Q 142.6 573.6 142.6 593.6 L 142.6 617.23" fill="none" stroke="white" stroke-miterlimit="10" pointer-events="stroke" visibility="hidden" stroke-width="9"/><path d="M 192.6 558.6 L 192.6 566.1 Q 192.6 573.6 172.6 573.6 L 157.6 573.6 Q 142.6 573.6 142.6 593.6 L 142.6 617.23" fill="none" stroke="#000000" stroke-miterlimit="10" pointer-events="stroke"/><path d="M 142.6 622.48 L 139.1 615.48 L 142.6 617.23 L 146.1 615.48 Z" fill="#000000" stroke="#000000" stroke-miterlimit="10" pointer-events="all"/></g><g style="cursor: move;"><g fill="#000000" font-family="Arial,Helvetica" direction="" text-anchor="middle" font-size="11px"><rect fill="none" stroke="none" x="157" y="588" width="21" height="12" stroke-width="1" transform="translate(0.5, 0.5)"/><text x="167.6" y="598.1">use</text></g></g><g transform="translate(0.5,0.5)" style="visibility: visible; cursor: move;"><path d="M 192.6 558.6 L 192.6 566.1 Q 192.6 573.6 212.6 573.6 L 224.6 573.6 Q 236.6 573.6 236.6 593.6 L 236.6 617.23" fill="none" stroke="white" stroke-miterlimit="10" pointer-events="stroke" visibility="hidden" stroke-width="9"/><path d="M 192.6 558.6 L 192.6 566.1 Q 192.6 573.6 212.6 573.6 L 224.6 573.6 Q 236.6 573.6 236.6 593.6 L 236.6 617.23" fill="none" stroke="#000000" stroke-miterlimit="10" pointer-events="stroke"/><path d="M 236.6 622.48 L 233.1 615.48 L 236.6 617.23 L 240.1 615.48 Z" fill="#000000" stroke="#000000" stroke-miterlimit="10" pointer-events="all"/></g><g style="cursor: move;"><g fill="#000000" font-family="Arial,Helvetica" direction="" text-anchor="middle" font-size="11px"><rect fill="none" stroke="none" x="247" y="588" width="21" height="12" stroke-width="1" transform="translate(0.5, 0.5)"/><text x="257.6" y="598.1">use</text></g></g><g transform="translate(0.5,0.5)" style="visibility: visible; cursor: move;"><rect x="347.6" y="433.6" width="242" height="230" fill="#f1f1f17f" stroke="#000000" pointer-events="all"/></g><g style="cursor: move;"><g fill="#774400" font-family="Arial,Helvetica" direction="" text-anchor="middle" font-size="11px"><rect fill="none" stroke="none" x="447" y="441" width="43" height="12" stroke-width="1" transform="translate(0.5, 0.5)"/><text x="468.6" y="450.6">Grafana</text></g></g><g transform="translate(0.5,0.5)" style="visibility: visible; cursor: move;"><rect x="367.6" y="458.6" width="200" height="100" fill="#f0fff07f" stroke="#000000" pointer-events="all"/></g><g style="cursor: move;"><g fill="#774400" font-family="Arial,Helvetica" direction="" text-anchor="middle" font-size="11px"><rect fill="none" stroke="none" x="317" y="471" width="301" height="64" stroke-width="1" transform="translate(0.5, 0.5)"/><text x="467.6" y="480.6">Grafana</text><text x="467.6" y="506.6">image: grafana/grafana</text><text x="467.6" y="519.6">restart: unless-stopped</text><text x="467.6" y="532.6">environment: GF_SECURITY_ADMIN_PASSWORD=grafana</text></g></g><g transform="translate(0.5,0.5)" style="visibility: visible; cursor: move;"><ellipse cx="397.6" cy="583.6" rx="10" ry="10" fill="#ffffd27f" stroke="#000000" pointer-events="all"/></g><g style="cursor: move;"><g fill="#774400" font-family="Arial,Helvetica" direction="" text-anchor="middle" font-size="11px"><rect fill="none" stroke="none" x="359" y="598" width="76" height="12" stroke-width="1" transform="translate(0.5, 0.5)"/><text x="397.6" y="608.1">127.0.0.1:8080</text></g></g><g transform="translate(0.5,0.5)" style="visibility: visible; cursor: move;"><ellipse cx="537.6" cy="583.6" rx="10" ry="10" fill="#ffffd27f" stroke="#000000" pointer-events="all"/></g><g style="cursor: move;"><g fill="#774400" font-family="Arial,Helvetica" direction="" text-anchor="middle" font-size="11px"><rect fill="none" stroke="none" x="485" y="598" width="104" height="12" stroke-width="1" transform="translate(0.5, 0.5)"/><text x="537.6" y="608.1">127.0.0.1:8000-9000</text></g></g><g transform="translate(0.5,0.5)" style="visibility: visible; cursor: move;"><rect x="357.6" y="613.6" width="222" height="25" fill="#f0f0f07f" stroke="#000000" pointer-events="all"/></g><g style="cursor: move;"><g fill="#774400" font-family="Arial,Helvetica" direction="" text-anchor="middle" font-size="11px"><rect fill="none" stroke="none" x="375" y="621" width="186" height="12" stroke-width="1" transform="translate(0.5, 0.5)"/><text x="468.6" y="630.6">/etc/grafana/provisioning/datasources</text></g></g><g transform="translate(0.5,0.5)" style="visibility: visible; cursor: move;"><path d="M 467.6 558.6 L 467.6 563.6 Q 467.6 568.6 447.6 568.6 L 417.6 568.6 Q 397.6 568.6 397.6 567.92 L 397.6 567.23" fill="none" stroke="white" stroke-miterlimit="10" pointer-events="stroke" visibility="hidden" stroke-width="9"/><path d="M 467.6 558.6 L 467.6 563.6 Q 467.6 568.6 447.6 568.6 L 417.6 568.6 Q 397.6 568.6 397.6 567.92 L 397.6 567.23" fill="none" stroke="#000000" stroke-miterlimit="10" pointer-events="stroke"/><path d="M 397.6 572.48 L 394.1 565.48 L 397.6 567.23 L 401.1 565.48 Z" fill="#000000" stroke="#000000" stroke-miterlimit="10" pointer-events="all"/></g><g transform="translate(0.5,0.5)" style="visibility: visible; cursor: move;"><path d="M 467.6 558.6 L 467.6 563.6 Q 467.6 568.6 487.6 568.6 L 517.6 568.6 Q 537.6 568.6 537.6 567.92 L 537.6 567.23" fill="none" stroke="white" stroke-miterlimit="10" pointer-events="stroke" visibility="hidden" stroke-width="9"/><path d="M 467.6 558.6 L 467.6 563.6 Q 467.6 568.6 487.6 568.6 L 517.6 568.6 Q 537.6 568.6 537.6 567.92 L 537.6 567.23" fill="none" stroke="#000000" stroke-miterlimit="10" pointer-events="stroke"/><path d="M 537.6 572.48 L 534.1 565.48 L 537.6 567.23 L 541.1 565.48 Z" fill="#000000" stroke="#000000" stroke-miterlimit="10" pointer-events="all"/></g><g transform="translate(0.5,0.5)" style="visibility: visible; cursor: move;"><path d="M 467.6 558.6 L 467.6 576.1 Q 467.6 593.6 467.6 600.42 L 467.6 607.23" fill="none" stroke="white" stroke-miterlimit="10" pointer-events="stroke" visibility="hidden" stroke-width="9"/><path d="M 467.6 558.6 L 467.6 576.1 Q 467.6 593.6 467.6 600.42 L 467.6 607.23" fill="none" stroke="#000000" stroke-miterlimit="10" pointer-events="stroke"/><path d="M 467.6 612.48 L 464.1 605.48 L 467.6 607.23 L 471.1 605.48 Z" fill="#000000" stroke="#000000" stroke-miterlimit="10" pointer-events="all"/></g><g style="cursor: move;"><g fill="#000000" font-family="Arial,Helvetica" direction="" text-anchor="middle" font-size="11px"><rect fill="none" stroke="none" x="447" y="588" width="21" height="12" stroke-width="1" transform="translate(0.5, 0.5)"/><text x="457.6" y="598.1">use</text></g></g><g transform="translate(0.5,0.5)" style="visibility: visible; cursor: move;"><rect x="627.6" y="343.6" width="210" height="150" fill="#f1f1f17f" stroke="#000000" pointer-events="all"/></g><g style="cursor: move;"><g fill="#774400" font-family="Arial,Helvetica" direction="" text-anchor="middle" font-size="11px"><rect fill="none" stroke="none" x="710" y="351" width="44" height="12" stroke-width="1" transform="translate(0.5, 0.5)"/><text x="732.6" y="360.6">Datadog</text></g></g><g transform="translate(0.5,0.5)" style="visibility: visible; cursor: move;"><rect x="632.6" y="368.6" width="200" height="100" fill="#f0fff07f" stroke="#000000" pointer-events="all"/></g><g style="cursor: move;"><g fill="#774400" font-family="Arial,Helvetica" direction="" text-anchor="middle" font-size="11px"><rect fill="none" stroke="none" x="672" y="387" width="121" height="51" stroke-width="1" transform="translate(0.5, 0.5)"/><text x="732.6" y="397.1">Datadog</text><text x="732.6" y="423.1">image: datadog/datadog</text><text x="732.6" y="436.1">woof: testing</text></g></g><g transform="translate(0.5,0.5)" style="visibility: visible; cursor: move;"><ellipse cx="47.6" cy="593.6" rx="10" ry="10" fill="#ffffd27f" stroke="#000000" pointer-events="all"/></g><g style="cursor: move;"><g fill="#774400" font-family="Arial,Helvetica" direction="" text-anchor="middle" font-size="11px"><rect fill="none" stroke="none" x="34" y="608" width="27" height="12" stroke-width="1" transform="translate(0.5, 0.5)"/><text x="47.6" y="618.1">9090</text></g></g><g transform="translate(0.5,0.5)" style="visibility: visible; cursor: move;"><ellipse cx="327.6" cy="613.6" rx="10" ry="10" fill="#ffffd27f" stroke="#000000" pointer-events="all"/></g><g style="cursor: move;"><g fill="#774400" font-family="Arial,Helvetica" direction="" text-anchor="middle" font-size="11px"><rect fill="none" stroke="none" x="320" y="628" width="15" height="12" stroke-width="1" transform="translate(0.5, 0.5)"/><text x="327.6" y="638.1">80</text></g></g><g transform="translate(0.5,0.5)" style="visibility: visible; cursor: move;"><ellipse cx="637.6" cy="603.6" rx="10" ry="10" fill="#ffffd27f" stroke="#000000" pointer-events="all"/></g><g style="cursor: move;"><g fill="#774400" font-family="Arial,Helvetica" direction="" text-anchor="middle" font-size="11px"><rect fill="none" stroke="none" x="624" y="618" width="27" height="12" stroke-width="1" transform="translate(0.5, 0.5)"/><text x="637.6" y="628.1">8000</text></g></g><g transform="translate(0.5,0.5)" style="visibility: visible; cursor: move;"><rect x="97.6" y="683.6" width="84" height="25" fill="#f0f0f07f" stroke="#000000" pointer-events="all"/></g><g style="cursor: move;"><g fill="#774400" font-family="Arial,Helvetica" direction="" text-anchor="middle" font-size="11px"><rect fill="none" stroke="none" x="106" y="691" width="67" height="12" stroke-width="1" transform="translate(0.5, 0.5)"/><text x="139.6" y="700.6">./prometheus</text></g></g><g transform="translate(0.5,0.5)" style="visibility: visible; cursor: move;"><rect x="207.6" y="683.6" width="63" height="25" fill="#f0f0f07f" stroke="#000000" pointer-events="all"/></g><g style="cursor: move;"><g fill="#774400" font-family="Arial,Helvetica" direction="" text-anchor="middle" font-size="11px"><rect fill="none" stroke="none" x="211" y="691" width="57" height="12" stroke-width="1" transform="translate(0.5, 0.5)"/><text x="239.1" y="700.6">Prom_data</text></g></g><g transform="translate(0.5,0.5)" style="visibility: visible; cursor: move;"><rect x="427.6" y="683.6" width="70" height="25" fill="#f0f0f07f" stroke="#000000" pointer-events="all"/></g><g style="cursor: move;"><g fill="#774400" font-family="Arial,Helvetica" direction="" text-anchor="middle" font-size="11px"><rect fill="none" stroke="none" x="439" y="691" width="46" height="12" stroke-width="1" transform="translate(0.5, 0.5)"/><text x="462.6" y="700.6">./grafana</text></g></g><g transform="translate(0.5,0.5)" style="visibility: visible; cursor: move;"><path d="M 97.6 593.6 L 63.97 593.6" fill="none" stroke="white" stroke-miterlimit="10" pointer-events="stroke" visibility="hidden" stroke-width="9"/><path d="M 97.6 593.6 L 63.97 593.6" fill="none" stroke="#000000" stroke-miterlimit="10" pointer-events="stroke"/><path d="M 58.72 593.6 L 65.72 590.1 L 63.97 593.6 L 65.72 597.1 Z" fill="#000000" stroke="#000000" stroke-miterlimit="10" pointer-events="all"/></g><g transform="translate(0.5,0.5)" style="visibility: visible; cursor: move;"><path d="M 137.6 648.6 L 137.6 657.1 Q 137.6 665.6 138.6 665.6 L 139.1 665.6 Q 139.6 665.6 139.6 671.42 L 139.6 677.23" fill="none" stroke="white" stroke-miterlimit="10" pointer-events="stroke" visibility="hidden" stroke-width="9"/><path d="M 137.6 648.6 L 137.6 657.1 Q 137.6 665.6 138.6 665.6 L 139.1 665.6 Q 139.6 665.6 139.6 671.42 L 139.6 677.23" fill="none" stroke="#000000" stroke-miterlimit="10" pointer-events="stroke"/><path d="M 139.6 682.48 L 136.1 675.48 L 139.6 677.23 L 143.1 675.48 Z" fill="#000000" stroke="#000000" stroke-miterlimit="10" pointer-events="all"/></g><g style="cursor: move;"><g fill="#000000" font-family="Arial,Helvetica" direction="" text-anchor="middle" font-size="11px"><rect fill="none" stroke="none" x="111" y="668" width="13" height="12" stroke-width="1" transform="translate(0.5, 0.5)"/><text x="117.6" y="678.1">ro</text></g></g><g transform="translate(0.5,0.5)" style="visibility: visible; cursor: move;"><path d="M 236.1 648.6 L 236.1 657.35 Q 236.1 666.1 237.6 666.1 L 238.35 666.1 Q 239.1 666.1 239.1 671.67 L 239.1 677.23" fill="none" stroke="white" stroke-miterlimit="10" pointer-events="stroke" visibility="hidden" stroke-width="9"/><path d="M 236.1 648.6 L 236.1 657.35 Q 236.1 666.1 237.6 666.1 L 238.35 666.1 Q 239.1 666.1 239.1 671.67 L 239.1 677.23" fill="none" stroke="#000000" stroke-miterlimit="10" pointer-events="stroke"/><path d="M 239.1 682.48 L 235.6 675.48 L 239.1 677.23 L 242.6 675.48 Z" fill="#000000" stroke="#000000" stroke-miterlimit="10" pointer-events="all"/></g><g style="cursor: move;"><g fill="#000000" font-family="Arial,Helvetica" direction="" text-anchor="middle" font-size="11px"><rect fill="none" stroke="none" x="250" y="668" width="15" height="12" stroke-width="1" transform="translate(0.5, 0.5)"/><text x="257.1" y="678.1">rw</text></g></g><g transform="translate(0.5,0.5)" style="visibility: visible; cursor: move;"><path d="M 192.6 433.6 L 192.6 383.6 Q 192.6 363.6 212.6 363.6 L 387.6 363.6 Q 407.6 363.6 407.6 343.6 L 407.6 289.97" fill="none" stroke="white" stroke-miterlimit="10" pointer-events="stroke" visibility="hidden" stroke-width="9"/><path d="M 192.6 433.6 L 192.6 383.6 Q 192.6 363.6 212.6 363.6 L 387.6 363.6 Q 407.6 363.6 407.6 343.6 L 407.6 289.97" fill="none" stroke="#000000" stroke-miterlimit="10" pointer-events="stroke"/><path d="M 407.6 284.72 L 411.1 291.72 L 407.6 289.97 L 404.1 291.72 Z" fill="#000000" stroke="#000000" stroke-miterlimit="10" pointer-events="all"/></g><g style="cursor: move;"><g fill="#000000" font-family="Arial,Helvetica" direction="" text-anchor="middle" font-size="11px"><rect fill="none" stroke="none" x="315" y="338" width="84" height="12" stroke-width="1" transform="translate(0.5, 0.5)"/><text x="357.6" y="348.1">alias:['database']</text></g></g><g transform="translate(0.5,0.5)" style="visibility: visible; cursor: move;"><path d="M 192.6 433.6 L 192.6 378.6 Q 192.6 358.6 172.6 358.6 L 155.1 358.6 Q 137.6 358.6 137.6 338.6 L 137.6 289.97" fill="none" stroke="white" stroke-miterlimit="10" pointer-events="stroke" visibility="hidden" stroke-width="9"/><path d="M 192.6 433.6 L 192.6 378.6 Q 192.6 358.6 172.6 358.6 L 155.1 358.6 Q 137.6 358.6 137.6 338.6 L 137.6 289.97" fill="none" stroke="#000000" stroke-miterlimit="10" pointer-events="stroke"/><path d="M 137.6 284.72 L 141.1 291.72 L 137.6 289.97 L 134.1 291.72 Z" fill="#000000" stroke="#000000" stroke-miterlimit="10" pointer-events="all"/></g><g style="cursor: move;"><g fill="#000000" font-family="Arial,Helvetica" direction="" text-anchor="middle" font-size="11px"><rect fill="none" stroke="none" x="114" y="368" width="67" height="12" stroke-width="1" transform="translate(0.5, 0.5)"/><text x="147.6" y="378.1">alias:['mysql']</text></g></g><g transform="translate(0.5,0.5)" style="visibility: visible; cursor: move;"><path d="M 192.6 433.6 L 192.6 383.6 Q 192.6 363.6 212.6 363.6 L 257.6 363.6 Q 277.6 363.6 277.6 343.6 L 277.6 289.97" fill="none" stroke="white" stroke-miterlimit="10" pointer-events="stroke" visibility="hidden" stroke-width="9"/><path d="M 192.6 433.6 L 192.6 383.6 Q 192.6 363.6 212.6 363.6 L 257.6 363.6 Q 277.6 363.6 277.6 343.6 L 277.6 289.97" fill="none" stroke="#000000" stroke-miterlimit="10" pointer-events="stroke"/><path d="M 277.6 284.72 L 281.1 291.72 L 277.6 289.97 L 274.1 291.72 Z" fill="#000000" stroke="#000000" stroke-miterlimit="10" pointer-events="all"/></g><g style="cursor: move;"><g fill="#000000" font-family="Arial,Helvetica" direction="" text-anchor="middle" font-size="11px"><rect fill="none" stroke="none" x="196" y="318" width="83" height="12" stroke-width="1" transform="translate(0.5, 0.5)"/><text x="237.6" y="328.1">alias:['unknown']</text></g></g><g transform="translate(0.5,0.5)" style="visibility: visible; cursor: move;"><path d="M 387.6 583.6 L 372.6 583.6 Q 357.6 583.6 342.6 583.6 L 335.1 583.6 Q 327.6 583.6 327.6 590.42 L 327.6 597.23" fill="none" stroke="white" stroke-miterlimit="10" pointer-events="stroke" visibility="hidden" stroke-width="9"/><path d="M 387.6 583.6 L 372.6 583.6 Q 357.6 583.6 342.6 583.6 L 335.1 583.6 Q 327.6 583.6 327.6 590.42 L 327.6 597.23" fill="none" stroke="#000000" stroke-miterlimit="10" pointer-events="stroke"/><path d="M 327.6 602.48 L 324.1 595.48 L 327.6 597.23 L 331.1 595.48 Z" fill="#000000" stroke="#000000" stroke-miterlimit="10" pointer-events="all"/></g><g style="cursor: move;"><g fill="#000000" font-family="Arial,Helvetica" direction="" text-anchor="middle" font-size="11px"><rect fill="none" stroke="none" x="318" y="568" width="18" height="12" stroke-width="1" transform="translate(0.5, 0.5)"/><text x="327.6" y="578.1">tcp</text></g></g><g transform="translate(0.5,0.5)" style="visibility: visible; cursor: move;"><path d="M 547.6 583.6 L 617.6 583.6 Q 637.6 583.6 637.6 585.42 L 637.6 587.23" fill="none" stroke="white" stroke-miterlimit="10" pointer-events="stroke" visibility="hidden" stroke-width="9"/><path d="M 547.6 583.6 L 617.6 583.6 Q 637.6 583.6 637.6 585.42 L 637.6 587.23" fill="none" stroke="#000000" stroke-miterlimit="10" pointer-events="stroke"/><path d="M 637.6 592.48 L 634.1 585.48 L 637.6 587.23 L 641.1 585.48 Z" fill="#000000" stroke="#000000" stroke-miterlimit="10" pointer-events="all"/></g><g style="cursor: move;"><g fill="#000000" font-family="Arial,Helvetica" direction="" text-anchor="middle" font-size="11px"><rect fill="none" stroke="none" x="618" y="568" width="18" height="12" stroke-width="1" transform="translate(0.5, 0.5)"/><text x="627.6" y="578.1">tcp</text></g></g><g transform="translate(0.5,0.5)" style="visibility: visible; cursor: move;"><path d="M 468.6 638.6 L 468.6 649.6 Q 468.6 660.6 468.1 660.6 L 467.85 660.6 Q 467.6 660.6 467.6 668.92 L 467.6 677.23" fill="none" stroke="white" stroke-miterlimit="10" pointer-events="stroke" visibility="hidden" stroke-width="9"/><path d="M 468.6 638.6 L 468.6 649.6 Q 468.6 660.6 468.1 660.6 L 467.85 660.6 Q 467.6 660.6 467.6 668.92 L 467.6 677.23" fill="none" stroke="#000000" stroke-miterlimit="10" pointer-events="stroke"/><path d="M 467.6 682.48 L 464.1 675.48 L 467.6 677.23 L 471.1 675.48 Z" fill="#000000" stroke="#000000" stroke-miterlimit="10" pointer-events="all"/></g><g style="cursor: move;"><g fill="#000000" font-family="Arial,Helvetica" direction="" text-anchor="middle" font-size="11px"><rect fill="none" stroke="none" x="451" y="648" width="13" height="12" stroke-width="1" transform="translate(0.5, 0.5)"/><text x="457.6" y="658.1">ro</text></g></g><g transform="translate(0.5,0.5)" style="visibility: visible; cursor: move;"><path d="M 557.6 433.6 L 557.6 413.6 Q 557.6 393.6 557.6 373.6 L 557.6 289.97" fill="none" stroke="white" stroke-miterlimit="10" pointer-events="stroke" visibility="hidden" stroke-width="9"/><path d="M 557.6 433.6 L 557.6 413.6 Q 557.6 393.6 557.6 373.6 L 557.6 289.97" fill="none" stroke="#000000" stroke-miterlimit="10" pointer-events="stroke"/><path d="M 557.6 284.72 L 561.1 291.72 L 557.6 289.97 L 554.1 291.72 Z" fill="#000000" stroke="#000000" stroke-miterlimit="10" pointer-events="all"/></g><g style="cursor: move;"><g fill="#000000" font-family="Arial,Helvetica" direction="" text-anchor="middle" font-size="11px"><rect fill="none" stroke="none" x="534" y="353" width="47" height="12" stroke-width="1" transform="translate(0.5, 0.5)"/><text x="557.6" y="363.1">alias:['ui']</text></g></g><g transform="translate(0.5,0.5)" style="visibility: visible; cursor: move;"><path d="M 448.6 433.6 L 448.6 383.6 Q 448.6 363.6 428.6 363.6 L 418.1 363.6 Q 407.6 363.6 407.6 343.6 L 407.6 289.97" fill="none" stroke="white" stroke-miterlimit="10" pointer-events="stroke" visibility="hidden" stroke-width="9"/><path d="M 448.6 433.6 L 448.6 383.6 Q 448.6 363.6 428.6 363.6 L 418.1 363.6 Q 407.6 363.6 407.6 343.6 L 407.6 289.97" fill="none" stroke="#000000" stroke-miterlimit="10" pointer-events="stroke"/><path d="M 407.6 284.72 L 411.1 291.72 L 407.6 289.97 L 404.1 291.72 Z" fill="#000000" stroke="#000000" stroke-miterlimit="10" pointer-events="all"/></g></g><g/><g/></g></svg>