<?xml version="1.0" encoding="us-ascii" standalone="no"?><svg xmlns="http://www.w3.org/2000/svg" xmlns:xlink="http://www.w3.org/1999/xlink" contentStyleType="text/css" height="1367px" preserveAspectRatio="none" style="width:1356px;height:1367px;background:#FFFFFF;" version="1.1" viewBox="0 0 1356 1367" width="1356px" zoomAndPan="magnify"><defs/><g><!--cluster e4f00638b8a10e6994e67af2f832d51c--><g id="cluster_e4f00638b8a10e6994e67af2f832d51c"><polygon fill="none" points="155,233.54,165,223.54,429,223.54,429,1241.69,419,1251.69,155,1251.69,155,233.54" style="stroke:#181818;stroke-width:1.0;"/><line style="stroke:#181818;stroke-width:1.0;" x1="419" x2="429" y1="233.54" y2="223.54"/><line style="stroke:#181818;stroke-width:1.0;" x1="155" x2="419" y1="233.54" y2="233.54"/><line style="stroke:#181818;stroke-width:1.0;" x1="419" x2="419" y1="233.54" y2="1251.69"/><text fill="#000000" font-family="sans-serif" font-size="14" font-weight="bold" lengthAdjust="spacing" textLength="96" x="240" y="249.5351">Prometheus</text></g><!--cluster d9c0e52dd15274d51041b489c7cea0ad--><g id="cluster_d9c0e52dd15274d51041b489c7cea0ad"><polygon fill="none" points="535,224.19,545,214.19,1025,214.19,1025,988.4,1015,998.4,535,998.4,535,224.19" style="stroke:#181818;stroke-width:1.0;"/><line style="stroke:#181818;stroke-width:1.0;" x1="1015" x2="1025" y1="224.19" y2="214.19"/><line style="stroke:#181818;stroke-width:1.0;" x1="535" x2="1015" y1="224.19" y2="224.19"/><line style="stroke:#181818;stroke-width:1.0;" x1="1015" x2="1015" y1="224.19" y2="998.4"/><text fill="#000000" font-family="sans-serif" font-size="14" font-weight="bold" lengthAdjust="spacing" textLength="62" x="745" y="240.1851">Grafana</text></g><!--cluster 587516af1efac0b9293f31639c6c31f3--><g id="cluster_587516af1efac0b9293f31639c6c31f3"><polygon fill="none" points="1097,16,1107,6,1339,6,1339,147.19,1329,157.19,1097,157.19,1097,16" style="stroke:#181818;stroke-width:1.0;"/><line style="stroke:#181818;stroke-width:1.0;" x1="1329" x2="1339" y1="16" y2="6"/><line style="stroke:#181818;stroke-width:1.0;" x1="1097" x2="1329" y1="16" y2="16"/><line style="stroke:#181818;stroke-width:1.0;" x1="1329" x2="1329" y1="16" y2="157.19"/><text fill="#000000" font-family="sans-serif" font-size="14" font-weight="bold" lengthAdjust="spacing" textLength="65" x="1181.5" y="31.9951">Datadog</text></g><!--entity b0b6236e8ab49920c48d10f339f1a86a--><g id="elem_b0b6236e8ab49920c48d10f339f1a86a"><rect fill="#F1F1F1" height="111.4844" rx="2.5" ry="2.5" style="stroke:#181818;stroke-width:0.5;" width="217" x="179.5" y="753.26"/><rect fill="#F1F1F1" height="10" style="stroke:#181818;stroke-width:0.5;" width="15" x="376.5" y="758.26"/><rect fill="#F1F1F1" height="2" style="stroke:#181818;stroke-width:0.5;" width="4" x="374.5" y="760.26"/><rect fill="#F1F1F1" height="2" style="stroke:#181818;stroke-width:0.5;" width="4" x="374.5" y="764.26"/><text fill="#000000" font-family="sans-serif" font-size="14" font-weight="bold" lengthAdjust="spacing" textLength="96" x="194.5" y="786.2551">prometheus</text><text fill="#000000" font-family="sans-serif" font-size="14" lengthAdjust="spacing" textLength="4" x="194.5" y="802.552">&#160;</text><text fill="#000000" font-family="sans-serif" font-size="14" lengthAdjust="spacing" textLength="177" x="194.5" y="818.8489">image: prom/prometheus</text><text fill="#000000" font-family="sans-serif" font-size="14" lengthAdjust="spacing" textLength="163" x="194.5" y="835.1457">restart: unless-stopped</text><text fill="#000000" font-family="sans-serif" font-size="14" lengthAdjust="spacing" textLength="4" x="194.5" y="851.4426">&#160;</text></g><!--entity cfd4d43463526be4db6bd372951d8018--><g id="elem_cfd4d43463526be4db6bd372951d8018"><ellipse cx="216" cy="954.75" fill="#F1F1F1" rx="8" ry="8" style="stroke:#181818;stroke-width:0.5;"/><text fill="#000000" font-family="sans-serif" font-size="14" lengthAdjust="spacing" textLength="36" x="198" y="984.7451">9090</text></g><!--entity b8365f95fd8d51fff10d734d11af5400--><g id="elem_b8365f95fd8d51fff10d734d11af5400"><rect fill="#F1F1F1" height="39.2969" rx="2.5" ry="2.5" style="stroke:#181818;stroke-width:0.5;" width="147" x="196.5" y="271.54"/><polygon fill="#F1F1F1" points="326.5,276.54,326.5,290.54,338.5,290.54,338.5,282.54,332.5,276.54,326.5,276.54" style="stroke:#181818;stroke-width:0.5;"/><line style="stroke:#181818;stroke-width:0.5;" x1="332.5" x2="332.5" y1="276.54" y2="282.54"/><line style="stroke:#181818;stroke-width:0.5;" x1="338.5" x2="332.5" y1="282.54" y2="282.54"/><text fill="#000000" font-family="sans-serif" font-size="14" lengthAdjust="spacing" textLength="117" x="206.5" y="297.5351">/etc/prometheus</text></g><!--entity 66ea46159f158592d153eec2b58bfad1--><g id="elem_66ea46159f158592d153eec2b58bfad1"><rect fill="#F1F1F1" height="39.2969" rx="2.5" ry="2.5" style="stroke:#181818;stroke-width:0.5;" width="120" x="228" y="1188.4"/><polygon fill="#F1F1F1" points="331,1193.4,331,1207.4,343,1207.4,343,1199.4,337,1193.4,331,1193.4" style="stroke:#181818;stroke-width:0.5;"/><line style="stroke:#181818;stroke-width:0.5;" x1="337" x2="337" y1="1193.4" y2="1199.4"/><line style="stroke:#181818;stroke-width:0.5;" x1="343" x2="337" y1="1199.4" y2="1199.4"/><text fill="#000000" font-family="sans-serif" font-size="14" lengthAdjust="spacing" textLength="90" x="238" y="1214.3951">/prometheus</text></g><!--entity ca625ae68e4d4a58f9ba859ff3420557--><g id="elem_ca625ae68e4d4a58f9ba859ff3420557"><rect fill="#F1F1F1" height="144.0781" rx="2.5" ry="2.5" style="stroke:#181818;stroke-width:0.5;" width="434" x="559" y="397.19"/><rect fill="#F1F1F1" height="10" style="stroke:#181818;stroke-width:0.5;" width="15" x="973" y="402.19"/><rect fill="#F1F1F1" height="2" style="stroke:#181818;stroke-width:0.5;" width="4" x="971" y="404.19"/><rect fill="#F1F1F1" height="2" style="stroke:#181818;stroke-width:0.5;" width="4" x="971" y="408.19"/><text fill="#000000" font-family="sans-serif" font-size="14" font-weight="bold" lengthAdjust="spacing" textLength="60" x="574" y="430.1851">grafana</text><text fill="#000000" font-family="sans-serif" font-size="14" lengthAdjust="spacing" textLength="4" x="574" y="446.482">&#160;</text><text fill="#000000" font-family="sans-serif" font-size="14" lengthAdjust="spacing" textLength="158" x="574" y="462.7789">image: grafana/grafana</text><text fill="#000000" font-family="sans-serif" font-size="14" lengthAdjust="spacing" textLength="163" x="574" y="479.0757">restart: unless-stopped</text><text fill="#000000" font-family="sans-serif" font-size="14" lengthAdjust="spacing" textLength="342" x="574" y="495.3726">environment: GF_SECURITY_ADMIN_USER=admin</text><text fill="#000000" font-family="sans-serif" font-size="14" lengthAdjust="spacing" textLength="394" x="574" y="511.6695">environment: GF_SECURITY_ADMIN_PASSWORD=grafana</text><text fill="#000000" font-family="sans-serif" font-size="14" lengthAdjust="spacing" textLength="4" x="574" y="527.9664">&#160;</text></g><!--entity 9f18a5ea59196197837bdbfebede13e8--><g id="elem_9f18a5ea59196197837bdbfebede13e8"><ellipse cx="849" cy="291.19" fill="#F1F1F1" rx="8" ry="8" style="stroke:#181818;stroke-width:0.5;"/><text fill="#000000" font-family="sans-serif" font-size="14" lengthAdjust="spacing" textLength="107" x="795.5" y="321.1851">127.0.0.1:8080</text></g><!--entity e5b1c7fcc1453c77b2f0388027659c6e--><g id="elem_e5b1c7fcc1453c77b2f0388027659c6e"><ellipse cx="650" cy="647.26" fill="#F1F1F1" rx="8" ry="8" style="stroke:#181818;stroke-width:0.5;"/><text fill="#000000" font-family="sans-serif" font-size="14" lengthAdjust="spacing" textLength="148" x="576" y="677.2551">127.0.0.1:8000-9000</text></g><!--entity de82fbad4c9eebe0bd6d2fe66a3fe0aa--><g id="elem_de82fbad4c9eebe0bd6d2fe66a3fe0aa"><rect fill="#F1F1F1" height="39.2969" rx="2.5" ry="2.5" style="stroke:#181818;stroke-width:0.5;" width="292" x="630" y="935.1"/><polygon fill="#F1F1F1" points="905,940.1,905,954.1,917,954.1,917,946.1,911,940.1,905,940.1" style="stroke:#181818;stroke-width:0.5;"/><line style="stroke:#181818;stroke-width:0.5;" x1="911" x2="911" y1="940.1" y2="946.1"/><line style="stroke:#181818;stroke-width:0.5;" x1="917" x2="911" y1="946.1" y2="946.1"/><text fill="#000000" font-family="sans-serif" font-size="14" lengthAdjust="spacing" textLength="262" x="640" y="961.0951">/etc/grafana/provisioning/datasources</text></g><!--entity cfb8a5b7ebe0f6a517a5ae436a93d5d8--><g id="elem_cfb8a5b7ebe0f6a517a5ae436a93d5d8"><rect fill="#F1F1F1" height="95.1875" rx="2.5" ry="2.5" style="stroke:#181818;stroke-width:0.5;" width="210" x="1113" y="46"/><rect fill="#F1F1F1" height="10" style="stroke:#181818;stroke-width:0.5;" width="15" x="1303" y="51"/><rect fill="#F1F1F1" height="2" style="stroke:#181818;stroke-width:0.5;" width="4" x="1301" y="53"/><rect fill="#F1F1F1" height="2" style="stroke:#181818;stroke-width:0.5;" width="4" x="1301" y="57"/><text fill="#000000" font-family="sans-serif" font-size="14" font-weight="bold" lengthAdjust="spacing" textLength="64" x="1128" y="78.9951">datadog</text><text fill="#000000" font-family="sans-serif" font-size="14" lengthAdjust="spacing" textLength="4" x="1128" y="95.292">&#160;</text><text fill="#000000" font-family="sans-serif" font-size="14" lengthAdjust="spacing" textLength="170" x="1128" y="111.5889">image: datadog/datadog</text><text fill="#000000" font-family="sans-serif" font-size="14" lengthAdjust="spacing" textLength="4" x="1128" y="127.8857">&#160;</text></g><!--entity d9fe74bd71c5f1efd83d8f6cfdd7bef5--><g id="elem_d9fe74bd71c5f1efd83d8f6cfdd7bef5"><polygon fill="#F1F1F1" points="956.5,72.29,966.5,62.29,1077.5,62.29,1077.5,114.8837,1067.5,124.8837,956.5,124.8837,956.5,72.29" style="stroke:#181818;stroke-width:0.5;"/><line style="stroke:#181818;stroke-width:0.5;" x1="1067.5" x2="1077.5" y1="72.29" y2="62.29"/><line style="stroke:#181818;stroke-width:0.5;" x1="956.5" x2="1067.5" y1="72.29" y2="72.29"/><line style="stroke:#181818;stroke-width:0.5;" x1="1067.5" x2="1067.5" y1="72.29" y2="124.8837"/><text fill="#000000" font-family="sans-serif" font-size="14" font-weight="bold" lengthAdjust="spacing" textLength="81" x="971.5" y="95.2851">fFornt-tier</text><text fill="#000000" font-family="sans-serif" font-size="14" lengthAdjust="spacing" textLength="74" x="971.5" y="111.582">&#171;network&#187;</text></g><!--entity cab64c5af73a02ce213c72c614ccdc8f--><g id="elem_cab64c5af73a02ce213c72c614ccdc8f"><polygon fill="#F1F1F1" points="582,72.29,592,62.29,696,62.29,696,114.8837,686,124.8837,582,124.8837,582,72.29" style="stroke:#181818;stroke-width:0.5;"/><line style="stroke:#181818;stroke-width:0.5;" x1="686" x2="696" y1="72.29" y2="62.29"/><line style="stroke:#181818;stroke-width:0.5;" x1="582" x2="686" y1="72.29" y2="72.29"/><line style="stroke:#181818;stroke-width:0.5;" x1="686" x2="686" y1="72.29" y2="124.8837"/><text fill="#000000" font-family="sans-serif" font-size="14" font-weight="bold" lengthAdjust="spacing" textLength="70" x="597" y="95.2851">back-tier</text><text fill="#000000" font-family="sans-serif" font-size="14" lengthAdjust="spacing" textLength="74" x="597" y="111.582">&#171;network&#187;</text></g><!--entity 21232f297a57a5a743894a0e4a801fc3--><g id="elem_21232f297a57a5a743894a0e4a801fc3"><polygon fill="#F1F1F1" points="398,72.29,408,62.29,512,62.29,512,114.8837,502,124.8837,398,124.8837,398,72.29" style="stroke:#181818;stroke-width:0.5;"/><line style="stroke:#181818;stroke-width:0.5;" x1="502" x2="512" y1="72.29" y2="62.29"/><line style="stroke:#181818;stroke-width:0.5;" x1="398" x2="502" y1="72.29" y2="72.29"/><line style="stroke:#181818;stroke-width:0.5;" x1="502" x2="502" y1="72.29" y2="124.8837"/><text fill="#000000" font-family="sans-serif" font-size="14" font-weight="bold" lengthAdjust="spacing" textLength="47" x="413" y="95.2851">admin</text><text fill="#000000" font-family="sans-serif" font-size="14" lengthAdjust="spacing" textLength="74" x="413" y="111.582">&#171;network&#187;</text></g><!--entity 5e543256c480ac577d30f76f9120eb74--><g id="elem_5e543256c480ac577d30f76f9120eb74"><polygon fill="#F1F1F1" points="243,72.29,253,62.29,363,62.29,363,114.8837,353,124.8837,243,124.8837,243,72.29" style="stroke:#181818;stroke-width:0.5;"/><line style="stroke:#181818;stroke-width:0.5;" x1="353" x2="363" y1="72.29" y2="62.29"/><line style="stroke:#181818;stroke-width:0.5;" x1="243" x2="353" y1="72.29" y2="72.29"/><line style="stroke:#181818;stroke-width:0.5;" x1="353" x2="353" y1="72.29" y2="124.8837"/><text fill="#000000" font-family="sans-serif" font-size="14" font-weight="bold" lengthAdjust="spacing" textLength="80" x="258" y="95.2851">undefined</text><text fill="#000000" font-family="sans-serif" font-size="14" lengthAdjust="spacing" textLength="74" x="258" y="111.582">&#171;network&#187;</text></g><!--entity 267de027b65a807d2138ee534426efa5--><g id="elem_267de027b65a807d2138ee534426efa5"><ellipse cx="104" cy="1098.4" fill="#F1F1F1" rx="8" ry="8" style="stroke:#181818;stroke-width:0.5;"/><text fill="#000000" font-family="sans-serif" font-size="14" lengthAdjust="spacing" textLength="36" x="86" y="1128.3951">9090</text></g><!--entity dba3f4d0bb5aa6fcfa18da2c1f7a9775--><g id="elem_dba3f4d0bb5aa6fcfa18da2c1f7a9775"><ellipse cx="1076" cy="469.22" fill="#F1F1F1" rx="8" ry="8" style="stroke:#181818;stroke-width:0.5;"/><text fill="#000000" font-family="sans-serif" font-size="14" lengthAdjust="spacing" textLength="18" x="1067" y="499.2151">80</text></g><!--entity 1624c420083928ef3e240dd88f2e52f0--><g id="elem_1624c420083928ef3e240dd88f2e52f0"><ellipse cx="484" cy="809.01" fill="#F1F1F1" rx="8" ry="8" style="stroke:#181818;stroke-width:0.5;"/><text fill="#000000" font-family="sans-serif" font-size="14" lengthAdjust="spacing" textLength="36" x="466" y="839.0051">8000</text></g><!--entity 2a4ddbecb762532586835d0f37d85eaf--><g id="elem_2a4ddbecb762532586835d0f37d85eaf"><rect fill="#F1F1F1" height="39.2969" rx="2.5" ry="2.5" style="stroke:#181818;stroke-width:0.5;" width="124" x="7" y="449.58"/><polygon fill="#F1F1F1" points="114,454.58,114,468.58,126,468.58,126,460.58,120,454.58,114,454.58" style="stroke:#181818;stroke-width:0.5;"/><line style="stroke:#181818;stroke-width:0.5;" x1="120" x2="120" y1="454.58" y2="460.58"/><line style="stroke:#181818;stroke-width:0.5;" x1="126" x2="120" y1="460.58" y2="460.58"/><text fill="#000000" font-family="sans-serif" font-size="14" lengthAdjust="spacing" textLength="94" x="17" y="475.5751">./prometheus</text></g><!--entity a1448c8b5db83ada398e734ef1d3277c--><g id="elem_a1448c8b5db83ada398e734ef1d3277c"><rect fill="#F1F1F1" height="39.2969" rx="2.5" ry="2.5" style="stroke:#181818;stroke-width:0.5;" width="103" x="236.5" y="1322.69"/><polygon fill="#F1F1F1" points="322.5,1327.69,322.5,1341.69,334.5,1341.69,334.5,1333.69,328.5,1327.69,322.5,1327.69" style="stroke:#181818;stroke-width:0.5;"/><line style="stroke:#181818;stroke-width:0.5;" x1="328.5" x2="328.5" y1="1327.69" y2="1333.69"/><line style="stroke:#181818;stroke-width:0.5;" x1="334.5" x2="328.5" y1="1333.69" y2="1333.69"/><text fill="#000000" font-family="sans-serif" font-size="14" lengthAdjust="spacing" textLength="73" x="246.5" y="1348.6851">prom_data</text></g><!--entity eec695b1c6be435e7982afe506db7e49--><g id="elem_eec695b1c6be435e7982afe506db7e49"><rect fill="#F1F1F1" height="39.2969" rx="2.5" ry="2.5" style="stroke:#181818;stroke-width:0.5;" width="90" x="731" y="1078.75"/><polygon fill="#F1F1F1" points="804,1083.75,804,1097.75,816,1097.75,816,1089.75,810,1083.75,804,1083.75" style="stroke:#181818;stroke-width:0.5;"/><line style="stroke:#181818;stroke-width:0.5;" x1="810" x2="810" y1="1083.75" y2="1089.75"/><line style="stroke:#181818;stroke-width:0.5;" x1="816" x2="810" y1="1089.75" y2="1089.75"/><text fill="#000000" font-family="sans-serif" font-size="14" lengthAdjust="spacing" textLength="60" x="741" y="1104.7451">./grafana</text></g><!--link b0b6236e8ab49920c48d10f339f1a86a to cfd4d43463526be4db6bd372951d8018--><g id="link_b0b6236e8ab49920c48d10f339f1a86a_cfd4d43463526be4db6bd372951d8018"><path codeLine="46" d="M260.37,865.17 C244.98,895.89 227.44,930.92 219.84,946.08 " fill="none" id="b0b6236e8ab49920c48d10f339f1a86a-cfd4d43463526be4db6bd372951d8018" style="stroke:#181818;stroke-width:1.0;"/></g><!--link cfd4d43463526be4db6bd372951d8018 to 267de027b65a807d2138ee534426efa5--><g id="link_cfd4d43463526be4db6bd372951d8018_267de027b65a807d2138ee534426efa5"><path codeLine="47" d="M209.98,963.36 C190.53,987.96 129.54,1065.09 110.05,1089.74 " fill="none" id="cfd4d43463526be4db6bd372951d8018-267de027b65a807d2138ee534426efa5" style="stroke:#181818;stroke-width:1.0;"/></g><!--link b8365f95fd8d51fff10d734d11af5400 to 2a4ddbecb762532586835d0f37d85eaf--><g id="link_b8365f95fd8d51fff10d734d11af5400_2a4ddbecb762532586835d0f37d85eaf"><path codeLine="48" d="M248.49,311.02 C209.9,344.82 129.35,415.37 90.66,449.25 " fill="none" id="b8365f95fd8d51fff10d734d11af5400-2a4ddbecb762532586835d0f37d85eaf" style="stroke:#181818;stroke-width:1.0;"/><text fill="#000000" font-family="sans-serif" font-size="13" lengthAdjust="spacing" textLength="13" x="201" y="363.2569">ro</text></g><!--reverse link b8365f95fd8d51fff10d734d11af5400 to b0b6236e8ab49920c48d10f339f1a86a--><g id="link_b8365f95fd8d51fff10d734d11af5400_b0b6236e8ab49920c48d10f339f1a86a"><path codeLine="49" d="M270.8691,317.1564 C273.3691,388.8564 282.1,639.04 286.08,752.84 " fill="none" id="b8365f95fd8d51fff10d734d11af5400-backto-b0b6236e8ab49920c48d10f339f1a86a" style="stroke:#181818;stroke-width:1.0;stroke-dasharray:7.0,7.0;"/><polygon fill="#181818" points="270.66,311.16,266.976,320.2939,270.8342,316.157,274.9712,320.0151,270.66,311.16" style="stroke:#181818;stroke-width:1.0;"/><text fill="#000000" font-family="sans-serif" font-size="13" lengthAdjust="spacing" textLength="23" x="282" y="584.3269">use</text></g><!--link 66ea46159f158592d153eec2b58bfad1 to a1448c8b5db83ada398e734ef1d3277c--><g id="link_66ea46159f158592d153eec2b58bfad1_a1448c8b5db83ada398e734ef1d3277c"><path codeLine="50" d="M288,1228 C288,1253.15 288,1297.29 288,1322.42 " fill="none" id="66ea46159f158592d153eec2b58bfad1-a1448c8b5db83ada398e734ef1d3277c" style="stroke:#181818;stroke-width:1.0;"/><text fill="#000000" font-family="sans-serif" font-size="13" lengthAdjust="spacing" textLength="14" x="289" y="1288.7569">rw</text></g><!--link b0b6236e8ab49920c48d10f339f1a86a to 66ea46159f158592d153eec2b58bfad1--><g id="link_b0b6236e8ab49920c48d10f339f1a86a_66ea46159f158592d153eec2b58bfad1"><path codeLine="51" d="M288,865.21 C288,955.56 288,1124.69 288,1182.23 " fill="none" id="b0b6236e8ab49920c48d10f339f1a86a-to-66ea46159f158592d153eec2b58bfad1" style="stroke:#181818;stroke-width:1.0;stroke-dasharray:7.0,7.0;"/><polygon fill="#181818" points="288,1188.23,292,1179.23,288,1183.23,284,1179.23,288,1188.23" style="stroke:#181818;stroke-width:1.0;"/><text fill="#000000" font-family="sans-serif" font-size="13" lengthAdjust="spacing" textLength="23" x="289" y="1035.4669">use</text></g><!--reverse link cab64c5af73a02ce213c72c614ccdc8f to e4f00638b8a10e6994e67af2f832d51c--><g id="link_cab64c5af73a02ce213c72c614ccdc8f_e4f00638b8a10e6994e67af2f832d51c"><path codeLine="52" d="M603.2149,129.3085 C583.4849,148.2785 561.69,168.87 538,190.19 C512.97,212.705 484.235,237.28 461.5063,256.4338 C450.1419,266.0106 440.2791,274.2322 433.1317,280.1633 C432.2383,280.9047 431.3873,281.6103 430.5811,282.2782 C430.178,282.6122 429.7861,282.9368 429.4057,283.2518 C429.3106,283.3305 429.2163,283.4087 429.1226,283.4862 " fill="none" id="cab64c5af73a02ce213c72c614ccdc8f-backto-e4f00638b8a10e6994e67af2f832d51c" style="stroke:#181818;stroke-width:1.0;"/><polygon fill="#181818" points="607.54,125.15,598.28,128.5044,603.9357,128.6154,603.8247,134.2712,607.54,125.15" style="stroke:#181818;stroke-width:1.0;"/><text fill="#000000" font-family="sans-serif" font-size="13" lengthAdjust="spacing" textLength="109" x="555" y="186.2569">alias:['database']</text></g><!--reverse link 21232f297a57a5a743894a0e4a801fc3 to e4f00638b8a10e6994e67af2f832d51c--><g id="link_21232f297a57a5a743894a0e4a801fc3_e4f00638b8a10e6994e67af2f832d51c"><path codeLine="53" d="M448.6617,131.0612 C443.9517,158.1362 437.9575,192.6275 432.0388,226.68 C431.2989,230.9366 430.5763,235.0939 429.8776,239.1136 C429.703,240.1185 429.5298,241.1148 429.3582,242.102 C429.2724,242.5955 429.187,243.0868 429.1021,243.5757 " fill="none" id="21232f297a57a5a743894a0e4a801fc3-backto-e4f00638b8a10e6994e67af2f832d51c" style="stroke:#181818;stroke-width:1.0;"/><polygon fill="#181818" points="449.69,125.15,444.2067,133.3313,448.8331,130.076,452.0883,134.7024,449.69,125.15" style="stroke:#181818;stroke-width:1.0;"/><text fill="#000000" font-family="sans-serif" font-size="13" lengthAdjust="spacing" textLength="87" x="442" y="186.2569">alias:['mysql']</text></g><!--reverse link 5e543256c480ac577d30f76f9120eb74 to e4f00638b8a10e6994e67af2f832d51c--><g id="link_5e543256c480ac577d30f76f9120eb74_e4f00638b8a10e6994e67af2f832d51c"><path codeLine="54" d="M301.5414,131.1173 C302.1914,152.6073 306.78,174.28 325,190.19 C339.79,203.1 399.14,184.27 413,198.19 C416.5638,201.7675 419.3716,205.8575 421.5555,210.2797 C422.6475,212.4908 423.5835,214.785 424.3801,217.1396 C424.7784,218.317 425.1418,219.5094 425.4724,220.7142 C425.6377,221.3166 425.7949,221.9221 425.944,222.5303 C426.0186,222.8344 426.0912,223.1391 426.1619,223.4445 " fill="none" id="5e543256c480ac577d30f76f9120eb74-backto-e4f00638b8a10e6994e67af2f832d51c" style="stroke:#181818;stroke-width:1.0;"/><polygon fill="#181818" points="301.36,125.12,297.6339,134.2368,301.5112,130.1177,305.6303,133.995,301.36,125.12" style="stroke:#181818;stroke-width:1.0;"/><text fill="#000000" font-family="sans-serif" font-size="13" lengthAdjust="spacing" textLength="105" x="326" y="186.2569">alias:['unknown']</text></g><!--link 9f18a5ea59196197837bdbfebede13e8 to ca625ae68e4d4a58f9ba859ff3420557--><g id="link_9f18a5ea59196197837bdbfebede13e8_ca625ae68e4d4a58f9ba859ff3420557"><path codeLine="55" d="M845.86,299.75 C838.85,316.66 821.27,359.05 805.51,397.07 " fill="none" id="9f18a5ea59196197837bdbfebede13e8-ca625ae68e4d4a58f9ba859ff3420557" style="stroke:#181818;stroke-width:1.0;"/></g><!--link 9f18a5ea59196197837bdbfebede13e8 to dba3f4d0bb5aa6fcfa18da2c1f7a9775--><g id="link_9f18a5ea59196197837bdbfebede13e8_dba3f4d0bb5aa6fcfa18da2c1f7a9775"><path codeLine="56" d="M857.82,296.99 C882.82,310.82 955.79,352.57 1009,397.19 C1033.68,417.88 1058.63,446.99 1069.86,460.62 " fill="none" id="9f18a5ea59196197837bdbfebede13e8-dba3f4d0bb5aa6fcfa18da2c1f7a9775" style="stroke:#181818;stroke-width:1.0;"/><text fill="#000000" font-family="sans-serif" font-size="13" lengthAdjust="spacing" textLength="20" x="968" y="363.2569">tcp</text></g><!--link ca625ae68e4d4a58f9ba859ff3420557 to e5b1c7fcc1453c77b2f0388027659c6e--><g id="link_ca625ae68e4d4a58f9ba859ff3420557_e5b1c7fcc1453c77b2f0388027659c6e"><path codeLine="57" d="M724.93,541.57 C697.92,579.31 667.87,621.3 655.64,638.39 " fill="none" id="ca625ae68e4d4a58f9ba859ff3420557-e5b1c7fcc1453c77b2f0388027659c6e" style="stroke:#181818;stroke-width:1.0;"/></g><!--link e5b1c7fcc1453c77b2f0388027659c6e to 1624c420083928ef3e240dd88f2e52f0--><g id="link_e5b1c7fcc1453c77b2f0388027659c6e_1624c420083928ef3e240dd88f2e52f0"><path codeLine="58" d="M641.99,655.97 C613.89,683.02 519.91,773.45 491.93,800.38 " fill="none" id="e5b1c7fcc1453c77b2f0388027659c6e-1624c420083928ef3e240dd88f2e52f0" style="stroke:#181818;stroke-width:1.0;"/><text fill="#000000" font-family="sans-serif" font-size="13" lengthAdjust="spacing" textLength="20" x="587" y="719.3269">tcp</text></g><!--link de82fbad4c9eebe0bd6d2fe66a3fe0aa to eec695b1c6be435e7982afe506db7e49--><g id="link_de82fbad4c9eebe0bd6d2fe66a3fe0aa_eec695b1c6be435e7982afe506db7e49"><path codeLine="59" d="M776,974.85 C776,1002.04 776,1051.58 776,1078.6 " fill="none" id="de82fbad4c9eebe0bd6d2fe66a3fe0aa-eec695b1c6be435e7982afe506db7e49" style="stroke:#181818;stroke-width:1.0;"/><text fill="#000000" font-family="sans-serif" font-size="13" lengthAdjust="spacing" textLength="13" x="777" y="1035.4669">ro</text></g><!--link ca625ae68e4d4a58f9ba859ff3420557 to de82fbad4c9eebe0bd6d2fe66a3fe0aa--><g id="link_ca625ae68e4d4a58f9ba859ff3420557_de82fbad4c9eebe0bd6d2fe66a3fe0aa"><path codeLine="60" d="M776,541.57 C776,655.05 776,864.47 776,929.02 " fill="none" id="ca625ae68e4d4a58f9ba859ff3420557-to-de82fbad4c9eebe0bd6d2fe66a3fe0aa" style="stroke:#181818;stroke-width:1.0;stroke-dasharray:7.0,7.0;"/><polygon fill="#181818" points="776,935.02,780,926.02,776,930.02,772,926.02,776,935.02" style="stroke:#181818;stroke-width:1.0;"/><text fill="#000000" font-family="sans-serif" font-size="13" lengthAdjust="spacing" textLength="23" x="777" y="719.3269">use</text></g><!--reverse link d9fe74bd71c5f1efd83d8f6cfdd7bef5 to d9c0e52dd15274d51041b489c7cea0ad--><g id="link_d9fe74bd71c5f1efd83d8f6cfdd7bef5_d9c0e52dd15274d51041b489c7cea0ad"><path codeLine="61" d="M1017,131.15 C1017,144.6875 1017,155.5569 1017,173.2984 C1017,182.1692 1017,191.258 1017,200.2575 C1017,204.7572 1017,209.2345 1017,213.6511 " fill="none" id="d9fe74bd71c5f1efd83d8f6cfdd7bef5-backto-d9c0e52dd15274d51041b489c7cea0ad" style="stroke:#181818;stroke-width:1.0;"/><polygon fill="#181818" points="1017,125.15,1013,134.15,1017,130.15,1021,134.15,1017,125.15" style="stroke:#181818;stroke-width:1.0;"/><text fill="#000000" font-family="sans-serif" font-size="13" lengthAdjust="spacing" textLength="60" x="1018" y="186.2569">alias:['ui']</text></g><!--reverse link cab64c5af73a02ce213c72c614ccdc8f to d9c0e52dd15274d51041b489c7cea0ad--><g id="link_cab64c5af73a02ce213c72c614ccdc8f_d9c0e52dd15274d51041b489c7cea0ad"><path codeLine="62" d="M702.3198,108.2093 C801.1298,129.9493 988.8,173.83 1009,198.19 C1012.2238,202.0775 1014.7753,206.4011 1016.7713,210.9946 C1017.0208,211.5688 1017.2616,212.1472 1017.494,212.7295 C1017.6101,213.0207 1017.7242,213.3128 1017.8362,213.6058 C1017.8922,213.7524 1017.9477,213.8991 1018.0026,214.0461 " fill="none" id="cab64c5af73a02ce213c72c614ccdc8f-backto-d9c0e52dd15274d51041b489c7cea0ad" style="stroke:#181818;stroke-width:1.0;"/><polygon fill="#181818" points="696.46,106.92,704.3903,112.7605,701.3432,107.9944,706.1093,104.9473,696.46,106.92" style="stroke:#181818;stroke-width:1.0;"/></g><!--SRC=[ZLPPQnn747wVNp7iYvE5bVe-X2qmyO4VaXWf9WJ7YEgkAcMHTaRPmqe8_k_fcJsoKcnQxB83lLLV7L_LrmEtj_tzOlxNlBjkkXwfdKod_APVTklPUaxBwVJtxldpZjRt_VBc_7pImgh5oEHDGY-pPKcCGMDWbndH9s9xm4cGRxw9aY4vaosmro1K9YLrzYexQNB67FY00hYOTrz3K59fnIfwiEKBtkWG3GWo48Jah0y8cmw9vntXrr0iMQELTTa40TbwZrgmTnob4fIysQ6yN_OBMlz1czNeHOQ5S3ga05AGYz6Gyy2AWrPePMx_QThSB-xwZhfrcqHoIZiAa4oCIfHOA0Lh7Lb2SD1-RARJkqE4wRHfvWkufhDsE3pzxvzcIQirBDTdxQQxfTLgjbhtTtU4JVEf-UxxTX955DlkCXeqsZXjbKjaCBc4sgje9PRkXAQ0p1dokfsSqZeVXHZTKz3EShI5sr8DCqk1NXkK4jWQ8OxT7xawHs2SjAKq6snKAAqcoYhPa1XGDbzs7Nsx18OETYEL1Lc5nLXvKq8A8vC9CVjC800VjZE3KnR8XLAN0Hiu9YYXcBLHmbe_jlDw2t_Kozt9wUxvpLvIztc-xBj52NNMldrpTVdwXmyNxtxvxUhbgn_V_NJruVBrnOjnA6kMxrzUNlxwyyMh5_k8EvQayYUYVEHP467BL-bM04jWeunEHX-qJvYO4Y59JU5_VaBCOldP3gDDCdlEMHfRbiWdnKA789HtDcP7ZydUDw8mztc-clTTMVvJX3Mi-iqoqvP7fA0u0PeSgQGX4ZfKJCw1PX801nvV5KVihxVB5BoL3WPLW2nIL56pbawNBBAMh1_no6LzRF83F3kmSbXZCjf1r6WnZ3pY5lw8nzt9wUuvTFNBm-bNpYELyfEpHGiy5cq9H5ORerp9p8xMkyvZAWKP52bP0CUPGGO4bILxYDxlRNUjbawPNAPC11rL8DQaZ40CWLMPNpvUZ9F7cw7082RAoPVnBP8JND0MYmnu38LwFl8TFA-6-aP7aCQ479B5ifU0e6EWiet44hNoFZy8UdsqLcNlN1o6Ov00RSd7e8392eUbwoOsLM6QuQok9JM34QNAIKrpjYYL7hPdxMJPJ-g5dPniJaxEgq8tu6rMD6bgiZPcLoDgpEx-ITdXa5qrw3wxwdKqsypEgrVk00UtSrYTVNms35-25Jtxz5JqsdLyZBxuU_NdxTEXQtVqCVIck-dw-su0hzuJ1Rokl3M3aVcQYWmPhlFTKt8gQ5L1hncCA3MjEkHKa_fjJXKjsMzUjS3TR5U3xcUx-cumZaZjfVJ1YCo7wNWQRcrd_WK0]--></g></svg>