<svg xmlns="http://www.w3.org/2000/svg" style="left: 0px; top: 0px; width: 100%; height: 100%; display: block; min-width: 832px; min-height: 596px;"><g><g/><g><g transform="translate(0.5,0.5)" style="visibility: visible;"><rect x="471" y="10" width="100" height="50" fill="#b5f5ff7f" stroke="#000000" pointer-events="all"/></g><g style=""><g fill="#774400" font-family="Arial,Helvetica" direction="" text-anchor="middle" font-size="11px"><rect fill="none" stroke="none" x="487" y="23" width="67" height="26" stroke-width="1" transform="translate(0.5, 0.5)"/><text x="521" y="33">Front-tier</text><text x="521" y="46">&lt;&lt;network&gt;&gt;</text></g></g><g transform="translate(0.5,0.5)" style="visibility: visible;"><rect x="321" y="10" width="100" height="50" fill="#b5f5ff7f" stroke="#000000" pointer-events="all"/></g><g style=""><g fill="#774400" font-family="Arial,Helvetica" direction="" text-anchor="middle" font-size="11px"><rect fill="none" stroke="none" x="337" y="23" width="67" height="26" stroke-width="1" transform="translate(0.5, 0.5)"/><text x="371" y="33">Back-tier</text><text x="371" y="46">&lt;&lt;network&gt;&gt;</text></g></g><g transform="translate(0.5,0.5)" style="visibility: visible;"><rect x="201" y="10" width="100" height="50" fill="#b5f5ff7f" stroke="#000000" pointer-events="all"/></g><g style=""><g fill="#774400" font-family="Arial,Helvetica" direction="" text-anchor="middle" font-size="11px"><rect fill="none" stroke="none" x="217" y="23" width="67" height="26" stroke-width="1" transform="translate(0.5, 0.5)"/><text x="251" y="33">Admin</text><text x="251" y="46">&lt;&lt;network&gt;&gt;</text></g></g><g transform="translate(0.5,0.5)" style="visibility: visible;"><rect x="11" y="10" width="100" height="50" fill="#b5f5ff7f" stroke="#000000" pointer-events="all"/></g><g style=""><g fill="#774400" font-family="Arial,Helvetica" direction="" text-anchor="middle" font-size="11px"><rect fill="none" stroke="none" x="27" y="23" width="67" height="26" stroke-width="1" transform="translate(0.5, 0.5)"/><text x="61" y="33">Undefined</text><text x="61" y="46">&lt;&lt;network&gt;&gt;</text></g></g><g transform="translate(0.5,0.5)" style="visibility: visible;"><rect x="1" y="250" width="300" height="290" fill="#f1f1f17f" stroke="#000000" pointer-events="all"/></g><g style=""><g fill="#774400" font-family="Arial,Helvetica" direction="" text-anchor="middle" font-size="11px"><rect fill="none" stroke="none" x="120" y="257" width="62" height="12" stroke-width="1" transform="translate(0.5, 0.5)"/><text x="151" y="267">Prometheus</text></g></g><g transform="translate(0.5,0.5)" style="visibility: visible;"><rect x="11" y="275" width="280" height="100" fill="#f0fff07f" stroke="#000000" pointer-events="all"/></g><g style=""><g fill="#774400" font-family="Arial,Helvetica" direction="" text-anchor="middle" font-size="11px"><rect fill="none" stroke="none" x="12" y="287" width="277" height="64" stroke-width="1" transform="translate(0.5, 0.5)"/><text x="151" y="297">Prometheus</text><text x="151" y="323">image: prom/prometheus</text><text x="151" y="336">command: --config.file=/etc/prometheus/prometheus.yml</text><text x="151" y="349">restart: unless-stopped</text></g></g><g transform="translate(0.5,0.5)" style="visibility: visible;"><ellipse cx="251" cy="430" rx="10" ry="10" fill="#ffffd27f" stroke="#000000" pointer-events="all"/></g><g style=""><g fill="#774400" font-family="Arial,Helvetica" direction="" text-anchor="middle" font-size="11px"><rect fill="none" stroke="none" x="237" y="444" width="27" height="12" stroke-width="1" transform="translate(0.5, 0.5)"/><text x="251" y="454.5">9090</text></g></g><g transform="translate(0.5,0.5)" style="visibility: visible;"><rect x="171" y="480" width="90" height="25" fill="#f0f0f07f" stroke="#000000" pointer-events="all"/></g><g style=""><g fill="#774400" font-family="Arial,Helvetica" direction="" text-anchor="middle" font-size="11px"><rect fill="none" stroke="none" x="174" y="487" width="82" height="12" stroke-width="1" transform="translate(0.5, 0.5)"/><text x="216" y="497">/etc/prometheus</text></g></g><g transform="translate(0.5,0.5)" style="visibility: visible;"><rect x="41" y="480" width="77" height="25" fill="#f0f0f07f" stroke="#000000" pointer-events="all"/></g><g style=""><g fill="#774400" font-family="Arial,Helvetica" direction="" text-anchor="middle" font-size="11px"><rect fill="none" stroke="none" x="47" y="487" width="65" height="12" stroke-width="1" transform="translate(0.5, 0.5)"/><text x="79.5" y="497">/prometheus</text></g></g><g transform="translate(0.5,0.5)" style="visibility: visible;"><path d="M 151 375 L 151 386.25 Q 151 397.5 171 397.5 L 231 397.5 Q 251 397.5 251 408.75 L 251 420" fill="none" stroke="white" stroke-miterlimit="10" pointer-events="stroke" visibility="hidden" stroke-width="9"/><path d="M 151 375 L 151 386.25 Q 151 397.5 171 397.5 L 231 397.5 Q 251 397.5 251 408.75 L 251 420" fill="none" stroke="#000000" stroke-miterlimit="10" pointer-events="stroke"/></g><g transform="translate(0.5,0.5)" style="visibility: visible;"><path d="M 151 375 L 151 407.5 Q 151 427.5 171 427.5 L 196 427.5 Q 216 427.5 216 447.5 L 216 471.88" fill="none" stroke="white" stroke-miterlimit="10" pointer-events="stroke" visibility="hidden" stroke-width="9"/><path d="M 151 375 L 151 407.5 Q 151 427.5 171 427.5 L 196 427.5 Q 216 427.5 216 447.5 L 216 471.88" fill="none" stroke="#000000" stroke-miterlimit="10" stroke-dasharray="3 3" pointer-events="stroke"/><path d="M 216 478.88 L 212.5 471.88 L 219.5 471.88 Z" fill="#000000" stroke="#000000" stroke-miterlimit="10" pointer-events="all"/></g><g style=""><g fill="#000000" font-family="Arial,Helvetica" direction="" text-anchor="middle" font-size="11px"><rect fill="#ffffff" stroke="none" x="173" y="422" width="21" height="12" stroke-width="1" transform="translate(0.5, 0.5)"/><text x="183.5" y="432">use</text></g></g><g transform="translate(0.5,0.5)" style="visibility: visible;"><path d="M 151 375 L 151 407.5 Q 151 427.5 131 427.5 L 99.5 427.5 Q 79.5 427.5 79.5 447.5 L 79.5 471.88" fill="none" stroke="white" stroke-miterlimit="10" pointer-events="stroke" visibility="hidden" stroke-width="9"/><path d="M 151 375 L 151 407.5 Q 151 427.5 131 427.5 L 99.5 427.5 Q 79.5 427.5 79.5 447.5 L 79.5 471.88" fill="none" stroke="#000000" stroke-miterlimit="10" stroke-dasharray="3 3" pointer-events="stroke"/><path d="M 79.5 478.88 L 76 471.88 L 83 471.88 Z" fill="#000000" stroke="#000000" stroke-miterlimit="10" pointer-events="all"/></g><g style=""><g fill="#000000" font-family="Arial,Helvetica" direction="" text-anchor="middle" font-size="11px"><rect fill="#ffffff" stroke="none" x="105" y="422" width="21" height="12" stroke-width="1" transform="translate(0.5, 0.5)"/><text x="115.5" y="432">use</text></g></g><g transform="translate(0.5,0.5)" style="visibility: visible; cursor: move;"><rect x="411" y="250" width="340" height="290" fill="#f1f1f17f" stroke="#000000" pointer-events="all"/></g><g style="cursor: move;"><g fill="#774400" font-family="Arial,Helvetica" direction="" text-anchor="middle" font-size="11px"><rect fill="none" stroke="none" x="560" y="257" width="43" height="12" stroke-width="1" transform="translate(0.5, 0.5)"/><text x="581" y="267">Grafana</text></g></g><g transform="translate(0.5,0.5)" style="visibility: visible; cursor: move;"><rect x="421" y="275" width="320" height="100" fill="#f0fff07f" stroke="#000000" pointer-events="all"/></g><g style="cursor: move;"><g fill="#774400" font-family="Arial,Helvetica" direction="" text-anchor="middle" font-size="11px"><rect fill="none" stroke="none" x="430" y="280" width="301" height="77" stroke-width="1" transform="translate(0.5, 0.5)"/><text x="581" y="290.5">Grafana</text><text x="581" y="316.5">image: grafana/grafana</text><text x="581" y="329.5">restart: unless-stopped</text><text x="581" y="342.5">environment: GF_SECURITY_ADMIN_USER=admin</text><text x="581" y="355.5">environment: GF_SECURITY_ADMIN_PASSWORD=grafana</text></g></g><g transform="translate(0.5,0.5)" style="visibility: visible;"><ellipse cx="491" cy="430" rx="10" ry="10" fill="#ffffd27f" stroke="#000000" pointer-events="all"/></g><g style=""><g fill="#774400" font-family="Arial,Helvetica" direction="" text-anchor="middle" font-size="11px"><rect fill="none" stroke="none" x="453" y="444" width="76" height="12" stroke-width="1" transform="translate(0.5, 0.5)"/><text x="491" y="454.5">127.0.0.1:8080</text></g></g><g transform="translate(0.5,0.5)" style="visibility: visible;"><ellipse cx="681" cy="430" rx="10" ry="10" fill="#ffffd27f" stroke="#000000" pointer-events="all"/></g><g style=""><g fill="#774400" font-family="Arial,Helvetica" direction="" text-anchor="middle" font-size="11px"><rect fill="none" stroke="none" x="629" y="444" width="104" height="12" stroke-width="1" transform="translate(0.5, 0.5)"/><text x="681" y="454.5">127.0.0.1:8000-9000</text></g></g><g transform="translate(0.5,0.5)" style="visibility: visible;"><rect x="471" y="480" width="222" height="25" fill="#f0f0f07f" stroke="#000000" pointer-events="all"/></g><g style=""><g fill="#774400" font-family="Arial,Helvetica" direction="" text-anchor="middle" font-size="11px"><rect fill="none" stroke="none" x="488" y="487" width="186" height="12" stroke-width="1" transform="translate(0.5, 0.5)"/><text x="582" y="497">/etc/grafana/provisioning/datasources</text></g></g><g transform="translate(0.5,0.5)" style="visibility: visible;"><path d="M 581 375 L 581 386.25 Q 581 397.5 561 397.5 L 511 397.5 Q 491 397.5 491 408.75 L 491 420" fill="none" stroke="white" stroke-miterlimit="10" pointer-events="stroke" visibility="hidden" stroke-width="9"/><path d="M 581 375 L 581 386.25 Q 581 397.5 561 397.5 L 511 397.5 Q 491 397.5 491 408.75 L 491 420" fill="none" stroke="#000000" stroke-miterlimit="10" pointer-events="stroke"/></g><g transform="translate(0.5,0.5)" style="visibility: visible;"><path d="M 581 375 L 581 386.25 Q 581 397.5 601 397.5 L 661 397.5 Q 681 397.5 681 408.75 L 681 420" fill="none" stroke="white" stroke-miterlimit="10" pointer-events="stroke" visibility="hidden" stroke-width="9"/><path d="M 581 375 L 581 386.25 Q 581 397.5 601 397.5 L 661 397.5 Q 681 397.5 681 408.75 L 681 420" fill="none" stroke="#000000" stroke-miterlimit="10" pointer-events="stroke"/></g><g transform="translate(0.5,0.5)" style="visibility: visible;"><path d="M 581 375 L 581 407.5 Q 581 427.5 581.5 427.5 L 581.75 427.5 Q 582 427.5 582 447.5 L 582 471.88" fill="none" stroke="white" stroke-miterlimit="10" pointer-events="stroke" visibility="hidden" stroke-width="9"/><path d="M 581 375 L 581 407.5 Q 581 427.5 581.5 427.5 L 581.75 427.5 Q 582 427.5 582 447.5 L 582 471.88" fill="none" stroke="#000000" stroke-miterlimit="10" stroke-dasharray="3 3" pointer-events="stroke"/><path d="M 582 478.88 L 578.5 471.88 L 585.5 471.88 Z" fill="#000000" stroke="#000000" stroke-miterlimit="10" pointer-events="all"/></g><g style=""><g fill="#000000" font-family="Arial,Helvetica" direction="" text-anchor="middle" font-size="11px"><rect fill="#ffffff" stroke="none" x="571" y="422" width="21" height="12" stroke-width="1" transform="translate(0.5, 0.5)"/><text x="581.5" y="432">use</text></g></g><g transform="translate(0.5,0.5)" style="visibility: visible; cursor: move;"><rect x="611" y="80" width="220" height="150" fill="#f1f1f17f" stroke="#000000" pointer-events="all"/></g><g style="cursor: move;"><g fill="#774400" font-family="Arial,Helvetica" direction="" text-anchor="middle" font-size="11px"><rect fill="none" stroke="none" x="706" y="87" width="30" height="12" stroke-width="1" transform="translate(0.5, 0.5)"/><text x="721" y="97">Woof</text></g></g><g transform="translate(0.5,0.5)" style="visibility: visible; cursor: move;"><rect x="621" y="105" width="200" height="100" fill="#f0fff07f" stroke="#000000" pointer-events="all"/></g><g style="cursor: move;"><g fill="#774400" font-family="Arial,Helvetica" direction="" text-anchor="middle" font-size="11px"><rect fill="none" stroke="none" x="660" y="130" width="121" height="38" stroke-width="1" transform="translate(0.5, 0.5)"/><text x="721" y="140">Datadog</text><text x="721" y="166">image: datadog/datadog</text></g></g><g transform="translate(0.5,0.5)" style="visibility: visible;"><ellipse cx="321" cy="430" rx="10" ry="10" fill="#ffffd27f" stroke="#000000" pointer-events="all"/></g><g style=""><g fill="#774400" font-family="Arial,Helvetica" direction="" text-anchor="middle" font-size="11px"><rect fill="none" stroke="none" x="307" y="444" width="27" height="12" stroke-width="1" transform="translate(0.5, 0.5)"/><text x="321" y="454.5">9090</text></g></g><g transform="translate(0.5,0.5)" style="visibility: visible;"><ellipse cx="381" cy="430" rx="10" ry="10" fill="#ffffd27f" stroke="#000000" pointer-events="all"/></g><g style=""><g fill="#774400" font-family="Arial,Helvetica" direction="" text-anchor="middle" font-size="11px"><rect fill="none" stroke="none" x="373" y="444" width="15" height="12" stroke-width="1" transform="translate(0.5, 0.5)"/><text x="381" y="454.5">80</text></g></g><g transform="translate(0.5,0.5)" style="visibility: visible;"><ellipse cx="801" cy="430" rx="10" ry="10" fill="#ffffd27f" stroke="#000000" pointer-events="all"/></g><g style=""><g fill="#774400" font-family="Arial,Helvetica" direction="" text-anchor="middle" font-size="11px"><rect fill="none" stroke="none" x="787" y="444" width="27" height="12" stroke-width="1" transform="translate(0.5, 0.5)"/><text x="801" y="454.5">8000</text></g></g><g transform="translate(0.5,0.5)" style="visibility: visible;"><rect x="161" y="570" width="84" height="25" fill="#f0f0f07f" stroke="#000000" pointer-events="all"/></g><g style=""><g fill="#774400" font-family="Arial,Helvetica" direction="" text-anchor="middle" font-size="11px"><rect fill="none" stroke="none" x="169" y="577" width="67" height="12" stroke-width="1" transform="translate(0.5, 0.5)"/><text x="203" y="587">./prometheus</text></g></g><g transform="translate(0.5,0.5)" style="visibility: visible;"><rect x="41" y="570" width="63" height="25" fill="#f0f0f07f" stroke="#000000" pointer-events="all"/></g><g style=""><g fill="#774400" font-family="Arial,Helvetica" direction="" text-anchor="middle" font-size="11px"><rect fill="none" stroke="none" x="44" y="577" width="57" height="12" stroke-width="1" transform="translate(0.5, 0.5)"/><text x="72.5" y="587">Prom_data</text></g></g><g transform="translate(0.5,0.5)" style="visibility: visible;"><rect x="551" y="570" width="63" height="25" fill="#f0f0f07f" stroke="#000000" pointer-events="all"/></g><g style=""><g fill="#774400" font-family="Arial,Helvetica" direction="" text-anchor="middle" font-size="11px"><rect fill="none" stroke="none" x="559" y="577" width="46" height="12" stroke-width="1" transform="translate(0.5, 0.5)"/><text x="582.5" y="587">./grafana</text></g></g><g transform="translate(0.5,0.5)" style="visibility: visible;"><path d="M 261 430 L 311 430" fill="none" stroke="white" stroke-miterlimit="10" pointer-events="stroke" visibility="hidden" stroke-width="9"/><path d="M 261 430 L 311 430" fill="none" stroke="#000000" stroke-miterlimit="10" pointer-events="stroke"/></g><g transform="translate(0.5,0.5)" style="visibility: visible;"><path d="M 216 505 L 216 521.25 Q 216 537.5 209.5 537.5 L 206.25 537.5 Q 203 537.5 203 553.75 L 203 570" fill="none" stroke="white" stroke-miterlimit="10" pointer-events="stroke" visibility="hidden" stroke-width="9"/><path d="M 216 505 L 216 521.25 Q 216 537.5 209.5 537.5 L 206.25 537.5 Q 203 537.5 203 553.75 L 203 570" fill="none" stroke="#000000" stroke-miterlimit="10" pointer-events="stroke"/></g><g style=""><g fill="#000000" font-family="Arial,Helvetica" direction="" text-anchor="middle" font-size="11px"><rect fill="#ffffff" stroke="none" x="203" y="532" width="13" height="12" stroke-width="1" transform="translate(0.5, 0.5)"/><text x="209.5" y="542">ro</text></g></g><g transform="translate(0.5,0.5)" style="visibility: visible;"><path d="M 79.5 505 L 79.5 521.25 Q 79.5 537.5 76 537.5 L 74.25 537.5 Q 72.5 537.5 72.5 553.75 L 72.5 570" fill="none" stroke="white" stroke-miterlimit="10" pointer-events="stroke" visibility="hidden" stroke-width="9"/><path d="M 79.5 505 L 79.5 521.25 Q 79.5 537.5 76 537.5 L 74.25 537.5 Q 72.5 537.5 72.5 553.75 L 72.5 570" fill="none" stroke="#000000" stroke-miterlimit="10" pointer-events="stroke"/></g><g style=""><g fill="#000000" font-family="Arial,Helvetica" direction="" text-anchor="middle" font-size="11px"><rect fill="#ffffff" stroke="none" x="69" y="532" width="15" height="12" stroke-width="1" transform="translate(0.5, 0.5)"/><text x="76" y="542">rw</text></g></g><g transform="translate(0.5,0.5)" style="visibility: visible;"><path d="M 301 395 L 351 395 Q 371 395 371 375 L 371 68.12" fill="none" stroke="white" stroke-miterlimit="10" pointer-events="stroke" visibility="hidden" stroke-width="9"/><path d="M 301 395 L 351 395 Q 371 395 371 375 L 371 68.12" fill="none" stroke="#000000" stroke-miterlimit="10" pointer-events="stroke"/><path d="M 371 61.12 L 374.5 68.12 L 367.5 68.12 Z" fill="#000000" stroke="#000000" stroke-miterlimit="10" pointer-events="all"/></g><g style=""><g fill="#000000" font-family="Arial,Helvetica" direction="" text-anchor="middle" font-size="11px"><rect fill="#ffffff" stroke="none" x="329" y="256" width="84" height="12" stroke-width="1" transform="translate(0.5, 0.5)"/><text x="371" y="266.5">alias:['database']</text></g></g><g transform="translate(0.5,0.5)" style="visibility: visible;"><path d="M 151 250 L 151 175 Q 151 155 171 155 L 231 155 Q 251 155 251 135 L 251 68.12" fill="none" stroke="white" stroke-miterlimit="10" pointer-events="stroke" visibility="hidden" stroke-width="9"/><path d="M 151 250 L 151 175 Q 151 155 171 155 L 231 155 Q 251 155 251 135 L 251 68.12" fill="none" stroke="#000000" stroke-miterlimit="10" pointer-events="stroke"/><path d="M 251 61.12 L 254.5 68.12 L 247.5 68.12 Z" fill="#000000" stroke="#000000" stroke-miterlimit="10" pointer-events="all"/></g><g style=""><g fill="#000000" font-family="Arial,Helvetica" direction="" text-anchor="middle" font-size="11px"><rect fill="#ffffff" stroke="none" x="167" y="149" width="67" height="12" stroke-width="1" transform="translate(0.5, 0.5)"/><text x="201" y="159.5">alias:['mysql']</text></g></g><g transform="translate(0.5,0.5)" style="visibility: visible;"><path d="M 151 250 L 151 175 Q 151 155 131 155 L 81 155 Q 61 155 61 135 L 61 68.12" fill="none" stroke="white" stroke-miterlimit="10" pointer-events="stroke" visibility="hidden" stroke-width="9"/><path d="M 151 250 L 151 175 Q 151 155 131 155 L 81 155 Q 61 155 61 135 L 61 68.12" fill="none" stroke="#000000" stroke-miterlimit="10" pointer-events="stroke"/><path d="M 61 61.12 L 64.5 68.12 L 57.5 68.12 Z" fill="#000000" stroke="#000000" stroke-miterlimit="10" pointer-events="all"/></g><g style=""><g fill="#000000" font-family="Arial,Helvetica" direction="" text-anchor="middle" font-size="11px"><rect fill="#ffffff" stroke="none" x="64" y="149" width="83" height="12" stroke-width="1" transform="translate(0.5, 0.5)"/><text x="106" y="159.5">alias:['unknown']</text></g></g><g transform="translate(0.5,0.5)" style="visibility: visible;"><path d="M 481 430 L 391 430" fill="none" stroke="white" stroke-miterlimit="10" pointer-events="stroke" visibility="hidden" stroke-width="9"/><path d="M 481 430 L 391 430" fill="none" stroke="#000000" stroke-miterlimit="10" pointer-events="stroke"/></g><g style=""><g fill="#000000" font-family="Arial,Helvetica" direction="" text-anchor="middle" font-size="11px"><rect fill="#ffffff" stroke="none" x="426" y="424" width="18" height="12" stroke-width="1" transform="translate(0.5, 0.5)"/><text x="436" y="434.5">tcp</text></g></g><g transform="translate(0.5,0.5)" style="visibility: visible;"><path d="M 691 430 L 791 430" fill="none" stroke="white" stroke-miterlimit="10" pointer-events="stroke" visibility="hidden" stroke-width="9"/><path d="M 691 430 L 791 430" fill="none" stroke="#000000" stroke-miterlimit="10" pointer-events="stroke"/></g><g style=""><g fill="#000000" font-family="Arial,Helvetica" direction="" text-anchor="middle" font-size="11px"><rect fill="#ffffff" stroke="none" x="731" y="424" width="18" height="12" stroke-width="1" transform="translate(0.5, 0.5)"/><text x="741" y="434.5">tcp</text></g></g><g transform="translate(0.5,0.5)" style="visibility: visible;"><path d="M 582 505 L 582 521.25 Q 582 537.5 582.25 537.5 L 582.38 537.5 Q 582.5 537.5 582.5 553.75 L 582.5 570" fill="none" stroke="white" stroke-miterlimit="10" pointer-events="stroke" visibility="hidden" stroke-width="9"/><path d="M 582 505 L 582 521.25 Q 582 537.5 582.25 537.5 L 582.38 537.5 Q 582.5 537.5 582.5 553.75 L 582.5 570" fill="none" stroke="#000000" stroke-miterlimit="10" pointer-events="stroke"/></g><g style=""><g fill="#000000" font-family="Arial,Helvetica" direction="" text-anchor="middle" font-size="11px"><rect fill="#ffffff" stroke="none" x="576" y="532" width="13" height="12" stroke-width="1" transform="translate(0.5, 0.5)"/><text x="582.5" y="542">ro</text></g></g><g transform="translate(0.5,0.5)" style="visibility: visible;"><path d="M 581 250 L 581 175 Q 581 155 561 155 L 541 155 Q 521 155 521 135 L 521 68.12" fill="none" stroke="white" stroke-miterlimit="10" pointer-events="stroke" visibility="hidden" stroke-width="9"/><path d="M 581 250 L 581 175 Q 581 155 561 155 L 541 155 Q 521 155 521 135 L 521 68.12" fill="none" stroke="#000000" stroke-miterlimit="10" pointer-events="stroke"/><path d="M 521 61.12 L 524.5 68.12 L 517.5 68.12 Z" fill="#000000" stroke="#000000" stroke-miterlimit="10" pointer-events="all"/></g><g style=""><g fill="#000000" font-family="Arial,Helvetica" direction="" text-anchor="middle" font-size="11px"><rect fill="#ffffff" stroke="none" x="527" y="149" width="47" height="12" stroke-width="1" transform="translate(0.5, 0.5)"/><text x="551" y="159.5">alias:['ui']</text></g></g><g transform="translate(0.5,0.5)" style="visibility: visible;"><path d="M 581 250 L 581 175 Q 581 155 561 155 L 391 155 Q 371 155 371 135 L 371 68.12" fill="none" stroke="white" stroke-miterlimit="10" pointer-events="stroke" visibility="hidden" stroke-width="9"/><path d="M 581 250 L 581 175 Q 581 155 561 155 L 391 155 Q 371 155 371 135 L 371 68.12" fill="none" stroke="#000000" stroke-miterlimit="10" pointer-events="stroke"/><path d="M 371 61.12 L 374.5 68.12 L 367.5 68.12 Z" fill="#000000" stroke="#000000" stroke-miterlimit="10" pointer-events="all"/></g></g><g/><g/></g></svg>